<?xml version="1.0" standalone="no"?>
<!DOCTYPE svg PUBLIC "-//W3C//DTD SVG 1.1//EN" "http://www.w3.org/Graphics/SVG/1.1/DTD/svg11.dtd" >
<svg xmlns="http://www.w3.org/2000/svg" xmlns:xlink="http://www.w3.org/1999/xlink" version="1.1">
<metadata></metadata>
<defs>
<font id="ciscosansheavyoblique" horiz-adv-x="1228" >
<font-face units-per-em="2048" ascent="1618" descent="-430" />
<missing-glyph horiz-adv-x="458" />
<glyph horiz-adv-x="0" />
<glyph horiz-adv-x="0" />
<glyph horiz-adv-x="682" />
<glyph unicode="&#xd;" horiz-adv-x="458" />
<glyph unicode=" "  horiz-adv-x="458" />
<glyph unicode="&#x09;" horiz-adv-x="458" />
<glyph unicode="&#xa0;" horiz-adv-x="458" />
<glyph unicode="!" horiz-adv-x="661" d="M33 0l78 371h430l-78 -371h-430zM168 496l162 991h469l-262 -991h-369z" />
<glyph unicode="&#x22;" horiz-adv-x="1019" d="M264 961l35 321l45 205h320l-46 -205l-100 -321h-254zM678 961l37 321l43 205h319l-45 -205l-98 -321h-256z" />
<glyph unicode="#" d="M59 0l93 313h-93l56 262h112l86 283h-96l55 262h119l94 314h318l-94 -314h188l94 314h318l-95 -314h93l-56 -262h-114l-86 -283h98l-55 -262h-121l-92 -313h-316l92 313h-188l-94 -313h-316zM545 575h188l86 283h-188z" />
<glyph unicode="$" d="M2 420q0 5 1 15.5t1 15.5h412q0 -88 57.5 -139.5t159.5 -51.5q87 0 129.5 38t42.5 101q0 62 -61.5 104.5t-194.5 78.5q-197 54 -299.5 158.5t-102.5 252.5q0 414 504 463l51 242h340l-53 -256q157 -36 241.5 -140t84.5 -249v-27h-402q0 67 -56.5 103t-131.5 36 q-64 0 -99.5 -28.5t-35.5 -81.5q0 -55 48.5 -93.5t156.5 -64.5q233 -57 344.5 -160t111.5 -256q0 -104 -30.5 -188t-96 -153t-179 -111.5t-269.5 -53.5l-53 -251h-340l57 272q-91 24 -158.5 70.5t-105.5 105.5t-56 120.5t-18 127.5z" />
<glyph unicode="%" horiz-adv-x="1740" d="M166 1063q0 182 108.5 291.5t290.5 109.5q157 0 245.5 -82.5t88.5 -224.5q0 -179 -108.5 -290t-292.5 -111q-157 0 -244.5 82.5t-87.5 224.5zM283 0l1005 1434h305l-1005 -1434h-305zM436 1063q0 -109 78 -109q53 0 84 55.5t31 143.5q0 113 -80 113q-53 0 -83 -60.5 t-30 -142.5zM981 274q0 182 109 292t290 110q157 0 245.5 -81.5t88.5 -223.5q0 -179 -108.5 -290.5t-292.5 -111.5q-157 0 -244.5 81.5t-87.5 223.5zM1251 279q0 -111 80 -111q53 0 82 55t29 144q0 110 -78 110q-52 0 -82.5 -59t-30.5 -139z" />
<glyph unicode="&#x26;" horiz-adv-x="1402" d="M51 319q0 263 332 416q-111 129 -111 289q0 65 17 126t56 119t97 100.5t147 68.5t199 26q102 0 181 -26.5t125 -71t69 -98t23 -113.5q0 -62 -19 -117.5t-47.5 -96.5t-76.5 -83.5t-89.5 -71t-103.5 -67.5l119 -129q31 47 71 153l334 -45q-61 -186 -196 -356l143 -168 l-283 -217l-120 141q-176 -129 -396 -129q-227 0 -349 96.5t-122 253.5zM463 354q0 -55 38 -84.5t99 -29.5q85 0 154 53l-197 221q-51 -39 -72.5 -76.5t-21.5 -83.5zM633 1063q0 -67 49 -131q86 58 120 106.5t34 104.5q0 42 -23.5 63t-58.5 21q-56 0 -88.5 -47.5 t-32.5 -116.5z" />
<glyph unicode="'" horiz-adv-x="552" d="M264 961l37 321l45 205h318l-43 -205l-101 -321h-256z" />
<glyph unicode="(" horiz-adv-x="696" d="M68 328q0 654 577 1331h326q-149 -205 -246.5 -364t-170 -323t-104.5 -324t-32 -339q0 -309 117 -657h-326q-61 127 -101 304.5t-40 371.5z" />
<glyph unicode=")" horiz-adv-x="696" d="M-166 -348q305 429 423 724t118 603q0 320 -123 680h326q63 -135 106 -315t43 -375q0 -187 -53 -385t-140 -369.5t-181 -311t-195 -251.5h-324z" />
<glyph unicode="*" horiz-adv-x="1017" d="M205 1055l106 327l219 -127l-59 250h344l-53 -252l223 129l107 -327l-258 -21l190 -170l-279 -202l-98 235l-98 -235l-279 204l189 168z" />
<glyph unicode="+" d="M178 510l62 289h303l65 307h318l-66 -307h305l-59 -289h-307l-66 -311h-317l67 311h-305z" />
<glyph unicode="," horiz-adv-x="552" d="M-125 -360l37 180q88 11 145 56.5t74 123.5h-143l78 371h432l-70 -326q-44 -204 -180.5 -296.5t-372.5 -108.5z" />
<glyph unicode="-" horiz-adv-x="1105" d="M162 512l61 287h809l-61 -287h-809z" />
<glyph unicode="." horiz-adv-x="620" d="M12 0l78 371h432l-78 -371h-432z" />
<glyph unicode="/" horiz-adv-x="696" d="M-154 -184l772 1689h336l-774 -1689h-334z" />
<glyph unicode="0" d="M84 481q0 74 8.5 154.5t31.5 178.5t57.5 187.5t92 175t130.5 148.5t177.5 101t227.5 38q220 0 346.5 -130t126.5 -380q0 -76 -10 -159.5t-34.5 -180.5t-61.5 -187t-95.5 -174.5t-131.5 -146.5t-174.5 -99.5t-219.5 -37.5q-218 0 -344.5 131.5t-126.5 380.5zM479 416 q0 -180 113 -180q58 0 109 61t84 153t57 200.5t34.5 202t10.5 159.5q0 190 -115 190q-53 0 -101.5 -59t-82.5 -149.5t-59 -198t-37.5 -206.5t-12.5 -173z" />
<glyph unicode="1" d="M283 905l73 350l387 179h363l-303 -1434h-395l225 1063z" />
<glyph unicode="2" d="M27 0l63 305l414 313q230 174 311.5 268t81.5 187q0 50 -29.5 78.5t-76.5 28.5q-56 0 -104 -43.5t-81 -130.5h-407q75 212 246.5 335t394.5 123q209 0 336 -100.5t127 -255.5v-12q0 -48 -9 -91.5t-31.5 -88.5t-49.5 -84.5t-75.5 -89t-95.5 -92t-123.5 -103t-146.5 -112.5 t-176 -130h539l-62 -305h-1046z" />
<glyph unicode="3" d="M53 356q0 31 2 47h394v-22q0 -63 36 -99t99 -36q76 0 129 56.5t53 164.5q0 71 -47.5 109t-112.5 38h-166l58 260h170q80 0 142 56t62 155q0 47 -27.5 72t-70.5 25q-47 0 -93.5 -33t-74.5 -96h-383q71 195 228.5 303t379.5 108q203 0 327 -86.5t124 -234.5 q0 -142 -89.5 -243t-231.5 -138q96 -27 152 -108t56 -185q0 -96 -40.5 -184.5t-116.5 -159.5t-196.5 -113.5t-268.5 -42.5q-227 0 -360.5 107.5t-133.5 279.5z" />
<glyph unicode="4" d="M25 260l63 295l617 879h555l-189 -893h146l-58 -281h-147l-56 -260h-381l54 260h-604zM467 541h221l8 34l142 525z" />
<glyph unicode="5" d="M90 373q0 2 1 14t1 14h383q1 -76 37 -114.5t94 -38.5q57 0 102.5 48.5t68 117.5t22.5 141q0 76 -37.5 114t-102.5 38q-36 0 -80 -19.5t-83 -58.5h-316l209 805h914l-58 -273h-551l-67 -252q109 56 223 56q160 0 261 -100.5t101 -270.5q0 -128 -47 -242.5t-130 -199 t-203 -134t-259 -49.5q-217 0 -350 105.5t-133 298.5z" />
<glyph unicode="6" d="M82 479q0 124 33 262q76 343 263.5 533t465.5 190q212 0 341.5 -98t141.5 -256h-418q-3 39 -32.5 61.5t-75.5 22.5q-162 0 -266 -348q63 59 145.5 94t165.5 35q171 0 272 -102t101 -273q0 -184 -85.5 -329t-233.5 -223.5t-331 -78.5q-225 0 -356 134t-131 376zM465 418 q0 -74 35 -123t98 -49q86 0 149.5 87t63.5 226q0 71 -32 107t-91 36q-82 0 -152.5 -79.5t-70.5 -204.5z" />
<glyph unicode="7" d="M113 0l766 1145h-627l61 289h1045l-58 -275l-757 -1159h-430z" />
<glyph unicode="8" d="M35 344q0 79 23.5 142.5t70 111t102.5 82.5t134 68q-140 90 -140 251q0 98 37 181.5t108 147.5t186 100t261 36q127 0 233.5 -37.5t175 -114t68.5 -179.5q0 -229 -286 -371q83 -47 136.5 -124.5t53.5 -176.5q0 -220 -176.5 -356t-466.5 -136q-241 0 -380.5 106.5 t-139.5 268.5zM455 377q0 -61 40 -96t95 -35q76 0 134 54t58 144q0 110 -139 177q-37 -18 -64.5 -36t-58.5 -47.5t-48 -70.5t-17 -90zM618 1026q0 -102 119 -147q67 29 112.5 85.5t45.5 133.5q0 54 -34.5 83t-78.5 29q-65 0 -114.5 -52t-49.5 -132z" />
<glyph unicode="9" d="M61 340h420q0 -49 34.5 -76.5t84.5 -27.5q75 0 134 80t108 264q-134 -127 -303 -127q-176 0 -275.5 110.5t-99.5 288.5q0 191 86.5 331t234 210.5t336.5 70.5q230 0 356 -127t126 -364q0 -74 -8.5 -155.5t-31 -181t-57.5 -191t-93.5 -180t-132.5 -153t-180.5 -104 t-232.5 -39.5q-222 0 -360 101.5t-146 269.5zM569 881q0 -75 34 -114.5t99 -39.5q88 0 150.5 90.5t62.5 212.5q0 71 -34 116.5t-99 45.5q-95 0 -154 -87t-59 -224z" />
<glyph unicode=":" horiz-adv-x="620" d="M12 0l78 371h432l-78 -371h-432zM160 694l78 371h432l-78 -371h-432z" />
<glyph unicode=";" horiz-adv-x="620" d="M-100 -360l37 180q88 11 145 56.5t74 123.5h-144l78 371h432l-69 -326q-44 -204 -180.5 -296.5t-372.5 -108.5zM160 694l78 371h432l-78 -371h-432z" />
<glyph unicode="&#x3c;" d="M180 530l56 252l1019 443l-73 -353l-582 -227l487 -221l-73 -336z" />
<glyph unicode="=" d="M135 309l60 287h927l-61 -287h-926zM219 711l62 286h927l-61 -286h-928z" />
<glyph unicode="&#x3e;" d="M86 88l74 352l581 226l-485 221l72 338l833 -443l-53 -252z" />
<glyph unicode="?" horiz-adv-x="1136" d="M229 1096q58 173 217.5 291t366.5 118q201 0 317.5 -81t116.5 -214q0 -49 -8 -91t-30.5 -85t-44 -75t-69 -81t-82.5 -82t-106 -98q-44 -41 -66.5 -89.5t-39.5 -121.5h-383q33 156 73 233t140 171q122 116 161 166.5t39 95.5q0 29 -17.5 45t-47.5 16q-76 0 -125 -118h-412 zM295 0l78 371h430l-78 -371h-430z" />
<glyph unicode="@" horiz-adv-x="1886" d="M127 571q0 146 32.5 272.5t88.5 220t133.5 169.5t164 126t182.5 83.5t187 48t181 14.5q358 0 572 -172.5t214 -480.5q0 -180 -63 -333.5t-180.5 -247t-264.5 -93.5q-105 0 -166 60t-63 135q-30 -69 -112.5 -121.5t-184.5 -52.5q-145 0 -221 90.5t-76 240.5 q0 141 42.5 256.5t110.5 185t148 107t162 37.5q56 0 99.5 -24t55.5 -60l41 66h246l-98 -484q-21 -111 -21 -137q0 -82 64 -82q53 0 93 72.5t58.5 174.5t18.5 210q0 208 -119 310t-373 102q-58 0 -116 -8.5t-122.5 -31t-121.5 -56.5t-109.5 -89t-90.5 -125t-60.5 -168.5 t-22.5 -214.5q0 -122 32 -215.5t85 -152.5t129.5 -96.5t158.5 -52.5t179 -15q142 0 321 55l43 -235q-183 -66 -399 -66q-139 0 -265 30t-234.5 93.5t-188 154t-125 219t-45.5 281.5zM862 512q0 -94 70 -94q36 0 68 45.5t47 122.5l28 143q12 70 12 90q0 72 -59 72 q-46 0 -85.5 -64t-60 -150.5t-20.5 -164.5z" />
<glyph unicode="A" horiz-adv-x="1515" d="M-88 0l854 1475h442l232 -1475h-443l-26 322h-457l-162 -322h-440zM655 604h295l-39 500z" />
<glyph unicode="B" horiz-adv-x="1406" d="M35 0l313 1475h524q290 0 432 -83.5t142 -240.5q0 -137 -94.5 -236.5t-245.5 -130.5q112 -27 185 -112.5t73 -196.5q0 -231 -180.5 -353t-546.5 -122h-602zM520 279h178q114 0 175 54t61 159q0 68 -46.5 107.5t-125.5 39.5h-166zM651 899h158q89 0 142 47t53 129 q0 54 -43.5 87.5t-116.5 33.5h-129z" />
<glyph unicode="C" horiz-adv-x="1558" d="M119 582q0 91 13 180t44 181.5t77 173.5t116 153t157.5 123.5t205.5 81.5t255 30q131 0 243.5 -34.5t197 -99t132.5 -164t48 -222.5v-20h-426q0 127 -59 187t-160 60q-70 0 -130.5 -29.5t-103.5 -80t-76 -115t-52.5 -137.5t-29.5 -143.5t-10 -137.5q0 -153 61 -230 t162 -77q119 0 195.5 73t122.5 230h432q-102 -304 -295 -450t-498 -146q-294 0 -458 165t-164 448z" />
<glyph unicode="D" horiz-adv-x="1546" d="M35 0l313 1475h547q321 0 500.5 -148t179.5 -422q0 -84 -10 -164.5t-37 -172.5t-69.5 -171.5t-113.5 -154t-162.5 -127t-222.5 -84t-288 -31.5h-637zM524 293h164q87 0 159 29t119.5 78.5t82.5 109.5t54 128t27.5 127t8.5 114q0 150 -77 227.5t-212 77.5h-135z" />
<glyph unicode="E" horiz-adv-x="1257" d="M35 0l313 1475h1069l-65 -304h-639l-62 -286h580l-60 -283h-581l-64 -303h639l-61 -299h-1069z" />
<glyph unicode="F" horiz-adv-x="1189" d="M35 0l313 1475h1012l-64 -299h-585l-68 -320h522l-61 -283h-520l-121 -573h-428z" />
<glyph unicode="G" horiz-adv-x="1579" d="M119 563q0 79 11 160.5t39 175.5t71.5 178.5t114.5 164t161 137t217.5 92t278.5 34.5q286 0 446 -131.5t160 -353.5h-424q-3 96 -60 144t-155 48q-89 0 -162 -45.5t-119 -115.5t-77.5 -158.5t-44.5 -169t-13 -152.5q0 -153 66.5 -232t171.5 -79q128 0 216.5 68t110.5 176 l13 59h-314l60 277h694l-178 -840h-293l-23 135q-176 -166 -421 -166q-238 0 -392.5 160t-154.5 434z" />
<glyph unicode="H" horiz-adv-x="1536" d="M35 0l313 1475h428l-125 -584h449l125 584h426l-314 -1475h-426l125 600h-448l-125 -600h-428z" />
<glyph unicode="I" horiz-adv-x="661" d="M35 0l313 1475h428l-313 -1475h-428z" />
<glyph unicode="J" horiz-adv-x="1214" d="M41 395q0 35 6 76h412q-6 -41 -6 -70q0 -72 31 -104.5t77 -32.5q54 0 88.5 37.5t55.5 134.5l221 1039h413l-217 -1014q-54 -250 -190.5 -371t-392.5 -121q-109 0 -198.5 26t-157 77t-105 133.5t-37.5 189.5z" />
<glyph unicode="K" horiz-adv-x="1558" d="M35 0l313 1475h428l-114 -535l565 535h493l-786 -717l543 -758h-510l-385 565l-119 -565h-428z" />
<glyph unicode="L" horiz-adv-x="1288" d="M35 0l313 1475h428l-248 -1166h701l-64 -309h-1130z" />
<glyph unicode="M" horiz-adv-x="1875" d="M35 0l313 1475h447l137 -1072l584 1072h475l-314 -1475h-383l172 813l-444 -813h-344l-105 831l-176 -831h-362z" />
<glyph unicode="N" horiz-adv-x="1531" d="M35 0l313 1475h445l303 -873l186 873h365l-314 -1475h-418l-323 918l-193 -918h-364z" />
<glyph unicode="O" horiz-adv-x="1638" d="M117 586q0 79 11 159.5t39 172.5t71 174.5t113 159t158.5 132t213.5 88.5t272 33q102 0 197.5 -22.5t182.5 -71t151.5 -119t102.5 -174t38 -227.5q0 -82 -12 -165t-41 -175t-73.5 -174.5t-115 -158t-159 -130t-212 -87t-268.5 -32.5q-132 0 -249.5 37.5t-212.5 110.5 t-151 194t-56 275zM553 586q0 -82 23 -145t62 -99.5t85.5 -54t97.5 -17.5q74 0 137 30t107 81t78 114.5t53.5 134t29 135t9.5 122.5q0 83 -23 146.5t-61.5 100t-84.5 54.5t-97 18q-91 0 -165 -45.5t-119.5 -115t-76.5 -156t-43 -162.5t-12 -141z" />
<glyph unicode="P" horiz-adv-x="1415" d="M35 0l313 1475h551q297 0 445.5 -110t148.5 -308q0 -95 -22 -177.5t-76.5 -159t-139 -130.5t-217.5 -86.5t-303 -32.5h-174l-98 -471h-428zM623 758h165q121 0 194 70.5t73 187.5q0 82 -54.5 126t-154.5 44h-133z" />
<glyph unicode="Q" horiz-adv-x="1662" d="M117 586q0 79 11 159.5t39 172.5t71 174.5t113 159t158.5 132t213.5 88.5t272 33q102 0 197.5 -22.5t182.5 -71t151.5 -119t102.5 -174t38 -227.5q0 -95 -17 -193t-54 -201.5t-105 -199t-160 -164.5l168 -227l-397 -234l-125 314q-121 -17 -191 -17q-132 0 -249.5 37.5 t-212.5 110.5t-151 194t-56 275zM553 586q0 -82 23 -145t62 -99.5t85.5 -54t97.5 -17.5q74 0 137 30t107 81t78 114.5t53.5 134t29 135t9.5 122.5q0 83 -23 146.5t-61.5 100t-84.5 54.5t-97 18q-91 0 -165 -45.5t-119.5 -115t-76.5 -156t-43 -162.5t-12 -141z" />
<glyph unicode="R" horiz-adv-x="1492" d="M35 0l313 1475h563q287 0 438.5 -104t151.5 -290q0 -358 -385 -493l285 -588h-492l-211 512h-127l-108 -512h-428zM633 803h178q104 0 174 61.5t70 169.5q0 72 -51.5 111t-145.5 39h-143z" />
<glyph unicode="S" horiz-adv-x="1390" d="M49 442v23h414q0 -98 61 -151.5t181 -53.5q118 0 172.5 41.5t54.5 112.5q0 72 -64 117t-229 79q-196 41 -314 155.5t-118 278.5q0 226 155 343.5t486 117.5q272 0 436 -126.5t164 -336.5h-404q0 87 -61 129.5t-162 42.5q-91 0 -130.5 -30.5t-39.5 -89.5 q0 -60 55.5 -100.5t180.5 -69.5q485 -112 485 -445q0 -510 -702 -510q-126 0 -230.5 26t-176 70.5t-120.5 105.5t-71.5 129t-22.5 142z" />
<glyph unicode="T" horiz-adv-x="1302" d="M176 1165l66 310h1282l-66 -310h-432l-246 -1165h-428l246 1165h-422z" />
<glyph unicode="U" horiz-adv-x="1517" d="M117 403q0 53 12 111l205 961h430l-211 -988q-8 -36 -8 -53q0 -81 54 -124.5t149 -43.5q108 0 176.5 54t91.5 159l211 996h415l-206 -971q-56 -257 -232.5 -396t-484.5 -139q-281 0 -441.5 116.5t-160.5 317.5z" />
<glyph unicode="V" horiz-adv-x="1441" d="M231 1475h431l51 -1110l530 1110h430l-794 -1475h-476z" />
<glyph unicode="W" horiz-adv-x="2086" d="M231 1475h426l-26 -957l420 957h450l25 -965l372 965h420l-641 -1475h-473l-26 1024l-449 -1024h-459z" />
<glyph unicode="X" horiz-adv-x="1536" d="M-72 0l684 768l-336 707h463l172 -412l340 412h471l-637 -705l359 -770h-469l-187 465l-370 -465h-490z" />
<glyph unicode="Y" horiz-adv-x="1482" d="M231 1475h449l168 -562l432 562h434l-725 -885l-125 -590h-409l125 590z" />
<glyph unicode="Z" horiz-adv-x="1325" d="M-37 0l60 279l882 899h-653l63 297h1196l-59 -275l-883 -903h678l-61 -297h-1223z" />
<glyph unicode="[" horiz-adv-x="696" d="M-63 -348l428 2007h553l-54 -248h-223l-319 -1511h221l-54 -248h-552z" />
<glyph unicode="\" horiz-adv-x="696" d="M203 1505h334l53 -1689h-334z" />
<glyph unicode="]" horiz-adv-x="696" d="M-123 -348l53 248h224l319 1511h-223l53 248h555l-428 -2007h-553z" />
<glyph unicode="^" horiz-adv-x="1064" d="M100 784l478 674h342l188 -674h-354l-70 334l-215 -334h-369z" />
<glyph unicode="_" horiz-adv-x="1204" d="M-106 -291l59 285h1130l-61 -285h-1128z" />
<glyph unicode="`" horiz-adv-x="741" d="M311 1499h385l152 -315h-275z" />
<glyph unicode="a" horiz-adv-x="1189" d="M18 236q0 165 120 262t407 143l229 37l6 29q4 16 4 38q0 44 -26.5 68.5t-75.5 24.5q-51 0 -89.5 -28t-55.5 -77h-396q153 363 590 363q212 0 329.5 -89t117.5 -247q0 -53 -11 -101l-139 -659h-307l-25 119q-57 -64 -154.5 -107t-211.5 -43q-148 0 -230 71.5t-82 195.5z M420 305q0 -78 92 -78q67 0 124 43.5t75 114.5l20 90q-195 -35 -253 -66.5t-58 -103.5z" />
<glyph unicode="b" horiz-adv-x="1312" d="M12 0l314 1475h397l-111 -519q143 140 328 140q170 0 269.5 -107t99.5 -295q0 -98 -21 -196.5t-68.5 -194.5t-115 -169.5t-169 -119t-222.5 -45.5q-96 0 -178 41t-127 109l-82 -119h-314zM502 430q0 -88 39.5 -133t111.5 -45q57 0 102.5 29t72.5 72t45 97t25 99t7 82 q0 89 -40.5 135.5t-108.5 46.5q-56 0 -101 -27.5t-73 -69.5t-46.5 -95.5t-26 -101t-7.5 -89.5z" />
<glyph unicode="c" horiz-adv-x="1241" d="M70 406q0 94 20.5 185.5t70.5 184.5t125 162.5t194 113.5t268 44q225 0 361.5 -110.5t139.5 -295.5h-407q0 70 -32.5 104.5t-90.5 34.5q-54 0 -97.5 -30.5t-69.5 -77t-43.5 -104.5t-24.5 -108.5t-7 -94.5q0 -87 36 -134t93 -47t102.5 43t73.5 123h408q-77 -196 -232 -313 t-389 -117q-244 0 -371.5 116.5t-127.5 320.5z" />
<glyph unicode="d" horiz-adv-x="1318" d="M68 387q0 88 20 182t65.5 189t110.5 169.5t164.5 121.5t218.5 47q98 0 179 -35.5t124 -95.5l109 510h397l-313 -1475h-316l-34 129q-167 -160 -351 -160q-171 0 -272.5 112.5t-101.5 305.5zM475 444q0 -91 42.5 -141.5t111.5 -50.5q65 0 116.5 42.5t79 106t41 124.5 t13.5 112q0 91 -43 133.5t-111 42.5t-119.5 -38.5t-78.5 -98.5t-39.5 -119t-12.5 -113z" />
<glyph unicode="e" horiz-adv-x="1267" d="M76 436q0 96 24.5 189.5t78 179t129 150t185.5 103t240 38.5q229 0 368.5 -123.5t139.5 -349.5q0 -87 -20 -177h-750q-2 -12 -2 -36q0 -170 164 -170q57 0 97 27t58 71h402q-74 -168 -226 -268.5t-378 -100.5q-232 0 -371 128.5t-139 338.5zM516 655h342q4 18 4 52 q0 141 -143 141q-138 0 -203 -193z" />
<glyph unicode="f" horiz-adv-x="794" d="M86 0l168 797h-156l58 268h155l15 68q42 201 144.5 286.5t313.5 85.5q146 0 267 -43l-60 -276q-90 33 -151 33q-56 0 -83 -23t-38 -76l-12 -55h202l-57 -268h-203l-168 -797h-395z" />
<glyph unicode="g" horiz-adv-x="1296" d="M-6 -43h397q9 -48 43.5 -69t104.5 -21q45 0 77 12t53 31.5t38 60.5t27.5 82t25.5 113q-136 -121 -293 -121q-173 0 -280 112t-107 300q0 185 78 332t211 227t295 80q95 0 173.5 -36.5t120.5 -98.5l80 104h308l-211 -991q-48 -229 -205.5 -351t-427.5 -122 q-257 0 -382.5 91.5t-125.5 264.5zM485 510q0 -85 44.5 -132.5t117.5 -47.5q107 0 170.5 93t63.5 220q0 84 -43.5 128t-114.5 44q-73 0 -128.5 -44.5t-82.5 -113t-27 -147.5z" />
<glyph unicode="h" horiz-adv-x="1243" d="M12 0l314 1475h395l-107 -498q135 119 306 119q149 0 232 -79t83 -226q0 -71 -14 -132l-142 -659h-397l139 657q8 40 8 60q0 52 -27 79t-73 27q-72 0 -121 -52.5t-67 -139.5l-133 -631h-396z" />
<glyph unicode="i" horiz-adv-x="604" d="M23 0l225 1065h395l-225 -1065h-395zM260 1176l64 299h419l-65 -299h-418z" />
<glyph unicode="j" horiz-adv-x="595" d="M-248 -365l60 279q56 -20 98 -20q45 0 69.5 20.5t34.5 71.5l230 1079h395l-231 -1100q-78 -364 -433 -364q-129 0 -223 34zM256 1169l63 299h418l-63 -299h-418z" />
<glyph unicode="k" horiz-adv-x="1275" d="M12 0l314 1475h395l-158 -740l373 330h461l-559 -473l364 -592h-481l-227 412l-86 -412h-396z" />
<glyph unicode="l" horiz-adv-x="585" d="M12 0l314 1475h397l-313 -1475h-398z" />
<glyph unicode="m" horiz-adv-x="1871" d="M12 0l226 1065h290l33 -121q143 152 332 152q108 0 189 -39t112 -113q146 152 344 152q150 0 238 -79t88 -229q0 -58 -15 -126l-139 -662h-395l139 672q6 27 6 53q0 47 -23 72.5t-65 25.5q-71 0 -118 -61.5t-68 -155.5l-127 -606h-395l139 672q6 30 6 55q0 46 -23.5 71 t-64.5 25q-68 0 -115.5 -60t-66.5 -151l-129 -612h-398z" />
<glyph unicode="n" horiz-adv-x="1243" d="M12 0l226 1065h335l7 -119q70 70 161.5 110t178.5 40q149 0 232 -79t83 -226q0 -69 -14 -132l-142 -659h-397l141 659q8 36 8 62q0 49 -28 75.5t-74 26.5q-72 0 -121 -52.5t-67 -139.5l-133 -631h-396z" />
<glyph unicode="o" horiz-adv-x="1288" d="M74 426q0 61 8.5 121.5t30 128t54.5 127t86 114t120 93.5t161 62.5t205 23.5q158 0 278 -50.5t189.5 -153.5t69.5 -247q0 -106 -24 -202.5t-76.5 -183.5t-129.5 -151t-190.5 -101.5t-251.5 -37.5q-238 0 -384 119.5t-146 337.5zM479 414q0 -183 158 -183q57 0 101.5 34 t69 83t40.5 111.5t21 111.5t5 91q0 90 -39 131t-116 41q-58 0 -103 -33.5t-70 -81.5t-41 -109t-21 -108.5t-5 -87.5z" />
<glyph unicode="p" horiz-adv-x="1314" d="M-68 -369l306 1434h307l39 -129q157 160 348 160q171 0 274 -108t103 -298q0 -197 -74 -361t-210.5 -262t-307.5 -98q-85 0 -164.5 35t-124.5 94l-98 -467h-398zM500 430q0 -91 42.5 -135.5t112.5 -44.5q78 0 136.5 59t86 144.5t27.5 179.5q0 91 -40.5 136.5t-110.5 45.5 q-55 0 -100 -28t-73 -70.5t-47 -95.5t-26.5 -101t-7.5 -90z" />
<glyph unicode="q" horiz-adv-x="1318" d="M68 389q0 70 13.5 144.5t40.5 155.5t75 152.5t111.5 129.5t155.5 91.5t200 33.5q106 0 186.5 -42t118.5 -112l90 123h309l-305 -1434h-397l102 478q-153 -140 -319 -140q-172 0 -276.5 113.5t-104.5 306.5zM475 440q0 -91 41 -139.5t111 -48.5q53 0 97 26t72 66.5 t47.5 92.5t27.5 101t8 95q0 91 -41 135.5t-113 44.5q-69 0 -120.5 -38t-78 -98t-39 -120t-12.5 -117z" />
<glyph unicode="r" horiz-adv-x="870" d="M12 0l226 1065h340v-164q124 195 296 195q65 0 132 -17l-76 -352q-82 25 -150 25q-100 0 -173.5 -81t-106.5 -241l-90 -430h-398z" />
<glyph unicode="s" horiz-adv-x="1153" d="M31 322h387q3 -40 43.5 -66.5t107.5 -26.5q66 0 96.5 18t30.5 58t-39.5 66t-142.5 45q-387 71 -387 321q0 173 129.5 266t394.5 93q220 0 361 -97t141 -251h-385q-5 42 -41.5 66t-99.5 24q-97 0 -97 -64q0 -37 42 -63.5t141 -46.5q391 -75 391 -310q0 -385 -551 -385 q-230 0 -376 99t-146 254z" />
<glyph unicode="t" horiz-adv-x="813" d="M106 797l58 268h153l78 256h373l-53 -256h211l-58 -268h-211l-98 -463q-4 -16 -4 -33q0 -55 76 -55q47 0 127 22l-56 -266q-135 -33 -227 -33q-153 0 -238 71.5t-85 199.5q0 36 10 88l100 469h-156z" />
<glyph unicode="u" d="M68 270q0 58 16 136l139 659h395l-137 -653q-10 -50 -10 -68q0 -47 27 -74.5t73 -27.5q68 0 114.5 53t66.5 141l133 629h393l-225 -1065h-334l-8 109q-143 -140 -332 -140q-150 0 -230.5 79t-80.5 222z" />
<glyph unicode="v" horiz-adv-x="1210" d="M141 1065h416l31 -743l342 743h426l-606 -1065h-455z" />
<glyph unicode="w" horiz-adv-x="1759" d="M152 1065h397l-29 -678l297 678h420l-10 -674l270 674h397l-518 -1065h-450l14 682l-293 -682h-438z" />
<glyph unicode="x" horiz-adv-x="1249" d="M-84 0l520 559l-276 506h444l107 -256l202 256h428l-464 -502l292 -563h-452l-123 291l-242 -291h-436z" />
<glyph unicode="y" horiz-adv-x="1216" d="M39 -367l57 267q93 -29 146 -29q45 0 77 28t68 101h-74l-170 1065h410l27 -782l370 782h412l-614 -1079q-128 -224 -231.5 -304.5t-258.5 -80.5q-110 0 -219 32z" />
<glyph unicode="z" horiz-adv-x="1079" d="M-47 0l57 276l606 506h-462l59 283h975l-60 -277l-596 -505h472l-60 -283h-991z" />
<glyph unicode="{" horiz-adv-x="696" d="M33 522l57 273q165 0 197 149l71 334q14 64 33 115.5t45 90t55 67t68 47.5t77 31.5t89.5 19t99 8.5t111.5 2l-53 -252q-94 0 -132.5 -22t-56.5 -105l-69 -336q-44 -209 -219 -289q106 -59 106 -188q0 -43 -12 -102l-70 -332q-8 -46 -8 -56q0 -47 31 -61t110 -16l-55 -248 q-86 0 -147 5.5t-117 21.5t-90 44.5t-54 75t-20 111.5q0 68 16 139l70 324q4 28 4 43q0 106 -137 106z" />
<glyph unicode="|" horiz-adv-x="696" d="M33 -287l401 1895h330l-402 -1895h-329z" />
<glyph unicode="}" horiz-adv-x="696" d="M-141 -348l55 252q39 1 60.5 3t44.5 9t36 21t24 37t19 59l70 323q25 118 81 186t140 105q-108 54 -108 189q0 42 12 100l72 344q6 30 6 53q0 48 -31.5 63t-108.5 15l54 248q86 0 147 -5.5t117.5 -21.5t91 -44.5t54.5 -75t20 -111.5q0 -49 -17 -139l-71 -334 q-6 -24 -6 -43q0 -107 139 -107l-60 -272q-83 0 -132.5 -39.5t-63.5 -110.5l-68 -323q-15 -73 -39 -130t-52.5 -97t-69 -68t-81.5 -45t-98.5 -26t-110.5 -12t-126 -3z" />
<glyph unicode="~" d="M170 473l63 299q58 31 139 53.5t163 22.5q59 0 112 -17t85.5 -37.5t74.5 -37.5t80 -17q62 0 125.5 23t161.5 78l-64 -297q-56 -32 -138.5 -55t-164.5 -23q-59 0 -111.5 16.5t-85 36.5t-74 36.5t-79.5 16.5q-62 0 -126.5 -23t-160.5 -75z" />
<glyph unicode="&#xa1;" horiz-adv-x="661" d="M-68 -369l265 992h366l-160 -992h-471zM190 748l78 370h432l-79 -370h-431z" />
<glyph unicode="&#xa2;" d="M63 406q0 83 16 164.5t54.5 166t96.5 152t149.5 119t204.5 71.5l59 271h344l-61 -279q147 -38 230.5 -138.5t84.5 -242.5h-405v17q-1 56 -34.5 84t-84.5 28q-56 0 -100.5 -30t-71 -74.5t-44 -101.5t-24 -106t-6.5 -93q0 -85 38.5 -133t88.5 -48q57 0 103.5 43.5 t74.5 122.5h408q-67 -167 -189 -277.5t-301 -139.5l-53 -258h-344l57 276q-144 41 -217.5 146t-73.5 260z" />
<glyph unicode="&#xa3;" d="M4 0l64 299q67 16 93 67t60 212h-110l51 245h110l43 201q47 227 175 333.5t356 106.5q202 0 332.5 -105.5t130.5 -262.5q0 -22 -4 -54h-379q0 69 -21 99t-65 30q-49 0 -75 -35.5t-46 -129.5l-39 -183h338l-51 -245h-340q-16 -103 -52.5 -168t-109.5 -101h659l-65 -309 h-1055z" />
<glyph unicode="&#xa4;" horiz-adv-x="1185" d="M74 326l121 120q-58 110 -58 240t58 240l-121 123l217 219l127 -127q111 57 239 57q126 0 240 -57l127 127l217 -219l-121 -123q58 -110 58 -240q0 -126 -60 -240l123 -120l-217 -220l-127 125q-116 -55 -240 -55q-125 0 -241 55l-125 -125zM432 686q0 -107 63 -170 t162 -63t162.5 63t63.5 170q0 108 -63.5 172t-162.5 64t-162 -64t-63 -172z" />
<glyph unicode="&#xa5;" d="M125 213l51 238h258l19 86h-258l51 237h157l-227 660h424l105 -553l358 553h432l-510 -660h162l-51 -237h-258l-19 -86h258l-51 -238h-258l-45 -213h-383l45 213h-260z" />
<glyph unicode="&#xa6;" horiz-adv-x="696" d="M33 -287l172 813h330l-173 -813h-329zM260 784l174 822h330l-174 -822h-330z" />
<glyph unicode="&#xa7;" d="M109 137q0 19 2 31h325q1 -45 29.5 -68.5t75.5 -23.5q37 0 61.5 17.5t24.5 51.5q0 25 -17 43.5t-53 36.5q-20 10 -59.5 29t-58.5 28.5t-53.5 27.5t-51.5 29.5t-44 30t-40.5 34t-30.5 36.5t-25 42t-14 47.5t-6 54.5q0 107 64.5 189t187.5 124q-43 37 -68.5 90t-25.5 111 q0 76 27.5 140.5t82.5 115t146.5 79.5t210.5 29q93 0 173 -29t132 -75t81 -100.5t29 -108.5q0 -21 -2 -29h-325q-1 45 -31 69.5t-72 24.5q-36 0 -59 -18t-23 -51q0 -46 74 -82q90 -41 144.5 -69t105.5 -61t77 -64t41 -69.5t15 -86.5q0 -103 -64.5 -188t-181.5 -132 q84 -72 84 -198q0 -72 -30 -137.5t-87 -117t-148 -82t-204 -30.5q-99 0 -180.5 27t-132.5 71.5t-78.5 99t-27.5 111.5zM547 623q0 -41 33 -71t106 -58q94 66 94 139q0 41 -34 72t-107 59q-92 -70 -92 -141z" />
<glyph unicode="&#xa8;" horiz-adv-x="964" d="M233 1198l64 295h352l-63 -295h-353zM721 1198l63 295h355l-64 -295h-354z" />
<glyph unicode="&#xa9;" horiz-adv-x="1726" d="M172 737q0 150 44 277.5t119 216.5t175 151.5t212.5 92.5t231.5 30q118 0 230.5 -30t212.5 -92.5t175 -151.5t119 -216.5t44 -277.5t-44 -277.5t-119 -216.5t-175 -151.5t-212.5 -92.5t-230.5 -30q-119 0 -231.5 30t-212.5 92.5t-175 151.5t-119 216.5t-44 277.5z M385 737q0 -145 46 -261.5t125 -189t181 -111t217 -38.5t216 38.5t180.5 111t125.5 189t46 261.5t-46 261.5t-125.5 189t-180.5 111t-216 38.5t-217 -38.5t-181 -111t-125 -189t-46 -261.5zM543 735q0 198 113.5 312t310.5 114q164 0 273.5 -82.5t133.5 -216.5h-299 q-7 47 -37 76t-67 29q-129 0 -129 -234q0 -110 33.5 -160.5t87.5 -50.5q43 0 72.5 31.5t41.5 91.5h301q-33 -144 -137 -231.5t-278 -87.5q-201 0 -310.5 105.5t-109.5 303.5z" />
<glyph unicode="&#xaa;" horiz-adv-x="1044" d="M43 0l59 287h811l-59 -287h-811zM209 817q0 292 430 340l115 12l8 33q4 12 4 37q0 23 -14.5 35t-36.5 12q-52 0 -76 -61h-328q54 126 173.5 203t273.5 77q159 0 250.5 -69.5t91.5 -192.5q0 -42 -8 -78l-117 -544h-244l-12 71q-107 -96 -234 -96q-120 0 -198 57t-78 164z M551 877q0 -23 16.5 -37.5t42.5 -14.5q32 0 59 26t33 62l13 70l-47 -8q-117 -20 -117 -98z" />
<glyph unicode="&#xab;" horiz-adv-x="1204" d="M115 641l356 424h307l-284 -434l71 -455h-286zM618 641l357 424h307l-287 -434l74 -455h-289z" />
<glyph unicode="&#xac;" d="M178 512l60 287h925l-127 -598h-315l65 311h-608z" />
<glyph unicode="&#xad;" horiz-adv-x="1105" d="M162 512l61 287h809l-61 -287h-809z" />
<glyph unicode="&#xae;" horiz-adv-x="1286" d="M279 1022q0 99 29 181t77 137t113 93t135 55t145 17t146 -17t136 -55t113.5 -93t77.5 -137t29 -181t-29 -180.5t-77.5 -136.5t-113.5 -93.5t-136 -55.5t-146 -17t-145 17t-135 55.5t-113 93.5t-77 136.5t-29 180.5zM422 1022q0 -96 30.5 -168.5t82 -114t113 -62 t130.5 -20.5q68 0 129.5 20.5t113.5 62t83 114t31 168.5t-31 169.5t-83 115t-113.5 62t-129.5 20.5q-69 0 -130.5 -20.5t-113 -62t-82 -114.5t-30.5 -170zM586 795v479h188q102 0 158.5 -39t56.5 -117q0 -92 -92 -133l131 -190h-162l-104 168h-39v-168h-137zM723 1055h55 q29 0 49.5 15.5t20.5 47.5q0 62 -74 62h-51v-125z" />
<glyph unicode="&#xaf;" horiz-adv-x="675" d="M209 1210l55 263h592l-55 -263h-592z" />
<glyph unicode="&#xb0;" horiz-adv-x="1105" d="M188 1071q0 92 34.5 168t92.5 125.5t132 76.5t155 27q147 0 243.5 -82.5t96.5 -226.5q0 -118 -59.5 -209.5t-153.5 -138.5t-203 -47q-146 0 -242 82t-96 225zM485 1083q0 -41 18 -62.5t48 -21.5q39 0 66.5 37t27.5 107q0 88 -67 88q-42 0 -67.5 -41.5t-25.5 -106.5z" />
<glyph unicode="&#xb1;" d="M70 0l61 287h926l-60 -287h-927zM186 561l64 287h303l65 309h318l-66 -309h306l-62 -287h-305l-41 -194h-317l41 194h-306z" />
<glyph unicode="&#xb2;" horiz-adv-x="870" d="M94 602l45 211l250 176q89 62 146 109t83.5 80t35 54t8.5 44q0 49 -62 49q-77 0 -115 -98h-284q52 140 162.5 219.5t267.5 79.5q146 0 227.5 -60.5t81.5 -156.5q0 -47 -11.5 -84.5t-44.5 -83t-96 -97t-163 -118.5l-154 -109h373l-45 -215h-705z" />
<glyph unicode="&#xb3;" horiz-adv-x="878" d="M129 868h287q-8 -39 6.5 -64.5t58.5 -25.5t73.5 32t29.5 91q0 78 -101 78h-65l39 182h69q59 0 90 41.5t31 85.5q0 43 -47 43q-34 0 -55.5 -16.5t-34.5 -54.5h-277q47 127 150 196.5t254 69.5q141 0 225 -56.5t84 -146.5q0 -34 -12.5 -68t-38.5 -68.5t-73.5 -62.5 t-110.5 -43q80 -18 121.5 -66.5t41.5 -115.5q0 -45 -13.5 -88.5t-44.5 -85.5t-77 -73.5t-116 -50.5t-156 -19q-338 0 -338 286z" />
<glyph unicode="&#xb4;" horiz-adv-x="741" d="M217 1184l289 315h409l-395 -315h-303z" />
<glyph unicode="&#xb5;" horiz-adv-x="1239" d="M-72 -369l305 1434h396l-142 -664q-6 -30 -6 -57q0 -49 27.5 -76.5t73.5 -27.5q66 0 112 53.5t66 142.5l133 629h395l-225 -1065h-336l-8 109q-60 -60 -147.5 -94.5t-176.5 -39.5l-71 -344h-396z" />
<glyph unicode="&#xb6;" horiz-adv-x="1445" d="M166 1006q0 104 28.5 185.5t76.5 134t116 86.5t142 48.5t159 14.5h311l-393 -1844h-375l213 1004q-118 13 -198 108.5t-80 262.5zM788 -369l394 1844h377l-394 -1844h-377z" />
<glyph unicode="&#xb7;" horiz-adv-x="606" d="M106 451l78 358h416l-78 -358h-416z" />
<glyph unicode="&#xb8;" horiz-adv-x="831" d="M-76 -283h260q0 -31 23 -53t67 -22q40 0 63 18t23 53q0 37 -43.5 59.5t-134.5 22.5l74 250h223l-20 -117q80 -20 122 -70.5t42 -119.5q0 -131 -101 -209t-262 -78q-151 0 -243.5 68t-92.5 180v18z" />
<glyph unicode="&#xb9;" horiz-adv-x="606" d="M152 1112l51 246l276 110h252l-192 -903h-291l135 633z" />
<glyph unicode="&#xba;" horiz-adv-x="1069" d="M25 0l61 287h834l-60 -287h-835zM213 963q0 248 131.5 395t374.5 147q60 0 113 -9.5t105.5 -34.5t89.5 -64t60 -102.5t23 -145.5q0 -255 -134 -403t-370 -148q-60 0 -113.5 10.5t-106 36.5t-90 66t-60.5 105t-23 147zM551 948q0 -65 19.5 -93t60.5 -28t71 33.5t44.5 88 t21 106t6.5 102.5q0 119 -80 119q-39 0 -68 -32t-44.5 -83t-23 -105t-7.5 -108z" />
<glyph unicode="&#xbb;" horiz-adv-x="1204" d="M43 176l268 455l-102 434h291l192 -424l-344 -465h-305zM547 176l268 455l-104 434h293l192 -424l-346 -465h-303z" />
<glyph unicode="&#xbc;" horiz-adv-x="1847" d="M184 -190l1252 1802h303l-1250 -1802h-305zM217 1112l51 246l277 110h252l-193 -903h-291l136 633zM997 162l43 209l445 532h342l-117 -549h100l-41 -192h-100l-35 -162h-262l35 162h-410zM1288 354h160l90 322z" />
<glyph unicode="&#xbd;" horiz-adv-x="1978" d="M184 -190l1252 1802h303l-1250 -1802h-305zM217 1112l51 246l277 110h252l-193 -903h-291l136 633zM1112 0l45 211l250 176q116 81 179 139.5t78 87.5t15 60q0 49 -61 49q-77 0 -115 -98h-284q52 140 162.5 219.5t267.5 79.5q146 0 227.5 -60.5t81.5 -156.5 q0 -63 -22 -112.5t-92 -116t-202 -154.5l-153 -109h373l-45 -215h-705z" />
<glyph unicode="&#xbe;" horiz-adv-x="2062" d="M184 868h287q-8 -39 7 -64.5t59 -25.5t73 32t29 91q0 78 -100 78h-66l39 182h70q59 0 89.5 41.5t30.5 85.5q0 43 -47 43q-34 0 -55.5 -16.5t-34.5 -54.5h-276q47 127 149.5 196.5t253.5 69.5q141 0 225 -56.5t84 -146.5q0 -34 -12.5 -68t-38.5 -68.5t-73.5 -62.5 t-110.5 -43q80 -18 122 -67t42 -115q0 -57 -23 -111t-69 -101.5t-128 -76t-188 -28.5q-338 0 -338 286zM399 -190l1252 1802h303l-1249 -1802h-306zM1212 162l43 209l445 532h342l-117 -549h100l-40 -192h-101l-35 -162h-262l35 162h-410zM1503 354h160l90 322z" />
<glyph unicode="&#xbf;" horiz-adv-x="1136" d="M-39 -104q0 49 8 91t30 84.5t44 75.5t68 81t82.5 82.5t105.5 97.5q74 66 107 210h382q-32 -155 -73 -232.5t-140 -170.5q-122 -116 -161 -166.5t-39 -95.5q0 -29 18.5 -45.5t46.5 -16.5q75 0 125 119h412q-58 -173 -217.5 -291t-366.5 -118q-200 0 -316 80.5t-116 214.5z M403 735l78 371h430l-75 -371h-433z" />
<glyph unicode="&#xc0;" horiz-adv-x="1515" d="M-88 0l854 1475h442l232 -1475h-443l-26 322h-457l-162 -322h-440zM655 604h295l-39 500zM735 1901h385l152 -316h-275z" />
<glyph unicode="&#xc1;" horiz-adv-x="1515" d="M-88 0l854 1475h442l232 -1475h-443l-26 322h-457l-162 -322h-440zM655 604h295l-39 500zM723 1585l289 316h409l-395 -316h-303z" />
<glyph unicode="&#xc2;" horiz-adv-x="1515" d="M-88 0l854 1475h442l232 -1475h-443l-26 322h-457l-162 -322h-440zM565 1597l348 316h314l213 -316h-359l-47 117l-96 -117h-373zM655 604h295l-39 500z" />
<glyph unicode="&#xc3;" horiz-adv-x="1515" d="M-88 0l854 1475h442l232 -1475h-443l-26 322h-457l-162 -322h-440zM655 604h295l-39 500zM680 1597l53 256q114 60 209 60q63 0 140.5 -38t121.5 -38q59 0 195 68l-56 -256q-110 -58 -200 -58q-51 0 -97 18.5t-86.5 37t-78.5 18.5q-68 0 -201 -68z" />
<glyph unicode="&#xc4;" horiz-adv-x="1515" d="M-88 0l854 1475h442l232 -1475h-443l-26 322h-457l-162 -322h-440zM584 1599l63 295h352l-63 -295h-352zM655 604h295l-39 500zM1071 1599l64 295h354l-64 -295h-354z" />
<glyph unicode="&#xc5;" horiz-adv-x="1515" d="M-88 0l831 1436q-59 62 -59 159q0 130 91 214.5t259 84.5q145 0 225 -72.5t80 -179.5q0 -155 -120 -235l221 -1407h-441l-26 322h-457l-164 -322h-440zM657 604h295l-41 500zM938 1608q0 -36 18 -55t48 -19q36 0 58.5 24t22.5 76q0 34 -18.5 53t-48.5 19q-35 0 -57.5 -26 t-22.5 -72z" />
<glyph unicode="&#xc6;" horiz-adv-x="2052" d="M-100 0l1034 1475h1278l-64 -304h-567l-61 -286h508l-62 -283h-508l-63 -303h567l-64 -299h-995l70 322h-414l-217 -322h-442zM748 604h284l129 613z" />
<glyph unicode="&#xc7;" horiz-adv-x="1558" d="M119 582q0 91 13 180t44 181.5t77 173.5t116 153t157.5 123.5t205.5 81.5t255 30q131 0 243.5 -34.5t197 -99t132.5 -164t48 -222.5v-20h-426q0 127 -59 187t-160 60q-70 0 -130.5 -29.5t-103.5 -80t-76 -115t-52.5 -137.5t-29.5 -143.5t-10 -137.5q0 -153 61 -230 t162 -77q119 0 195.5 73t122.5 230h432q-97 -290 -276.5 -436t-458.5 -158l-6 -43q80 -20 121.5 -70.5t41.5 -119.5q0 -131 -100.5 -209t-263.5 -78q-151 0 -242.5 68t-91.5 180v18h260q0 -31 22 -53t68 -22q40 0 63 18t23 53q0 37 -44.5 59.5t-135.5 22.5l57 191 q-217 44 -334.5 201t-117.5 395z" />
<glyph unicode="&#xc8;" horiz-adv-x="1257" d="M35 0l313 1475h1069l-65 -304h-639l-62 -286h580l-60 -283h-581l-64 -303h639l-61 -299h-1069zM602 1901h385l152 -316h-275z" />
<glyph unicode="&#xc9;" horiz-adv-x="1257" d="M35 0l313 1475h1069l-65 -304h-639l-62 -286h580l-60 -283h-581l-64 -303h639l-61 -299h-1069zM696 1585l289 316h410l-396 -316h-303z" />
<glyph unicode="&#xca;" horiz-adv-x="1257" d="M35 0l313 1475h1069l-65 -304h-639l-62 -286h580l-60 -283h-581l-64 -303h639l-61 -299h-1069zM477 1597l348 316h314l213 -316h-359l-47 117l-96 -117h-373z" />
<glyph unicode="&#xcb;" horiz-adv-x="1257" d="M35 0l313 1475h1069l-65 -304h-639l-62 -286h580l-60 -283h-581l-64 -303h639l-61 -299h-1069zM494 1599l63 295h352l-63 -295h-352zM981 1599l63 295h355l-64 -295h-354z" />
<glyph unicode="&#xcc;" horiz-adv-x="661" d="M35 0l313 1475h428l-313 -1475h-428zM336 1901h385l151 -316h-274z" />
<glyph unicode="&#xcd;" horiz-adv-x="661" d="M35 0l313 1475h428l-313 -1475h-428zM303 1585l289 316h409l-395 -316h-303z" />
<glyph unicode="&#xce;" horiz-adv-x="661" d="M35 0l313 1475h428l-313 -1475h-428zM152 1597l348 316h313l213 -316h-358l-47 117l-97 -117h-372z" />
<glyph unicode="&#xcf;" horiz-adv-x="661" d="M35 0l313 1475h428l-313 -1475h-428zM170 1599l63 295h353l-64 -295h-352zM657 1599l64 295h354l-63 -295h-355z" />
<glyph unicode="&#xd0;" horiz-adv-x="1546" d="M37 0l133 631h-111l62 291h110l119 553h545q322 0 502 -148t180 -422q0 -84 -10 -164.5t-37 -172.5t-70 -171.5t-113.5 -154t-162 -127t-222.5 -84t-288 -31.5h-637zM526 293h164q86 0 158 29t119.5 78.5t82.5 109.5t54 128t28 127.5t9 113.5q0 150 -77 227.5t-212 77.5 h-135l-58 -262h199l-61 -291h-199z" />
<glyph unicode="&#xd1;" horiz-adv-x="1531" d="M35 0l313 1475h445l303 -873l186 873h365l-314 -1475h-418l-323 918l-193 -918h-364zM702 1597l54 256q114 60 209 60q63 0 140.5 -38t121.5 -38q35 0 77 15t117 53l-55 -256q-110 -58 -201 -58q-51 0 -97 18.5t-86.5 37t-78.5 18.5q-68 0 -201 -68z" />
<glyph unicode="&#xd2;" horiz-adv-x="1638" d="M117 586q0 79 11 159.5t39 172.5t71 174.5t113 159t158.5 132t213.5 88.5t272 33q102 0 197.5 -22.5t182.5 -71t151.5 -119t102.5 -174t38 -227.5q0 -82 -12 -165t-41 -175t-73.5 -174.5t-115 -158t-159 -130t-212 -87t-268.5 -32.5q-132 0 -249.5 37.5t-212.5 110.5 t-151 194t-56 275zM553 586q0 -82 23 -145t62 -99.5t85.5 -54t97.5 -17.5q74 0 137 30t107 81t78 114.5t53.5 134t29 135t9.5 122.5q0 83 -23 146.5t-61.5 100t-84.5 54.5t-97 18q-91 0 -165 -45.5t-119.5 -115t-76.5 -156t-43 -162.5t-12 -141zM750 1901h385l151 -316h-274 z" />
<glyph unicode="&#xd3;" horiz-adv-x="1638" d="M117 586q0 79 11 159.5t39 172.5t71 174.5t113 159t158.5 132t213.5 88.5t272 33q102 0 197.5 -22.5t182.5 -71t151.5 -119t102.5 -174t38 -227.5q0 -82 -12 -165t-41 -175t-73.5 -174.5t-115 -158t-159 -130t-212 -87t-268.5 -32.5q-132 0 -249.5 37.5t-212.5 110.5 t-151 194t-56 275zM553 586q0 -82 23 -145t62 -99.5t85.5 -54t97.5 -17.5q74 0 137 30t107 81t78 114.5t53.5 134t29 135t9.5 122.5q0 83 -23 146.5t-61.5 100t-84.5 54.5t-97 18q-91 0 -165 -45.5t-119.5 -115t-76.5 -156t-43 -162.5t-12 -141zM846 1585l289 316h409 l-395 -316h-303z" />
<glyph unicode="&#xd4;" horiz-adv-x="1638" d="M117 586q0 79 11 159.5t39 172.5t71 174.5t113 159t158.5 132t213.5 88.5t272 33q102 0 197.5 -22.5t182.5 -71t151.5 -119t102.5 -174t38 -227.5q0 -82 -12 -165t-41 -175t-73.5 -174.5t-115 -158t-159 -130t-212 -87t-268.5 -32.5q-132 0 -249.5 37.5t-212.5 110.5 t-151 194t-56 275zM553 586q0 -82 23 -145t62 -99.5t85.5 -54t97.5 -17.5q74 0 137 30t107 81t78 114.5t53.5 134t29 135t9.5 122.5q0 83 -23 146.5t-61.5 100t-84.5 54.5t-97 18q-91 0 -165 -45.5t-119.5 -115t-76.5 -156t-43 -162.5t-12 -141zM618 1597l349 316h313 l213 -316h-358l-48 117l-96 -117h-373z" />
<glyph unicode="&#xd5;" horiz-adv-x="1638" d="M117 586q0 79 11 159.5t39 172.5t71 174.5t113 159t158.5 132t213.5 88.5t272 33q102 0 197.5 -22.5t182.5 -71t151.5 -119t102.5 -174t38 -227.5q0 -82 -12 -165t-41 -175t-73.5 -174.5t-115 -158t-159 -130t-212 -87t-268.5 -32.5q-132 0 -249.5 37.5t-212.5 110.5 t-151 194t-56 275zM553 586q0 -82 23 -145t62 -99.5t85.5 -54t97.5 -17.5q74 0 137 30t107 81t78 114.5t53.5 134t29 135t9.5 122.5q0 83 -23 146.5t-61.5 100t-84.5 54.5t-97 18q-91 0 -165 -45.5t-119.5 -115t-76.5 -156t-43 -162.5t-12 -141zM737 1597l54 256 q114 60 208 60q63 0 141 -38t122 -38q35 0 77 15t117 53l-55 -256q-110 -58 -201 -58q-51 0 -97 18.5t-86.5 37t-78.5 18.5q-68 0 -201 -68z" />
<glyph unicode="&#xd6;" horiz-adv-x="1638" d="M117 586q0 79 11 159.5t39 172.5t71 174.5t113 159t158.5 132t213.5 88.5t272 33q102 0 197.5 -22.5t182.5 -71t151.5 -119t102.5 -174t38 -227.5q0 -82 -12 -165t-41 -175t-73.5 -174.5t-115 -158t-159 -130t-212 -87t-268.5 -32.5q-132 0 -249.5 37.5t-212.5 110.5 t-151 194t-56 275zM553 586q0 -82 23 -145t62 -99.5t85.5 -54t97.5 -17.5q74 0 137 30t107 81t78 114.5t53.5 134t29 135t9.5 122.5q0 83 -23 146.5t-61.5 100t-84.5 54.5t-97 18q-91 0 -165 -45.5t-119.5 -115t-76.5 -156t-43 -162.5t-12 -141zM653 1599l64 295h352 l-63 -295h-353zM1141 1599l63 295h355l-64 -295h-354z" />
<glyph unicode="&#xd7;" d="M205 442l266 220l-174 219l246 202l172 -219l266 219l166 -209l-266 -219l174 -221l-246 -203l-174 220l-266 -220z" />
<glyph unicode="&#xd8;" horiz-adv-x="1638" d="M100 -225l230 338q-213 168 -213 473q0 79 11 159.5t39 172.5t71 174.5t113 159t158.5 132t213.5 88.5t272 33q134 0 252 -39l146 213h303l-228 -333q199 -167 199 -455q0 -82 -12 -165t-41 -175t-73.5 -174.5t-115 -158t-159 -130t-212 -87t-268.5 -32.5q-116 0 -231 31 l-149 -225h-306zM553 586q0 -82 31 -146l487 744q-45 22 -102 22q-91 0 -165 -45.5t-119.5 -115t-76.5 -156t-43 -162.5t-12 -141zM721 289q52 -19 100 -19q74 0 137 30t107 81t78 114.5t53.5 134t29 135t9.5 122.5q0 72 -29 139z" />
<glyph unicode="&#xd9;" horiz-adv-x="1517" d="M117 403q0 53 12 111l205 961h430l-211 -988q-8 -36 -8 -53q0 -81 54 -124.5t149 -43.5q108 0 176.5 54t91.5 159l211 996h415l-206 -971q-56 -257 -232.5 -396t-484.5 -139q-281 0 -441.5 116.5t-160.5 317.5zM641 1901h385l152 -316h-275z" />
<glyph unicode="&#xda;" horiz-adv-x="1517" d="M117 403q0 53 12 111l205 961h430l-211 -988q-8 -36 -8 -53q0 -81 54 -124.5t149 -43.5q108 0 176.5 54t91.5 159l211 996h415l-206 -971q-56 -257 -232.5 -396t-484.5 -139q-281 0 -441.5 116.5t-160.5 317.5zM840 1585l288 316h410l-395 -316h-303z" />
<glyph unicode="&#xdb;" horiz-adv-x="1517" d="M117 403q0 53 12 111l205 961h430l-211 -988q-8 -36 -8 -53q0 -81 54 -124.5t149 -43.5q108 0 176.5 54t91.5 159l211 996h415l-206 -971q-56 -257 -232.5 -396t-484.5 -139q-281 0 -441.5 116.5t-160.5 317.5zM573 1597l349 316h313l213 -316h-358l-48 117l-96 -117 h-373z" />
<glyph unicode="&#xdc;" horiz-adv-x="1517" d="M117 403q0 53 12 111l205 961h430l-211 -988q-8 -36 -8 -53q0 -81 54 -124.5t149 -43.5q108 0 176.5 54t91.5 159l211 996h415l-206 -971q-56 -257 -232.5 -396t-484.5 -139q-281 0 -441.5 116.5t-160.5 317.5zM592 1599l63 295h353l-64 -295h-352zM1079 1599l64 295h354 l-63 -295h-355z" />
<glyph unicode="&#xdd;" horiz-adv-x="1482" d="M231 1475h449l168 -562l432 562h434l-725 -885l-125 -590h-409l125 590zM827 1585l289 316h410l-396 -316h-303z" />
<glyph unicode="&#xde;" horiz-adv-x="1359" d="M35 0l313 1475h426l-47 -222h74q300 0 447 -108.5t147 -306.5q0 -590 -758 -590h-123l-53 -248h-426zM575 537h72q309 0 309 258q0 84 -54 127t-154 43h-82z" />
<glyph unicode="&#xdf;" horiz-adv-x="1359" d="M12 0l224 1057q25 117 63 196.5t102.5 138t162 86t235.5 27.5q217 0 346 -84t129 -219q0 -63 -23 -114.5t-56 -84.5t-66.5 -61.5t-56.5 -60.5t-23 -68q0 -68 86 -121q198 -124 198 -297q0 -63 -15.5 -122.5t-51 -115t-88 -97t-132 -66.5t-176.5 -25q-202 0 -298.5 90.5 t-96.5 251.5h340q-2 -12 -2 -32q0 -36 18 -55t48 -19q37 0 61.5 37t24.5 100q0 51 -29 91t-96 77q-154 86 -154 209q0 48 15.5 91t39 72.5t51 61t51 57.5t39 61t15.5 73q0 44 -30.5 69t-80.5 25q-67 0 -102 -47.5t-63 -175.5l-64 -293l-221 -713h-324z" />
<glyph unicode="&#xe0;" horiz-adv-x="1189" d="M18 236q0 165 120 262t407 143l229 37l6 29q4 16 4 38q0 44 -26.5 68.5t-75.5 24.5q-51 0 -89.5 -28t-55.5 -77h-396q153 363 590 363q212 0 329.5 -89t117.5 -247q0 -53 -11 -101l-139 -659h-307l-25 119q-57 -64 -154.5 -107t-211.5 -43q-148 0 -230 71.5t-82 195.5z M420 305q0 -78 92 -78q67 0 124 43.5t75 114.5l20 90q-195 -35 -253 -66.5t-58 -103.5zM461 1499h385l151 -315h-274z" />
<glyph unicode="&#xe1;" horiz-adv-x="1189" d="M18 236q0 165 120 262t407 143l229 37l6 29q4 16 4 38q0 44 -26.5 68.5t-75.5 24.5q-51 0 -89.5 -28t-55.5 -77h-396q153 363 590 363q212 0 329.5 -89t117.5 -247q0 -53 -11 -101l-139 -659h-307l-25 119q-57 -64 -154.5 -107t-211.5 -43q-148 0 -230 71.5t-82 195.5z M420 305q0 -78 92 -78q67 0 124 43.5t75 114.5l20 90q-195 -35 -253 -66.5t-58 -103.5zM594 1184l289 315h409l-395 -315h-303z" />
<glyph unicode="&#xe2;" horiz-adv-x="1189" d="M18 236q0 165 120 262t407 143l229 37l6 29q4 16 4 38q0 44 -26.5 68.5t-75.5 24.5q-51 0 -89.5 -28t-55.5 -77h-396q153 363 590 363q212 0 329.5 -89t117.5 -247q0 -53 -11 -101l-139 -659h-307l-25 119q-57 -64 -154.5 -107t-211.5 -43q-148 0 -230 71.5t-82 195.5z M332 1196l348 315h313l213 -315h-358l-47 117l-96 -117h-373zM420 305q0 -78 92 -78q67 0 124 43.5t75 114.5l20 90q-195 -35 -253 -66.5t-58 -103.5z" />
<glyph unicode="&#xe3;" horiz-adv-x="1189" d="M18 236q0 165 120 262t407 143l229 37l6 29q4 16 4 38q0 44 -26.5 68.5t-75.5 24.5q-51 0 -89.5 -28t-55.5 -77h-396q153 363 590 363q212 0 329.5 -89t117.5 -247q0 -53 -11 -101l-139 -659h-307l-25 119q-57 -64 -154.5 -107t-211.5 -43q-148 0 -230 71.5t-82 195.5z M420 305q0 -78 92 -78q67 0 124 43.5t75 114.5l20 90q-195 -35 -253 -66.5t-58 -103.5zM440 1196l54 256q112 59 208 59q63 0 141 -37.5t122 -37.5q60 0 194 67l-55 -256q-108 -57 -201 -57q-51 0 -97 18.5t-86.5 37t-78.5 18.5q-68 0 -201 -68z" />
<glyph unicode="&#xe4;" horiz-adv-x="1189" d="M18 236q0 165 120 262t407 143l229 37l6 29q4 16 4 38q0 44 -26.5 68.5t-75.5 24.5q-51 0 -89.5 -28t-55.5 -77h-396q153 363 590 363q212 0 329.5 -89t117.5 -247q0 -53 -11 -101l-139 -659h-307l-25 119q-57 -64 -154.5 -107t-211.5 -43q-148 0 -230 71.5t-82 195.5z M336 1198l63 295h353l-64 -295h-352zM420 305q0 -78 92 -78q67 0 124 43.5t75 114.5l20 90q-195 -35 -253 -66.5t-58 -103.5zM823 1198l64 295h354l-63 -295h-355z" />
<glyph unicode="&#xe5;" horiz-adv-x="1189" d="M18 236q0 165 120 262t407 143l229 37l6 29q4 16 4 38q0 44 -26.5 68.5t-75.5 24.5q-51 0 -89.5 -28t-55.5 -77h-396q153 363 590 363q212 0 329.5 -89t117.5 -247q0 -53 -11 -101l-139 -659h-307l-25 119q-57 -64 -154.5 -107t-211.5 -43q-148 0 -230 71.5t-82 195.5z M420 305q0 -78 92 -78q67 0 124 43.5t75 114.5l20 90q-195 -35 -253 -66.5t-58 -103.5zM487 1421q0 128 91.5 213.5t257.5 85.5q147 0 227 -73t80 -181q0 -129 -91.5 -213t-258.5 -84q-147 0 -226.5 71.5t-79.5 180.5zM741 1434q0 -36 18 -56t48 -20q35 0 57.5 24.5 t22.5 75.5q0 36 -18 54t-48 18q-35 0 -57.5 -25.5t-22.5 -70.5z" />
<glyph unicode="&#xe6;" horiz-adv-x="1923" d="M18 233q0 111 49.5 188.5t166.5 133t311 86.5l229 37l8 37q4 20 4 30q0 44 -27 68.5t-75 24.5q-55 0 -92.5 -27.5t-52.5 -77.5h-398q156 363 592 363q194 0 322 -97q155 97 334 97q229 0 368 -123.5t139 -349.5q0 -85 -18 -177h-752q-2 -12 -2 -36q0 -172 164 -172 q58 0 98 27.5t58 72.5h403q-77 -170 -229 -269.5t-387 -99.5q-143 0 -254 55.5t-174 153.5q-173 -209 -457 -209q-159 0 -243.5 70t-84.5 194zM420 305q0 -36 24 -57t66 -21q75 0 132 47t71 115l18 86q-132 -23 -196 -44t-89.5 -49t-25.5 -77zM1176 653h342q4 18 4 45 q0 148 -146 148q-136 0 -200 -193z" />
<glyph unicode="&#xe7;" horiz-adv-x="1241" d="M70 406q0 94 20.5 185.5t70.5 184.5t125 162.5t194 113.5t268 44q225 0 361.5 -110.5t139.5 -295.5h-407v17q0 55 -34 83.5t-85 28.5q-69 0 -120 -44t-76.5 -111.5t-37.5 -130.5t-12 -119q0 -85 38.5 -133t90.5 -48q57 0 102.5 43t73.5 123h408q-72 -180 -208 -293 t-339 -131l-6 -47q79 -18 121.5 -69t42.5 -119q0 -132 -101 -209.5t-264 -77.5q-151 0 -242.5 67t-91.5 181v18h260q0 -32 22.5 -54.5t66.5 -22.5q40 0 64 19t24 54q0 37 -44.5 58.5t-136.5 21.5l58 191q-170 32 -258 141.5t-88 278.5z" />
<glyph unicode="&#xe8;" horiz-adv-x="1267" d="M76 436q0 96 24.5 189.5t78 179t129 150t185.5 103t240 38.5q229 0 368.5 -123.5t139.5 -349.5q0 -87 -20 -177h-750q-2 -12 -2 -36q0 -170 164 -170q57 0 97 27t58 71h402q-74 -168 -226 -268.5t-378 -100.5q-232 0 -371 128.5t-139 338.5zM449 1499h385l151 -315h-274z M516 655h342q4 18 4 52q0 141 -143 141q-138 0 -203 -193z" />
<glyph unicode="&#xe9;" horiz-adv-x="1267" d="M76 436q0 96 24.5 189.5t78 179t129 150t185.5 103t240 38.5q229 0 368.5 -123.5t139.5 -349.5q0 -87 -20 -177h-750q-2 -12 -2 -36q0 -170 164 -170q57 0 97 27t58 71h402q-74 -168 -226 -268.5t-378 -100.5q-232 0 -371 128.5t-139 338.5zM516 655h342q4 18 4 52 q0 141 -143 141q-138 0 -203 -193zM580 1184l288 315h410l-395 -315h-303z" />
<glyph unicode="&#xea;" horiz-adv-x="1267" d="M76 436q0 96 24.5 189.5t78 179t129 150t185.5 103t240 38.5q229 0 368.5 -123.5t139.5 -349.5q0 -87 -20 -177h-750q-2 -12 -2 -36q0 -170 164 -170q57 0 97 27t58 71h402q-74 -168 -226 -268.5t-378 -100.5q-232 0 -371 128.5t-139 338.5zM350 1196l348 315h314 l213 -315h-359l-47 117l-96 -117h-373zM516 655h342q4 18 4 52q0 141 -143 141q-138 0 -203 -193z" />
<glyph unicode="&#xeb;" horiz-adv-x="1267" d="M76 436q0 96 24.5 189.5t78 179t129 150t185.5 103t240 38.5q229 0 368.5 -123.5t139.5 -349.5q0 -87 -20 -177h-750q-2 -12 -2 -36q0 -170 164 -170q57 0 97 27t58 71h402q-74 -168 -226 -268.5t-378 -100.5q-232 0 -371 128.5t-139 338.5zM369 1198l63 295h352 l-63 -295h-352zM516 655h342q4 18 4 52q0 141 -143 141q-138 0 -203 -193zM856 1198l64 295h354l-64 -295h-354z" />
<glyph unicode="&#xec;" horiz-adv-x="604" d="M23 0l225 1065h395l-225 -1065h-395zM203 1499h385l151 -315h-274z" />
<glyph unicode="&#xed;" horiz-adv-x="604" d="M23 0l225 1065h395l-225 -1065h-395zM190 1184l289 315h410l-395 -315h-304z" />
<glyph unicode="&#xee;" horiz-adv-x="604" d="M23 0l225 1065h395l-225 -1065h-395zM37 1196l348 315h313l213 -315h-358l-47 117l-96 -117h-373z" />
<glyph unicode="&#xef;" horiz-adv-x="604" d="M23 0l225 1065h395l-225 -1065h-395zM53 1198l64 295h352l-63 -295h-353zM541 1198l63 295h354l-63 -295h-354z" />
<glyph unicode="&#xf0;" horiz-adv-x="1206" d="M66 412q0 258 157.5 418.5t403.5 160.5q49 0 105.5 -16.5t78.5 -40.5q-16 94 -57 153l-35 -28h-309l184 153q-79 41 -195 66l58 264q227 -22 399 -110l51 43h310l-195 -162q98 -92 150.5 -222.5t52.5 -281.5q0 -109 -21 -219.5t-71.5 -223.5t-125.5 -200t-193.5 -142 t-264.5 -55q-213 0 -348 118t-135 325zM477 389q0 -72 27 -111.5t80 -39.5q57 0 101.5 55.5t65.5 126.5t21 135q0 170 -106 170q-49 0 -87.5 -34t-59.5 -87t-31.5 -108t-10.5 -107z" />
<glyph unicode="&#xf1;" horiz-adv-x="1243" d="M12 0l226 1065h335l7 -119q70 70 161.5 110t178.5 40q149 0 232 -79t83 -226q0 -69 -14 -132l-142 -659h-397l141 659q8 36 8 62q0 49 -28 75.5t-74 26.5q-72 0 -121 -52.5t-67 -139.5l-133 -631h-396zM475 1196l53 256q112 59 209 59q63 0 140.5 -37.5t121.5 -37.5 q61 0 195 67l-55 -256q-108 -57 -201 -57q-51 0 -97 18.5t-86.5 37t-78.5 18.5q-68 0 -201 -68z" />
<glyph unicode="&#xf2;" horiz-adv-x="1288" d="M74 426q0 61 8.5 121.5t30 128t54.5 127t86 114t120 93.5t161 62.5t205 23.5q158 0 278 -50.5t189.5 -153.5t69.5 -247q0 -106 -24 -202.5t-76.5 -183.5t-129.5 -151t-190.5 -101.5t-251.5 -37.5q-238 0 -384 119.5t-146 337.5zM471 1499h385l152 -315h-275zM479 414 q0 -183 158 -183q57 0 101.5 34t69 83t40.5 111.5t21 111.5t5 91q0 90 -39 131t-116 41q-58 0 -103 -33.5t-70 -81.5t-41 -109t-21 -108.5t-5 -87.5z" />
<glyph unicode="&#xf3;" horiz-adv-x="1288" d="M74 426q0 61 8.5 121.5t30 128t54.5 127t86 114t120 93.5t161 62.5t205 23.5q158 0 278 -50.5t189.5 -153.5t69.5 -247q0 -106 -24 -202.5t-76.5 -183.5t-129.5 -151t-190.5 -101.5t-251.5 -37.5q-238 0 -384 119.5t-146 337.5zM479 414q0 -183 158 -183q57 0 101.5 34 t69 83t40.5 111.5t21 111.5t5 91q0 90 -39 131t-116 41q-58 0 -103 -33.5t-70 -81.5t-41 -109t-21 -108.5t-5 -87.5zM588 1184l289 315h409l-395 -315h-303z" />
<glyph unicode="&#xf4;" horiz-adv-x="1288" d="M74 426q0 61 8.5 121.5t30 128t54.5 127t86 114t120 93.5t161 62.5t205 23.5q158 0 278 -50.5t189.5 -153.5t69.5 -247q0 -106 -24 -202.5t-76.5 -183.5t-129.5 -151t-190.5 -101.5t-251.5 -37.5q-238 0 -384 119.5t-146 337.5zM350 1196l348 315h314l213 -315h-359 l-47 117l-96 -117h-373zM479 414q0 -183 158 -183q57 0 101.5 34t69 83t40.5 111.5t21 111.5t5 91q0 90 -39 131t-116 41q-58 0 -103 -33.5t-70 -81.5t-41 -109t-21 -108.5t-5 -87.5z" />
<glyph unicode="&#xf5;" horiz-adv-x="1288" d="M74 426q0 61 8.5 121.5t30 128t54.5 127t86 114t120 93.5t161 62.5t205 23.5q158 0 278 -50.5t189.5 -153.5t69.5 -247q0 -106 -24 -202.5t-76.5 -183.5t-129.5 -151t-190.5 -101.5t-251.5 -37.5q-238 0 -384 119.5t-146 337.5zM473 1196l53 256q112 59 209 59 q63 0 140.5 -37.5t121.5 -37.5q61 0 195 67l-55 -256q-108 -57 -201 -57q-51 0 -97 18.5t-86.5 37t-78.5 18.5q-68 0 -201 -68zM479 414q0 -183 158 -183q57 0 101.5 34t69 83t40.5 111.5t21 111.5t5 91q0 90 -39 131t-116 41q-58 0 -103 -33.5t-70 -81.5t-41 -109 t-21 -108.5t-5 -87.5z" />
<glyph unicode="&#xf6;" horiz-adv-x="1288" d="M74 426q0 61 8.5 121.5t30 128t54.5 127t86 114t120 93.5t161 62.5t205 23.5q158 0 278 -50.5t189.5 -153.5t69.5 -247q0 -106 -24 -202.5t-76.5 -183.5t-129.5 -151t-190.5 -101.5t-251.5 -37.5q-238 0 -384 119.5t-146 337.5zM367 1198l63 295h352l-63 -295h-352z M479 414q0 -183 158 -183q57 0 101.5 34t69 83t40.5 111.5t21 111.5t5 91q0 90 -39 131t-116 41q-58 0 -103 -33.5t-70 -81.5t-41 -109t-21 -108.5t-5 -87.5zM854 1198l64 295h354l-64 -295h-354z" />
<glyph unicode="&#xf7;" d="M178 512l60 287h927l-61 -287h-926zM371 123l69 323h375l-70 -323h-374zM528 864l68 324h375l-70 -324h-373z" />
<glyph unicode="&#xf8;" horiz-adv-x="1288" d="M-8 -225l225 313q-145 126 -145 336q0 88 17 173.5t64 178t118.5 161.5t192.5 114t275 45q93 0 187 -23l153 217h277l-226 -317q144 -119 144 -328q0 -106 -24 -202.5t-76.5 -183.5t-129 -151t-189.5 -101.5t-251 -37.5q-91 0 -178 23l-152 -217h-282zM479 457 q0 -55 4 -78l310 440q-35 12 -74 12q-66 0 -116 -40.5t-75 -102.5t-37 -120.5t-12 -110.5zM563 244q33 -13 74 -13q55 0 98.5 33.5t68.5 82t41.5 107t22.5 103.5t6 78q0 45 -2 57z" />
<glyph unicode="&#xf9;" d="M68 270q0 58 16 136l139 659h395l-137 -653q-10 -50 -10 -68q0 -47 27 -74.5t73 -27.5q68 0 114.5 53t66.5 141l133 629h393l-225 -1065h-334l-8 109q-143 -140 -332 -140q-150 0 -230.5 79t-80.5 222zM397 1499h385l152 -315h-275z" />
<glyph unicode="&#xfa;" d="M68 270q0 58 16 136l139 659h395l-137 -653q-10 -50 -10 -68q0 -47 27 -74.5t73 -27.5q68 0 114.5 53t66.5 141l133 629h393l-225 -1065h-334l-8 109q-143 -140 -332 -140q-150 0 -230.5 79t-80.5 222zM612 1184l289 315h410l-396 -315h-303z" />
<glyph unicode="&#xfb;" d="M68 270q0 58 16 136l139 659h395l-137 -653q-10 -50 -10 -68q0 -47 27 -74.5t73 -27.5q68 0 114.5 53t66.5 141l133 629h393l-225 -1065h-334l-8 109q-143 -140 -332 -140q-150 0 -230.5 79t-80.5 222zM336 1196l348 315h313l213 -315h-358l-47 117l-96 -117h-373z" />
<glyph unicode="&#xfc;" d="M68 270q0 58 16 136l139 659h395l-137 -653q-10 -50 -10 -68q0 -47 27 -74.5t73 -27.5q68 0 114.5 53t66.5 141l133 629h393l-225 -1065h-334l-8 109q-143 -140 -332 -140q-150 0 -230.5 79t-80.5 222zM358 1198l64 295h352l-63 -295h-353zM846 1198l63 295h355l-64 -295 h-354z" />
<glyph unicode="&#xfd;" horiz-adv-x="1216" d="M39 -367l57 267q93 -29 146 -29q45 0 77 28t68 101h-74l-170 1065h410l27 -782l370 782h412l-614 -1079q-128 -224 -231.5 -304.5t-258.5 -80.5q-110 0 -219 32zM627 1184l288 315h410l-395 -315h-303z" />
<glyph unicode="&#xfe;" horiz-adv-x="1312" d="M-68 -369l394 1844h397l-111 -519q143 140 328 140q170 0 269.5 -107t99.5 -295q0 -98 -21 -196.5t-68.5 -194.5t-115 -169.5t-169 -119t-222.5 -45.5q-86 0 -161 32t-122 89l-98 -459h-400zM502 430q0 -88 39.5 -133t111.5 -45q57 0 102.5 29t72.5 72t45 97t25 99t7 82 q0 89 -40.5 135.5t-108.5 46.5q-56 0 -101 -27.5t-73 -69.5t-46.5 -95.5t-26 -101t-7.5 -89.5z" />
<glyph unicode="&#xff;" horiz-adv-x="1216" d="M39 -367l57 267q93 -29 146 -29q45 0 77 28t68 101h-74l-170 1065h410l27 -782l370 782h412l-614 -1079q-128 -224 -231.5 -304.5t-258.5 -80.5q-110 0 -219 32zM360 1198l64 295h352l-63 -295h-353zM848 1198l63 295h355l-64 -295h-354z" />
<glyph unicode="&#x152;" horiz-adv-x="2011" d="M115 565q0 146 33 280.5t105 255.5t176.5 210t258 141.5t338.5 52.5q137 0 254 -30h891l-66 -304h-575l-62 -286h517l-62 -285h-514l-66 -301h576l-61 -299h-900q-127 -31 -235 -31q-99 0 -188.5 22t-166.5 69.5t-133 116.5t-88 168.5t-32 219.5zM549 569 q0 -152 69 -225.5t177 -73.5q58 0 120 23l187 887q-46 24 -119 24q-95 0 -171.5 -43t-124.5 -109.5t-80 -153t-45 -168.5t-13 -161z" />
<glyph unicode="&#x153;" horiz-adv-x="2048" d="M72 432q0 128 42.5 245t123.5 211.5t212 151t293 56.5q112 0 209.5 -35t167.5 -98q173 133 396 133q229 0 367 -123.5t138 -349.5q0 -72 -20 -177h-752q-2 -12 -2 -36q0 -172 164 -172q57 0 97.5 27.5t60.5 72.5h401q-75 -168 -227.5 -268.5t-378.5 -100.5 q-217 0 -358 131q-165 -131 -408 -131q-236 0 -381 122.5t-145 340.5zM477 428q0 -197 146 -197q109 0 180 114t71 314q0 172 -147 172q-58 0 -103.5 -28.5t-72.5 -71.5t-44.5 -99.5t-23.5 -106t-6 -97.5zM1294 653h344q4 36 4 52q0 69 -39 105t-108 36q-137 0 -201 -193z " />
<glyph unicode="&#x178;" horiz-adv-x="1482" d="M231 1475h449l168 -562l432 562h434l-725 -885l-125 -590h-409l125 590zM586 1599l63 295h352l-63 -295h-352zM1073 1599l64 295h354l-64 -295h-354z" />
<glyph unicode="&#x2c6;" horiz-adv-x="997" d="M231 1196l349 315h313l213 -315h-358l-48 117l-96 -117h-373z" />
<glyph unicode="&#x2dc;" horiz-adv-x="776" d="M233 1196l54 256q112 59 209 59q63 0 140.5 -37.5t121.5 -37.5q60 0 194 67l-55 -256q-108 -57 -201 -57q-51 0 -97 18.5t-86.5 37t-78.5 18.5q-68 0 -201 -68z" />
<glyph unicode="&#x2000;" horiz-adv-x="956" />
<glyph unicode="&#x2001;" horiz-adv-x="1913" />
<glyph unicode="&#x2002;" horiz-adv-x="956" />
<glyph unicode="&#x2003;" horiz-adv-x="1913" />
<glyph unicode="&#x2004;" horiz-adv-x="637" />
<glyph unicode="&#x2005;" horiz-adv-x="478" />
<glyph unicode="&#x2006;" horiz-adv-x="318" />
<glyph unicode="&#x2007;" horiz-adv-x="318" />
<glyph unicode="&#x2008;" horiz-adv-x="239" />
<glyph unicode="&#x2009;" horiz-adv-x="382" />
<glyph unicode="&#x200a;" horiz-adv-x="106" />
<glyph unicode="&#x2010;" horiz-adv-x="1105" d="M162 512l61 287h809l-61 -287h-809z" />
<glyph unicode="&#x2011;" horiz-adv-x="1105" d="M162 512l61 287h809l-61 -287h-809z" />
<glyph unicode="&#x2012;" horiz-adv-x="1105" d="M162 512l61 287h809l-61 -287h-809z" />
<glyph unicode="&#x2013;" horiz-adv-x="921" d="M63 512l60 287h850l-62 -287h-848z" />
<glyph unicode="&#x2014;" horiz-adv-x="1312" d="M63 512l60 287h1241l-61 -287h-1240z" />
<glyph unicode="&#x2018;" horiz-adv-x="552" d="M125 743l63 301q83 399 564 431l-41 -183q-86 -11 -143 -56t-74 -122h143l-80 -371h-432z" />
<glyph unicode="&#x2019;" horiz-adv-x="552" d="M109 743l38 181q87 11 144 56.5t74 123.5h-142l78 371h432l-69 -326q-44 -203 -182 -296.5t-373 -109.5z" />
<glyph unicode="&#x201a;" horiz-adv-x="552" d="M-125 -360l37 180q88 11 145 56.5t74 123.5h-143l78 371h432l-70 -326q-44 -204 -180.5 -296.5t-372.5 -108.5z" />
<glyph unicode="&#x201c;" horiz-adv-x="1091" d="M139 743l70 326q44 204 181 297t376 109l-41 -183q-86 -11 -143 -56t-74 -122h143l-80 -371h-432zM664 743l69 326q42 204 180 297t377 109l-41 -183q-86 -11 -143 -56t-74 -122h144l-80 -371h-432z" />
<glyph unicode="&#x201d;" horiz-adv-x="1091" d="M109 743l38 181q87 11 144 56.5t74 123.5h-142l78 371h432l-69 -326q-42 -203 -180 -296.5t-375 -109.5zM633 743l39 181q87 11 143.5 56.5t73.5 123.5h-141l77 371h432l-69 -326q-44 -203 -182 -296.5t-373 -109.5z" />
<glyph unicode="&#x201e;" horiz-adv-x="1077" d="M-125 -360l37 180q88 11 145 56.5t74 123.5h-143l78 371h432l-70 -326q-44 -204 -180.5 -296.5t-372.5 -108.5zM397 -360l39 180q88 11 145 56.5t74 123.5h-143l78 371h432l-70 -326q-22 -104 -68.5 -179.5t-119 -122t-161.5 -71t-206 -32.5z" />
<glyph unicode="&#x2022;" horiz-adv-x="686" d="M76 403l102 488h527l-105 -488h-524z" />
<glyph unicode="&#x2026;" horiz-adv-x="1861" d="M12 0l78 371h432l-78 -371h-432zM633 0l78 371h432l-78 -371h-432zM1253 0l78 371h432l-77 -371h-433z" />
<glyph unicode="&#x202f;" horiz-adv-x="382" />
<glyph unicode="&#x2039;" horiz-adv-x="700" d="M115 641l356 424h307l-284 -434l71 -455h-286z" />
<glyph unicode="&#x203a;" horiz-adv-x="700" d="M43 176l268 455l-102 434h291l192 -424l-344 -465h-305z" />
<glyph unicode="&#x205f;" horiz-adv-x="478" />
<glyph unicode="&#x20ac;" d="M2 473l90 209h55q3 30 17 86h-98l90 209h67q86 237 245 362t413 125q220 0 359.5 -108t139.5 -285v-24h-379q-1 64 -43.5 94t-103.5 30q-148 0 -231 -194h362l-90 -209h-338q-8 -30 -16 -86h321l-90 -209h-244q14 -211 170 -211q56 0 97.5 28t72.5 95h379 q-72 -198 -222.5 -307t-371.5 -109q-98 0 -185 30.5t-158.5 90.5t-117 158.5t-53.5 224.5h-137z" />
<glyph unicode="&#x2122;" horiz-adv-x="1748" d="M205 1249v226h1009l125 -408l117 408h363v-822h-267v363l-112 -363h-209l-113 363v-363h-262v596h-141v-596h-277v596h-233z" />
<glyph unicode="&#x25fc;" horiz-adv-x="1064" d="M0 0v1065h1065v-1065h-1065z" />
<glyph unicode="&#xfb01;" horiz-adv-x="1292" d="M86 0l168 797h-156l58 268h155l13 65q39 209 150 292t335 83q183 0 360 -43l-57 -276q-150 33 -250 33q-71 0 -103.5 -25.5t-43.5 -83.5l-8 -45h634l-225 -1065h-397l168 797h-238l-168 -797h-395z" />
<glyph unicode="&#xfb02;" horiz-adv-x="1304" d="M86 0l170 797h-156l56 268h155l15 65q45 207 152 291t315 84q139 0 270 -30l379 18l-318 -1493h-397l254 1202q-83 17 -123 17q-67 0 -100.5 -26.5t-42.5 -82.5l-6 -45h139l-57 -268h-140l-170 -797h-395z" />
<glyph unicode="&#xfb03;" horiz-adv-x="1921" d="M86 0l168 797h-156l58 268h155l8 45q37 207 147 291t322 84q218 0 373 -55q122 75 301 75q154 0 344 -41l-57 -274q-149 29 -246 29q-84 0 -116.5 -35.5t-43.5 -118.5h627l-225 -1065h-387l168 797h-240l-168 -797h-395l168 797h-242l-168 -797h-395zM707 1065h241 l27 117q-78 16 -135 16q-61 0 -88.5 -22t-38.5 -78z" />
<glyph unicode="&#xfb04;" horiz-adv-x="1941" d="M86 0l168 797h-156l58 268h155l8 45q37 207 147 291t322 84q211 0 365 -53q115 73 301 73q126 0 248 -28l377 16l-318 -1493h-397q165 767 256 1206q-80 13 -127 13q-33 0 -56 -6.5t-37 -15.5t-25 -32t-16.5 -41.5t-15.5 -58.5h148l-55 -268h-150l-168 -797h-395l168 797 h-242l-168 -797h-395zM707 1065h241l27 117q-78 16 -135 16q-61 0 -88.5 -22t-38.5 -78z" />
</font>
</defs>
</svg>
