<?xml version="1.0" standalone="no"?>
<!DOCTYPE svg PUBLIC "-//W3C//DTD SVG 1.1//EN" "http://www.w3.org/Graphics/SVG/1.1/DTD/svg11.dtd" >
<svg xmlns="http://www.w3.org/2000/svg" xmlns:xlink="http://www.w3.org/1999/xlink" version="1.1">
<metadata></metadata>
<defs>
<font id="ciscosansbold" horiz-adv-x="1228" >
<font-face units-per-em="2048" ascent="1618" descent="-430" />
<missing-glyph horiz-adv-x="532" />
<glyph horiz-adv-x="0" />
<glyph horiz-adv-x="0" />
<glyph horiz-adv-x="682" />
<glyph unicode="&#xd;" horiz-adv-x="532" />
<glyph unicode=" "  horiz-adv-x="532" />
<glyph unicode="&#x09;" horiz-adv-x="532" />
<glyph unicode="&#xa0;" horiz-adv-x="532" />
<glyph unicode="!" horiz-adv-x="634" d="M115 1505h405l-51 -1013h-303zM135 0v322h363v-322h-363z" />
<glyph unicode="&#x22;" d="M154 1317v188h266v-188l-31 -313h-205zM522 1317v188h266v-188l-30 -313h-205z" />
<glyph unicode="#" d="M82 328v225h135l29 328h-123v225h143l29 328h264l-29 -328h236l29 328h264l-29 -328h117v-225h-137l-29 -328h125v-225h-143l-29 -328h-264l28 328h-235l-29 -328h-264l29 328h-117zM481 553h236l28 328h-235z" />
<glyph unicode="$" d="M0 432h326q40 -225 301 -225q256 0 256 162q0 43 -14.5 74.5t-38 53t-71 40.5t-96 32t-131.5 31q-60 13 -104.5 25t-97.5 31t-90.5 41t-75 55.5t-60.5 73t-37 93.5t-14 119q0 177 107 283.5t319 132.5v246h264v-242q391 -47 447 -403h-322q-16 91 -84 132.5t-168 41.5 q-102 0 -159.5 -33t-57.5 -117q0 -35 10.5 -59.5t27.5 -41t55.5 -31.5t76.5 -24.5t109 -25.5q97 -21 167.5 -42t147.5 -59.5t125 -86.5t79.5 -122.5t31.5 -168.5q0 -83 -26.5 -154.5t-81.5 -133.5t-151.5 -103t-226.5 -54v-249h-264v253q-103 14 -184.5 50t-132 81t-86 104 t-52 110.5t-24.5 109.5z" />
<glyph unicode="%" horiz-adv-x="1636" d="M41 1118q0 160 94 253t264 93t264.5 -93t94.5 -253t-94.5 -253t-264.5 -93t-264 93t-94 253zM258 1118q0 -186 141 -186q69 0 105.5 47t36.5 139q0 93 -37 140t-105 47t-104.5 -47t-36.5 -140zM342 0l700 1434h254l-700 -1434h-254zM879 313q0 160 94 253t264 93t264 -93 t94 -253t-94 -253t-264 -93t-264 93t-94 253zM1096 313q0 -186 141 -186t141 186q0 93 -36.5 140t-104.5 47t-104.5 -47t-36.5 -140z" />
<glyph unicode="&#x26;" horiz-adv-x="1402" d="M82 358q0 86 33 155.5t86 119.5t143 110q-104 90 -152.5 175.5t-48.5 195.5q0 65 25 125t76.5 111.5t141.5 82.5t208 31q117 0 205.5 -29t138.5 -77.5t74 -104.5t24 -118q0 -68 -19.5 -125.5t-59 -106.5t-86 -88.5t-113.5 -85.5l225 -192q27 90 39 188l299 -39 q-23 -191 -113 -362l174 -164l-206 -191l-142 133q-74 -62 -179.5 -97.5t-221.5 -35.5q-276 0 -413.5 106.5t-137.5 282.5zM430 381q0 -87 60 -133.5t157 -46.5q56 0 111.5 21t91.5 57l-311 276q-61 -51 -85 -89.5t-24 -84.5zM451 1114q0 -54 26 -99t94 -104q96 69 130 115 t34 102q0 66 -36.5 101t-102.5 35q-73 0 -109 -39.5t-36 -110.5z" />
<glyph unicode="'" horiz-adv-x="552" d="M143 1317v188h267v-188l-31 -313h-205z" />
<glyph unicode="(" horiz-adv-x="696" d="M72 655q0 149 29 300.5t78 280t102.5 232t113.5 191.5h271q-153 -277 -223 -520.5t-70 -483.5t70 -483t223 -520h-271q-60 88 -113.5 191t-102.5 232t-78 280t-29 300z" />
<glyph unicode=")" horiz-adv-x="696" d="M31 -348q153 277 223 520t70 483t-70 483.5t-223 520.5h270q60 -88 113.5 -191.5t103 -232t78.5 -280t29 -300.5t-29 -300t-78.5 -280t-103 -232t-113.5 -191h-270z" />
<glyph unicode="*" horiz-adv-x="962" d="M70 1098l90 270l229 -123l-61 260h282l-47 -264l236 127l90 -270l-268 -21l190 -180l-229 -168l-103 244l-102 -244l-230 168l189 180z" />
<glyph unicode="+" d="M164 535v251h317v324h264v-324h320v-251h-320v-326h-264v326h-317z" />
<glyph unicode="," horiz-adv-x="552" d="M74 -215q80 18 125 72t45 143h-129v322h362v-261q0 -91 -25.5 -164.5t-65.5 -120.5t-94.5 -80.5t-107.5 -49t-110 -21.5v160z" />
<glyph unicode="-" horiz-adv-x="1105" d="M164 535v251h778v-251h-778z" />
<glyph unicode="." horiz-adv-x="591" d="M115 0v322h362v-322h-362z" />
<glyph unicode="/" horiz-adv-x="696" d="M0 -184l414 1689h282l-413 -1689h-283z" />
<glyph unicode="0" d="M70 713q0 751 544 751q262 0 403.5 -182t141.5 -569q0 -377 -143.5 -560.5t-401.5 -183.5t-401 183.5t-143 560.5zM399 713q0 -201 26.5 -320t72 -163t116.5 -44t116.5 44t72 163t26.5 320q0 202 -26.5 322.5t-72 167t-116.5 46.5t-116.5 -46.5t-72 -167t-26.5 -322.5z " />
<glyph unicode="1" d="M203 971v289l329 174h318v-1434h-320v1139z" />
<glyph unicode="2" d="M90 1040q19 133 101.5 231t199 145.5t250.5 47.5q215 0 354.5 -113.5t139.5 -295.5q0 -42 -4 -78t-17 -73t-25.5 -65.5t-41 -67t-50.5 -66t-68 -75t-80.5 -81.5t-98.5 -96l-199 -193h573v-260h-993v260l346 340q192 191 241 249q78 94 89 171q2 17 2 35q0 81 -48 126.5 t-130 45.5q-74 0 -130 -47.5t-77 -139.5h-334z" />
<glyph unicode="3" d="M72 367h317q11 -76 62.5 -121t138.5 -45q92 0 148.5 54.5t56.5 154.5q0 235 -248 235h-125v219h141q84 0 144.5 53.5t60.5 143.5q0 81 -48.5 127.5t-121.5 46.5q-152 0 -182 -141h-312q26 170 163.5 270t348.5 100q97 0 181.5 -23t151 -67.5t105 -118.5t38.5 -168 q0 -117 -85.5 -207t-211.5 -110q137 -15 233 -117t96 -237q0 -201 -145.5 -324t-384.5 -123q-221 0 -364 112.5t-158 285.5z" />
<glyph unicode="4" d="M84 270v271l602 893h322v-928h161v-236h-161v-270h-303v270h-621zM381 506h324v500z" />
<glyph unicode="5" d="M92 369h311q37 -168 197 -168q95 0 155 70t60 204q0 270 -219 270q-48 0 -102 -24t-93 -64h-251l36 777h856v-226h-569l-18 -321q109 67 241 67q200 0 324.5 -124.5t124.5 -342.5q0 -158 -74 -277t-198.5 -180t-278.5 -61q-205 0 -339 105t-163 295z" />
<glyph unicode="6" d="M74 670q0 134 17.5 246t47 193t73 143.5t92.5 102t107.5 64.5t115.5 35t120 10q190 0 317.5 -81.5t174.5 -231.5h-346q-34 98 -148 98q-46 0 -83.5 -20t-72 -66.5t-58.5 -133.5t-34 -210q50 70 133.5 115t182.5 45q204 0 324 -126.5t120 -352.5q0 -232 -145 -381.5 t-385 -149.5q-261 0 -407 180t-146 521zM412 473q0 -43 9.5 -87t31 -89t64.5 -73.5t101 -28.5q96 0 157 79.5t61 204.5q0 137 -52 206t-151 69q-103 0 -162 -80t-59 -201z" />
<glyph unicode="7" d="M123 1192v242h993v-250l-530 -1184h-336l553 1192h-680z" />
<glyph unicode="8" d="M72 381q0 139 64 222.5t198 141.5q-54 30 -91.5 58t-70.5 67.5t-49.5 91.5t-16.5 117q0 82 28 148t76 110t114 73t139 41.5t155 12.5q70 0 136.5 -10.5t134.5 -37t118 -66.5t81.5 -104.5t31.5 -145.5q0 -215 -233 -336q56 -30 99.5 -62.5t84.5 -77.5t63.5 -104t22.5 -127 q0 -193 -142 -308.5t-397 -115.5t-400.5 113t-145.5 299zM410 393q0 -52 19 -92.5t49.5 -63t64.5 -33.5t69 -11t69.5 11t66.5 33.5t51.5 63t19.5 92.5q0 48 -16 87t-38 63.5t-58.5 45.5t-64.5 32t-69 24q-74 -36 -118.5 -95t-44.5 -157zM420 1090q0 -51 20 -91t55.5 -66.5 t68.5 -42t75 -28.5q168 84 168 228q0 39 -13.5 70t-33.5 50t-46 31.5t-50 17.5t-46 5q-23 0 -47 -4t-52 -15.5t-49 -29.5t-35.5 -50.5t-14.5 -74.5z" />
<glyph unicode="9" d="M70 958q0 120 45 218t120.5 159.5t170.5 95t198 33.5q260 0 405.5 -170.5t145.5 -529.5q0 -181 -31 -321t-82.5 -228.5t-125 -144.5t-152 -78.5t-170.5 -22.5q-197 0 -330 92t-176 252h346q27 -129 162 -129q45 0 80.5 19.5t67 65t53 129.5t32.5 206q-47 -67 -123 -108 t-171 -41q-229 0 -347 135.5t-118 367.5zM391 969q0 -141 54 -215t157 -74q106 0 160.5 78t54.5 203q0 53 -10 98.5t-32 88t-64 67t-101 24.5q-110 0 -164.5 -76.5t-54.5 -193.5z" />
<glyph unicode=":" horiz-adv-x="591" d="M115 0v322h362v-322h-362zM115 743v322h362v-322h-362z" />
<glyph unicode=";" horiz-adv-x="591" d="M74 -215q80 18 125 72t45 143h-129v322h362v-261q0 -91 -25.5 -164.5t-65.5 -120.5t-94.5 -80.5t-107.5 -49t-110 -21.5v160zM115 743v322h362v-322h-362z" />
<glyph unicode="&#x3c;" d="M164 543v239l901 430v-303l-578 -239v-15l578 -239v-303z" />
<glyph unicode="=" d="M164 324v251h901v-251h-901zM164 743v252h901v-252h-901z" />
<glyph unicode="&#x3e;" d="M164 113v303l577 239v15l-577 239v303l901 -430v-239z" />
<glyph unicode="?" horiz-adv-x="1122" d="M94 1096q9 171 152 290t348 119q217 0 338 -95.5t121 -252.5q0 -63 -10 -109t-44 -104.5t-70.5 -106.5t-117.5 -147q-36 -45 -47.5 -95.5t-11.5 -123.5h-322q0 147 20 217.5t103 173.5q101 126 128.5 175t27.5 102q0 62 -30.5 94.5t-88.5 32.5q-117 0 -150 -170h-346z M412 0v322h362v-322h-362z" />
<glyph unicode="@" horiz-adv-x="1873" d="M82 645q0 133 28 248t77.5 201.5t118 156.5t147.5 116.5t168.5 78t178 45.5t179.5 14q174 0 322 -46.5t257.5 -133t171.5 -218.5t62 -296q0 -284 -126 -450t-318 -166q-96 0 -159 52.5t-71 125.5q-29 -59 -107 -108.5t-177 -49.5q-108 0 -183 53.5t-109 139t-34 196.5 q0 120 36 221t96.5 167.5t138.5 103.5t163 37q57 0 104 -25.5t62 -63.5l37 74h209l-70 -540q-10 -72 -10 -101q0 -54 17 -73t52 -19q85 0 126.5 112t41.5 312q0 242 -130 365.5t-402 123.5q-86 0 -169 -19.5t-165.5 -67.5t-144 -120.5t-100 -188t-38.5 -259.5 q0 -134 33.5 -240.5t90.5 -176.5t137.5 -116t168.5 -65.5t189 -19.5q149 0 324 55l55 -201q-176 -65 -395 -65q-135 0 -262.5 32.5t-240.5 100.5t-197.5 164.5t-133.5 234t-49 299.5zM778 571q0 -163 109 -163q51 0 89.5 48.5t51.5 145.5l19 143q4 27 4 70q0 129 -93 129 q-83 0 -131.5 -94.5t-48.5 -278.5z" />
<glyph unicode="A" horiz-adv-x="1435" d="M0 0l524 1475h383l529 -1475h-363l-104 338h-525l-104 -338h-340zM514 563h387l-192 629z" />
<glyph unicode="B" horiz-adv-x="1325" d="M123 0v1475h491q310 0 451 -96t141 -296q0 -113 -76.5 -192t-191.5 -111q152 -30 239 -120.5t87 -233.5q0 -218 -145 -322t-468 -104h-528zM467 225h199q132 0 189.5 50t57.5 161q0 110 -61.5 169t-175.5 59h-209v-439zM467 877h178q103 0 160 49.5t57 146.5 q0 86 -60 131t-163 45h-172v-372z" />
<glyph unicode="C" horiz-adv-x="1517" d="M82 741q0 369 187 566.5t515 197.5q262 0 437.5 -133.5t214.5 -378.5h-344q-29 136 -108.5 204.5t-199.5 68.5q-161 0 -252.5 -128.5t-91.5 -396.5q0 -141 26 -246t73 -165.5t105.5 -89.5t129.5 -29q299 0 322 332h350q-34 -282 -207 -428t-471 -146q-149 0 -273.5 49 t-217 143.5t-144 243t-51.5 336.5z" />
<glyph unicode="D" horiz-adv-x="1492" d="M123 0v1475h553q735 0 735 -738q0 -737 -731 -737h-557zM467 240h213q185 0 285 121.5t100 375.5q0 253 -102 376.5t-287 123.5h-209v-997z" />
<glyph unicode="E" horiz-adv-x="1189" d="M123 0v1475h995v-252h-651v-361h592v-237h-592v-377h651v-248h-995z" />
<glyph unicode="F" horiz-adv-x="1120" d="M123 0v1475h936v-248h-592v-393h528v-238h-528v-596h-344z" />
<glyph unicode="G" horiz-adv-x="1533" d="M82 743q0 369 193 565.5t526 196.5q250 0 418.5 -119.5t212.5 -332.5h-342q-29 107 -103.5 160t-185.5 53q-166 0 -263.5 -127t-97.5 -396t99.5 -400.5t263.5 -131.5q143 0 237.5 79.5t94.5 203.5v104h-349v223h646v-821h-222l-49 137q-151 -168 -424 -168 q-136 0 -253 47.5t-207.5 140.5t-142.5 243.5t-52 342.5z" />
<glyph unicode="H" horiz-adv-x="1480" d="M123 0v1475h344v-607h549v607h342v-1475h-342v623h-549v-623h-344z" />
<glyph unicode="I" horiz-adv-x="589" d="M123 0v1475h344v-1475h-344z" />
<glyph unicode="J" horiz-adv-x="1157" d="M41 436h328q6 -116 57.5 -169.5t120.5 -53.5q168 0 168 231v1031h329v-1008q0 -235 -123 -366.5t-366 -131.5q-76 0 -144.5 15t-132.5 50t-112.5 88t-81.5 133t-43 181z" />
<glyph unicode="K" horiz-adv-x="1466" d="M123 0v1475h344v-619l520 619h402l-617 -691l694 -784h-450l-549 643v-643h-344z" />
<glyph unicode="L" horiz-adv-x="1224" d="M123 0v1475h344v-1217h717v-258h-1061z" />
<glyph unicode="M" horiz-adv-x="1828" d="M123 0v1475h393l399 -1151l388 1151h403v-1475h-311v1016l-346 -1016h-281l-354 1014v-1014h-291z" />
<glyph unicode="N" horiz-adv-x="1476" d="M123 0v1475h381l557 -1008v1008h293v-1475h-355l-581 1047v-1047h-295z" />
<glyph unicode="O" horiz-adv-x="1605" d="M82 735q0 163 40.5 295t108.5 219t162 146t196 84.5t214 25.5q113 0 214.5 -24.5t195.5 -82t162 -144t108.5 -219t40.5 -298.5q0 -163 -40.5 -294.5t-109 -218.5t-162.5 -145.5t-195.5 -84t-213.5 -25.5t-213.5 24.5t-195.5 81.5t-162 143t-109 218.5t-41 298.5zM430 735 q0 -116 21.5 -207.5t57 -149.5t85 -96t101 -53.5t108.5 -15.5q59 0 111 16t101 54t84 96.5t56 150t21 207.5t-21.5 207.5t-56.5 150.5t-84 98t-101 55t-110 16q-75 0 -139 -27.5t-118 -86.5t-85 -165t-31 -250z" />
<glyph unicode="P" horiz-adv-x="1363" d="M123 0v1475h532q333 0 485 -120t152 -372t-154 -370.5t-470 -118.5h-201v-494h-344zM467 729h205q130 0 198 64.5t68 189.5q0 133 -70 194.5t-209 61.5h-192v-510z" />
<glyph unicode="Q" horiz-adv-x="1619" d="M82 735q0 163 40.5 295t108.5 219t162 146t196 84.5t214 25.5q113 0 214.5 -24.5t195.5 -82t162 -144t108.5 -219t40.5 -298.5q0 -391 -228 -596l242 -270l-276 -195l-199 332q-118 -39 -260 -39q-112 0 -213.5 24.5t-195.5 81.5t-162 143t-109 218.5t-41 298.5zM430 735 q0 -116 21.5 -207.5t57 -149.5t85 -96t101 -53.5t108.5 -15.5q59 0 111 16t101 54t84 96.5t56 150t21 207.5t-21.5 207.5t-56.5 150.5t-84 98t-101 55t-110 16q-75 0 -139 -27.5t-118 -86.5t-85 -165t-31 -250z" />
<glyph unicode="R" horiz-adv-x="1357" d="M82 0v1475h543q308 0 466 -119.5t158 -347.5q0 -154 -72 -254t-221 -156l392 -598h-408l-326 539h-188v-539h-344zM426 776h215q113 0 182.5 61t69.5 171q0 118 -65.5 173.5t-198.5 55.5h-203v-461z" />
<glyph unicode="S" horiz-adv-x="1380" d="M61 434h326q18 -102 100 -163.5t222 -61.5q274 0 274 170q0 37 -11.5 67t-38.5 53t-54 39.5t-76.5 32.5t-86.5 25.5t-102 24.5q-85 20 -147.5 40t-133 56.5t-115 82.5t-74 117.5t-29.5 161.5q0 199 152 312.5t440 113.5q255 0 405 -107.5t180 -301.5h-321 q-12 82 -86.5 128t-186.5 46q-237 0 -237 -150q0 -36 12 -63.5t33.5 -47t60.5 -36t82.5 -28.5t110.5 -27q94 -20 169 -44t152.5 -65t129.5 -92.5t85 -128t33 -170.5q0 -73 -22.5 -138t-71.5 -122.5t-121 -99t-176.5 -65.5t-232.5 -24q-279 0 -446 124.5t-198 340.5z" />
<glyph unicode="T" horiz-adv-x="1234" d="M10 1217v258h1215v-258h-439v-1217h-344v1217h-432z" />
<glyph unicode="U" horiz-adv-x="1466" d="M113 494v981h344v-1004q0 -125 71.5 -191.5t206.5 -66.5q136 0 212.5 67t76.5 191v1004h330v-981q0 -248 -163 -386.5t-458 -138.5t-457.5 138.5t-162.5 386.5z" />
<glyph unicode="V" horiz-adv-x="1353" d="M0 1475h354l332 -1207l336 1207h332l-471 -1475h-412z" />
<glyph unicode="W" horiz-adv-x="2017" d="M0 1475h356l224 -1090l247 1090h383l269 -1096l213 1096h325l-329 -1475h-406l-274 1139l-263 -1139h-391z" />
<glyph unicode="X" horiz-adv-x="1435" d="M10 0l522 764l-489 711h408l290 -441l291 441h352l-481 -689l522 -786h-415l-318 500l-315 -500h-367z" />
<glyph unicode="Y" horiz-adv-x="1368" d="M0 1475h369l323 -601l348 601h328l-522 -887v-588h-324v588z" />
<glyph unicode="Z" horiz-adv-x="1269" d="M51 0v248l776 983h-737v244h1129v-242l-779 -989h766v-244h-1155z" />
<glyph unicode="[" horiz-adv-x="696" d="M123 -348v2007h512v-211h-234v-1585h234v-211h-512z" />
<glyph unicode="\" horiz-adv-x="696" d="M0 1505h283l413 -1689h-282z" />
<glyph unicode="]" horiz-adv-x="696" d="M61 -137h234v1585h-234v211h512v-2007h-512v211z" />
<glyph unicode="^" horiz-adv-x="1064" d="M53 819l326 656h307l326 -656h-305l-175 408l-174 -408h-305z" />
<glyph unicode="_" horiz-adv-x="1114" d="M0 -53h1114v-252h-1114v252z" />
<glyph unicode="`" horiz-adv-x="675" d="M61 1475h347l206 -281h-247z" />
<glyph unicode="a" horiz-adv-x="1187" d="M72 307q0 130 99 213t331 121l264 43v47q0 76 -44 117t-126 41q-74 0 -119 -35t-57 -96h-328q39 162 170.5 250t343.5 88q222 0 350.5 -104.5t128.5 -286.5v-705h-249l-39 111q-124 -142 -353 -142q-167 0 -269.5 89.5t-102.5 248.5zM391 322q0 -65 38 -99.5t108 -34.5 q104 0 166.5 59.5t62.5 145.5v117l-182 -37q-108 -22 -150.5 -57.5t-42.5 -93.5z" />
<glyph unicode="b" horiz-adv-x="1300" d="M113 0v1475h319v-510q128 131 322 131q220 0 347.5 -134.5t127.5 -392.5q0 -284 -139.5 -442t-364.5 -158q-92 0 -173 38t-138 104l-52 -111h-249zM422 545q0 -342 237 -342q112 0 180 85.5t68 252.5q0 321 -237 321q-112 0 -180 -80.5t-68 -236.5z" />
<glyph unicode="c" horiz-adv-x="1208" d="M72 522q0 269 146.5 421.5t399.5 152.5q210 0 352 -98.5t175 -260.5h-336q-19 64 -68.5 103t-111.5 39q-226 0 -226 -363q0 -164 59.5 -247t153.5 -83q145 0 195 168h336q-41 -175 -174.5 -280t-360.5 -105q-263 0 -401.5 143t-138.5 410z" />
<glyph unicode="d" horiz-adv-x="1300" d="M72 522q0 265 134 419.5t349 154.5q198 0 313 -131v510h320v-1475h-250l-53 117q-59 -68 -143.5 -108t-182.5 -40q-218 0 -352.5 148.5t-134.5 404.5zM393 524q0 -163 65.5 -242t180.5 -79q240 0 240 327q0 97 -20.5 165t-57 103t-76 49.5t-86.5 14.5q-115 0 -180.5 -87 t-65.5 -251z" />
<glyph unicode="e" horiz-adv-x="1232" d="M72 532q0 268 148.5 416t402.5 148q261 0 404.5 -161t143.5 -480h-776q32 -262 254 -262q74 0 122.5 31.5t62.5 84.5h325q-37 -157 -167.5 -248.5t-358.5 -91.5q-253 0 -407 150.5t-154 412.5zM395 641h449q-11 254 -228 254q-196 0 -221 -254z" />
<glyph unicode="f" horiz-adv-x="778" d="M31 844v221h162v78q0 176 93.5 269t268.5 93q106 0 244 -35v-225q-111 27 -160 27q-127 0 -127 -117v-90h233v-221h-233v-844h-319v844h-162z" />
<glyph unicode="g" horiz-adv-x="1280" d="M72 553q0 254 136 398.5t353 144.5q189 0 309 -129l56 98h241v-1008q0 -212 -141.5 -334t-390.5 -122q-247 0 -379 86.5t-158 246.5h326q29 -63 76 -86.5t141 -23.5q207 0 207 213v94q-125 -100 -289 -100q-102 0 -190 35t-154.5 100t-104.5 165t-38 222zM393 555 q0 -146 66.5 -218.5t179.5 -72.5q115 0 177.5 74t62.5 217q0 154 -63 230.5t-177 76.5q-111 0 -178.5 -79t-67.5 -228z" />
<glyph unicode="h" horiz-adv-x="1230" d="M113 0v1475h319v-506q114 127 303 127q187 0 290 -106t103 -302v-688h-319v676q0 194 -164 194q-93 0 -153 -62.5t-60 -166.5v-641h-319z" />
<glyph unicode="i" horiz-adv-x="544" d="M100 1202v273h344v-273h-344zM113 0v1065h319v-1065h-319z" />
<glyph unicode="j" horiz-adv-x="567" d="M-111 -145q71 -19 127 -19t81.5 26t25.5 85v1118h319v-1124q0 -157 -92 -248.5t-262 -91.5q-111 0 -199 30v224zM111 1202v273h344v-273h-344z" />
<glyph unicode="k" horiz-adv-x="1198" d="M113 0v1475h319v-793l361 383h372l-434 -444l488 -621h-410l-377 489v-489h-319z" />
<glyph unicode="l" horiz-adv-x="544" d="M113 0v1475h319v-1475h-319z" />
<glyph unicode="m" horiz-adv-x="1884" d="M113 0v1065h225l53 -117q124 148 326 148q221 0 323 -148q61 69 151 108.5t202 39.5q180 0 284.5 -98.5t104.5 -305.5v-692h-320v700q0 84 -45 127t-125 43q-91 0 -138.5 -62t-47.5 -157v-651h-320v700q0 84 -45 127t-125 43q-83 0 -133.5 -59.5t-50.5 -144.5v-666h-319z " />
<glyph unicode="n" horiz-adv-x="1230" d="M113 0v1065h264l31 -117q117 148 325 148q186 0 290.5 -107.5t104.5 -300.5v-688h-319v676q0 194 -164 194q-94 0 -153.5 -65t-59.5 -174v-631h-319z" />
<glyph unicode="o" horiz-adv-x="1269" d="M72 537q0 273 146 416t417 143q270 0 416.5 -143t146.5 -416q0 -275 -146.5 -421.5t-416.5 -146.5q-265 0 -414 146.5t-149 421.5zM401 537q0 -186 59.5 -269.5t176.5 -83.5q120 0 176.5 81t56.5 272q0 189 -57.5 266.5t-177.5 77.5q-122 0 -178 -78t-56 -266z" />
<glyph unicode="p" horiz-adv-x="1300" d="M113 -369v1434h241l62 -119q60 69 146.5 109.5t191.5 40.5q218 0 346.5 -143.5t128.5 -403.5q0 -268 -142 -424t-362 -156q-173 0 -293 123v-461h-319zM422 545q0 -342 237 -342q112 0 180 85.5t68 252.5q0 164 -62.5 242.5t-174.5 78.5t-180 -80.5t-68 -236.5z" />
<glyph unicode="q" horiz-adv-x="1300" d="M72 522q0 265 134 419.5t349 154.5q213 0 330 -152l61 121h242v-1434h-320v467q-126 -129 -309 -129q-218 0 -352.5 148.5t-134.5 404.5zM393 524q0 -163 65.5 -242t180.5 -79q240 0 240 327q0 97 -20.5 165t-57 103t-76 49.5t-86.5 14.5q-115 0 -180.5 -87t-65.5 -251z " />
<glyph unicode="r" horiz-adv-x="813" d="M113 0v1065h266l35 -162q88 193 278 193q67 0 121 -15v-297q-68 21 -137 21q-101 0 -172.5 -96.5t-71.5 -266.5v-442h-319z" />
<glyph unicode="s" horiz-adv-x="1132" d="M51 301h322q11 -52 61.5 -83.5t124.5 -31.5q178 0 178 101q0 50 -44 71.5t-193 57.5q-11 3 -17 4q-70 17 -120 33t-103.5 44t-87 62.5t-55 87t-21.5 117.5q0 153 121 242.5t350 89.5q204 0 333 -86.5t157 -239.5h-322q-11 51 -56 80t-120 29q-143 0 -143 -88 q0 -44 42 -67.5t179 -57.5q170 -43 238 -73q164 -75 183 -220q3 -21 3 -43q0 -165 -126.5 -263t-373.5 -98q-214 0 -348.5 90.5t-161.5 241.5z" />
<glyph unicode="t" horiz-adv-x="753" d="M20 844v221h162l21 256h299v-256h219v-221h-219v-557q0 -43 28.5 -66.5t75.5 -23.5q40 0 117 18v-217q-103 -29 -195 -29q-163 0 -254.5 85t-91.5 243v547h-162z" />
<glyph unicode="u" horiz-adv-x="1220" d="M102 373v692h320v-705q0 -79 44 -122t126 -43q86 0 141 62t55 169v639h320v-1065h-264l-31 113q-118 -144 -321 -144q-184 0 -287 105t-103 299z" />
<glyph unicode="v" horiz-adv-x="1159" d="M10 1065h346l234 -829l229 829h330l-369 -1065h-403z" />
<glyph unicode="w" horiz-adv-x="1761" d="M20 1065h330l166 -801l189 801h385l165 -805l183 805h303l-293 -1065h-395l-168 778l-191 -778h-387z" />
<glyph unicode="x" horiz-adv-x="1175" d="M10 0l398 561l-377 504h372l187 -279l186 279h334l-352 -500l407 -565h-385l-209 330l-221 -330h-340z" />
<glyph unicode="y" horiz-adv-x="1169" d="M10 1065h340l236 -832l254 832h319l-381 -1088q-72 -206 -162 -291t-237 -85q-82 0 -172 22v223q74 -18 131 -18q56 0 90.5 41t54.5 131h-90z" />
<glyph unicode="z" horiz-adv-x="1038" d="M41 0v248l559 581h-522v236h919v-248l-553 -581h533v-236h-936z" />
<glyph unicode="{" horiz-adv-x="696" d="M31 537v237q172 0 172 180v322q0 72 10.5 128t29 96.5t49.5 69t65 46t84 27t99 13t115 3.5v-211q-49 -1 -77 -6t-51 -22t-31.5 -49t-8.5 -85v-328q0 -134 -49 -202.5t-143 -100.5q94 -32 143 -100.5t49 -202.5v-327q0 -53 8.5 -85t31.5 -49t51 -22t77 -6v-211 q-66 0 -115 3.5t-99 13t-84 27t-65 46t-49.5 69t-29 96.5t-10.5 128v321q0 181 -172 181z" />
<glyph unicode="|" horiz-adv-x="696" d="M209 -287v1895h278v-1895h-278z" />
<glyph unicode="}" horiz-adv-x="696" d="M41 -137q49 1 77 6t51 22t31.5 49t8.5 85v327q0 134 49 202.5t143 100.5q-94 32 -143 100.5t-49 202.5v328q0 53 -8.5 85t-31.5 49t-51 22t-77 6v211q78 0 133 -5t110.5 -19t91 -40.5t64 -68t41.5 -104t13 -146.5v-322q0 -180 172 -180v-237q-172 0 -172 -181v-321 q0 -84 -13 -146.5t-41.5 -104t-64 -68t-91 -40.5t-110.5 -19t-133 -5v211z" />
<glyph unicode="~" d="M164 496v260q42 34 113.5 58t152.5 24q56 0 112 -17.5t94 -39t86 -39t91 -17.5q134 0 252 102v-260q-42 -34 -113.5 -58t-152.5 -24q-56 0 -112 17.5t-94 39t-86 39t-91 17.5q-134 0 -252 -102z" />
<glyph unicode="&#xa1;" horiz-adv-x="634" d="M115 -369l51 1014h303l51 -1014h-405zM135 815v322h363v-322h-363z" />
<glyph unicode="&#xa2;" d="M78 522q0 230 109.5 376t304.5 185v269h264v-269q159 -28 263 -120t132 -226h-336q-19 64 -68.5 103t-111.5 39q-225 0 -225 -363q0 -164 59.5 -247t153.5 -83q144 0 194 168h336q-34 -146 -133.5 -245t-263.5 -127v-258h-264v256q-202 32 -308 171t-106 371z" />
<glyph unicode="&#xa3;" d="M78 618v191h112v195q0 226 119.5 343t349.5 117q206 0 337 -103t155 -265h-307q-34 129 -164 129q-79 0 -118.5 -54.5t-39.5 -171.5v-190h414v-191h-416v-147q0 -133 -94 -213h690v-258h-1022v258q60 19 78 63.5t18 137.5v159h-112z" />
<glyph unicode="&#xa4;" d="M53 322l121 120q-57 108 -57 254q0 138 55 248l-119 119l180 180l113 -115q123 72 266 72q146 0 269 -72l114 115l181 -180l-119 -119q55 -110 55 -248q0 -142 -59 -254l123 -120l-181 -181l-118 119q-119 -67 -265 -67q-144 0 -260 67l-119 -119zM369 696 q0 -117 67.5 -187.5t177.5 -70.5q109 0 177.5 71t68.5 187t-68.5 187t-177.5 71q-110 0 -177.5 -70.5t-67.5 -187.5z" />
<glyph unicode="&#xa5;" d="M-49 1434h368l304 -580l327 580h328l-410 -691h164v-190h-256v-96h256v-191h-256v-266h-323v266h-256v191h256v96h-256v190h163z" />
<glyph unicode="&#xa6;" horiz-adv-x="696" d="M209 -287v789h278v-789h-278zM209 819v789h278v-789h-278z" />
<glyph unicode="&#xa7;" d="M145 625q0 88 48.5 150.5t158.5 113.5q-155 100 -155 264q0 106 57 177t147.5 101.5t210.5 30.5q101 0 184.5 -32.5t134.5 -83.5t79.5 -109t31.5 -115h-284q-11 55 -47 91t-93 36q-48 0 -79 -23.5t-31 -64.5q0 -15 3 -27t12.5 -22t18 -16.5t27.5 -15t33 -14t43 -16 t49 -18.5q50 -20 81 -33t76.5 -36t74.5 -43t62 -49.5t51.5 -60.5t31 -72t12.5 -87q0 -88 -48.5 -151.5t-155.5 -112.5q149 -90 149 -237q0 -161 -121.5 -248.5t-304.5 -87.5q-201 0 -316 94.5t-124 241.5h284q11 -54 50.5 -88.5t101.5 -34.5q48 0 83.5 24t35.5 64 q0 18 -6.5 31.5t-14 22.5t-28 19.5t-35 16t-49 18t-56.5 21.5q-49 19 -80.5 33t-76 36t-73 42.5t-60.5 50t-50.5 60.5t-30.5 72t-12 87zM459 659q0 -70 42 -106.5t179 -81.5q27 23 42.5 38.5t31.5 45.5t16 61q0 70 -44 107.5t-179 81.5q-88 -74 -88 -146z" />
<glyph unicode="&#xa8;" horiz-adv-x="897" d="M61 1212v263h304v-263h-304zM532 1212v263h304v-263h-304z" />
<glyph unicode="&#xa9;" horiz-adv-x="1726" d="M80 737q0 156 45.5 286t121.5 218t178 148.5t211.5 88t225.5 27.5t226 -27.5t211.5 -88t178 -148.5t122 -218t45.5 -286t-45.5 -286t-122 -218t-178 -148.5t-211.5 -88t-226 -27.5t-225.5 27.5t-211.5 88t-178 148.5t-121.5 218t-45.5 286zM289 737q0 -119 32.5 -219 t87.5 -169t128.5 -117.5t155.5 -71.5t169 -23t169 23t156 71.5t129 117.5t87.5 169t32.5 219t-32.5 219t-87.5 169t-129 117.5t-156 71.5t-169 23t-169 -23t-155.5 -71.5t-128.5 -117.5t-87.5 -169t-32.5 -219zM449 733q0 210 114 328.5t311 118.5q164 0 274.5 -76.5 t137.5 -202.5h-262q-12 50 -51 80.5t-90 30.5q-174 0 -174 -283q0 -129 45 -193.5t120 -64.5q57 0 93.5 31.5t58.5 97.5h262q-33 -136 -136.5 -216.5t-281.5 -80.5q-200 0 -310.5 108t-110.5 322z" />
<glyph unicode="&#xaa;" horiz-adv-x="1075" d="M143 874q0 64 30 115.5t82 84.5t114.5 53t134.5 28l141 16v43q0 54 -26.5 79.5t-63.5 25.5q-40 0 -68.5 -21.5t-37.5 -62.5h-279q19 125 124 197.5t263 72.5q169 0 272 -84t103 -229v-563h-199l-43 88q-91 -113 -241 -113q-54 0 -105 14.5t-97.5 44t-75 84.5t-28.5 127z M154 0v252h786v-252h-786zM430 883q0 -38 28.5 -60t76.5 -22q51 0 80.5 32t29.5 78v99l-84 -13q-73 -10 -102 -39t-29 -75z" />
<glyph unicode="&#xab;" horiz-adv-x="1116" d="M92 645l264 420h240l-190 -426l169 -455h-239zM520 645l264 420h240l-190 -426l170 -455h-240z" />
<glyph unicode="&#xac;" d="M164 535v251h901v-577h-264v326h-637z" />
<glyph unicode="&#xad;" horiz-adv-x="1105" d="M164 535v251h778v-251h-778z" />
<glyph unicode="&#xae;" horiz-adv-x="1277" d="M102 975q0 109 31.5 199t83.5 150t122 102t145 60.5t153 18.5q99 0 192 -31t172 -92.5t127 -166.5t48 -240q0 -109 -32 -199t-84.5 -150.5t-123 -102t-146 -60.5t-153.5 -19t-153 19t-145 60.5t-122 102t-83.5 150.5t-31.5 199zM260 975q0 -106 32 -187t86.5 -127.5 t119.5 -69t139 -22.5t139.5 22.5t121 69t88 127.5t32.5 187t-32.5 187t-88 127t-121 68.5t-139.5 22.5t-139 -22.5t-119.5 -68.5t-86.5 -127t-32 -187zM436 719v541h201q103 0 166 -40.5t63 -129.5q0 -111 -108 -152l145 -219h-151l-119 199h-70v-199h-127zM563 1004h80 q36 0 64 20t28 66q0 81 -96 81h-76v-167z" />
<glyph unicode="&#xaf;" horiz-adv-x="675" d="M61 1245v230h553v-230h-553z" />
<glyph unicode="&#xb0;" d="M102 1130q0 159 104 252t255 93t254.5 -93t103.5 -252t-103.5 -251.5t-254.5 -92.5t-255 93t-104 251zM346 1130q0 -74 31 -109.5t84 -35.5t83.5 35.5t30.5 109.5t-30.5 110t-83.5 36t-84 -36t-31 -110z" />
<glyph unicode="&#xb1;" d="M164 0v252h901v-252h-901zM164 535v251h317v324h264v-324h320v-251h-320v-203h-264v203h-317z" />
<glyph unicode="&#xb2;" horiz-adv-x="860" d="M76 1239q19 131 118 209t252 78q155 0 245.5 -71.5t90.5 -188.5q0 -91 -54 -167.5t-200 -193.5l-141 -106h391v-197h-678v193l236 192q119 110 160 168.5t41 110.5q0 75 -97 75q-98 0 -114 -102h-250z" />
<glyph unicode="&#xb3;" horiz-adv-x="874" d="M76 858h243q10 -47 37.5 -71.5t81.5 -24.5q52 0 80.5 27.5t28.5 74.5q0 125 -133 125h-68v164h70q47 0 77.5 26.5t30.5 84.5q0 86 -88 86q-86 0 -96 -82h-242q19 120 112 189t241 69t235.5 -62.5t87.5 -175.5q0 -72 -48 -128.5t-140 -78.5q101 -22 156 -80.5t55 -146.5 q0 -127 -94.5 -198.5t-260.5 -71.5q-164 0 -259.5 74t-106.5 200z" />
<glyph unicode="&#xb4;" horiz-adv-x="675" d="M61 1194l207 281h346l-305 -281h-248z" />
<glyph unicode="&#xb5;" horiz-adv-x="1230" d="M113 -367v1432h319v-705q0 -79 44 -122t126 -43q83 0 140 59t57 160v651h319v-1065h-264l-31 113q-118 -144 -321 -144q-28 0 -70 11v-347h-319z" />
<glyph unicode="&#xb6;" horiz-adv-x="1382" d="M61 1059q0 101 29.5 179.5t71.5 121.5t96 70.5t95.5 36t78.5 8.5h299v-1844h-299v1014q-37 0 -78.5 8.5t-95.5 35.5t-96 70t-71.5 121t-29.5 179zM971 -369v1844h299v-1844h-299z" />
<glyph unicode="&#xb7;" horiz-adv-x="552" d="M115 508v291h323v-291h-323z" />
<glyph unicode="&#xb8;" horiz-adv-x="733" d="M61 -281h205q4 -34 28 -59t77 -25q44 0 68 21.5t24 52.5q0 88 -168 88l24 254h177v-133q84 -19 130 -71.5t46 -131.5q0 -102 -81.5 -172.5t-213.5 -70.5q-139 0 -220.5 67t-95.5 180z" />
<glyph unicode="&#xb9;" horiz-adv-x="579" d="M39 1155v217l244 111h219v-903h-248v669z" />
<glyph unicode="&#xba;" horiz-adv-x="1073" d="M102 1059q0 104 25.5 184t67 128.5t99.5 79.5t117 42.5t126 11.5q68 0 126 -11t116.5 -41.5t99.5 -78.5t66.5 -128.5t25.5 -186.5t-25.5 -188t-66.5 -131.5t-99.5 -81t-117 -43t-125.5 -11.5q-68 0 -127 12t-117 44t-99 82t-66.5 131t-25.5 186zM129 0v252h817v-252h-817 zM397 1059q0 -137 33.5 -199.5t108.5 -62.5q72 0 105.5 63t33.5 199q0 135 -34 194.5t-107 59.5t-106.5 -59.5t-33.5 -194.5z" />
<glyph unicode="&#xbb;" horiz-adv-x="1116" d="M92 1065h240l264 -420l-244 -461h-239l170 455zM520 1065h240l264 -420l-244 -461h-239l170 455z" />
<glyph unicode="&#xbc;" horiz-adv-x="1832" d="M102 1155v217l244 111h219v-903h-248v669zM315 -184l865 1802h245l-864 -1802h-246zM989 166v190l348 547h281v-561h113v-176h-113v-166h-223v166h-406zM1202 342h193l14 330z" />
<glyph unicode="&#xbd;" horiz-adv-x="1921" d="M102 1155v217l244 111h219v-903h-248v669zM315 -184l865 1802h245l-864 -1802h-246zM1112 637q19 131 118.5 209t252.5 78q155 0 245.5 -71.5t90.5 -188.5q0 -91 -54 -167.5t-200 -193.5l-142 -106h392v-197h-678v193l235 192q119 110 160 168.5t41 110.5q0 75 -96 75 q-99 0 -115 -102h-250z" />
<glyph unicode="&#xbe;" horiz-adv-x="2000" d="M102 858h244q10 -47 37.5 -71.5t81.5 -24.5q52 0 80 27.5t28 74.5q0 125 -133 125h-67v164h69q47 0 78 26.5t31 84.5q0 86 -88 86q-86 0 -96 -82h-242q19 120 111.5 189t240.5 69t236 -62.5t88 -175.5q0 -72 -48.5 -128.5t-140.5 -78.5q101 -22 156 -80.5t55 -146.5 q0 -127 -94 -198.5t-260 -71.5q-164 0 -260 74t-107 200zM483 -184l865 1802h245l-864 -1802h-246zM1157 166v190l348 547h281v-561h112v-176h-112v-166h-223v166h-406zM1370 342h193l14 330z" />
<glyph unicode="&#xbf;" horiz-adv-x="1122" d="M72 -51q0 118 45.5 201t195.5 266q36 45 48 96t12 123h321q0 -147 -20 -217.5t-103 -173.5q-101 -125 -128 -174t-27 -103q0 -62 30.5 -94.5t88.5 -32.5q116 0 149 170h346q-9 -171 -152 -290t-348 -119q-217 0 -337.5 95.5t-120.5 252.5zM350 784v322h363v-322h-363z " />
<glyph unicode="&#xc0;" horiz-adv-x="1435" d="M0 0l524 1475h383l529 -1475h-363l-104 338h-525l-104 -338h-340zM412 1864h346l207 -281h-248zM514 563h387l-192 629z" />
<glyph unicode="&#xc1;" horiz-adv-x="1435" d="M0 0l524 1475h383l529 -1475h-363l-104 338h-525l-104 -338h-340zM473 1583l207 281h346l-305 -281h-248zM514 563h387l-192 629z" />
<glyph unicode="&#xc2;" horiz-adv-x="1435" d="M0 0l524 1475h383l529 -1475h-363l-104 338h-525l-104 -338h-340zM289 1614l276 280h287l276 -280h-325l-94 121l-93 -121h-327zM514 563h387l-192 629z" />
<glyph unicode="&#xc3;" horiz-adv-x="1435" d="M0 0l524 1475h383l529 -1475h-363l-104 338h-525l-104 -338h-340zM401 1602v225q92 67 183 67q64 0 143 -38.5t123 -38.5q69 0 166 77v-225q-92 -67 -174 -67q-64 0 -143.5 38.5t-123.5 38.5q-77 0 -174 -77zM514 563h387l-192 629z" />
<glyph unicode="&#xc4;" horiz-adv-x="1435" d="M0 0l524 1475h383l529 -1475h-363l-104 338h-525l-104 -338h-340zM322 1602v262h303v-262h-303zM514 563h387l-192 629zM793 1602v262h303v-262h-303z" />
<glyph unicode="&#xc5;" horiz-adv-x="1435" d="M0 0l502 1413q-78 69 -78 182q0 107 76.5 179.5t208.5 72.5t208 -72.5t76 -179.5q0 -105 -67 -172l510 -1423h-363l-104 338h-525l-104 -338h-340zM514 563h387l-192 629zM625 1595q0 -50 23.5 -77t60.5 -27t60.5 27t23.5 77q0 51 -23 78t-61 27t-61 -27t-23 -78z" />
<glyph unicode="&#xc6;" horiz-adv-x="1968" d="M0 0l723 1475h1173v-252h-589v-361h530v-237h-530v-377h589v-248h-933v338h-453l-162 -338h-348zM618 563h345v709z" />
<glyph unicode="&#xc7;" horiz-adv-x="1517" d="M82 741q0 369 187 566.5t515 197.5q262 0 437.5 -133.5t214.5 -378.5h-344q-29 136 -108.5 204.5t-199.5 68.5q-161 0 -252.5 -128.5t-91.5 -396.5q0 -141 26 -246t73 -165.5t105.5 -89.5t129.5 -29q299 0 322 332h350q-31 -257 -178 -402t-400 -168v-55 q84 -19 130 -71.5t46 -131.5q0 -103 -81 -173t-213 -70q-139 0 -220.5 67t-95.5 180h205q9 -84 104 -84q44 0 68.5 21.5t24.5 52.5q0 88 -168 88l16 176q-133 13 -242 67.5t-190 149t-125.5 235.5t-44.5 316z" />
<glyph unicode="&#xc8;" horiz-adv-x="1189" d="M123 0v1475h995v-252h-651v-361h592v-237h-592v-377h651v-248h-995zM279 1864h346l206 -281h-247z" />
<glyph unicode="&#xc9;" horiz-adv-x="1189" d="M123 0v1475h995v-252h-651v-361h592v-237h-592v-377h651v-248h-995zM438 1583l207 281h346l-305 -281h-248z" />
<glyph unicode="&#xca;" horiz-adv-x="1189" d="M123 0v1475h995v-252h-651v-361h592v-237h-592v-377h651v-248h-995zM199 1614l276 280h287l276 -280h-325l-95 121l-92 -121h-327z" />
<glyph unicode="&#xcb;" horiz-adv-x="1189" d="M123 0v1475h995v-252h-651v-361h592v-237h-592v-377h651v-248h-995zM229 1602v262h303v-262h-303zM700 1602v262h304v-262h-304z" />
<glyph unicode="&#xcc;" horiz-adv-x="589" d="M-14 1864h346l207 -281h-248zM123 0v1475h344v-1475h-344z" />
<glyph unicode="&#xcd;" horiz-adv-x="589" d="M51 1583l207 281h346l-305 -281h-248zM123 0v1475h344v-1475h-344z" />
<glyph unicode="&#xce;" horiz-adv-x="589" d="M-125 1614l277 280h286l277 -280h-326l-94 121l-92 -121h-328zM123 0v1475h344v-1475h-344z" />
<glyph unicode="&#xcf;" horiz-adv-x="589" d="M-92 1602v262h303v-262h-303zM123 0v1475h344v-1475h-344zM379 1602v262h303v-262h-303z" />
<glyph unicode="&#xd0;" horiz-adv-x="1492" d="M20 645v258h103v572h553q735 0 735 -738q0 -737 -731 -737h-557v645h-103zM467 240h213q185 0 285 121.5t100 375.5q0 253 -102 376.5t-287 123.5h-209v-334h264v-258h-264v-405z" />
<glyph unicode="&#xd1;" horiz-adv-x="1476" d="M123 0v1475h381l557 -1008v1008h293v-1475h-355l-581 1047v-1047h-295zM430 1602v225q92 67 182 67q64 0 143.5 -38.5t123.5 -38.5q68 0 165 77v-225q-92 -67 -174 -67q-64 0 -143 38.5t-123 38.5q-77 0 -174 -77z" />
<glyph unicode="&#xd2;" horiz-adv-x="1605" d="M82 735q0 163 40.5 295t108.5 219t162 146t196 84.5t214 25.5q113 0 214.5 -24.5t195.5 -82t162 -144t108.5 -219t40.5 -298.5q0 -163 -40.5 -294.5t-109 -218.5t-162.5 -145.5t-195.5 -84t-213.5 -25.5t-213.5 24.5t-195.5 81.5t-162 143t-109 218.5t-41 298.5zM430 735 q0 -116 21.5 -207.5t57 -149.5t85 -96t101 -53.5t108.5 -15.5q59 0 111 16t101 54t84 96.5t56 150t21 207.5t-21.5 207.5t-56.5 150.5t-84 98t-101 55t-110 16q-75 0 -139 -27.5t-118 -86.5t-85 -165t-31 -250zM451 1864h346l207 -281h-248z" />
<glyph unicode="&#xd3;" horiz-adv-x="1605" d="M82 735q0 163 40.5 295t108.5 219t162 146t196 84.5t214 25.5q113 0 214.5 -24.5t195.5 -82t162 -144t108.5 -219t40.5 -298.5q0 -163 -40.5 -294.5t-109 -218.5t-162.5 -145.5t-195.5 -84t-213.5 -25.5t-213.5 24.5t-195.5 81.5t-162 143t-109 218.5t-41 298.5zM430 735 q0 -116 21.5 -207.5t57 -149.5t85 -96t101 -53.5t108.5 -15.5q59 0 111 16t101 54t84 96.5t56 150t21 207.5t-21.5 207.5t-56.5 150.5t-84 98t-101 55t-110 16q-75 0 -139 -27.5t-118 -86.5t-85 -165t-31 -250zM614 1583l207 281h346l-305 -281h-248z" />
<glyph unicode="&#xd4;" horiz-adv-x="1605" d="M82 735q0 163 40.5 295t108.5 219t162 146t196 84.5t214 25.5q113 0 214.5 -24.5t195.5 -82t162 -144t108.5 -219t40.5 -298.5q0 -163 -40.5 -294.5t-109 -218.5t-162.5 -145.5t-195.5 -84t-213.5 -25.5t-213.5 24.5t-195.5 81.5t-162 143t-109 218.5t-41 298.5z M383 1614l276 280h287l277 -280h-326l-94 121l-92 -121h-328zM430 735q0 -116 21.5 -207.5t57 -149.5t85 -96t101 -53.5t108.5 -15.5q59 0 111 16t101 54t84 96.5t56 150t21 207.5t-21.5 207.5t-56.5 150.5t-84 98t-101 55t-110 16q-75 0 -139 -27.5t-118 -86.5t-85 -165 t-31 -250z" />
<glyph unicode="&#xd5;" horiz-adv-x="1605" d="M82 735q0 163 40.5 295t108.5 219t162 146t196 84.5t214 25.5q113 0 214.5 -24.5t195.5 -82t162 -144t108.5 -219t40.5 -298.5q0 -163 -40.5 -294.5t-109 -218.5t-162.5 -145.5t-195.5 -84t-213.5 -25.5t-213.5 24.5t-195.5 81.5t-162 143t-109 218.5t-41 298.5zM430 735 q0 -116 21.5 -207.5t57 -149.5t85 -96t101 -53.5t108.5 -15.5q59 0 111 16t101 54t84 96.5t56 150t21 207.5t-21.5 207.5t-56.5 150.5t-84 98t-101 55t-110 16q-75 0 -139 -27.5t-118 -86.5t-85 -165t-31 -250zM496 1602v225q92 67 182 67q64 0 143 -38.5t123 -38.5 q69 0 166 77v-225q-92 -67 -174 -67q-64 0 -143 38.5t-123 38.5q-77 0 -174 -77z" />
<glyph unicode="&#xd6;" horiz-adv-x="1605" d="M82 735q0 163 40.5 295t108.5 219t162 146t196 84.5t214 25.5q113 0 214.5 -24.5t195.5 -82t162 -144t108.5 -219t40.5 -298.5q0 -163 -40.5 -294.5t-109 -218.5t-162.5 -145.5t-195.5 -84t-213.5 -25.5t-213.5 24.5t-195.5 81.5t-162 143t-109 218.5t-41 298.5z M416 1602v262h303v-262h-303zM430 735q0 -116 21.5 -207.5t57 -149.5t85 -96t101 -53.5t108.5 -15.5q59 0 111 16t101 54t84 96.5t56 150t21 207.5t-21.5 207.5t-56.5 150.5t-84 98t-101 55t-110 16q-75 0 -139 -27.5t-118 -86.5t-85 -165t-31 -250zM887 1602v262h303v-262 h-303z" />
<glyph unicode="&#xd7;" d="M207 430l229 229l-229 230l178 178l229 -229l230 229l178 -178l-229 -230l229 -229l-178 -178l-230 229l-229 -229z" />
<glyph unicode="&#xd8;" horiz-adv-x="1605" d="M82 735q0 163 40.5 295t108.5 219t162 146t196 84.5t214 25.5q81 0 166 -16l71 190h244l-98 -264q157 -88 247.5 -255.5t90.5 -422.5q0 -163 -40.5 -294.5t-109 -218.5t-162.5 -145.5t-195.5 -84t-213.5 -25.5q-83 0 -166 15l-72 -209h-243l98 284q-76 41 -136 100.5 t-106.5 141.5t-71 192t-24.5 242zM430 735q0 -288 127 -422l338 938q-50 13 -92 13q-75 0 -139 -27.5t-118 -86.5t-85 -165t-31 -250zM711 223q39 -10 92 -10q59 0 111 16t101 54t84 96.5t56 150t21 207.5q0 287 -127 424z" />
<glyph unicode="&#xd9;" horiz-adv-x="1466" d="M113 494v981h344v-1004q0 -125 71.5 -191.5t206.5 -66.5q136 0 212.5 67t76.5 191v1004h330v-981q0 -248 -163 -386.5t-458 -138.5t-457.5 138.5t-162.5 386.5zM338 1864h346l207 -281h-248z" />
<glyph unicode="&#xda;" horiz-adv-x="1466" d="M113 494v981h344v-1004q0 -125 71.5 -191.5t206.5 -66.5q136 0 212.5 67t76.5 191v1004h330v-981q0 -248 -163 -386.5t-458 -138.5t-457.5 138.5t-162.5 386.5zM606 1583l207 281h346l-305 -281h-248z" />
<glyph unicode="&#xdb;" horiz-adv-x="1466" d="M113 494v981h344v-1004q0 -125 71.5 -191.5t206.5 -66.5q136 0 212.5 67t76.5 191v1004h330v-981q0 -248 -163 -386.5t-458 -138.5t-457.5 138.5t-162.5 386.5zM313 1614l277 280h287l276 -280h-326l-94 121l-92 -121h-328z" />
<glyph unicode="&#xdc;" horiz-adv-x="1466" d="M113 494v981h344v-1004q0 -125 71.5 -191.5t206.5 -66.5q136 0 212.5 67t76.5 191v1004h330v-981q0 -248 -163 -386.5t-458 -138.5t-457.5 138.5t-162.5 386.5zM346 1602v262h303v-262h-303zM817 1602v262h303v-262h-303z" />
<glyph unicode="&#xdd;" horiz-adv-x="1368" d="M0 1475h369l323 -601l348 601h328l-522 -887v-588h-324v588zM541 1583l207 281h346l-306 -281h-247z" />
<glyph unicode="&#xde;" horiz-adv-x="1363" d="M123 0v1475h344v-236h188q76 0 140.5 -5.5t131 -20t119 -38.5t100 -62t79 -88.5t49.5 -120.5t18 -156q0 -118 -35.5 -207t-93 -142t-141.5 -85.5t-168 -44t-186 -11.5h-201v-258h-344zM467 494h205q38 0 72 5.5t71 22t63 43.5t43 74t17 109q0 63 -16.5 110t-42.5 74 t-64 44t-74.5 22.5t-81.5 5.5h-192v-510z" />
<glyph unicode="&#xdf;" horiz-adv-x="1325" d="M113 0v1049q0 94 32.5 176t95 145t162 99t224.5 36q215 0 350 -90t135 -241q0 -48 -15.5 -89.5t-39 -69t-51 -54.5t-51 -47t-39 -45t-15.5 -50q0 -72 109 -135q151 -88 217.5 -165t66.5 -183q0 -171 -107.5 -269t-301.5 -98q-371 0 -430 332h321q13 -113 90 -113 q42 0 68.5 34.5t26.5 96.5t-28.5 103t-96.5 82q-118 70 -160.5 135.5t-42.5 153.5q0 48 16.5 88.5t39.5 68.5l46 56t39.5 65.5t16.5 81.5q0 55 -47 91t-123 36q-189 0 -189 -227v-351l-41 -702h-278z" />
<glyph unicode="&#xe0;" horiz-adv-x="1187" d="M72 307q0 130 99 213t331 121l264 43v47q0 76 -44 117t-126 41q-74 0 -119 -35t-57 -96h-328q39 162 170.5 250t343.5 88q222 0 350.5 -104.5t128.5 -286.5v-705h-249l-39 111q-124 -142 -353 -142q-167 0 -269.5 89.5t-102.5 248.5zM209 1475h346l207 -281h-248z M391 322q0 -65 38 -99.5t108 -34.5q104 0 166.5 59.5t62.5 145.5v117l-182 -37q-108 -22 -150.5 -57.5t-42.5 -93.5z" />
<glyph unicode="&#xe1;" horiz-adv-x="1187" d="M72 307q0 130 99 213t331 121l264 43v47q0 76 -44 117t-126 41q-74 0 -119 -35t-57 -96h-328q39 162 170.5 250t343.5 88q222 0 350.5 -104.5t128.5 -286.5v-705h-249l-39 111q-124 -142 -353 -142q-167 0 -269.5 89.5t-102.5 248.5zM391 322q0 -65 38 -99.5t108 -34.5 q104 0 166.5 59.5t62.5 145.5v117l-182 -37q-108 -22 -150.5 -57.5t-42.5 -93.5zM465 1194l207 281h346l-305 -281h-248z" />
<glyph unicode="&#xe2;" horiz-adv-x="1187" d="M72 307q0 130 99 213t331 121l264 43v47q0 76 -44 117t-126 41q-74 0 -119 -35t-57 -96h-328q39 162 170.5 250t343.5 88q222 0 350.5 -104.5t128.5 -286.5v-705h-249l-39 111q-124 -142 -353 -142q-167 0 -269.5 89.5t-102.5 248.5zM182 1225l277 280h286l277 -280h-326 l-94 121l-92 -121h-328zM391 322q0 -65 38 -99.5t108 -34.5q104 0 166.5 59.5t62.5 145.5v117l-182 -37q-108 -22 -150.5 -57.5t-42.5 -93.5z" />
<glyph unicode="&#xe3;" horiz-adv-x="1187" d="M72 307q0 130 99 213t331 121l264 43v47q0 76 -44 117t-126 41q-74 0 -119 -35t-57 -96h-328q39 162 170.5 250t343.5 88q222 0 350.5 -104.5t128.5 -286.5v-705h-249l-39 111q-124 -142 -353 -142q-167 0 -269.5 89.5t-102.5 248.5zM272 1212v226q92 67 183 67 q64 0 143 -39t123 -39q68 0 166 78v-225q-93 -68 -174 -68q-64 0 -143.5 39t-123.5 39q-76 0 -174 -78zM391 322q0 -65 38 -99.5t108 -34.5q104 0 166.5 59.5t62.5 145.5v117l-182 -37q-108 -22 -150.5 -57.5t-42.5 -93.5z" />
<glyph unicode="&#xe4;" horiz-adv-x="1187" d="M72 307q0 130 99 213t331 121l264 43v47q0 76 -44 117t-126 41q-74 0 -119 -35t-57 -96h-328q39 162 170.5 250t343.5 88q222 0 350.5 -104.5t128.5 -286.5v-705h-249l-39 111q-124 -142 -353 -142q-167 0 -269.5 89.5t-102.5 248.5zM197 1212v263h303v-263h-303z M391 322q0 -65 38 -99.5t108 -34.5q104 0 166.5 59.5t62.5 145.5v117l-182 -37q-108 -22 -150.5 -57.5t-42.5 -93.5zM668 1212v263h303v-263h-303z" />
<glyph unicode="&#xe5;" horiz-adv-x="1187" d="M72 307q0 130 99 213t331 121l264 43v47q0 76 -44 117t-126 41q-74 0 -119 -35t-57 -96h-328q39 162 170.5 250t343.5 88q222 0 350.5 -104.5t128.5 -286.5v-705h-249l-39 111q-124 -142 -353 -142q-167 0 -269.5 89.5t-102.5 248.5zM309 1434q0 107 76.5 179.5 t208.5 72.5t208.5 -72.5t76.5 -179.5t-76 -179.5t-209 -72.5t-209 72.5t-76 179.5zM391 322q0 -65 38 -99.5t108 -34.5q104 0 166.5 59.5t62.5 145.5v117l-182 -37q-108 -22 -150.5 -57.5t-42.5 -93.5zM510 1434q0 -51 23.5 -78t60.5 -27t60.5 27t23.5 78t-23 77.5t-61 26.5 t-61 -26.5t-23 -77.5z" />
<glyph unicode="&#xe6;" horiz-adv-x="1927" d="M72 307q0 130 99 213t331 121l264 43v47q0 76 -44 117t-126 41q-74 0 -119 -35t-57 -96h-328q39 162 170.5 250t343.5 88t352 -123q145 123 359 123q261 0 405 -161t144 -480h-776q32 -262 253 -262q74 0 122.5 31.5t62.5 84.5h325q-37 -157 -167.5 -248.5t-358.5 -91.5 q-145 0 -262.5 59.5t-192.5 164.5q-53 -98 -154.5 -161t-252.5 -63q-180 0 -286.5 87.5t-106.5 250.5zM391 322q0 -66 38.5 -100t107.5 -34q106 0 167.5 62t61.5 151v109l-182 -37q-108 -22 -150.5 -57.5t-42.5 -93.5zM1090 641h448q-11 254 -227 254q-196 0 -221 -254z" />
<glyph unicode="&#xe7;" horiz-adv-x="1208" d="M72 522q0 269 146.5 421.5t399.5 152.5q210 0 352 -98.5t175 -260.5h-336q-19 64 -68.5 103t-111.5 39q-226 0 -226 -363q0 -164 59.5 -247t153.5 -83q145 0 195 168h336q-37 -156 -146.5 -257t-293.5 -122v-57q84 -19 130 -71.5t46 -131.5q0 -102 -81.5 -172.5 t-213.5 -70.5q-139 0 -220.5 67t-95.5 180h205q9 -84 105 -84q44 0 68 21.5t24 52.5q0 88 -168 88l16 178q-221 23 -335.5 163t-114.5 384z" />
<glyph unicode="&#xe8;" horiz-adv-x="1232" d="M72 532q0 268 148.5 416t402.5 148q261 0 404.5 -161t143.5 -480h-776q32 -262 254 -262q74 0 122.5 31.5t62.5 84.5h325q-37 -157 -167.5 -248.5t-358.5 -91.5q-253 0 -407 150.5t-154 412.5zM219 1475h346l207 -281h-248zM395 641h449q-11 254 -228 254 q-196 0 -221 -254z" />
<glyph unicode="&#xe9;" horiz-adv-x="1232" d="M72 532q0 268 148.5 416t402.5 148q261 0 404.5 -161t143.5 -480h-776q32 -262 254 -262q74 0 122.5 31.5t62.5 84.5h325q-37 -157 -167.5 -248.5t-358.5 -91.5q-253 0 -407 150.5t-154 412.5zM395 641h449q-11 254 -228 254q-196 0 -221 -254zM479 1194l207 281h346 l-305 -281h-248z" />
<glyph unicode="&#xea;" horiz-adv-x="1232" d="M72 532q0 268 148.5 416t402.5 148q261 0 404.5 -161t143.5 -480h-776q32 -262 254 -262q74 0 122.5 31.5t62.5 84.5h325q-37 -157 -167.5 -248.5t-358.5 -91.5q-253 0 -407 150.5t-154 412.5zM186 1225l277 280h287l276 -280h-326l-94 121l-92 -121h-328zM395 641h449 q-11 254 -228 254q-196 0 -221 -254z" />
<glyph unicode="&#xeb;" horiz-adv-x="1232" d="M72 532q0 268 148.5 416t402.5 148q261 0 404.5 -161t143.5 -480h-776q32 -262 254 -262q74 0 122.5 31.5t62.5 84.5h325q-37 -157 -167.5 -248.5t-358.5 -91.5q-253 0 -407 150.5t-154 412.5zM217 1212v263h303v-263h-303zM395 641h449q-11 254 -228 254 q-196 0 -221 -254zM688 1212v263h303v-263h-303z" />
<glyph unicode="&#xec;" horiz-adv-x="544" d="M-68 1475h347l206 -281h-247zM113 0v1065h319v-1065h-319z" />
<glyph unicode="&#xed;" horiz-adv-x="544" d="M63 1194l207 281h346l-305 -281h-248zM113 0v1065h319v-1065h-319z" />
<glyph unicode="&#xee;" horiz-adv-x="544" d="M-147 1225l276 280h287l276 -280h-325l-95 121l-92 -121h-327zM113 0v1065h319v-1065h-319z" />
<glyph unicode="&#xef;" horiz-adv-x="544" d="M-115 1212v263h303v-263h-303zM113 0v1065h319v-1065h-319zM356 1212v263h303v-263h-303z" />
<glyph unicode="&#xf0;" horiz-adv-x="1208" d="M72 487q0 231 120 366.5t332 135.5q76 0 150.5 -31t107.5 -79q-28 153 -123 254l-36 -37h-293l153 153q-98 45 -278 82v211q243 -30 442 -127l60 60h292l-170 -170q308 -238 308 -635q0 -349 -124 -525t-397 -176q-81 0 -156 15.5t-147 53.5t-124.5 95.5t-84.5 148.5 t-32 205zM397 477q0 -135 54.5 -205.5t160.5 -70.5q95 0 147 83.5t52 237.5q0 111 -56.5 173.5t-154.5 62.5q-102 0 -152.5 -75.5t-50.5 -205.5z" />
<glyph unicode="&#xf1;" horiz-adv-x="1230" d="M113 0v1065h264l31 -117q117 148 325 148q186 0 290.5 -107.5t104.5 -300.5v-688h-319v676q0 194 -164 194q-94 0 -153.5 -65t-59.5 -174v-631h-319zM319 1212v226q92 67 183 67q64 0 143 -39t123 -39q68 0 166 78v-225q-93 -68 -174 -68q-64 0 -143 39t-123 39 q-35 0 -83 -21.5t-92 -56.5z" />
<glyph unicode="&#xf2;" horiz-adv-x="1269" d="M72 537q0 273 146 416t417 143q270 0 416.5 -143t146.5 -416q0 -275 -146.5 -421.5t-416.5 -146.5q-265 0 -414 146.5t-149 421.5zM252 1475h346l207 -281h-248zM401 537q0 -186 59.5 -269.5t176.5 -83.5q120 0 176.5 81t56.5 272q0 189 -57.5 266.5t-177.5 77.5 q-122 0 -178 -78t-56 -266z" />
<glyph unicode="&#xf3;" horiz-adv-x="1269" d="M72 537q0 273 146 416t417 143q270 0 416.5 -143t146.5 -416q0 -275 -146.5 -421.5t-416.5 -146.5q-265 0 -414 146.5t-149 421.5zM401 537q0 -186 59.5 -269.5t176.5 -83.5q120 0 176.5 81t56.5 272q0 189 -57.5 266.5t-177.5 77.5q-122 0 -178 -78t-56 -266zM453 1194 l206 281h347l-306 -281h-247z" />
<glyph unicode="&#xf4;" horiz-adv-x="1269" d="M72 537q0 273 146 416t417 143q270 0 416.5 -143t146.5 -416q0 -275 -146.5 -421.5t-416.5 -146.5q-265 0 -414 146.5t-149 421.5zM215 1225l277 280h286l277 -280h-326l-94 121l-92 -121h-328zM401 537q0 -186 59.5 -269.5t176.5 -83.5q120 0 176.5 81t56.5 272 q0 189 -57.5 266.5t-177.5 77.5q-122 0 -178 -78t-56 -266z" />
<glyph unicode="&#xf5;" horiz-adv-x="1269" d="M72 537q0 273 146 416t417 143q270 0 416.5 -143t146.5 -416q0 -275 -146.5 -421.5t-416.5 -146.5q-265 0 -414 146.5t-149 421.5zM328 1212v226q92 67 182 67q64 0 143 -39t123 -39q68 0 166 78v-225q-93 -68 -174 -68q-64 0 -143 39t-123 39q-76 0 -174 -78zM401 537 q0 -186 59.5 -269.5t176.5 -83.5q120 0 176.5 81t56.5 272q0 189 -57.5 266.5t-177.5 77.5q-122 0 -178 -78t-56 -266z" />
<glyph unicode="&#xf6;" horiz-adv-x="1269" d="M72 537q0 273 146 416t417 143q270 0 416.5 -143t146.5 -416q0 -275 -146.5 -421.5t-416.5 -146.5q-265 0 -414 146.5t-149 421.5zM248 1212v263h303v-263h-303zM401 537q0 -186 59.5 -269.5t176.5 -83.5q120 0 176.5 81t56.5 272q0 189 -57.5 266.5t-177.5 77.5 q-122 0 -178 -78t-56 -266zM719 1212v263h303v-263h-303z" />
<glyph unicode="&#xf7;" d="M164 535v251h901v-251h-901zM453 127v291h323v-291h-323zM453 903v291h323v-291h-323z" />
<glyph unicode="&#xf8;" horiz-adv-x="1269" d="M72 537q0 273 146 416t417 143q60 0 141 -15l96 209h244l-133 -284q215 -139 215 -469q0 -275 -146.5 -421.5t-416.5 -146.5q-69 0 -139 13l-95 -207h-247l133 286q-215 144 -215 476zM401 537q0 -159 43 -244l263 579q-52 9 -72 9q-122 0 -178 -78t-56 -266zM569 193 q30 -9 68 -9q120 0 176.5 81t56.5 272q0 153 -41 233z" />
<glyph unicode="&#xf9;" horiz-adv-x="1220" d="M102 373v692h320v-705q0 -79 44 -122t126 -43q86 0 141 62t55 169v639h320v-1065h-264l-31 113q-118 -144 -321 -144q-184 0 -287 105t-103 299zM193 1475h346l206 -281h-247z" />
<glyph unicode="&#xfa;" horiz-adv-x="1220" d="M102 373v692h320v-705q0 -79 44 -122t126 -43q86 0 141 62t55 169v639h320v-1065h-264l-31 113q-118 -144 -321 -144q-184 0 -287 105t-103 299zM467 1194l207 281h346l-305 -281h-248z" />
<glyph unicode="&#xfb;" horiz-adv-x="1220" d="M102 373v692h320v-705q0 -79 44 -122t126 -43q86 0 141 62t55 169v639h320v-1065h-264l-31 113q-118 -144 -321 -144q-184 0 -287 105t-103 299zM184 1225l277 280h287l276 -280h-326l-94 121l-92 -121h-328z" />
<glyph unicode="&#xfc;" horiz-adv-x="1220" d="M102 373v692h320v-705q0 -79 44 -122t126 -43q86 0 141 62t55 169v639h320v-1065h-264l-31 113q-118 -144 -321 -144q-184 0 -287 105t-103 299zM219 1212v263h303v-263h-303zM690 1212v263h303v-263h-303z" />
<glyph unicode="&#xfd;" horiz-adv-x="1169" d="M10 1065h340l236 -832l254 832h319l-381 -1088q-72 -206 -162 -291t-237 -85q-82 0 -172 22v223q74 -18 131 -18q56 0 90.5 41t54.5 131h-90zM432 1194l207 281h346l-305 -281h-248z" />
<glyph unicode="&#xfe;" horiz-adv-x="1300" d="M113 -369v1844h319v-510q128 131 322 131q218 0 346.5 -143.5t128.5 -403.5q0 -121 -30 -221t-80 -165.5t-116 -110t-135 -64t-141 -19.5q-175 0 -295 123v-461h-319zM422 545q0 -342 237 -342q112 0 180 85.5t68 252.5q0 321 -237 321q-112 0 -180 -80.5t-68 -236.5z " />
<glyph unicode="&#xff;" horiz-adv-x="1169" d="M10 1065h340l236 -832l254 832h319l-381 -1088q-72 -206 -162 -291t-237 -85q-82 0 -172 22v223q74 -18 131 -18q56 0 90.5 41t54.5 131h-90zM199 1212v263h303v-263h-303zM670 1212v263h303v-263h-303z" />
<glyph unicode="&#x152;" horiz-adv-x="1935" d="M82 735q0 163 41 295t109 219t160.5 146t192.5 84.5t208 25.5q103 0 208 -30h863v-252h-611v-361h551v-237h-551v-377h611v-248h-875q-91 -31 -198 -31q-114 0 -215 24.5t-193 81.5t-157.5 143t-104.5 218.5t-39 298.5zM430 735q0 -116 21 -207t56 -149.5t83.5 -96.5 t99 -53.5t107.5 -15.5q63 0 112 16v1018q-66 17 -102 17q-59 0 -112 -16.5t-102.5 -55.5t-85 -98t-56.5 -151t-21 -208z" />
<glyph unicode="&#x153;" horiz-adv-x="2021" d="M72 537q0 273 146 416t417 143q246 0 395 -146q149 146 381 146q261 0 405 -161t144 -480h-776q32 -262 254 -262q74 0 122 31.5t62 84.5h326q-37 -157 -167.5 -248.5t-359.5 -91.5q-235 0 -387 152q-149 -152 -399 -152q-265 0 -414 146.5t-149 421.5zM401 537 q0 -186 59.5 -269.5t176.5 -83.5q119 0 176 80t57 273q0 189 -57.5 266.5t-177.5 77.5q-122 0 -178 -78t-56 -266zM1184 641h448q-11 254 -227 254q-196 0 -221 -254z" />
<glyph unicode="&#x178;" horiz-adv-x="1368" d="M0 1475h369l323 -601l348 601h328l-522 -887v-588h-324v588zM305 1602v262h303v-262h-303zM776 1602v262h303v-262h-303z" />
<glyph unicode="&#x2c6;" horiz-adv-x="962" d="M61 1225l277 280h287l276 -280h-326l-94 121l-92 -121h-328z" />
<glyph unicode="&#x2dc;" horiz-adv-x="737" d="M61 1212v226q92 67 183 67q64 0 143 -39t123 -39q68 0 166 78v-225q-93 -68 -174 -68q-64 0 -143 39t-123 39q-35 0 -83 -21.5t-92 -56.5z" />
<glyph unicode="&#x2000;" horiz-adv-x="947" />
<glyph unicode="&#x2001;" horiz-adv-x="1894" />
<glyph unicode="&#x2002;" horiz-adv-x="947" />
<glyph unicode="&#x2003;" horiz-adv-x="1894" />
<glyph unicode="&#x2004;" horiz-adv-x="631" />
<glyph unicode="&#x2005;" horiz-adv-x="473" />
<glyph unicode="&#x2006;" horiz-adv-x="315" />
<glyph unicode="&#x2007;" horiz-adv-x="315" />
<glyph unicode="&#x2008;" horiz-adv-x="236" />
<glyph unicode="&#x2009;" horiz-adv-x="378" />
<glyph unicode="&#x200a;" horiz-adv-x="105" />
<glyph unicode="&#x2010;" horiz-adv-x="1105" d="M164 535v251h778v-251h-778z" />
<glyph unicode="&#x2011;" horiz-adv-x="1105" d="M164 535v251h778v-251h-778z" />
<glyph unicode="&#x2012;" horiz-adv-x="1105" d="M164 535v251h778v-251h-778z" />
<glyph unicode="&#x2013;" horiz-adv-x="819" d="M0 535v251h819v-251h-819z" />
<glyph unicode="&#x2014;" d="M0 535v251h1229v-251h-1229z" />
<glyph unicode="&#x2018;" horiz-adv-x="552" d="M76 778v260q0 91 25.5 164.5t65.5 120.5t94.5 80.5t107.5 49.5t110 22v-160q-80 -18 -125 -72t-45 -143h129v-322h-362z" />
<glyph unicode="&#x2019;" horiz-adv-x="552" d="M74 778v160q80 18 125 72t45 143h-129v322h362v-261q0 -91 -25.5 -164.5t-65.5 -120.5t-94.5 -80.5t-107.5 -49t-110 -21.5z" />
<glyph unicode="&#x201a;" horiz-adv-x="552" d="M74 -215q80 18 125 72t45 143h-129v322h362v-261q0 -91 -25.5 -164.5t-65.5 -120.5t-94.5 -80.5t-107.5 -49t-110 -21.5v160z" />
<glyph unicode="&#x201c;" horiz-adv-x="1038" d="M111 778v260q0 91 25.5 164.5t65.5 120.5t94.5 80.5t107.5 49.5t110 22v-160q-80 -18 -125 -72t-45 -143h129v-322h-362zM561 778v260q0 91 25.5 164.5t65.5 120.5t95 80.5t108 49.5t110 22v-160q-80 -18 -125 -72t-45 -143h129v-322h-363z" />
<glyph unicode="&#x201d;" horiz-adv-x="1038" d="M74 778v160q80 18 125 72t45 143h-129v322h362v-261q0 -91 -25.5 -164.5t-65.5 -120.5t-94.5 -80.5t-107.5 -49t-110 -21.5zM524 778v160q80 18 125 72t45 143h-129v322h363v-261q0 -91 -25.5 -164.5t-65.5 -120.5t-95 -80.5t-108 -49t-110 -21.5z" />
<glyph unicode="&#x201e;" horiz-adv-x="1003" d="M74 -215q80 18 125 72t45 143h-129v322h362v-261q0 -91 -25.5 -164.5t-65.5 -120.5t-94.5 -80.5t-107.5 -49t-110 -21.5v160zM524 -215q80 18 125 72t45 143h-129v322h363v-261q0 -91 -25.5 -164.5t-65.5 -120.5t-95 -80.5t-108 -49t-110 -21.5v160z" />
<glyph unicode="&#x2022;" horiz-adv-x="686" d="M102 422v461h482v-461h-482z" />
<glyph unicode="&#x2026;" horiz-adv-x="1775" d="M115 0v322h362v-322h-362zM707 0v322h362v-322h-362zM1298 0v322h363v-322h-363z" />
<glyph unicode="&#x202f;" horiz-adv-x="378" />
<glyph unicode="&#x2039;" horiz-adv-x="688" d="M92 645l264 420h240l-190 -426l169 -455h-239z" />
<glyph unicode="&#x203a;" horiz-adv-x="688" d="M92 1065h240l264 -420l-244 -461h-239l170 455z" />
<glyph unicode="&#x205f;" horiz-adv-x="473" />
<glyph unicode="&#x20ac;" d="M8 475l39 193h72q-2 33 -2 53q0 24 2 61h-111l39 193h92q50 241 197.5 365t368.5 124q209 0 349 -109.5t167 -281.5h-312q-15 71 -66 111.5t-126 40.5q-92 0 -153 -59.5t-89 -190.5h389l-39 -193h-372q-2 -37 -2 -61q0 -20 2 -53h348l-39 -193h-293q28 -148 91.5 -206 t164.5 -58q77 0 129.5 37t67.5 106h311q-27 -172 -165 -278.5t-347 -106.5q-61 0 -123 12.5t-135 47.5t-133.5 89.5t-112 146.5t-76.5 210h-133z" />
<glyph unicode="&#x2122;" horiz-adv-x="1720" d="M10 1278v197h1014l154 -512l133 512h348v-811h-232v491l-151 -491h-203l-153 491v-491h-228v614h-196v-614h-240v614h-246z" />
<glyph unicode="&#x25fc;" horiz-adv-x="1064" d="M0 0v1065h1065v-1065h-1065z" />
<glyph unicode="&#xfb01;" horiz-adv-x="1282" d="M31 844v221h162v57q0 192 110.5 287.5t310.5 95.5q182 0 328 -37v-225q-120 29 -244 29q-107 0 -146.5 -32t-39.5 -105v-70h657v-1065h-319v844h-338v-844h-319v844h-162z" />
<glyph unicode="&#xfb02;" horiz-adv-x="1302" d="M31 842v221h162v59q0 190 109.5 286.5t297.5 96.5q145 0 277 -24l313 12v-1493h-320v1255q-100 17 -186 17q-96 0 -134 -34t-38 -103v-72h203v-221h-203v-842h-319v842h-162z" />
<glyph unicode="&#xfb03;" horiz-adv-x="1941" d="M31 844v221h162v57q0 180 98 271.5t282 91.5q211 0 396 -70q110 90 305 90q182 0 328 -37v-225q-120 29 -244 29q-110 0 -148.5 -33t-38.5 -104v-70h658v-1065h-320v844h-338v-844h-319v844h-340v-844h-319v844h-162zM512 1065h340v57q0 60 8 101q-116 28 -203 28 q-85 0 -115 -25t-30 -91v-70z" />
<glyph unicode="&#xfb04;" horiz-adv-x="1961" d="M31 844v221h162v57q0 187 105 275t282 88q189 0 368 -64q45 44 118 64t194 20q144 0 276 -24l313 12v-1493h-319v1255q-100 17 -187 17q-172 0 -172 -123v-84h224v-221h-224v-844h-319v844h-340v-844h-319v844h-162zM512 1065h340v78q0 28 4 82q-123 26 -192 26 q-86 0 -119 -25.5t-33 -90.5v-70z" />
</font>
</defs>
</svg>
