<?xml version="1.0" standalone="no"?>
<!DOCTYPE svg PUBLIC "-//W3C//DTD SVG 1.1//EN" "http://www.w3.org/Graphics/SVG/1.1/DTD/svg11.dtd" >
<svg xmlns="http://www.w3.org/2000/svg">
<metadata></metadata>
<defs>
<font id="ciscosansheavy" horiz-adv-x="1228" >
<font-face units-per-em="2048" ascent="1618" descent="-430" />
<missing-glyph horiz-adv-x="458" />
<glyph horiz-adv-x="0" />
<glyph horiz-adv-x="0" />
<glyph horiz-adv-x="682" />
<glyph unicode="&#xd;" horiz-adv-x="458" />
<glyph unicode=" "  horiz-adv-x="458" />
<glyph unicode="&#x09;" horiz-adv-x="458" />
<glyph unicode="&#xa0;" horiz-adv-x="458" />
<glyph unicode="!" horiz-adv-x="661" d="M94 1487h471l-51 -991h-369zM115 0v371h430v-371h-430z" />
<glyph unicode="&#x22;" d="M102 1282v205h320v-205l-33 -321h-254zM516 1282v205h320v-205l-33 -321h-254z" />
<glyph unicode="#" d="M76 313v262h112l25 283h-96v262h121l26 314h318l-29 -314h190l27 314h317l-28 -314h92v-262h-113l-28 -283h100v-262h-121l-26 -313h-316l25 313h-187l-28 -313h-316l25 313h-90zM504 575h190l25 283h-187z" />
<glyph unicode="$" d="M-8 453h411q15 -93 73 -143t151 -50q180 0 180 123q0 73 -58 109t-225 77q-253 64 -367 172.5t-114 292.5q0 159 99 270.5t298 145.5v248h340v-248q195 -31 294.5 -139.5t129.5 -282.5h-399q-16 86 -63.5 120t-125.5 34q-66 0 -105.5 -28.5t-39.5 -82.5q0 -67 44 -98 t183 -62q286 -65 411.5 -176t125.5 -303q0 -78 -23.5 -148t-73.5 -133.5t-141.5 -108.5t-216.5 -62v-256h-340v262q-91 18 -165 55t-121.5 83t-82 104t-52.5 112t-27 113z" />
<glyph unicode="%" horiz-adv-x="1740" d="M41 1110q0 162 98 258t267 96q170 0 267 -95.5t97 -258.5t-97 -258.5t-267 -95.5q-169 0 -267 96t-98 258zM313 1110q0 -156 93 -156q94 0 94 156t-94 156q-93 0 -93 -156zM365 0l702 1434h305l-702 -1434h-305zM971 324q0 163 97 258.5t267 95.5q169 0 267 -96t98 -258 t-98 -258.5t-267 -96.5q-170 0 -267 96t-97 259zM1241 324q0 -156 94 -156q92 0 92 156q0 155 -92 155q-94 0 -94 -155z" />
<glyph unicode="&#x26;" horiz-adv-x="1402" d="M66 367q0 228 239 368q-88 88 -130 170.5t-42 186.5q0 71 25.5 135t77 118t141.5 86.5t207 32.5t205.5 -30.5t139 -81.5t75 -111.5t24.5 -128.5q0 -122 -63 -212.5t-183 -180.5l144 -129q26 63 39 155l346 -47q-24 -187 -121 -354l178 -168l-238 -219l-149 141 q-148 -129 -383 -129q-258 0 -395 108t-137 290zM469 387q0 -71 47 -109t117 -38q84 0 143 53l-244 223q-35 -35 -49 -64t-14 -65zM485 1100q0 -46 19.5 -83.5t62.5 -82.5q64 51 88.5 91t24.5 87q0 115 -94 115q-101 0 -101 -127z" />
<glyph unicode="'" horiz-adv-x="552" d="M111 1282v205h319v-205l-31 -321h-256z" />
<glyph unicode="(" horiz-adv-x="696" d="M45 657q0 143 30 293.5t80.5 280.5t105.5 236t114 192h325q-303 -549 -303 -1002q0 -470 295 -1005h-325q-58 86 -112 192t-103 236t-78 281t-29 296z" />
<glyph unicode=")" horiz-adv-x="696" d="M-18 1659h325q81 -120 151 -265t124.5 -347t54.5 -390q0 -145 -29 -296t-78 -281t-103 -236t-112 -192h-325q295 535 295 1005q0 453 -303 1002z" />
<glyph unicode="*" horiz-adv-x="1017" d="M63 1055l109 327l217 -127l-59 250h344l-53 -252l223 129l106 -327l-256 -21l191 -170l-281 -202l-98 235l-98 -235l-279 204l188 168z" />
<glyph unicode="+" d="M152 510v289h303v307h315v-307h307v-289h-307v-311h-315v311h-303z" />
<glyph unicode="," horiz-adv-x="552" d="M33 -180q85 11 132.5 56.5t47.5 123.5h-143v371h432v-285q0 -208 -121 -319.5t-348 -126.5v180z" />
<glyph unicode="-" horiz-adv-x="1105" d="M137 512v287h809v-287h-809z" />
<glyph unicode="." horiz-adv-x="620" d="M94 0v371h432v-371h-432z" />
<glyph unicode="/" horiz-adv-x="696" d="M-33 -184l414 1689h336l-414 -1689h-336z" />
<glyph unicode="0" d="M47 715q0 379 148 564t417 185q272 0 421 -184.5t149 -564.5q0 -373 -150.5 -559.5t-419.5 -186.5q-266 0 -415.5 187t-149.5 559zM453 715q0 -183 19.5 -290.5t53 -148t86.5 -40.5q55 0 90 40.5t55.5 148.5t20.5 290t-20.5 291.5t-55.5 152.5t-90 43q-52 0 -86 -43 t-53.5 -152.5t-19.5 -291.5z" />
<glyph unicode="1" d="M172 909v346l350 179h363v-1434h-396v1067z" />
<glyph unicode="2" d="M70 1008q29 208 187 332t384 124q235 0 375.5 -115.5t140.5 -297.5q0 -79 -18 -142.5t-67 -136t-116.5 -144t-185.5 -182.5l-149 -141h534v-305h-1044v305l346 316q176 161 237.5 248.5t61.5 177.5q0 65 -34 99t-91 34q-56 0 -97.5 -43t-58.5 -129h-405z" />
<glyph unicode="3" d="M53 406h393q9 -74 50.5 -116t107.5 -42t109 44.5t43 125.5q0 102 -55 149t-140 47h-166v260h168q75 0 120.5 45.5t45.5 131.5q0 67 -33 102t-88 35q-112 0 -141 -133h-383q29 192 174.5 300.5t370.5 108.5q229 0 364 -101t135 -280q0 -118 -65.5 -203.5t-179.5 -117.5 q121 -33 198.5 -130t77.5 -220q0 -109 -46.5 -196t-124.5 -139.5t-173.5 -80t-200.5 -27.5q-242 0 -392 122t-169 315z" />
<glyph unicode="4" d="M51 260v295l434 879h553v-893h148v-281h-148v-260h-381v260h-606zM432 541h225v34l31 525z" />
<glyph unicode="5" d="M63 401h383q33 -153 158 -153q71 0 115.5 58.5t44.5 170.5q0 230 -168 230q-39 0 -82.5 -19.5t-75.5 -58.5h-315l39 805h913v-273h-551l-14 -252q100 56 223 56q192 0 315 -126t123 -350q0 -238 -156 -379t-403 -141q-222 0 -369 112t-180 320z" />
<glyph unicode="6" d="M47 662q0 208 46.5 365t130 251t190.5 140t237 46q207 0 342 -96t181 -256h-416q-25 84 -115 84q-80 0 -135.5 -84.5t-69.5 -265.5q52 60 129 94.5t172 34.5q204 0 323.5 -125.5t119.5 -349.5q0 -231 -153.5 -381t-401.5 -150q-269 0 -424.5 182t-155.5 511zM457 465 q0 -90 42.5 -153.5t116.5 -63.5t121 63t47 168q0 223 -155 223q-76 0 -124 -64t-48 -173z" />
<glyph unicode="7" d="M92 1145v289h1045v-275l-525 -1159h-415l534 1145h-639z" />
<glyph unicode="8" d="M41 397q0 127 62 210t186 141q-98 57 -148.5 131.5t-50.5 189.5q0 187 142.5 291t383.5 104q105 0 198 -23.5t166 -68.5t116 -118t43 -164q0 -201 -211 -328q258 -132 258 -354q0 -192 -150.5 -315.5t-419.5 -123.5q-268 0 -421.5 121t-153.5 307zM455 408 q0 -77 46 -119.5t109 -42.5q67 0 115.5 42.5t48.5 119.5q0 44 -15 79t-43.5 60.5t-56 41.5t-65.5 32q-139 -73 -139 -213zM479 1067q0 -76 42.5 -119t113.5 -69q50 26 81.5 73.5t31.5 110.5q0 75 -39.5 111t-92.5 36q-54 0 -95.5 -33t-41.5 -110z" />
<glyph unicode="9" d="M47 950q0 155 74.5 273t201 179.5t285.5 61.5q269 0 421.5 -174.5t152.5 -513.5q0 -171 -27.5 -306.5t-77 -228.5t-122.5 -154.5t-161.5 -89.5t-195.5 -28q-215 0 -355 100t-184 271h420q10 -50 44.5 -77t82.5 -27q163 0 182 344q-108 -127 -288 -127 q-216 0 -334.5 133.5t-118.5 363.5zM444 967q0 -240 160 -240q75 0 121.5 64.5t46.5 173.5q0 100 -38 163.5t-122 63.5q-85 0 -126.5 -60t-41.5 -165z" />
<glyph unicode=":" horiz-adv-x="620" d="M94 0v371h432v-371h-432zM94 694v371h432v-371h-432z" />
<glyph unicode=";" horiz-adv-x="620" d="M57 -180q85 11 133 56.5t48 123.5h-144v371h432v-285q0 -208 -121 -319.5t-348 -126.5v180zM94 694v371h432v-371h-432z" />
<glyph unicode="&#x3c;" d="M152 530v252l925 443v-344l-532 -230l532 -219v-344z" />
<glyph unicode="=" d="M152 309v287h925v-287h-925zM152 711v286h925v-286h-925z" />
<glyph unicode="&#x3e;" d="M152 88v344l530 219l-530 230v344l925 -443v-252z" />
<glyph unicode="?" horiz-adv-x="1138" d="M80 1096q21 171 166 290t356 119q225 0 351 -98t126 -262q0 -61 -11.5 -109t-45 -104t-69.5 -102t-109 -132q-36 -42 -49 -91t-13 -120h-385q0 154 24 231t103 173q92 109 120 152.5t28 84.5t-21 63.5t-57 22.5q-80 0 -102 -118h-412zM377 0v371h432v-371h-432z" />
<glyph unicode="@" horiz-adv-x="1886" d="M72 643q0 135 29.5 251.5t81 203t122.5 156.5t151 116t170.5 77t177.5 44.5t175 13.5q247 0 434 -82.5t293 -245.5t106 -386q0 -126 -32 -238t-90 -195.5t-146 -132.5t-194 -49q-103 0 -170 61.5t-72 135.5q-27 -70 -106.5 -123t-180.5 -53q-153 0 -236 103.5t-83 268.5 q0 110 25 202t66.5 154t96 105.5t114 63.5t120.5 20q56 0 101 -23t60 -59l31 51h250l-61 -469q-13 -89 -13 -114q0 -107 70 -107q37 0 64.5 33.5t43.5 91t23.5 125.5t7.5 145q0 241 -124.5 357.5t-397.5 116.5q-80 0 -157 -15.5t-158.5 -59t-142 -110t-99.5 -178.5t-39 -256 q0 -116 23.5 -210t66.5 -159.5t99.5 -112.5t128.5 -73.5t146 -38.5t159 -12q142 0 317 55l61 -233q-179 -66 -395 -66q-145 0 -279 33t-250.5 102.5t-202.5 168.5t-135.5 239t-49.5 307zM815 512q7 -96 76 -96q40 0 70 62.5t43.5 150t13.5 180.5q0 36 -16 58t-48 22 q-42 0 -74.5 -49t-48.5 -123.5t-16 -159.5v-45z" />
<glyph unicode="A" horiz-adv-x="1515" d="M-6 0l541 1475h442l545 -1475h-453l-94 322h-457l-94 -322h-430zM600 604h295l-145 500z" />
<glyph unicode="B" horiz-adv-x="1406" d="M117 0v1475h538q333 0 483 -96t150 -294q0 -104 -70 -186t-178 -115q137 -27 221.5 -122.5t84.5 -231.5q0 -104 -36 -182t-112.5 -134.5t-201 -85t-296.5 -28.5h-583zM545 279h168q104 0 153 42.5t49 131.5q0 88 -51.5 137t-140.5 49h-178v-360zM545 899h147 q82 0 125 39.5t43 114.5q0 67 -47 105t-127 38h-141v-297z" />
<glyph unicode="C" horiz-adv-x="1564" d="M70 741q0 367 195 565.5t540 198.5q275 0 458.5 -141t225.5 -399h-426q-51 247 -258 247q-135 0 -214 -114.5t-79 -356.5q0 -244 78.5 -361.5t204.5 -117.5q120 0 190 75t82 228h432q-38 -298 -219.5 -447t-491.5 -149q-159 0 -290.5 50t-227 145.5t-148 243t-52.5 333.5 z" />
<glyph unicode="D" horiz-adv-x="1548" d="M117 0v1475h590q379 0 575.5 -183.5t196.5 -554.5q0 -366 -193.5 -551.5t-574.5 -185.5h-594zM545 293h166q158 0 248 109t90 335q0 224 -91 335.5t-251 111.5h-162v-891z" />
<glyph unicode="E" horiz-adv-x="1257" d="M117 0v1475h1069v-304h-641v-286h581v-283h-581v-303h641v-299h-1069z" />
<glyph unicode="F" horiz-adv-x="1189" d="M117 0v1475h1011v-299h-583v-320h520v-283h-520v-573h-428z" />
<glyph unicode="G" horiz-adv-x="1581" d="M70 741q0 246 92.5 419t259 259t395.5 86q123 0 231 -29t197.5 -86.5t152 -152t87.5 -217.5h-424q-48 192 -244 192q-138 0 -221.5 -114t-83.5 -357q0 -124 24.5 -218t67.5 -150.5t97.5 -84.5t119.5 -28q123 0 204 69t81 175v59h-315v277h694v-840h-291l-51 135 q-142 -166 -412 -166q-137 0 -255.5 50t-209.5 144.5t-143.5 243.5t-52.5 334z" />
<glyph unicode="H" horiz-adv-x="1536" d="M117 0v1475h428v-584h448v584h426v-1475h-426v600h-448v-600h-428z" />
<glyph unicode="I" horiz-adv-x="661" d="M117 0v1475h428v-1475h-428z" />
<glyph unicode="J" horiz-adv-x="1214" d="M29 469h411q7 -110 43.5 -157.5t89.5 -47.5q57 0 88 40t31 140v1031h416v-996q0 -241 -134 -375.5t-394 -134.5q-232 0 -379.5 126t-171.5 374z" />
<glyph unicode="K" horiz-adv-x="1558" d="M117 0v1475h428v-535l452 535h492l-621 -693l691 -782h-545l-469 553v-553h-428z" />
<glyph unicode="L" horiz-adv-x="1288" d="M117 0v1475h428v-1166h702v-309h-1130z" />
<glyph unicode="M" horiz-adv-x="1875" d="M117 0v1475h456l365 -1072l356 1072h465v-1475h-383v813l-272 -813h-344l-281 831v-831h-362z" />
<glyph unicode="N" horiz-adv-x="1531" d="M117 0v1475h450l484 -867v867h364v-1475h-424l-510 909v-909h-364z" />
<glyph unicode="O" horiz-adv-x="1644" d="M70 735q0 162 42 294t113.5 219t168.5 146t203.5 85t223.5 26q118 0 224.5 -24.5t204.5 -82.5t169 -144.5t113.5 -219t42.5 -297.5q0 -162 -42.5 -293.5t-114 -218.5t-169.5 -146t-204.5 -84.5t-223.5 -25.5t-222.5 24.5t-203.5 82t-169 143.5t-113.5 218.5t-42.5 297.5z M502 735q0 -103 18.5 -184t49 -133t72.5 -86t86 -48t93 -14q64 0 119 24t102 76t74 146t27 221q0 103 -18.5 184.5t-49 134t-72.5 87t-87 49t-95 14.5q-51 0 -96 -14.5t-87 -49t-71.5 -87.5t-47 -134.5t-17.5 -185.5z" />
<glyph unicode="P" horiz-adv-x="1415" d="M117 0v1475h567q351 0 511.5 -124t160.5 -380q0 -254 -161 -378t-499 -124h-153v-469h-426zM543 756h155q106 0 166 56t60 159q0 215 -236 215h-145v-430z" />
<glyph unicode="Q" horiz-adv-x="1673" d="M70 735q0 162 42 294t113.5 219t168.5 146t203.5 85t223.5 26q118 0 224.5 -24.5t204.5 -82.5t169 -144.5t113.5 -219t42.5 -297.5q0 -368 -215 -573l244 -258l-347 -234l-198 328q-118 -31 -238 -31q-117 0 -222.5 24.5t-203.5 82t-169 143.5t-113.5 218.5t-42.5 297.5z M502 735q0 -103 18.5 -184t49 -133t72.5 -86t86 -48t93 -14q64 0 119 24t102 76t74 146t27 221q0 103 -18.5 184.5t-49 134t-72.5 87t-87 49t-95 14.5q-51 0 -96 -14.5t-87 -49t-71.5 -87.5t-47 -134.5t-17.5 -185.5z" />
<glyph unicode="R" horiz-adv-x="1476" d="M100 0v1475h580q329 0 496 -123.5t167 -356.5q0 -289 -278 -407l401 -588h-503l-318 512h-117v-512h-428zM528 803h170q91 0 148 51.5t57 140.5q0 189 -219 189h-156v-381z" />
<glyph unicode="S" horiz-adv-x="1443" d="M43 465h414q18 -96 87 -150.5t189 -54.5q113 0 171.5 37t58.5 98q0 81 -68.5 119t-263.5 80q-134 30 -228.5 67t-165.5 92t-105 131.5t-34 178.5q0 202 155 322t462 120q272 0 442 -122t205 -339h-404q-15 86 -79 129.5t-168 43.5q-90 0 -136.5 -31t-46.5 -84 q0 -63 56 -94.5t209 -61.5q294 -59 447 -183t153 -331q0 -94 -39 -175.5t-117 -147t-208.5 -103t-299.5 -37.5q-134 0 -244.5 28t-186 74.5t-130.5 111t-84 134.5t-41 148z" />
<glyph unicode="T" horiz-adv-x="1302" d="M10 1165v310h1282v-310h-430v-1165h-428v1165h-424z" />
<glyph unicode="U" horiz-adv-x="1521" d="M106 508v967h429v-992q0 -104 59.5 -160.5t167.5 -56.5q109 0 173 57t64 160v992h416v-967q0 -252 -171 -395.5t-484 -143.5t-483.5 144t-170.5 395z" />
<glyph unicode="V" horiz-adv-x="1441" d="M0 1475h442l289 -1110l293 1110h418l-481 -1475h-476z" />
<glyph unicode="W" horiz-adv-x="2086" d="M0 1475h440l174 -981l222 981h438l237 -990l166 990h410l-328 -1475h-473l-244 1049l-231 -1049h-459z" />
<glyph unicode="X" horiz-adv-x="1536" d="M10 0l527 762l-492 713h498l252 -406l247 406h449l-492 -695l527 -780h-506l-275 463l-270 -463h-465z" />
<glyph unicode="Y" horiz-adv-x="1482" d="M0 1475h461l289 -562l313 562h420l-537 -885v-590h-409v590z" />
<glyph unicode="Z" horiz-adv-x="1325" d="M45 0v279l717 899h-678v297h1196v-275l-719 -903h707v-297h-1223z" />
<glyph unicode="[" horiz-adv-x="696" d="M94 -348v2007h553v-248h-223v-1511h223v-248h-553z" />
<glyph unicode="\" horiz-adv-x="696" d="M-35 1505h334l414 -1689h-334z" />
<glyph unicode="]" horiz-adv-x="696" d="M33 -100h223v1511h-223v248h555v-2007h-555v248z" />
<glyph unicode="^" horiz-adv-x="1064" d="M29 784l333 674h340l334 -674h-360l-141 334l-144 -334h-362z" />
<glyph unicode="_" horiz-adv-x="1204" d="M37 -6h1130v-285h-1130v285z" />
<glyph unicode="`" horiz-adv-x="741" d="M61 1499h398l221 -315h-291z" />
<glyph unicode="a" horiz-adv-x="1196" d="M47 303q0 91 40 154t140.5 111t270.5 75l217 35v41q0 57 -32 88t-89 31q-107 0 -129 -105h-395q94 363 534 363q234 0 370 -108t136 -296v-692h-305q-38 88 -47 113q-127 -144 -338 -144q-172 0 -272.5 90t-100.5 244zM436 324q0 -46 27.5 -71.5t79.5 -25.5 q83 0 127.5 56.5t44.5 152.5v39q-172 -35 -225.5 -62.5t-53.5 -88.5z" />
<glyph unicode="b" horiz-adv-x="1316" d="M94 0v1475h398v-508q119 129 305 129q212 0 336 -139t124 -402q0 -280 -132.5 -433t-352.5 -153q-89 0 -169 38.5t-138 107.5l-57 -115h-314zM481 545q0 -155 51 -224t136 -69q87 0 139.5 72t52.5 217q0 272 -186 272q-88 0 -140.5 -68t-52.5 -200z" />
<glyph unicode="c" horiz-adv-x="1243" d="M59 522q0 266 154.5 420t419.5 154q222 0 373 -112t182 -294h-410q-10 64 -50 102.5t-89 38.5q-172 0 -172 -311q0 -147 45 -217t115 -70q57 0 98 44.5t53 121.5h410q-42 -194 -184 -312t-377 -118q-274 0 -421 144t-147 409z" />
<glyph unicode="d" horiz-adv-x="1318" d="M59 522q0 272 131.5 423t344.5 151q181 0 292 -121v500h398v-1475h-316l-61 129q-60 -73 -142 -116.5t-176 -43.5q-211 0 -341 146t-130 407zM459 524q0 -138 51 -205t141 -67q83 0 134 67.5t51 206.5q0 287 -183 287q-88 0 -141 -73t-53 -216z" />
<glyph unicode="e" horiz-adv-x="1271" d="M59 541q0 258 156 406.5t420 148.5q269 0 422 -168t153 -482h-749q13 -112 61.5 -159t132.5 -47q59 0 98 27t48 71h401q-38 -164 -185 -266.5t-376 -102.5q-264 0 -423 155.5t-159 416.5zM461 655h344q-9 98 -54 145.5t-120 47.5q-145 0 -170 -193z" />
<glyph unicode="f" horiz-adv-x="794" d="M12 797v268h156v68q0 182 101 277t296 95q131 0 256 -37v-274q-106 25 -153 25q-55 0 -80 -24t-25 -75v-55h203v-268h-203v-797h-395v797h-156z" />
<glyph unicode="g" horiz-adv-x="1298" d="M59 563q0 244 135 388.5t345 144.5q189 0 301 -131l57 100h307v-979q0 -224 -144 -354.5t-413 -130.5q-254 0 -391 89t-168 265h397q19 -47 56 -67.5t106 -20.5q162 0 162 178v109q-113 -107 -279 -107q-208 0 -339.5 136.5t-131.5 379.5zM459 565q0 -116 52 -175.5 t140 -59.5q85 0 135 60t50 173q0 128 -49 190t-138 62q-85 0 -137.5 -64.5t-52.5 -185.5z" />
<glyph unicode="h" horiz-adv-x="1245" d="M94 0v1475h395v-498q110 119 293 119q181 0 280 -106t99 -308v-682h-397v682q0 141 -119 141q-72 0 -114 -55.5t-42 -142.5v-625h-395z" />
<glyph unicode="i" horiz-adv-x="587" d="M84 1176v299h420v-299h-420zM96 0v1065h396v-1065h-396z" />
<glyph unicode="j" horiz-adv-x="595" d="M-88 -96q61 -15 100 -15q47 0 67.5 21t20.5 72v1083h396v-1098q0 -172 -95.5 -269t-279.5 -97q-116 0 -209 26v277zM90 1176v299h418v-299h-418z" />
<glyph unicode="k" horiz-adv-x="1275" d="M94 0v1475h395v-740l308 330h456l-462 -455l493 -610h-500l-295 412v-412h-395z" />
<glyph unicode="l" horiz-adv-x="585" d="M94 0v1475h398v-1475h-398z" />
<glyph unicode="m" horiz-adv-x="1875" d="M94 0v1065h322l41 -119q113 150 305 150q215 0 313 -152q119 152 332 152q180 0 282.5 -103t102.5 -311v-682h-395v690q0 133 -119 133q-70 0 -103.5 -57t-33.5 -148v-618h-396v690q0 133 -116 133q-67 0 -102 -56.5t-35 -141.5v-625h-398z" />
<glyph unicode="n" horiz-adv-x="1245" d="M94 0v1065h336l31 -119q117 150 321 150q181 0 280 -106t99 -308v-682h-397v682q0 141 -119 141q-73 0 -114.5 -56t-41.5 -144v-623h-395z" />
<glyph unicode="o" horiz-adv-x="1292" d="M59 537q0 141 43 248.5t121.5 175t184.5 101.5t237 34q269 0 428.5 -141t159.5 -418q0 -141 -43 -250t-121.5 -178t-185.5 -104.5t-238 -35.5q-128 0 -234 35t-185.5 104t-123 178.5t-43.5 250.5zM465 537q0 -161 45.5 -233.5t136.5 -72.5q94 0 138 70.5t44 235.5 q0 163 -45 230t-139 67t-137 -67.5t-43 -229.5z" />
<glyph unicode="p" horiz-adv-x="1316" d="M94 -369v1434h307l66 -127q125 158 330 158q211 0 335.5 -142.5t124.5 -406.5q0 -273 -132 -425.5t-345 -152.5q-166 0 -288 119v-457h-398zM481 545q0 -155 51 -225t136 -70q87 0 139.5 72.5t52.5 218.5q0 141 -49.5 207.5t-136.5 66.5q-88 0 -140.5 -69t-52.5 -201z " />
<glyph unicode="q" horiz-adv-x="1318" d="M59 522q0 272 131.5 423t344.5 151q201 0 317 -152l63 121h310v-1434h-398v475q-124 -137 -297 -137q-211 0 -341 146t-130 407zM459 524q0 -138 51 -205t141 -67q83 0 134 67.5t51 206.5q0 287 -183 287q-88 0 -141 -73t-53 -216z" />
<glyph unicode="r" horiz-adv-x="870" d="M94 0v1065h338l37 -164q42 96 108 145.5t148 49.5q64 0 133 -17v-352q-85 25 -147 25q-98 0 -158.5 -84.5t-60.5 -241.5v-426h-398z" />
<glyph unicode="s" horiz-adv-x="1198" d="M45 324h387q11 -41 55 -68t111 -27q141 0 141 76q0 37 -39.5 57.5t-156.5 40.5q-244 42 -352.5 121.5t-108.5 227.5q0 158 130.5 251t379.5 93q215 0 358 -94t174 -252h-385q-27 88 -153 88q-111 0 -111 -66q0 -36 39 -55t156 -41q115 -21 195 -46.5t143.5 -64t94 -93.5 t30.5 -130q0 -170 -136 -271.5t-397 -101.5q-226 0 -374 97.5t-181 257.5z" />
<glyph unicode="t" horiz-adv-x="813" d="M20 797v268h154l25 270h372v-270h211v-268h-211v-473q0 -78 88 -78q45 0 123 20v-266q-121 -31 -227 -31q-180 0 -280.5 89t-100.5 253v486h-154z" />
<glyph unicode="u" horiz-adv-x="1232" d="M84 381v684h395v-694q0 -129 121 -129q69 0 106 53.5t37 140.5v629h396v-1065h-334l-31 109q-114 -140 -311 -140q-184 0 -281.5 105t-97.5 307z" />
<glyph unicode="v" horiz-adv-x="1210" d="M-2 1065h428l188 -743l185 743h413l-381 -1065h-454z" />
<glyph unicode="w" horiz-adv-x="1759" d="M8 1065h410l114 -690l156 690h414l137 -686l127 686h385l-293 -1065h-448l-131 694l-150 -694h-438z" />
<glyph unicode="x" horiz-adv-x="1249" d="M-2 0l401 559l-383 506h465l152 -256l141 256h424l-358 -502l411 -563h-475l-172 291l-176 -291h-430z" />
<glyph unicode="y" horiz-adv-x="1220" d="M-2 1065h422l194 -782l209 782h400l-385 -1063q-81 -225 -175 -313t-249 -88q-87 0 -211 28v267q105 -25 145 -25q43 0 67 27.5t46 101.5h-66z" />
<glyph unicode="z" horiz-adv-x="1079" d="M35 0v276l510 506h-475v283h974v-277l-503 -505h485v-283h-991z" />
<glyph unicode="{" horiz-adv-x="696" d="M4 514v272q166 0 166 150v334q0 73 11.5 130.5t32 98t54.5 69.5t71.5 46.5t92.5 27.5t108 13.5t126 3.5v-248q-92 0 -126 -24t-34 -107v-340q0 -118 -41 -185t-117 -104q76 -36 117 -104.5t41 -186.5v-327q0 -44 8.5 -70.5t30 -40t47.5 -17.5t74 -5v-248q-73 0 -126 3.5 t-108 13.5t-92.5 27.5t-71.5 46.5t-54.5 69.5t-32 98t-11.5 130.5v324q0 149 -166 149z" />
<glyph unicode="|" horiz-adv-x="696" d="M176 -287v1895h330v-1895h-330z" />
<glyph unicode="}" horiz-adv-x="696" d="M14 -100q48 1 74.5 5t48.5 17.5t30.5 40t8.5 70.5v327q0 118 41 186.5t117 104.5q-76 37 -117 104t-41 185v340q0 83 -34.5 107t-127.5 24v248q73 0 126.5 -3.5t108.5 -13.5t93 -27.5t72 -46.5t54.5 -69.5t32 -98t11.5 -130.5v-334q0 -150 164 -150v-272 q-83 0 -123.5 -39t-40.5 -110v-324q0 -73 -11.5 -130.5t-32 -98t-54.5 -69.5t-72 -46.5t-93 -27.5t-108.5 -13.5t-126.5 -3.5v248z" />
<glyph unicode="~" d="M152 473v293q138 82 286 82q53 0 108 -17t92.5 -37.5t85 -37.5t87.5 -17q62 0 122.5 24t143.5 77v-293q-53 -33 -129 -57.5t-157 -24.5q-67 0 -134.5 26.5t-128.5 53t-110 26.5q-62 0 -122.5 -23t-143.5 -75z" />
<glyph unicode="&#xa1;" horiz-adv-x="661" d="M94 -369l51 992h369l51 -992h-471zM115 748v370h430v-370h-430z" />
<glyph unicode="&#xa2;" d="M53 522q0 215 102 358.5t287 190.5v279h342v-273q160 -35 264.5 -138t129.5 -249h-406q-10 70 -50 100.5t-91 30.5q-170 0 -170 -303q0 -146 45 -215.5t115 -69.5q58 0 99 43.5t54 122.5h410q-37 -158 -137.5 -267t-262.5 -144v-264h-342v266q-190 40 -289.5 176.5 t-99.5 355.5z" />
<glyph unicode="&#xa3;" d="M72 580v245h108v174q0 228 122 346.5t360 118.5q214 0 348 -118.5t145 -303.5h-369q-9 69 -34 99t-70 30q-49 0 -71.5 -42t-22.5 -134v-170h340v-245h-340v-82q0 -126 -105 -189h647v-309h-1044v299q59 17 76.5 53.5t17.5 110.5v117h-108z" />
<glyph unicode="&#xa4;" d="M29 326l121 120q-58 110 -58 240t58 240l-121 123l217 219l127 -127q111 57 239 57q126 0 240 -57q19 18 40 39t47 47.5t40 40.5l219 -219q-14 -14 -39.5 -39t-46 -45.5t-37.5 -38.5q60 -114 60 -240t-60 -240l123 -120l-219 -220q-41 43 -127 125q-116 -55 -240 -55 q-125 0 -241 55l-125 -125zM387 686q0 -107 63 -170t162 -63t163.5 63.5t64.5 169.5q0 108 -64.5 172t-163.5 64t-162 -64t-63 -172z" />
<glyph unicode="&#xa5;" d="M-45 1434h448l220 -553l243 553h408l-371 -660h162v-237h-260v-86h260v-238h-260v-213h-383v213h-258v238h258v86h-258v237h158z" />
<glyph unicode="&#xa6;" horiz-adv-x="696" d="M176 -287v813h330v-813h-330zM176 784v822h330v-822h-330z" />
<glyph unicode="&#xa7;" d="M131 625q0 79 48.5 151t135.5 111q-135 99 -135 252q0 157 118 240t314 83q99 0 184 -33t139 -84t86 -110t36 -115h-326q-24 94 -110 94q-33 0 -55.5 -17.5t-22.5 -47.5q0 -27 20.5 -44.5t63.5 -33.5q186 -68 261 -110q189 -106 206 -269q2 -17 2 -35q0 -168 -183 -254 q60 -42 93.5 -101.5t33.5 -127.5q0 -160 -113.5 -253t-310.5 -93q-105 0 -191.5 30t-141.5 79.5t-87 108.5t-38 122h325q20 -92 113 -92q35 0 59.5 17.5t24.5 47.5q0 27 -20 43t-64 33l-90 35q-68 26 -115 47.5t-100 55t-85 69.5t-53.5 88t-21.5 113zM496 649 q0 -54 37.5 -85.5t132.5 -65.5q63 58 63 108q0 54 -38 87.5t-132 66.5q-63 -63 -63 -111z" />
<glyph unicode="&#xa8;" horiz-adv-x="964" d="M61 1198v295h355v-295h-355zM549 1198v295h354v-295h-354z" />
<glyph unicode="&#xa9;" horiz-adv-x="1726" d="M70 743q0 149 43 275.5t117 214.5t173.5 150.5t211 92t229.5 29.5t229.5 -29.5t211 -92t173.5 -150.5t117 -214.5t43 -275.5t-43 -275t-117 -214.5t-173.5 -150.5t-211 -91.5t-229.5 -29.5t-229.5 29.5t-211 91.5t-173.5 150.5t-117 214.5t-43 275zM279 743 q0 -144 46 -259t124.5 -187.5t179.5 -111t215 -38.5t215 38.5t179.5 111t124.5 187.5t46 259t-46 259t-124.5 187.5t-179.5 111t-215 38.5t-215 -38.5t-179.5 -111t-124.5 -187.5t-46 -259zM432 741q0 198 114 312t312 114q162 0 272.5 -82.5t135.5 -216.5h-299 q-7 46 -38 75.5t-67 29.5q-131 0 -131 -234q0 -109 34.5 -160t86.5 -51q43 0 74 32t41 91h301q-33 -144 -137.5 -231.5t-278.5 -87.5q-201 0 -310.5 105.5t-109.5 303.5z" />
<glyph unicode="&#xaa;" horiz-adv-x="1044" d="M115 870q0 122 94.5 196t277.5 93l101 10v43q0 38 -15.5 56t-40.5 18q-60 0 -69 -61h-330q26 124 140 202t270 78q177 0 281 -89t104 -247v-548h-246l-29 71q-39 -45 -96.5 -70.5t-124.5 -25.5q-138 0 -227.5 68t-89.5 206zM125 0v287h811v-287h-811zM446 887 q0 -28 19.5 -45t48.5 -17q34 0 54 25.5t20 62.5v70l-43 -8q-99 -19 -99 -88z" />
<glyph unicode="&#xab;" horiz-adv-x="1204" d="M61 641l267 424h307l-195 -434l170 -455h-303zM565 641l266 424h308l-195 -434l170 -455h-303z" />
<glyph unicode="&#xac;" d="M152 512v287h925v-598h-317v311h-608z" />
<glyph unicode="&#xad;" horiz-adv-x="1105" d="M137 512v287h809v-287h-809z" />
<glyph unicode="&#xae;" horiz-adv-x="1286" d="M141 1022q0 99 29 181t77.5 137t113.5 93t135 55t145 17t146 -17t136 -55t113.5 -93t77.5 -137t29 -181t-29 -180.5t-77.5 -136.5t-113.5 -93.5t-136 -55.5t-146 -17t-145.5 17t-135 55.5t-113 93.5t-77.5 136.5t-29 180.5zM285 1022q0 -96 30.5 -168.5t82 -114t113 -62 t130.5 -20.5q68 0 129.5 20.5t113.5 62t82.5 114t30.5 168.5t-30.5 169.5t-82.5 115t-113.5 62t-129.5 20.5q-69 0 -130.5 -20.5t-113 -62t-82 -114.5t-30.5 -170zM449 795v479h188q102 0 158.5 -39t56.5 -117q0 -92 -92 -133l131 -190h-162l-104 168h-39v-168h-137z M586 1055h55q29 0 49.5 15.5t20.5 47.5q0 62 -74 62h-51v-125z" />
<glyph unicode="&#xaf;" horiz-adv-x="714" d="M61 1210v263h592v-263h-592z" />
<glyph unicode="&#xb0;" d="M90 1116q0 109 52.5 190.5t136.5 121.5t186 40q159 0 267 -94.5t108 -257.5t-108 -257.5t-267 -94.5q-102 0 -186 40t-136.5 121.5t-52.5 190.5zM387 1116q0 -59 21 -88t57 -29q78 0 78 117q0 115 -78 115t-78 -115z" />
<glyph unicode="&#xb1;" d="M152 0v287h925v-287h-925zM152 561v287h303v309h317v-309h305v-287h-305v-194h-317v194h-303z" />
<glyph unicode="&#xb2;" horiz-adv-x="870" d="M68 1227q22 138 124.5 218.5t262.5 80.5q164 0 256 -71t92 -185q0 -87 -52 -159.5t-196 -184.5l-129 -109h373v-215h-705v211l213 174q125 115 167 175t42 112q0 49 -70 49q-74 0 -90 -96h-288z" />
<glyph unicode="&#xb3;" horiz-adv-x="878" d="M68 868h286q7 -90 86 -90q36 0 57 23.5t21 66.5q0 111 -119 111h-65v182h69q42 0 69.5 25t27.5 74q0 71 -60 71q-33 0 -48.5 -16t-20.5 -55h-277q19 125 114.5 195.5t248.5 70.5q157 0 246.5 -64t89.5 -170q0 -74 -48.5 -131.5t-140.5 -79.5q99 -23 153 -83.5t54 -139.5 q0 -135 -96.5 -205.5t-268.5 -70.5q-171 0 -270 76t-108 210z" />
<glyph unicode="&#xb4;" horiz-adv-x="741" d="M61 1184l222 315h397l-330 -315h-289z" />
<glyph unicode="&#xb5;" horiz-adv-x="1243" d="M94 -369v1434h395v-694q0 -64 33 -96.5t92 -32.5q68 0 104 48.5t36 133.5v641h395v-1065h-309l-27 84q-87 -115 -248 -115q-34 0 -76 11v-349h-395z" />
<glyph unicode="&#xb6;" horiz-adv-x="1445" d="M37 1051q0 87 23.5 159t63 120.5t92 81.5t107.5 48t113 15h332v-1842h-375v1002q-43 5 -85 17.5t-93 43t-88.5 74t-63.5 116.5t-26 165zM950 -367v1842h377v-1842h-377z" />
<glyph unicode="&#xb7;" horiz-adv-x="606" d="M94 451v358h416v-358h-416z" />
<glyph unicode="&#xb8;" horiz-adv-x="831" d="M68 -283h260q12 -75 90 -75q41 0 63.5 20t22.5 49q0 84 -195 84l21 250h223l4 -117q207 -46 207 -219q0 -116 -89.5 -187t-252.5 -71q-154 0 -246.5 72t-107.5 194z" />
<glyph unicode="&#xb9;" horiz-adv-x="606" d="M35 1112v246l252 110h252v-903h-291v633z" />
<glyph unicode="&#xba;" horiz-adv-x="1069" d="M82 1055q0 105 26 185.5t68 129t101 79.5t118.5 42.5t126.5 11.5q68 0 126.5 -11t118.5 -41.5t101.5 -79t68 -129.5t26.5 -187q0 -107 -26.5 -189.5t-68.5 -132.5t-101 -82t-118.5 -43.5t-126.5 -11.5t-126.5 12t-118.5 44t-101 82.5t-68 132.5t-26 188zM106 0v287h836 v-287h-836zM420 1055q0 -126 25 -178t79 -52q53 0 78 52.5t25 177.5q0 122 -25.5 170.5t-79.5 48.5q-53 0 -77.5 -48t-24.5 -171z" />
<glyph unicode="&#xbb;" horiz-adv-x="1204" d="M66 1065h307l266 -424l-246 -465h-303l170 455zM567 1065h307l269 -424l-248 -465h-303l170 455z" />
<glyph unicode="&#xbc;" horiz-adv-x="1859" d="M102 1112v246l252 110h252v-903h-291v633zM309 -184l869 1802h282l-866 -1802h-285zM985 162v209l330 532h342v-549h100v-192h-100v-162h-262v162h-410zM1235 354h160l22 322z" />
<glyph unicode="&#xbd;" horiz-adv-x="1945" d="M102 1112v246l252 110h252v-903h-291v633zM309 -184l869 1802h282l-866 -1802h-285zM1108 625q22 138 124.5 218.5t262.5 80.5q164 0 256 -71t92 -185q0 -87 -52 -159.5t-196 -184.5l-129 -109h373v-215h-704v211l213 174q125 115 166.5 174.5t41.5 112.5q0 49 -69 49 q-74 0 -90 -96h-289z" />
<glyph unicode="&#xbe;" horiz-adv-x="2031" d="M102 868h287q7 -90 86 -90q36 0 57 23.5t21 66.5q0 111 -119 111h-65v182h69q42 0 69.5 25t27.5 74q0 71 -60 71q-33 0 -48.5 -16t-20.5 -55h-277q19 125 114.5 195.5t248.5 70.5q157 0 246 -64t89 -170q0 -74 -48 -131.5t-140 -79.5q99 -23 153 -83.5t54 -139.5 q0 -135 -96.5 -205.5t-268.5 -70.5q-171 0 -270.5 76.5t-108.5 209.5zM481 -184l869 1802h282l-866 -1802h-285zM1157 162v209l330 532h342v-549h100v-192h-100v-162h-262v162h-410zM1407 354h160l22 322z" />
<glyph unicode="&#xbf;" horiz-adv-x="1138" d="M59 -39q0 61 11.5 109t45.5 104.5t69.5 101.5t109.5 132q36 41 48.5 90t12.5 120h385q0 -156 -23.5 -232t-103.5 -171q-95 -113 -121 -154.5t-26 -83.5q0 -41 21 -63.5t57 -22.5q79 0 102 119h412q-21 -171 -165.5 -290t-354.5 -119q-227 0 -353.5 98t-126.5 262z M330 735v371h432v-371h-432z" />
<glyph unicode="&#xc0;" horiz-adv-x="1515" d="M-6 0l541 1475h442l545 -1475h-453l-94 322h-457l-94 -322h-430zM408 1901h397l221 -316h-291zM600 604h295l-145 500z" />
<glyph unicode="&#xc1;" horiz-adv-x="1515" d="M-6 0l541 1475h442l545 -1475h-453l-94 322h-457l-94 -322h-430zM483 1585l222 316h397l-330 -316h-289zM600 604h295l-145 500z" />
<glyph unicode="&#xc2;" horiz-adv-x="1515" d="M-6 0l541 1475h442l545 -1475h-453l-94 322h-457l-94 -322h-430zM311 1591l279 316h315l279 -316h-365l-71 117l-72 -117h-365zM600 604h295l-145 500z" />
<glyph unicode="&#xc3;" horiz-adv-x="1515" d="M-6 0l541 1475h442l545 -1475h-453l-94 322h-457l-94 -322h-430zM422 1587v256q102 60 194 60q63 0 150 -38t131 -38q34 0 73 15t105 52v-256q-97 -57 -186 -57q-65 0 -152 37t-129 37q-64 0 -186 -68zM600 604h295l-145 500z" />
<glyph unicode="&#xc4;" horiz-adv-x="1515" d="M-6 0l541 1475h442l545 -1475h-453l-94 322h-457l-94 -322h-430zM328 1599v295h354v-295h-354zM600 604h295l-145 500zM815 1599v295h354v-295h-354z" />
<glyph unicode="&#xc5;" horiz-adv-x="1515" d="M-6 0l518 1417q-86 77 -86 203q0 117 83.5 195.5t240.5 78.5t241 -78.5t84 -195.5q0 -118 -80 -195l527 -1425h-453l-94 322h-457l-94 -322h-430zM600 604h295l-145 500zM678 1620q0 -43 19.5 -64.5t52.5 -21.5q32 0 51.5 21.5t19.5 64.5q0 86 -71 86q-33 0 -52.5 -21.5 t-19.5 -64.5z" />
<glyph unicode="&#xc6;" horiz-adv-x="2064" d="M-6 0l729 1475h1270v-304h-568v-286h508v-285h-508v-301h568v-299h-996v322h-411l-148 -322h-444zM713 604h284v613z" />
<glyph unicode="&#xc7;" horiz-adv-x="1564" d="M70 741q0 367 195 565.5t540 198.5q275 0 458.5 -141t225.5 -399h-426q-51 247 -258 247q-135 0 -214 -114.5t-79 -356.5q0 -244 78.5 -361.5t204.5 -117.5q120 0 190 75t82 228h432q-35 -271 -186.5 -418t-411.5 -172l2 -47q207 -46 207 -219q0 -116 -90.5 -187 t-253.5 -71q-154 0 -246 72t-106 194h260q3 -32 24.5 -53.5t65.5 -21.5q41 0 63.5 20t22.5 49q0 84 -197 84l17 182q-276 35 -438 232t-162 532z" />
<glyph unicode="&#xc8;" horiz-adv-x="1257" d="M117 0v1475h1069v-304h-641v-286h581v-283h-581v-303h641v-299h-1069zM262 1901h397l222 -316h-291z" />
<glyph unicode="&#xc9;" horiz-adv-x="1257" d="M117 0v1475h1069v-304h-641v-286h581v-283h-581v-303h641v-299h-1069zM451 1585l221 316h397l-330 -316h-288z" />
<glyph unicode="&#xca;" horiz-adv-x="1257" d="M117 0v1475h1069v-304h-641v-286h581v-283h-581v-303h641v-299h-1069zM217 1591l279 316h315l279 -316h-365l-72 117l-71 -117h-365z" />
<glyph unicode="&#xcb;" horiz-adv-x="1257" d="M117 0v1475h1069v-304h-641v-286h581v-283h-581v-303h641v-299h-1069zM231 1599v295h355v-295h-355zM719 1599v295h354v-295h-354z" />
<glyph unicode="&#xcc;" horiz-adv-x="661" d="M4 1901h397l222 -316h-291zM117 0v1475h428v-1475h-428z" />
<glyph unicode="&#xcd;" horiz-adv-x="661" d="M63 1585l222 316h397l-330 -316h-289zM117 0v1475h428v-1475h-428z" />
<glyph unicode="&#xce;" horiz-adv-x="661" d="M-106 1591l278 316h315l279 -316h-365l-71 117l-72 -117h-364zM117 0v1475h428v-1475h-428z" />
<glyph unicode="&#xcf;" horiz-adv-x="661" d="M-88 1599v295h354v-295h-354zM117 0v1475h428v-1475h-428zM399 1599v295h355v-295h-355z" />
<glyph unicode="&#xd0;" horiz-adv-x="1554" d="M14 629v293h109v553h590q379 0 575.5 -184t196.5 -554q0 -366 -194 -551.5t-574 -185.5h-594v629h-109zM551 291h166q157 0 246.5 109.5t89.5 336.5q0 223 -91 335t-249 112h-162v-262h199v-293h-199v-338z" />
<glyph unicode="&#xd1;" horiz-adv-x="1531" d="M117 0v1475h450l484 -867v867h364v-1475h-424l-510 909v-909h-364zM444 1587v256q102 60 195 60q63 0 150 -38t131 -38q34 0 73 15t105 52v-256q-97 -57 -187 -57q-65 0 -151.5 37t-128.5 37q-65 0 -187 -68z" />
<glyph unicode="&#xd2;" horiz-adv-x="1644" d="M70 735q0 162 42 294t113.5 219t168.5 146t203.5 85t223.5 26q118 0 224.5 -24.5t204.5 -82.5t169 -144.5t113.5 -219t42.5 -297.5q0 -162 -42.5 -293.5t-114 -218.5t-169.5 -146t-204.5 -84.5t-223.5 -25.5t-222.5 24.5t-203.5 82t-169 143.5t-113.5 218.5t-42.5 297.5z M426 1901h397l221 -316h-290zM502 735q0 -103 18.5 -184t49 -133t72.5 -86t86 -48t93 -14q64 0 119 24t102 76t74 146t27 221q0 103 -18.5 184.5t-49 134t-72.5 87t-87 49t-95 14.5q-51 0 -96 -14.5t-87 -49t-71.5 -87.5t-47 -134.5t-17.5 -185.5z" />
<glyph unicode="&#xd3;" horiz-adv-x="1644" d="M70 735q0 162 42 294t113.5 219t168.5 146t203.5 85t223.5 26q118 0 224.5 -24.5t204.5 -82.5t169 -144.5t113.5 -219t42.5 -297.5q0 -162 -42.5 -293.5t-114 -218.5t-169.5 -146t-204.5 -84.5t-223.5 -25.5t-222.5 24.5t-203.5 82t-169 143.5t-113.5 218.5t-42.5 297.5z M502 735q0 -103 18.5 -184t49 -133t72.5 -86t86 -48t93 -14q64 0 119 24t102 76t74 146t27 221q0 103 -18.5 184.5t-49 134t-72.5 87t-87 49t-95 14.5q-51 0 -96 -14.5t-87 -49t-71.5 -87.5t-47 -134.5t-17.5 -185.5zM608 1585l221 316h398l-330 -316h-289z" />
<glyph unicode="&#xd4;" horiz-adv-x="1644" d="M70 735q0 162 42 294t113.5 219t168.5 146t203.5 85t223.5 26q118 0 224.5 -24.5t204.5 -82.5t169 -144.5t113.5 -219t42.5 -297.5q0 -162 -42.5 -293.5t-114 -218.5t-169.5 -146t-204.5 -84.5t-223.5 -25.5t-222.5 24.5t-203.5 82t-169 143.5t-113.5 218.5t-42.5 297.5z M383 1591l279 316h315l278 -316h-364l-72 117l-71 -117h-365zM502 735q0 -103 18.5 -184t49 -133t72.5 -86t86 -48t93 -14q64 0 119 24t102 76t74 146t27 221q0 103 -18.5 184.5t-49 134t-72.5 87t-87 49t-95 14.5q-51 0 -96 -14.5t-87 -49t-71.5 -87.5t-47 -134.5 t-17.5 -185.5z" />
<glyph unicode="&#xd5;" horiz-adv-x="1644" d="M70 735q0 162 42 294t113.5 219t168.5 146t203.5 85t223.5 26q118 0 224.5 -24.5t204.5 -82.5t169 -144.5t113.5 -219t42.5 -297.5q0 -162 -42.5 -293.5t-114 -218.5t-169.5 -146t-204.5 -84.5t-223.5 -25.5t-222.5 24.5t-203.5 82t-169 143.5t-113.5 218.5t-42.5 297.5z M496 1587v256q102 60 194 60q63 0 150 -38t131 -38q34 0 73 15t105 52v-256q-97 -57 -186 -57q-65 0 -152 37t-129 37q-64 0 -186 -68zM502 735q0 -103 18.5 -184t49 -133t72.5 -86t86 -48t93 -14q64 0 119 24t102 76t74 146t27 221q0 103 -18.5 184.5t-49 134t-72.5 87 t-87 49t-95 14.5q-51 0 -96 -14.5t-87 -49t-71.5 -87.5t-47 -134.5t-17.5 -185.5z" />
<glyph unicode="&#xd6;" horiz-adv-x="1644" d="M70 735q0 162 42 294t113.5 219t168.5 146t203.5 85t223.5 26q118 0 224.5 -24.5t204.5 -82.5t169 -144.5t113.5 -219t42.5 -297.5q0 -162 -42.5 -293.5t-114 -218.5t-169.5 -146t-204.5 -84.5t-223.5 -25.5t-222.5 24.5t-203.5 82t-169 143.5t-113.5 218.5t-42.5 297.5z M399 1599v295h355v-295h-355zM502 735q0 -103 18.5 -184t49 -133t72.5 -86t86 -48t93 -14q64 0 119 24t102 76t74 146t27 221q0 103 -18.5 184.5t-49 134t-72.5 87t-87 49t-95 14.5q-51 0 -96 -14.5t-87 -49t-71.5 -87.5t-47 -134.5t-17.5 -185.5zM887 1599v295h354v-295 h-354z" />
<glyph unicode="&#xd7;" d="M184 434l219 221l-219 219l209 209l219 -219l222 219l208 -209l-219 -219l219 -221l-208 -209l-222 219l-219 -219z" />
<glyph unicode="&#xd8;" horiz-adv-x="1644" d="M70 735q0 162 42 294t113.5 219t168.5 146t203.5 85t223.5 26q106 0 211 -24l92 198h303l-141 -305q289 -196 289 -637q0 -162 -42.5 -293.5t-114 -218.5t-169.5 -146t-204.5 -84.5t-223.5 -25.5q-84 0 -184 17l-94 -211h-305l143 309q-311 191 -311 651zM502 735 q0 -202 71 -309l340 766q-54 14 -92 14q-51 0 -96 -14.5t-87 -49t-71.5 -87.5t-47 -134.5t-17.5 -185.5zM745 281q34 -11 76 -11q64 0 119 24t102 76t74 146t27 221q0 181 -66 293z" />
<glyph unicode="&#xd9;" horiz-adv-x="1521" d="M106 508v967h429v-992q0 -104 59.5 -160.5t167.5 -56.5q109 0 173 57t64 160v992h416v-967q0 -252 -171 -395.5t-484 -143.5t-483.5 144t-170.5 395zM309 1901h398l221 -316h-291z" />
<glyph unicode="&#xda;" horiz-adv-x="1521" d="M106 508v967h429v-992q0 -104 59.5 -160.5t167.5 -56.5q109 0 173 57t64 160v992h416v-967q0 -252 -171 -395.5t-484 -143.5t-483.5 144t-170.5 395zM604 1585l221 316h398l-330 -316h-289z" />
<glyph unicode="&#xdb;" horiz-adv-x="1521" d="M106 508v967h429v-992q0 -104 59.5 -160.5t167.5 -56.5q109 0 173 57t64 160v992h416v-967q0 -252 -171 -395.5t-484 -143.5t-483.5 144t-170.5 395zM322 1591l278 316h315l279 -316h-365l-71 117l-72 -117h-364z" />
<glyph unicode="&#xdc;" horiz-adv-x="1521" d="M106 508v967h429v-992q0 -104 59.5 -160.5t167.5 -56.5q109 0 173 57t64 160v992h416v-967q0 -252 -171 -395.5t-484 -143.5t-483.5 144t-170.5 395zM340 1599v295h354v-295h-354zM827 1599v295h355v-295h-355z" />
<glyph unicode="&#xdd;" horiz-adv-x="1482" d="M0 1475h461l289 -562l313 562h420l-537 -885v-590h-409v590zM588 1585l221 316h397l-329 -316h-289z" />
<glyph unicode="&#xde;" horiz-adv-x="1359" d="M117 0v1475h428v-222h90q161 0 281 -25.5t210 -83t135.5 -155.5t45.5 -237q0 -264 -169 -383t-491 -119h-102v-250h-428zM545 537h106q96 0 159.5 51.5t63.5 163.5q0 213 -235 213h-94v-428z" />
<glyph unicode="&#xdf;" horiz-adv-x="1359" d="M94 0v1049q0 204 130.5 330t377.5 126q240 0 371 -90.5t131 -249.5q0 -53 -15 -96.5t-37 -72t-44 -53t-37 -50t-15 -51.5q0 -38 25 -69.5t88 -65.5q139 -74 202.5 -160t63.5 -201q0 -75 -24.5 -140.5t-73 -119t-129.5 -84.5t-186 -31q-192 0 -299 90.5t-131 251.5h339 q6 -108 70 -108q33 0 54.5 28.5t21.5 79.5q0 55 -39 98t-125 89q-113 62 -158 127t-45 149q0 44 13.5 82t33 66t38.5 55t32.5 60.5t13.5 70.5q0 57 -31 88t-85 31q-70 0 -103 -50.5t-33 -170.5v-295l-71 -713h-324z" />
<glyph unicode="&#xe0;" horiz-adv-x="1196" d="M47 303q0 91 40 154t140.5 111t270.5 75l217 35v41q0 57 -32 88t-89 31q-107 0 -129 -105h-395q94 363 534 363q234 0 370 -108t136 -296v-692h-305q-38 88 -47 113q-127 -144 -338 -144q-172 0 -272.5 90t-100.5 244zM211 1499h397l221 -315h-290zM436 324 q0 -46 27.5 -71.5t79.5 -25.5q83 0 127.5 56.5t44.5 152.5v39q-172 -35 -225.5 -62.5t-53.5 -88.5z" />
<glyph unicode="&#xe1;" horiz-adv-x="1196" d="M47 303q0 91 40 154t140.5 111t270.5 75l217 35v41q0 57 -32 88t-89 31q-107 0 -129 -105h-395q94 363 534 363q234 0 370 -108t136 -296v-692h-305q-38 88 -47 113q-127 -144 -338 -144q-172 0 -272.5 90t-100.5 244zM436 324q0 -46 27.5 -71.5t79.5 -25.5 q83 0 127.5 56.5t44.5 152.5v39q-172 -35 -225.5 -62.5t-53.5 -88.5zM440 1184l222 315h397l-330 -315h-289z" />
<glyph unicode="&#xe2;" horiz-adv-x="1196" d="M47 303q0 91 40 154t140.5 111t270.5 75l217 35v41q0 57 -32 88t-89 31q-107 0 -129 -105h-395q94 363 534 363q234 0 370 -108t136 -296v-692h-305q-38 88 -47 113q-127 -144 -338 -144q-172 0 -272.5 90t-100.5 244zM164 1190l278 315h316l278 -315h-364l-72 117 l-72 -117h-364zM436 324q0 -46 27.5 -71.5t79.5 -25.5q83 0 127.5 56.5t44.5 152.5v39q-172 -35 -225.5 -62.5t-53.5 -88.5z" />
<glyph unicode="&#xe3;" horiz-adv-x="1196" d="M47 303q0 91 40 154t140.5 111t270.5 75l217 35v41q0 57 -32 88t-89 31q-107 0 -129 -105h-395q94 363 534 363q234 0 370 -108t136 -296v-692h-305q-38 88 -47 113q-127 -144 -338 -144q-172 0 -272.5 90t-100.5 244zM270 1186v256q101 59 195 59q63 0 149.5 -38 t130.5 -38q34 0 73.5 15.5t105.5 52.5v-256q-97 -57 -187 -57q-65 0 -151.5 36.5t-128.5 36.5q-67 0 -187 -67zM436 324q0 -46 27.5 -71.5t79.5 -25.5q83 0 127.5 56.5t44.5 152.5v39q-172 -35 -225.5 -62.5t-53.5 -88.5z" />
<glyph unicode="&#xe4;" horiz-adv-x="1196" d="M47 303q0 91 40 154t140.5 111t270.5 75l217 35v41q0 57 -32 88t-89 31q-107 0 -129 -105h-395q94 363 534 363q234 0 370 -108t136 -296v-692h-305q-38 88 -47 113q-127 -144 -338 -144q-172 0 -272.5 90t-100.5 244zM166 1198v295h354v-295h-354zM436 324 q0 -46 27.5 -71.5t79.5 -25.5q83 0 127.5 56.5t44.5 152.5v39q-172 -35 -225.5 -62.5t-53.5 -88.5zM653 1198v295h355v-295h-355z" />
<glyph unicode="&#xe5;" horiz-adv-x="1196" d="M47 303q0 91 40 154t140.5 111t270.5 75l217 35v41q0 57 -32 88t-89 31q-107 0 -129 -105h-395q94 363 534 363q234 0 370 -108t136 -296v-692h-305q-38 88 -47 113q-127 -144 -338 -144q-172 0 -272.5 90t-100.5 244zM266 1444q0 119 84.5 197.5t241.5 78.5t240 -78 t83 -198t-82.5 -197.5t-240.5 -77.5q-157 0 -241.5 78t-84.5 197zM436 324q0 -46 27.5 -71.5t79.5 -25.5q83 0 127.5 56.5t44.5 152.5v39q-172 -35 -225.5 -62.5t-53.5 -88.5zM520 1444q0 -42 19.5 -64t52.5 -22q32 0 52 22t20 64q0 86 -72 86q-33 0 -52.5 -21.5 t-19.5 -64.5z" />
<glyph unicode="&#xe6;" horiz-adv-x="1916" d="M47 303q0 69 22 122.5t73.5 99t139.5 78t216 52.5l217 35v29q0 57 -32 88t-89 31q-107 0 -129 -105h-395q94 363 534 363q194 0 336 -109q147 109 344 109q272 0 420.5 -166.5t148.5 -493.5h-737q14 -108 61 -153t128 -45q58 0 94 27.5t45 72.5h401q-17 -74 -56.5 -137.5 t-104 -117t-165.5 -84t-227 -30.5q-139 0 -253 54.5t-191 150.5q-64 -94 -169.5 -149.5t-248.5 -55.5q-179 0 -281 88t-102 246zM436 324q0 -47 28 -72t79 -25q74 0 123 52t49 137v59l-150 -33q-72 -17 -100.5 -45t-28.5 -73zM1116 655h330q-7 100 -49.5 145.5t-118.5 45.5 q-69 0 -109.5 -44t-52.5 -147z" />
<glyph unicode="&#xe7;" horiz-adv-x="1243" d="M59 522q0 266 154.5 420t419.5 154q222 0 373 -112t182 -294h-410q-10 64 -50 102.5t-89 38.5q-172 0 -172 -311q0 -147 45 -217t115 -70q57 0 98 44.5t53 121.5h410q-39 -170 -152 -282.5t-297 -139.5l2 -49q207 -46 207 -219q0 -116 -90.5 -187t-253.5 -71 q-154 0 -246 72t-106 194h260q3 -32 24.5 -53.5t65.5 -21.5q41 0 63.5 20t22.5 49q0 84 -196 84l16 182q-218 29 -333.5 169.5t-115.5 375.5z" />
<glyph unicode="&#xe8;" horiz-adv-x="1271" d="M59 541q0 258 156 406.5t420 148.5q269 0 422 -168t153 -482h-749q13 -112 61.5 -159t132.5 -47q59 0 98 27t48 71h401q-38 -164 -185 -266.5t-376 -102.5q-264 0 -423 155.5t-159 416.5zM225 1499h398l221 -315h-291zM461 655h344q-9 98 -54 145.5t-120 47.5 q-145 0 -170 -193z" />
<glyph unicode="&#xe9;" horiz-adv-x="1271" d="M59 541q0 258 156 406.5t420 148.5q269 0 422 -168t153 -482h-749q13 -112 61.5 -159t132.5 -47q59 0 98 27t48 71h401q-38 -164 -185 -266.5t-376 -102.5q-264 0 -423 155.5t-159 416.5zM424 1184l221 315h397l-329 -315h-289zM461 655h344q-9 98 -54 145.5t-120 47.5 q-145 0 -170 -193z" />
<glyph unicode="&#xea;" horiz-adv-x="1271" d="M59 541q0 258 156 406.5t420 148.5q269 0 422 -168t153 -482h-749q13 -112 61.5 -159t132.5 -47q59 0 98 27t48 71h401q-38 -164 -185 -266.5t-376 -102.5q-264 0 -423 155.5t-159 416.5zM182 1190l279 315h315l279 -315h-365l-72 117l-71 -117h-365zM461 655h344 q-9 98 -54 145.5t-120 47.5q-145 0 -170 -193z" />
<glyph unicode="&#xeb;" horiz-adv-x="1271" d="M59 541q0 258 156 406.5t420 148.5q269 0 422 -168t153 -482h-749q13 -112 61.5 -159t132.5 -47q59 0 98 27t48 71h401q-38 -164 -185 -266.5t-376 -102.5q-264 0 -423 155.5t-159 416.5zM199 1198v295h354v-295h-354zM461 655h344q-9 98 -54 145.5t-120 47.5 q-145 0 -170 -193zM686 1198v295h354v-295h-354z" />
<glyph unicode="&#xec;" horiz-adv-x="587" d="M-55 1499h397l221 -315h-291zM96 0v1065h396v-1065h-396z" />
<glyph unicode="&#xed;" horiz-adv-x="587" d="M27 1184l221 315h397l-330 -315h-288zM96 0v1065h396v-1065h-396z" />
<glyph unicode="&#xee;" horiz-adv-x="587" d="M-141 1190l278 315h316l278 -315h-364l-72 117l-72 -117h-364zM96 0v1065h396v-1065h-396z" />
<glyph unicode="&#xef;" horiz-adv-x="587" d="M-127 1198v295h354v-295h-354zM96 0v1065h396v-1065h-396zM360 1198v295h355v-295h-355z" />
<glyph unicode="&#xf0;" horiz-adv-x="1206" d="M59 479q0 232 126 373t333 141q47 0 99 -15.5t77 -39.5q-29 91 -86 154l-30 -31h-310l152 153q-88 39 -211 66l2 262q238 -22 426 -106l41 41h307l-154 -158q152 -118 234 -286.5t82 -370.5q0 -693 -533 -693q-121 0 -220.5 30.5t-175 91t-117.5 160t-42 228.5zM473 479 q0 -241 137 -241q125 0 125 284q0 203 -135 203q-67 0 -97 -59.5t-30 -186.5z" />
<glyph unicode="&#xf1;" horiz-adv-x="1245" d="M94 0v1065h336l31 -119q117 150 321 150q181 0 280 -106t99 -308v-682h-397v682q0 141 -119 141q-73 0 -114.5 -56t-41.5 -144v-623h-395zM303 1186v256q101 59 195 59q63 0 149.5 -38t130.5 -38q34 0 72.5 15.5t105.5 52.5v-256q-97 -57 -186 -57q-65 0 -152 36.5 t-129 36.5q-66 0 -186 -67z" />
<glyph unicode="&#xf2;" horiz-adv-x="1292" d="M59 537q0 141 43 248.5t121.5 175t184.5 101.5t237 34q269 0 428.5 -141t159.5 -418q0 -141 -43 -250t-121.5 -178t-185.5 -104.5t-238 -35.5q-128 0 -234 35t-185.5 104t-123 178.5t-43.5 250.5zM242 1499h397l221 -315h-291zM465 537q0 -161 45.5 -233.5t136.5 -72.5 q94 0 138 70.5t44 235.5q0 163 -45 230t-139 67t-137 -67.5t-43 -229.5z" />
<glyph unicode="&#xf3;" horiz-adv-x="1292" d="M59 537q0 141 43 248.5t121.5 175t184.5 101.5t237 34q269 0 428.5 -141t159.5 -418q0 -141 -43 -250t-121.5 -178t-185.5 -104.5t-238 -35.5q-128 0 -234 35t-185.5 104t-123 178.5t-43.5 250.5zM442 1184l222 315h397l-330 -315h-289zM465 537q0 -161 45.5 -233.5 t136.5 -72.5q94 0 138 70.5t44 235.5q0 163 -45 230t-139 67t-137 -67.5t-43 -229.5z" />
<glyph unicode="&#xf4;" horiz-adv-x="1292" d="M59 537q0 141 43 248.5t121.5 175t184.5 101.5t237 34q269 0 428.5 -141t159.5 -418q0 -141 -43 -250t-121.5 -178t-185.5 -104.5t-238 -35.5q-128 0 -234 35t-185.5 104t-123 178.5t-43.5 250.5zM209 1190l278 315h316l278 -315h-364l-72 117l-72 -117h-364zM465 537 q0 -161 45.5 -233.5t136.5 -72.5q94 0 138 70.5t44 235.5q0 163 -45 230t-139 67t-137 -67.5t-43 -229.5z" />
<glyph unicode="&#xf5;" horiz-adv-x="1292" d="M59 537q0 141 43 248.5t121.5 175t184.5 101.5t237 34q269 0 428.5 -141t159.5 -418q0 -141 -43 -250t-121.5 -178t-185.5 -104.5t-238 -35.5q-128 0 -234 35t-185.5 104t-123 178.5t-43.5 250.5zM319 1186v256q101 59 195 59q63 0 150 -38t131 -38q34 0 72.5 15.5 t105.5 52.5v-256q-97 -57 -187 -57q-65 0 -151.5 36.5t-128.5 36.5q-67 0 -187 -67zM465 537q0 -161 45.5 -233.5t136.5 -72.5q94 0 138 70.5t44 235.5q0 163 -45 230t-139 67t-137 -67.5t-43 -229.5z" />
<glyph unicode="&#xf6;" horiz-adv-x="1292" d="M59 537q0 141 43 248.5t121.5 175t184.5 101.5t237 34q269 0 428.5 -141t159.5 -418q0 -141 -43 -250t-121.5 -178t-185.5 -104.5t-238 -35.5q-128 0 -234 35t-185.5 104t-123 178.5t-43.5 250.5zM225 1198v295h355v-295h-355zM465 537q0 -161 45.5 -233.5t136.5 -72.5 q94 0 138 70.5t44 235.5q0 163 -45 230t-139 67t-137 -67.5t-43 -229.5zM713 1198v295h354v-295h-354z" />
<glyph unicode="&#xf7;" d="M152 512v287h925v-287h-925zM428 123v323h373v-323h-373zM428 864v324h373v-324h-373z" />
<glyph unicode="&#xf8;" horiz-adv-x="1292" d="M59 537q0 141 43 248.5t121.5 175t184.5 101.5t237 34q71 0 141 -13l105 207h276l-147 -295q213 -141 213 -458q0 -141 -43 -250t-121.5 -178t-185.5 -104.5t-238 -35.5q-56 0 -135 11l-102 -205h-283l147 295q-213 147 -213 467zM465 537q0 -88 20 -160l220 448 q-40 9 -60 9q-94 0 -137 -67.5t-43 -229.5zM592 240q27 -9 55 -9q94 0 138 70.5t44 235.5q0 84 -20 149z" />
<glyph unicode="&#xf9;" horiz-adv-x="1232" d="M84 381v684h395v-694q0 -129 121 -129q69 0 106 53.5t37 140.5v629h396v-1065h-334l-31 109q-114 -140 -311 -140q-184 0 -281.5 105t-97.5 307zM152 1499h397l221 -315h-291z" />
<glyph unicode="&#xfa;" horiz-adv-x="1232" d="M84 381v684h395v-694q0 -129 121 -129q69 0 106 53.5t37 140.5v629h396v-1065h-334l-31 109q-114 -140 -311 -140q-184 0 -281.5 105t-97.5 307zM461 1184l221 315h397l-329 -315h-289z" />
<glyph unicode="&#xfb;" horiz-adv-x="1232" d="M84 381v684h395v-694q0 -129 121 -129q69 0 106 53.5t37 140.5v629h396v-1065h-334l-31 109q-114 -140 -311 -140q-184 0 -281.5 105t-97.5 307zM170 1190l279 315h315l278 -315h-364l-72 117l-71 -117h-365z" />
<glyph unicode="&#xfc;" horiz-adv-x="1232" d="M84 381v684h395v-694q0 -129 121 -129q69 0 106 53.5t37 140.5v629h396v-1065h-334l-31 109q-114 -140 -311 -140q-184 0 -281.5 105t-97.5 307zM190 1198v295h355v-295h-355zM678 1198v295h354v-295h-354z" />
<glyph unicode="&#xfd;" horiz-adv-x="1220" d="M-2 1065h422l194 -782l209 782h400l-385 -1063q-81 -225 -175 -313t-249 -88q-87 0 -211 28v267q105 -25 145 -25q43 0 67 27.5t46 101.5h-66zM471 1184l221 315h398l-330 -315h-289z" />
<glyph unicode="&#xfe;" horiz-adv-x="1316" d="M94 -367v1842h398v-500q124 121 303 121q214 0 338 -142t124 -407q0 -143 -38.5 -255.5t-105 -181.5t-153 -105t-186.5 -36q-163 0 -280 107v-443h-400zM481 545q0 -155 51 -224t136 -69q87 0 139.5 72t52.5 217q0 272 -186 272q-88 0 -140.5 -68t-52.5 -200z" />
<glyph unicode="&#xff;" horiz-adv-x="1220" d="M-2 1065h422l194 -782l209 782h400l-385 -1063q-81 -225 -175 -313t-249 -88q-87 0 -211 28v267q105 -25 145 -25q43 0 67 27.5t46 101.5h-66zM188 1198v295h355v-295h-355zM676 1198v295h354v-295h-354z" />
<glyph unicode="&#x152;" horiz-adv-x="2013" d="M70 735q0 162 42 294t113 219t168 146t202.5 85t221.5 26q109 0 236 -30h889v-304h-576v-286h516v-285h-516v-301h576v-299h-898q-121 -31 -229 -31q-117 0 -222.5 24.5t-202.5 82t-167 143.5t-111.5 218.5t-41.5 297.5zM500 735q0 -128 25.5 -221t71 -145t100 -75.5 t120.5 -23.5q65 0 121 23v887q-52 24 -117 24q-64 0 -119 -24t-101.5 -76t-73.5 -146.5t-27 -222.5z" />
<glyph unicode="&#x153;" horiz-adv-x="2037" d="M59 537q0 119 31.5 214.5t86 159t130 106t159.5 61t179 18.5q215 0 379 -138q154 138 375 138q274 0 424.5 -166.5t150.5 -493.5h-747q14 -107 62.5 -152.5t129.5 -45.5q59 0 98.5 28t47.5 72h401q-16 -74 -56 -137.5t-105.5 -117t-167.5 -84t-228 -30.5q-226 0 -381 142 q-164 -142 -383 -142q-94 0 -177.5 19t-159.5 62.5t-130.5 108t-86.5 161.5t-32 217zM465 537q0 -306 182 -306q87 0 133.5 66.5t46.5 230.5v9q0 86 -12.5 145t-38 91t-57 45t-74.5 13q-90 0 -135 -64.5t-45 -229.5zM1227 655h340q-14 191 -174 191q-70 0 -112.5 -44.5 t-53.5 -146.5z" />
<glyph unicode="&#x178;" horiz-adv-x="1482" d="M0 1475h461l289 -562l313 562h420l-537 -885v-590h-409v590zM330 1599v295h354v-295h-354zM817 1599v295h354v-295h-354z" />
<glyph unicode="&#x2c6;" horiz-adv-x="997" d="M61 1190l279 315h315l279 -315h-365l-71 117l-72 -117h-365z" />
<glyph unicode="&#x2dc;" horiz-adv-x="776" d="M61 1186v256q101 59 195 59q63 0 150 -38t131 -38q34 0 72.5 15.5t105.5 52.5v-256q-97 -57 -187 -57q-65 0 -151.5 36.5t-128.5 36.5q-67 0 -187 -67z" />
<glyph unicode="&#x2000;" horiz-adv-x="953" />
<glyph unicode="&#x2001;" horiz-adv-x="1907" />
<glyph unicode="&#x2002;" horiz-adv-x="953" />
<glyph unicode="&#x2003;" horiz-adv-x="1907" />
<glyph unicode="&#x2004;" horiz-adv-x="635" />
<glyph unicode="&#x2005;" horiz-adv-x="476" />
<glyph unicode="&#x2006;" horiz-adv-x="317" />
<glyph unicode="&#x2007;" horiz-adv-x="317" />
<glyph unicode="&#x2008;" horiz-adv-x="238" />
<glyph unicode="&#x2009;" horiz-adv-x="381" />
<glyph unicode="&#x200a;" horiz-adv-x="105" />
<glyph unicode="&#x2010;" horiz-adv-x="1105" d="M137 512v287h809v-287h-809z" />
<glyph unicode="&#x2011;" horiz-adv-x="1105" d="M137 512v287h809v-287h-809z" />
<glyph unicode="&#x2012;" horiz-adv-x="1105" d="M137 512v287h809v-287h-809z" />
<glyph unicode="&#x2013;" horiz-adv-x="921" d="M37 512v287h848v-287h-848z" />
<glyph unicode="&#x2014;" horiz-adv-x="1312" d="M37 512v287h1239v-287h-1239z" />
<glyph unicode="&#x2018;" horiz-adv-x="552" d="M51 743v285q0 209 121 320.5t348 126.5v-183q-85 -11 -132.5 -56t-47.5 -122h143v-371h-432z" />
<glyph unicode="&#x2019;" horiz-adv-x="552" d="M33 743v181q85 11 132.5 56.5t47.5 123.5h-143v371h432v-285q0 -209 -121 -320.5t-348 -126.5z" />
<glyph unicode="&#x201a;" horiz-adv-x="552" d="M33 -180q85 11 132.5 56.5t47.5 123.5h-143v371h432v-285q0 -208 -121 -319.5t-348 -126.5v180z" />
<glyph unicode="&#x201c;" horiz-adv-x="1091" d="M66 743v285q0 209 121 320.5t348 126.5v-183q-86 -11 -133.5 -56t-47.5 -122h142v-371h-430zM590 743v285q0 209 121 320.5t348 126.5v-183q-86 -11 -133 -56t-47 -122h141v-371h-430z" />
<glyph unicode="&#x201d;" horiz-adv-x="1091" d="M33 743v181q85 11 132.5 56.5t47.5 123.5h-143v371h432v-285q0 -209 -121 -320.5t-348 -126.5zM557 743v181q85 11 132.5 56.5t47.5 123.5h-143v371h432v-285q0 -209 -121 -320.5t-348 -126.5z" />
<glyph unicode="&#x201e;" horiz-adv-x="1077" d="M33 -180q85 11 132.5 56.5t47.5 123.5h-143v371h432v-285q0 -208 -121 -319.5t-348 -126.5v180zM557 -180q85 11 132.5 56.5t47.5 123.5h-143v371h432v-285q0 -208 -121 -319.5t-348 -126.5v180z" />
<glyph unicode="&#x2022;" horiz-adv-x="686" d="M74 403v488h524v-488h-524z" />
<glyph unicode="&#x2026;" horiz-adv-x="1861" d="M94 0v371h432v-371h-432zM715 0v371h432v-371h-432zM1335 0v371h432v-371h-432z" />
<glyph unicode="&#x202f;" horiz-adv-x="381" />
<glyph unicode="&#x2039;" horiz-adv-x="700" d="M61 641l267 424h307l-195 -434l170 -455h-303z" />
<glyph unicode="&#x203a;" horiz-adv-x="700" d="M66 1065h307l266 -424l-246 -465h-303l170 455z" />
<glyph unicode="&#x205f;" horiz-adv-x="476" />
<glyph unicode="&#x20ac;" d="M-14 473l45 209h65q-2 14 -2 39q0 33 2 47h-110l45 209h86q49 241 195.5 364t381.5 123q225 0 371.5 -112t175.5 -305h-379q-16 65 -59 94.5t-101 29.5q-73 0 -121.5 -46t-72.5 -148h352l-45 -209h-330q-2 -14 -2 -47q0 -25 2 -39h314l-45 -209h-246q48 -211 201 -211 q58 0 101.5 29.5t57.5 93.5h381q-31 -194 -175.5 -305t-368.5 -111q-80 0 -153.5 17t-143 55.5t-125.5 96t-99 143t-65 192.5h-133z" />
<glyph unicode="&#x2122;" horiz-adv-x="1748" d="M23 1249v226h1009l125 -408l115 408h364v-822h-266v363l-113 -363h-210l-111 363v-363h-262v596h-144v-596h-274v596h-233z" />
<glyph unicode="&#x25fc;" horiz-adv-x="1064" d="M0 0v1065h1065v-1065h-1065z" />
<glyph unicode="&#xfb01;" horiz-adv-x="1292" d="M12 797v268h156v57q0 190 108.5 286.5t311.5 96.5q149 0 354 -41v-274q-156 29 -252 29q-71 0 -99 -25.5t-28 -83.5v-45h635v-1065h-397v797h-238v-797h-395v797h-156z" />
<glyph unicode="&#xfb02;" horiz-adv-x="1300" d="M12 797v268h156v57q0 189 108 286t306 97q122 0 252 -28q244 12 372 16v-1493h-397v1206q-83 13 -125 13q-67 0 -94 -26t-27 -83v-45h139v-268h-139v-797h-395v797h-156z" />
<glyph unicode="&#xfb03;" horiz-adv-x="1921" d="M12 797v268h156v45q0 185 103 280t300 95q203 0 371 -55q107 75 283 75q154 0 354 -41v-274q-156 29 -252 29q-72 0 -99.5 -25.5t-27.5 -83.5v-45h627v-1065h-387v797h-240v-797h-395v797h-242v-797h-395v797h-156zM563 1065h242v41q0 51 2 76q-85 16 -133 16 q-63 0 -87 -22t-24 -78v-33z" />
<glyph unicode="&#xfb04;" horiz-adv-x="1937" d="M12 797v268h156v45q0 188 105.5 281.5t299.5 93.5q193 0 361 -51q95 71 285 71q122 0 251 -28l373 16v-1493h-397v1206q-83 13 -125 13q-121 0 -121 -103v-51h148v-268h-148v-797h-395v797h-242v-797h-395v797h-156zM563 1065h242v41q0 51 2 76q-86 16 -131 16 q-59 0 -84.5 -19t-28.5 -63v-51z" />
</font>
</defs>
</svg>
