<?xml version="1.0" standalone="no"?>
<!DOCTYPE svg PUBLIC "-//W3C//DTD SVG 1.1//EN" "http://www.w3.org/Graphics/SVG/1.1/DTD/svg11.dtd" >
<svg xmlns="http://www.w3.org/2000/svg" xmlns:xlink="http://www.w3.org/1999/xlink" version="1.1">
<metadata></metadata>
<defs>
<font id="ciscosansbold_italic" horiz-adv-x="1228" >
<font-face units-per-em="2048" ascent="1618" descent="-430" />
<missing-glyph horiz-adv-x="532" />
<glyph horiz-adv-x="0" />
<glyph horiz-adv-x="0" />
<glyph horiz-adv-x="682" />
<glyph unicode="&#xd;" horiz-adv-x="532" />
<glyph unicode=" "  horiz-adv-x="532" />
<glyph unicode="&#x09;" horiz-adv-x="532" />
<glyph unicode="&#xa0;" horiz-adv-x="532" />
<glyph unicode="!" horiz-adv-x="634" d="M53 0l68 322h362l-67 -322h-363zM188 492l164 1013h406l-266 -1013h-304z" />
<glyph unicode="&#x22;" d="M317 1004l35 313l41 188h266l-41 -188l-96 -313h-205zM686 1004l35 313l41 188h266l-41 -188l-96 -313h-205z" />
<glyph unicode="#" d="M70 328l47 225h135l98 328h-123l47 225h144l98 328h264l-98 -328h236l98 328h264l-98 -328h116l-47 -225h-137l-98 -328h125l-47 -225h-144l-98 -328h-264l98 328h-235l-99 -328h-264l98 328h-116zM516 553h236l98 328h-236z" />
<glyph unicode="$" d="M6 403q0 4 1 14t1 15h326q0 -104 66 -164.5t208 -60.5q135 0 215 47t80 143q0 36 -17.5 65.5t-44 49.5t-72.5 39t-87 31t-104 28q-68 17 -123.5 37t-112.5 53t-95.5 73t-62.5 98.5t-24 127.5q0 93 25 166t70 124.5t113 87t149 55.5t183 28l52 240h264l-53 -246h-9 q102 -16 177.5 -53.5t117.5 -89.5t62 -109.5t20 -120.5v-26h-321q0 90 -66 132t-170 42q-44 0 -77.5 -3t-68 -13t-56.5 -27t-36 -46t-14 -69q0 -68 63.5 -111t200.5 -75q109 -26 189 -57t149 -79.5t104.5 -119t35.5 -162.5q0 -103 -35 -188.5t-107 -153t-193 -108.5 t-282 -48l-51 -245h-264l53 260q-86 16 -153 50t-109 75.5t-69 93t-37.5 100t-10.5 100.5z" />
<glyph unicode="%" horiz-adv-x="1636" d="M172 1071q0 181 102 287t283 106q159 0 247.5 -81t88.5 -222q0 -175 -103.5 -282t-283.5 -107q-157 0 -245.5 80t-88.5 219zM260 0l1004 1434h254l-1004 -1434h-254zM389 1073q0 -141 121 -141q76 0 121 62t45 163q0 73 -32 110.5t-93 37.5q-76 0 -119 -59t-43 -173z M881 266q0 180 103.5 286.5t283.5 106.5q157 0 245.5 -80t88.5 -219q0 -177 -103 -285t-285 -108q-157 0 -245 80t-88 219zM1098 274q0 -147 125 -147q76 0 118.5 63t42.5 166q0 144 -122 144q-74 0 -119 -58t-45 -168z" />
<glyph unicode="&#x26;" horiz-adv-x="1402" d="M70 330q0 73 23 131.5t72 108t107.5 88.5t147.5 85q-131 140 -131 304q0 61 14.5 117t50.5 111.5t91 96.5t143 66.5t200 25.5q105 0 186 -26.5t128.5 -70t71.5 -95.5t24 -109q0 -62 -21 -117.5t-52.5 -97t-83 -83.5t-99 -71t-113.5 -65l185 -192q35 65 80 188l290 -39 q-69 -200 -190 -362l139 -164l-248 -191l-112 133q-187 -133 -410 -133q-125 0 -221.5 28.5t-154.5 79t-87.5 114.5t-29.5 139zM424 350q0 -72 48.5 -110.5t133.5 -38.5q56 0 115.5 21t103.5 57l-252 276q-86 -55 -117.5 -98.5t-31.5 -106.5zM600 1079q0 -80 82 -168 q124 72 168.5 123t44.5 117q0 53 -33.5 83t-91.5 30q-73 0 -112.5 -35.5t-53.5 -106.5q-4 -14 -4 -43z" />
<glyph unicode="'" horiz-adv-x="552" d="M305 1004l35 313l41 188h266l-41 -188l-96 -313h-205z" />
<glyph unicode="(" horiz-adv-x="696" d="M94 322q0 160 36 326t93 306t134.5 275.5t153 238t155.5 191.5h270q-282 -367 -413.5 -699.5t-131.5 -660.5q0 -306 117 -647h-270q-144 304 -144 670z" />
<glyph unicode=")" horiz-adv-x="696" d="M-125 -348q209 289 330 527.5t167 429.5t46 399q0 306 -117 651h270q146 -316 146 -674q0 -160 -36.5 -325.5t-93.5 -305t-135 -275t-153.5 -237t-155.5 -190.5h-268z" />
<glyph unicode="*" horiz-adv-x="962" d="M219 1098l90 270l230 -123l-62 260h283l-47 -264l235 127l90 -270l-268 -21l191 -180l-230 -168l-102 244l-103 -244l-229 168l188 180z" />
<glyph unicode="+" d="M195 535l53 251h317l70 324h264l-70 -324h320l-53 -251h-320l-69 -326h-265l70 326h-317z" />
<glyph unicode="," horiz-adv-x="552" d="M-86 -375l31 160q178 38 217 215h-129l67 322h363l-64 -302q-14 -65 -39.5 -120t-55.5 -93t-69.5 -68.5t-77 -49.5t-82.5 -32.5t-82 -20.5t-79 -11z" />
<glyph unicode="-" horiz-adv-x="1105" d="M195 535l53 251h778l-53 -251h-778z" />
<glyph unicode="." horiz-adv-x="591" d="M33 0l67 322h363l-68 -322h-362z" />
<glyph unicode="/" horiz-adv-x="696" d="M-121 -184l772 1689h283l-774 -1689h-281z" />
<glyph unicode="0" d="M106 481q0 72 7 149t27 176t51.5 188t86.5 176.5t125 151t173.5 103t226.5 39.5q210 0 333.5 -128.5t123.5 -377.5q0 -65 -7.5 -141t-28.5 -173.5t-53.5 -189t-88 -181.5t-125 -156t-171 -107t-221.5 -41q-209 0 -334 131.5t-125 380.5zM428 418q0 -232 158 -232 q75 0 137.5 63.5t101 158t65 211t37.5 216.5t11 179q0 235 -156 235q-73 0 -134.5 -61.5t-101 -155.5t-67 -209t-39.5 -218t-12 -187z" />
<glyph unicode="1" d="M324 958l63 302l367 174h317l-303 -1434h-319l239 1126z" />
<glyph unicode="2" d="M49 0l53 260l420 340q244 196 307 257q99 94 118 170q7 27 7 58q0 65 -42.5 103.5t-112.5 38.5q-73 0 -134.5 -47t-103.5 -140h-334q72 202 236.5 313t367.5 111q194 0 322.5 -102t128.5 -258q0 -34 -6 -68q-13 -64 -39 -118.5t-51.5 -93.5t-97.5 -105t-118.5 -104.5 t-173.5 -140.5q-17 -14 -26 -21l-240 -193h566l-54 -260h-993z" />
<glyph unicode="3" d="M66 324q0 29 2 43h317v-17q0 -69 46 -109t130 -40q106 0 176 67.5t70 200.5q0 86 -54 131t-153 45h-125l47 219h150q93 0 168 60t75 166q0 65 -43 105t-106 40q-140 0 -201 -141h-311q63 173 207 271.5t352 98.5q117 0 213.5 -36t157.5 -111t61 -178q0 -143 -106.5 -244 t-264.5 -125q114 -13 188.5 -102t74.5 -207q0 -26 -7 -66q-38 -200 -196.5 -313t-398.5 -113q-210 0 -339.5 100t-129.5 255z" />
<glyph unicode="4" d="M59 270l58 271l784 893h328l-197 -928h162l-49 -236h-162l-57 -270h-303l57 270h-621zM414 506h315l107 500z" />
<glyph unicode="5" d="M119 338q0 5 1 15.5t1 15.5h311q0 -84 45.5 -126t124.5 -42q108 0 181 101t73 251q0 95 -48.5 143.5t-135.5 48.5q-43 0 -99 -24t-102 -64h-252l201 777h856l-47 -226h-570l-86 -321q122 67 244 67q167 0 271 -102.5t104 -271.5q0 -138 -51 -254t-137.5 -193.5 t-200 -120.5t-238.5 -43q-200 0 -323 97.5t-123 271.5z" />
<glyph unicode="6" d="M109 479q0 106 24 232q38 186 99.5 324.5t130 219t156 129t165.5 64.5t170 16q192 0 311.5 -82.5t134.5 -230.5h-346q-6 48 -42 73t-95 25q-46 0 -86.5 -20t-82.5 -67t-82.5 -133t-76.5 -210q65 71 154.5 115.5t183.5 44.5q169 0 268 -105t99 -280q0 -186 -83.5 -329 t-228 -219.5t-325.5 -76.5q-211 0 -329.5 134.5t-118.5 375.5zM422 412q0 -55 14.5 -101.5t54.5 -81t101 -34.5q114 0 194 109t80 274q0 176 -155 176q-81 0 -148 -49t-104 -127t-37 -166z" />
<glyph unicode="7" d="M168 0l795 1192h-670l51 242h993l-53 -250l-770 -1184h-346z" />
<glyph unicode="8" d="M61 330q0 70 18 128t47.5 99.5t76.5 77t94.5 60t112.5 50.5q-164 101 -164 269q0 97 31.5 174.5t84.5 128.5t127 84.5t154.5 48t171.5 14.5q80 0 158 -18t148 -54t113.5 -100.5t43.5 -146.5q0 -71 -26 -132.5t-72.5 -108t-98.5 -80t-114 -60.5q85 -52 140.5 -133 t55.5 -185q0 -221 -164 -349t-440 -128q-229 0 -363.5 100.5t-134.5 260.5zM403 354q0 -79 54.5 -120t122.5 -41q91 0 168 65t77 182q0 45 -17 80t-48.5 58.5t-61.5 38t-71 28.5q-224 -100 -224 -291zM563 1053q0 -40 16 -73t43.5 -55.5t55.5 -37.5t61 -25q222 98 222 256 q0 70 -54.5 108t-109.5 38q-35 0 -72 -10t-75 -32t-62.5 -66t-24.5 -103z" />
<glyph unicode="9" d="M72 313h346q0 -63 38.5 -96t104.5 -33q93 0 168.5 92t144.5 328q-62 -67 -146 -108t-179 -41q-187 0 -281 106t-94 283q0 128 35.5 233t96 175.5t141.5 119t170 70.5t184 22q212 0 336.5 -125t124.5 -368q0 -83 -10 -171.5t-35 -187.5t-62 -189.5t-95.5 -174.5 t-131.5 -145t-174 -97.5t-219 -36.5q-201 0 -327.5 93.5t-135.5 250.5zM504 879q0 -96 44.5 -147.5t127.5 -51.5t146 52.5t93.5 133t30.5 172.5q0 88 -40 144.5t-128 56.5q-67 0 -120.5 -30.5t-86.5 -81.5t-50 -114.5t-17 -133.5z" />
<glyph unicode=":" horiz-adv-x="591" d="M33 0l67 322h363l-68 -322h-362zM190 743l68 322h363l-68 -322h-363z" />
<glyph unicode=";" horiz-adv-x="591" d="M-86 -375l31 160q178 38 217 215h-129l67 322h363l-64 -302q-14 -65 -39.5 -120t-55.5 -93t-69.5 -68.5t-77 -49.5t-82.5 -32.5t-82 -20.5t-79 -11zM190 743l68 322h363l-68 -322h-363z" />
<glyph unicode="&#x3c;" d="M197 543l51 239l991 430l-63 -309l-629 -239l-2 -15l526 -239l-65 -297z" />
<glyph unicode="=" d="M150 324l53 251h901l-53 -251h-901zM240 743l53 252h901l-53 -252h-901z" />
<glyph unicode="&#x3e;" d="M104 113l66 309l629 240l2 14l-527 239l64 297l811 -430l-51 -239z" />
<glyph unicode="?" horiz-adv-x="1122" d="M242 1096q47 174 201 291.5t356 117.5q194 0 308 -83.5t114 -215.5q0 -41 -7.5 -77.5t-17.5 -67t-35 -67t-46.5 -64t-66 -72t-78 -76.5t-98.5 -92q-33 -30 -55 -69t-31 -68.5t-20 -81.5h-322q32 150 66.5 220t140.5 171q137 132 179 195t42 121q0 42 -29 65t-75 23 q-112 0 -180 -170h-346zM328 0l67 322h363l-68 -322h-362z" />
<glyph unicode="@" horiz-adv-x="1873" d="M156 573q0 144 31 269t85 218.5t129 169.5t159.5 126.5t180 84.5t188 49t185.5 15q166 0 305.5 -42.5t242.5 -122t160.5 -201.5t57.5 -273q0 -153 -41 -282t-109 -212.5t-156 -130t-183 -46.5q-96 0 -155 52.5t-62 125.5q-32 -59 -114 -108.5t-181 -49.5 q-150 0 -225.5 95.5t-75.5 250.5q0 128 41.5 238t108.5 181.5t151.5 112t171.5 40.5q57 0 102 -25.5t57 -63.5l43 74h209l-108 -540q-19 -92 -19 -121q0 -41 17.5 -56.5t48.5 -15.5q88 0 143 133.5t55 349.5q0 430 -499 430q-89 0 -177 -21.5t-177.5 -74.5t-157.5 -132.5 t-111 -207.5t-43 -287q0 -120 31 -214.5t84 -156.5t127.5 -103t157.5 -58.5t178 -17.5q67 0 131 9t101.5 19t94.5 27l41 -201q-180 -65 -399 -65q-129 0 -249 29.5t-225 91.5t-183 150t-123 213.5t-45 274.5zM846 539q0 -131 98 -131q51 0 93 48.5t63 145.5l22 109 q17 85 17 118q0 115 -84 115q-83 0 -146 -106t-63 -299z" />
<glyph unicode="A" horiz-adv-x="1435" d="M-82 0l838 1475h383l215 -1475h-353l-32 338h-525l-176 -338h-350zM561 563h387l-59 629z" />
<glyph unicode="B" horiz-adv-x="1325" d="M41 0l313 1475h471q539 0 539 -318q0 -153 -105 -250.5t-260 -126.5q126 -27 203.5 -109t77.5 -198q0 -473 -680 -473h-559zM432 225h211q141 0 214 67t73 195q0 83 -55 130t-152 47h-199zM569 877h189q118 0 186 60t68 161q0 70 -55.5 110.5t-145.5 40.5h-162z" />
<glyph unicode="C" horiz-adv-x="1517" d="M131 559q0 87 12 175t41 182.5t73 178.5t112.5 160t154 131t203.5 87t256 32q159 0 289 -54.5t211.5 -166.5t81.5 -264v-27h-344q0 135 -69 204t-191 69q-75 0 -140.5 -27.5t-112.5 -73t-85 -107t-62 -127t-40 -135.5t-22.5 -130t-6.5 -113q0 -173 73.5 -257.5 t192.5 -84.5q142 0 234 80t141 252h350q-95 -287 -282.5 -430.5t-481.5 -143.5q-280 0 -434 155t-154 435z" />
<glyph unicode="D" horiz-adv-x="1492" d="M41 0l313 1475h506q304 0 475.5 -142.5t171.5 -412.5q0 -77 -9 -153.5t-34.5 -170t-66 -175t-109.5 -160.5t-158 -135.5t-218.5 -91t-284.5 -34.5h-586zM434 240h221q83 0 154.5 25t121.5 66t90.5 97t65 115.5t41 124.5t23 120t6.5 105q0 169 -87.5 256.5t-238.5 87.5 h-184z" />
<glyph unicode="E" horiz-adv-x="1189" d="M41 0l313 1475h996l-56 -252h-651l-76 -361h592l-51 -237h-592l-80 -377h651l-51 -248h-995z" />
<glyph unicode="F" horiz-adv-x="1120" d="M41 0l313 1475h936l-53 -248h-592l-84 -393h529l-52 -238h-528l-125 -596h-344z" />
<glyph unicode="G" horiz-adv-x="1533" d="M131 551q0 73 9.5 150.5t36.5 173t68 182t111.5 170t160 144t219 97.5t284.5 37q252 0 402.5 -120.5t150.5 -331.5h-342q-6 105 -75.5 159t-182.5 54q-77 0 -144.5 -28t-115.5 -74.5t-86.5 -109t-63.5 -129t-41.5 -136.5t-23 -129t-6.5 -109q0 -170 75.5 -255t204.5 -85 q142 0 249.5 79t135.5 204l23 104h-349l48 223h645l-174 -821h-222l-20 137q-187 -168 -440 -168q-114 0 -211 38t-170 110t-114.5 183.5t-41.5 250.5z" />
<glyph unicode="H" horiz-adv-x="1480" d="M41 0l313 1475h344l-129 -607h549l129 607h342l-313 -1475h-342l131 623h-549l-131 -623h-344z" />
<glyph unicode="I" horiz-adv-x="589" d="M41 0l313 1475h344l-313 -1475h-344z" />
<glyph unicode="J" horiz-adv-x="1157" d="M49 379q0 37 2 57h328q-6 -30 -6 -57q0 -85 46 -125.5t107 -40.5q72 0 122 48t77 175l221 1039h330l-219 -1024q-55 -251 -183.5 -366.5t-363.5 -115.5q-71 0 -136 13t-125 44t-104 77.5t-70 117t-26 158.5z" />
<glyph unicode="K" horiz-adv-x="1466" d="M41 0l313 1475h344l-133 -619l637 619h418l-768 -721l532 -754h-423l-439 657l-137 -657h-344z" />
<glyph unicode="L" horiz-adv-x="1224" d="M41 0l313 1475h344l-260 -1217h717l-53 -258h-1061z" />
<glyph unicode="M" horiz-adv-x="1828" d="M41 0l313 1475h385l154 -1151l633 1151h411l-313 -1475h-311l215 1016l-561 -1016h-281l-139 1014l-215 -1014h-291z" />
<glyph unicode="N" horiz-adv-x="1476" d="M41 0l313 1475h381l340 -1022l217 1022h293l-313 -1475h-354l-359 1067l-223 -1067h-295z" />
<glyph unicode="O" horiz-adv-x="1605" d="M131 578q0 89 13.5 177.5t44 180.5t76.5 174.5t115.5 155.5t155.5 125.5t201.5 83t249.5 30.5q96 0 186 -22.5t172 -72t142.5 -120t96.5 -173.5t36 -226q0 -80 -11.5 -162t-40 -174t-71.5 -174.5t-112 -158.5t-155 -131.5t-207 -88.5t-263 -33q-96 0 -185.5 22.5t-171 71 t-141.5 118.5t-95.5 172t-35.5 225zM483 567q0 -94 27 -165t72.5 -111t99 -59t113.5 -19q98 0 180 46t135.5 118.5t90.5 165.5t53 184.5t16 177.5q0 94 -26 166t-71 112.5t-98.5 60.5t-113.5 20q-73 0 -137 -24.5t-112 -66.5t-87 -99t-65 -120t-43.5 -131.5t-25.5 -132.5 t-8 -123z" />
<glyph unicode="P" horiz-adv-x="1363" d="M41 0l313 1475h514q282 0 422 -109t140 -305q0 -281 -182 -424t-527 -143h-232l-104 -494h-344zM539 729h219q142 0 228.5 86t86.5 227q0 197 -252 197h-174z" />
<glyph unicode="Q" horiz-adv-x="1605" d="M131 578q0 89 13.5 177.5t44 180.5t76.5 174.5t115.5 155.5t155.5 125.5t201.5 83t249.5 30.5q96 0 186 -22.5t172 -72t142.5 -120t96.5 -173.5t36 -226q0 -97 -18 -198t-57.5 -207.5t-112 -205t-170.5 -167.5l165 -242l-317 -195l-125 318q-121 -25 -225 -25 q-96 0 -185.5 22.5t-171 71t-141.5 118.5t-95.5 172t-35.5 225zM483 567q0 -94 27 -165t72.5 -111t99 -59t113.5 -19q98 0 180 46t135.5 118.5t90.5 165.5t53 184.5t16 177.5q0 94 -26 166t-71 112.5t-98.5 60.5t-113.5 20q-73 0 -137 -24.5t-112 -66.5t-87 -99t-65 -120 t-43.5 -131.5t-25.5 -132.5t-8 -123z" />
<glyph unicode="R" horiz-adv-x="1398" d="M41 0l313 1475h523q268 0 412.5 -101.5t144.5 -283.5q0 -186 -107.5 -310.5t-300.5 -183.5l281 -596h-400l-215 539h-194l-113 -539h-344zM549 776h223q129 0 215 73.5t86 211.5q0 87 -60.5 131.5t-174.5 44.5h-191z" />
<glyph unicode="S" horiz-adv-x="1318" d="M51 410v24h326v-12q0 -96 72.5 -154.5t209.5 -58.5t212 47.5t75 142.5q0 92 -71.5 143t-260.5 97q-83 21 -151 52t-127 78t-92 117t-33 156q0 225 151.5 344t464.5 119q262 0 407.5 -108t145.5 -301h-321v12q0 75 -69.5 118.5t-178.5 43.5q-124 0 -182 -39.5t-58 -122.5 q0 -76 65.5 -125t203.5 -84q76 -19 140.5 -44t125.5 -63t103.5 -84.5t68 -110.5t25.5 -138q0 -111 -36 -198t-112.5 -154t-207 -102.5t-308.5 -35.5q-275 0 -431.5 119t-156.5 322z" />
<glyph unicode="T" horiz-adv-x="1234" d="M186 1217l56 258h1214l-55 -258h-438l-258 -1217h-345l258 1217h-432z" />
<glyph unicode="U" horiz-adv-x="1460" d="M119 393q0 55 12 113l207 969h344l-213 -992q-8 -40 -8 -63q0 -97 67.5 -152t184.5 -55q267 0 319 246l217 1016h330l-211 -994q-109 -512 -682 -512q-262 0 -414.5 113.5t-152.5 310.5z" />
<glyph unicode="V" horiz-adv-x="1353" d="M231 1475h340l74 -1207l594 1207h346l-784 -1475h-412z" />
<glyph unicode="W" horiz-adv-x="2017" d="M231 1475h336v-1090l482 1090h383l34 -1096l447 1096h336l-643 -1475h-406l-33 1139l-503 -1139h-392z" />
<glyph unicode="X" horiz-adv-x="1435" d="M-72 0l672 770l-326 705h375l199 -455l383 455h385l-623 -703l350 -772h-376l-224 506l-409 -506h-406z" />
<glyph unicode="Y" horiz-adv-x="1368" d="M231 1475h355l194 -601l477 601h342l-710 -887l-125 -588h-324l125 588z" />
<glyph unicode="Z" horiz-adv-x="1269" d="M-31 0l51 248l975 983h-727l54 244h1128l-53 -242l-977 -989h756l-52 -244h-1155z" />
<glyph unicode="[" horiz-adv-x="696" d="M-35 -348l428 2007h512l-45 -211h-233l-338 -1585h233l-45 -211h-512z" />
<glyph unicode="\" horiz-adv-x="696" d="M238 1505h282l53 -1689h-282z" />
<glyph unicode="]" horiz-adv-x="696" d="M-94 -348l43 211h233l338 1585h-233l45 211h512l-428 -2007h-510z" />
<glyph unicode="^" horiz-adv-x="1064" d="M145 819l465 656h308l186 -656h-299l-88 408l-260 -408h-312z" />
<glyph unicode="_" horiz-adv-x="1114" d="M-145 -305l53 252h1112l-53 -252h-1112z" />
<glyph unicode="`" horiz-adv-x="675" d="M303 1475h336l145 -281h-237z" />
<glyph unicode="a" horiz-adv-x="1187" d="M45 240q0 163 115 260t383 139l284 45l4 18q9 39 9 62q0 58 -39.5 91.5t-108.5 33.5q-147 0 -194 -131h-328q152 338 565 338q194 0 308 -89.5t114 -238.5q0 -45 -8 -84l-145 -684h-250l-17 111q-153 -142 -383 -142q-142 0 -225.5 72t-83.5 199zM371 293q0 -48 32 -76.5 t91 -28.5q104 0 179 59.5t93 145.5l25 117l-203 -39q-124 -24 -170.5 -65.5t-46.5 -112.5z" />
<glyph unicode="b" horiz-adv-x="1302" d="M31 0l313 1475h320l-111 -517q159 138 330 138q180 0 289.5 -116.5t109.5 -311.5q0 -85 -17.5 -174t-62.5 -185t-111 -170t-173 -122t-240 -48q-96 0 -184.5 43t-133.5 109l-79 -121h-250zM440 420q0 -105 55 -161t154 -56q71 0 127 33.5t88 82.5t53 111t28 112t7 93 q0 112 -53 169.5t-145 57.5q-70 0 -127 -34.5t-91 -85t-56.5 -113.5t-31 -115t-8.5 -94z" />
<glyph unicode="c" horiz-adv-x="1208" d="M84 389q0 75 13 151t41.5 157.5t79 151.5t119 126t169 88.5t221.5 32.5q215 0 351 -99.5t141 -259.5h-336q-4 63 -53 102.5t-113 39.5q-69 0 -124.5 -35.5t-87.5 -87.5t-53 -117.5t-28.5 -119.5t-7.5 -99q0 -110 49 -172t123 -62q70 0 120 39.5t95 128.5h336 q-37 -87 -85 -153.5t-115.5 -120.5t-161 -82.5t-208.5 -28.5q-242 0 -363.5 110t-121.5 310z" />
<glyph unicode="d" horiz-adv-x="1300" d="M82 406q0 91 21.5 185t69.5 185t116 162t169.5 114.5t221.5 43.5q101 0 184.5 -38t126.5 -102l109 519h319l-313 -1475h-250l-29 117q-161 -148 -348 -148q-181 0 -289 120t-108 317zM410 432q0 -112 53.5 -170.5t146.5 -58.5q72 0 129.5 34.5t90.5 85t55 114.5t30 115.5 t9 96.5q0 112 -57.5 162.5t-143.5 50.5q-73 0 -131 -32.5t-91 -80t-54.5 -109t-29 -112t-7.5 -96.5z" />
<glyph unicode="e" horiz-adv-x="1232" d="M90 430q0 47 6.5 99t25.5 118t49 127t80.5 121t115 103.5t158.5 70.5t206 27q221 0 349 -114t128 -335q0 -82 -22 -192h-776q-2 -14 -2 -41q0 -108 56 -164.5t154 -56.5q141 0 199 116h326q-28 -62 -61.5 -111t-81 -93t-105 -73t-135.5 -46t-172 -17q-221 0 -359.5 125.5 t-138.5 335.5zM449 641h448q6 37 6 70q0 184 -186 184q-188 0 -268 -254z" />
<glyph unicode="f" horiz-adv-x="778" d="M111 0l178 844h-162l47 221h162l16 78q41 197 140.5 279.5t295.5 82.5q131 0 240 -41l-47 -227q-96 35 -162 35q-68 0 -100.5 -26.5t-44.5 -90.5l-19 -90h234l-47 -221h-234l-178 -844h-319z" />
<glyph unicode="g" horiz-adv-x="1280" d="M2 -66h326q15 -61 61.5 -85.5t142.5 -24.5q100 0 157.5 51.5t82.5 161.5l23 100q-137 -106 -297 -106q-179 0 -291.5 120t-112.5 316q0 143 46 262t125.5 199t187 124t229.5 44q94 0 181 -36.5t130 -98.5l76 104h242l-215 -1008q-47 -218 -197.5 -337t-400.5 -119 q-243 0 -369.5 82.5t-126.5 230.5v20zM418 485q0 -105 56 -163t149 -58q69 0 124 27.5t87 68t53.5 94t29.5 100t9 91.5q0 104 -55.5 160.5t-147.5 56.5q-79 0 -140.5 -36t-95.5 -93.5t-51.5 -120.5t-17.5 -127z" />
<glyph unicode="h" horiz-adv-x="1230" d="M31 0l313 1475h320l-109 -506q65 59 148.5 93t170.5 34q155 0 240.5 -82.5t85.5 -227.5q0 -56 -12 -118l-141 -668h-320l141 664q9 40 9 67q0 69 -39 104t-105 35q-89 0 -157 -60.5t-91 -168.5l-135 -641h-319z" />
<glyph unicode="i" horiz-adv-x="585" d="M51 0l225 1065h320l-225 -1065h-320zM293 1202l59 273h344l-59 -273h-344z" />
<glyph unicode="j" horiz-adv-x="567" d="M-270 -360l47 223q73 -27 127 -27t83.5 25.5t41.5 85.5l237 1118h320l-242 -1135q-69 -329 -401 -329q-49 0 -113.5 11.5t-99.5 27.5zM283 1202l59 273h344l-59 -273h-344z" />
<glyph unicode="k" horiz-adv-x="1198" d="M31 0l313 1475h320l-170 -793l428 383h387l-529 -467l357 -598h-394l-290 489l-103 -489h-319z" />
<glyph unicode="l" horiz-adv-x="544" d="M31 0l313 1475h320l-314 -1475h-319z" />
<glyph unicode="m" horiz-adv-x="1886" d="M31 0l225 1065h225l29 -117q72 69 160 108.5t180 39.5q112 0 193.5 -37t115.5 -111q161 148 367 148q151 0 240 -76.5t89 -226.5q0 -46 -14 -121l-141 -672h-320l144 686q6 27 6 55q0 62 -35.5 95.5t-99.5 33.5q-92 0 -152.5 -60.5t-81.5 -158.5l-137 -651h-319l143 686 q6 27 6 55q0 62 -35.5 95.5t-99.5 33.5q-85 0 -146.5 -56.5t-80.5 -147.5l-142 -666h-319z" />
<glyph unicode="n" horiz-adv-x="1230" d="M31 0l225 1065h264l6 -117q75 70 166.5 109t181.5 39q155 0 240.5 -82.5t85.5 -227.5q0 -56 -12 -118l-141 -668h-320l141 664q9 38 9 67q0 69 -39 104t-105 35q-89 0 -157 -60.5t-91 -168.5l-135 -641h-319z" />
<glyph unicode="o" horiz-adv-x="1269" d="M88 424q0 59 7 117.5t26.5 126.5t49.5 127.5t81 116t116.5 96.5t159.5 64t207 24q231 0 368.5 -120t137.5 -331q0 -56 -7 -113t-26.5 -125t-50 -128.5t-81.5 -118t-116.5 -99t-160 -67t-207.5 -25.5q-234 0 -369 120t-135 335zM416 418q0 -116 55 -175t145 -59 q55 0 101 20.5t76.5 52.5t54 76.5t36.5 88t21 91.5t10.5 82t2.5 64q0 113 -54 167.5t-147 54.5q-57 0 -103.5 -20.5t-77 -52.5t-53.5 -76.5t-35.5 -86.5t-20 -89t-9.5 -78.5t-2 -59.5z" />
<glyph unicode="p" horiz-adv-x="1300" d="M-49 -369l305 1434h242l37 -125q159 156 350 156q179 0 287 -119t108 -315q0 -197 -78.5 -355.5t-218 -248t-313.5 -89.5q-88 0 -171.5 36.5t-127.5 94.5l-101 -469h-319zM438 418q0 -108 57.5 -161.5t153.5 -53.5q81 0 143 43t95 111t49 138.5t16 139.5q0 111 -53 169 t-145 58q-61 0 -112 -24.5t-84 -65.5t-57.5 -88.5t-37.5 -99.5t-19 -93t-6 -73z" />
<glyph unicode="q" horiz-adv-x="1300" d="M82 412q0 51 7.5 107.5t27 124t49.5 130t78 122t108.5 103.5t146 70.5t185.5 26.5q109 0 192 -42.5t125 -115.5l89 127h241l-305 -1434h-319l100 467q-152 -129 -328 -129q-180 0 -288.5 122.5t-108.5 320.5zM410 440q0 -114 54 -175.5t146 -61.5q71 0 127.5 29.5 t90.5 75t56.5 104.5t31 112.5t8.5 104.5q0 111 -56 172t-149 61q-74 0 -131.5 -31.5t-90 -77.5t-53 -106.5t-27.5 -110t-7 -96.5z" />
<glyph unicode="r" horiz-adv-x="813" d="M31 0l225 1065h266v-162q130 193 320 193q68 0 119 -15l-64 -297q-65 21 -133 21q-109 0 -197 -93.5t-125 -269.5l-92 -442h-319z" />
<glyph unicode="s" horiz-adv-x="1071" d="M33 289v12h321q0 -52 44 -83.5t118 -31.5q89 0 129.5 25t40.5 76q0 48 -48.5 81.5t-178.5 65.5q-320 78 -320 316q0 170 114 258t365 88q210 0 333.5 -87t123.5 -239h-321q0 51 -38.5 80t-113.5 29q-72 0 -102.5 -21t-30.5 -65q0 -87 197 -142q79 -22 135.5 -45 t110.5 -59t82 -88t28 -119q0 -183 -122.5 -277t-391.5 -94q-213 0 -344 88.5t-131 231.5z" />
<glyph unicode="t" horiz-adv-x="753" d="M117 844l47 221h162l75 256h299l-55 -256h219l-47 -221h-219l-119 -557q-2 -8 -2 -23q0 -33 23.5 -50t64.5 -17q39 0 123 26l-47 -217q-109 -37 -192 -37q-139 0 -217 65.5t-78 184.5q0 36 10 88l115 537h-162z" />
<glyph unicode="u" horiz-adv-x="1220" d="M90 279q0 61 14 124l142 662h319l-145 -688q-6 -27 -6 -49q0 -64 39.5 -98.5t107.5 -34.5q84 0 148.5 61.5t87.5 169.5l135 639h319l-225 -1065h-264l-8 113q-147 -144 -342 -144q-154 0 -238 82t-84 228z" />
<glyph unicode="v" horiz-adv-x="1159" d="M154 1065h333l58 -829l405 829h342l-594 -1065h-403z" />
<glyph unicode="w" horiz-adv-x="1761" d="M164 1065h317v-801l359 801h381l-2 -805l354 805h311l-518 -1065h-399v778l-355 -778h-387z" />
<glyph unicode="x" horiz-adv-x="1175" d="M-72 0l516 561l-270 504h358l130 -279l245 279h346l-458 -500l288 -565h-368l-142 330l-290 -330h-355z" />
<glyph unicode="y" horiz-adv-x="1169" d="M43 -369l49 224q82 -27 135 -27q107 0 174 172h-90l-157 1065h329l60 -832l430 832h330l-623 -1108q-117 -208 -210 -282t-239 -74q-96 0 -188 30z" />
<glyph unicode="z" horiz-adv-x="1038" d="M-41 0l51 248l674 581h-512l49 236h920l-54 -248l-665 -581h522l-49 -236h-936z" />
<glyph unicode="{" horiz-adv-x="696" d="M66 557l51 238q171 0 211 180l67 321q15 72 37.5 127t48.5 93.5t64 65t74 41.5t90.5 23.5t100.5 10.5t116 2l-47 -221q-42 -1 -64.5 -3t-48 -10t-39.5 -24.5t-27 -44t-22 -70.5l-68 -317q-29 -134 -92 -202.5t-164 -100.5q67 -25 103.5 -71.5t36.5 -127.5q0 -42 -13 -105 l-71 -337q-11 -53 -11 -74q0 -53 33 -69.5t111 -18.5l-45 -211q-96 0 -162 10.5t-119 38t-78.5 79t-25.5 128.5q0 64 18 147l68 322q6 30 6 59q0 121 -139 121z" />
<glyph unicode="|" horiz-adv-x="696" d="M66 -287l401 1895h278l-401 -1895h-278z" />
<glyph unicode="}" horiz-adv-x="696" d="M-117 -348l47 221q42 1 64.5 3t48 10t39.5 24.5t27 44t22 70.5l68 317q29 134 92 202.5t164 100.5q-67 25 -103.5 71.5t-36.5 127.5q0 37 13 104l71 338q9 44 9 72q0 55 -32 71.5t-110 18.5l45 211q96 0 161.5 -10.5t118 -38t78 -79.5t25.5 -130q0 -73 -16 -146l-68 -321 q-8 -46 -8 -60q0 -120 141 -120l-51 -238q-174 0 -211 -180l-67 -322q-15 -72 -37.5 -127t-48.5 -93.5t-64.5 -65t-74 -41.5t-90 -23t-100.5 -10t-116 -2z" />
<glyph unicode="~" d="M186 496l56 260q49 34 125 58t157 24q56 0 109 -17.5t86.5 -39t78 -39t87.5 -17.5q132 0 272 102l-55 -260q-49 -34 -125.5 -58t-157.5 -24q-56 0 -108.5 17.5t-85.5 39t-77 39t-87 17.5q-135 0 -275 -102z" />
<glyph unicode="&#xa1;" horiz-adv-x="634" d="M-47 -369l266 1014h303l-164 -1014h-405zM225 815l68 322h362l-67 -322h-363z" />
<glyph unicode="&#xa2;" d="M86 389q0 70 11.5 140.5t36 147t68 144t102 124t144.5 95t189 50.5l55 262h264l-59 -275q147 -35 233.5 -125t90.5 -215h-336q-4 63 -53 102.5t-113 39.5q-69 0 -124.5 -35.5t-87.5 -87.5t-53 -117.5t-28.5 -119.5t-7.5 -99q0 -110 49 -172t123 -62q70 0 120 39.5 t95 128.5h336q-46 -105 -105 -180.5t-154 -130t-218 -68.5l-54 -251h-264l53 264q-157 35 -235 137.5t-78 263.5z" />
<glyph unicode="&#xa3;" d="M12 0l54 258q64 19 91 63t48 138l35 159h-113l39 191h113l49 215q51 226 180.5 333t357.5 107q201 0 317.5 -98.5t116.5 -251.5v-18h-307q-6 129 -145 129q-75 0 -123 -50t-72 -165l-43 -201h414l-39 -191h-416l-32 -147q-32 -136 -140 -213h690l-53 -258h-1022z" />
<glyph unicode="&#xa4;" d="M174 322l121 120q-57 108 -57 254q0 138 55 248l-119 119l180 180l113 -115q123 72 266 72q145 0 268 -72l115 115l180 -180l-118 -119q55 -110 55 -248q0 -142 -59 -254l122 -120l-180 -181l-119 119q-119 -67 -264 -67q-144 0 -260 67l-119 -119zM489 696 q0 -117 67.5 -187.5t178.5 -70.5q109 0 177.5 71t68.5 187t-68.5 187t-177.5 71q-111 0 -178.5 -70.5t-67.5 -187.5z" />
<glyph unicode="&#xa5;" d="M170 266l41 191h256l20 96h-256l41 190h164l-264 691h350l180 -580l451 580h346l-555 -691h164l-41 -190h-256l-20 -96h256l-41 -191h-256l-56 -266h-323l55 266h-256z" />
<glyph unicode="&#xa6;" horiz-adv-x="696" d="M66 -287l167 789h279l-168 -789h-278zM301 819l166 789h278l-165 -789h-279z" />
<glyph unicode="&#xa7;" d="M106 106q0 9 5 44h284q0 -52 41 -87.5t105 -35.5q118 0 118 94q0 37 -35.5 66.5t-125.5 68.5q-54 24 -92.5 44t-83 51t-72 63t-46 77.5t-18.5 96.5q0 118 66.5 191t210.5 124q-53 38 -83 98t-30 127q0 47 9.5 88.5t39 88.5t77 80t132.5 55t197 22q94 0 171.5 -28t125 -73 t73 -98.5t25.5 -107.5q0 -23 -2 -33h-285q0 53 -36.5 90t-94.5 37q-53 0 -82.5 -23.5t-29.5 -68.5q0 -39 38 -68.5t123 -66.5q76 -33 126.5 -61.5t97.5 -69t69.5 -92t22.5 -115.5q0 -105 -69.5 -184.5t-203.5 -124.5q49 -35 79 -94.5t30 -120.5q0 -49 -14.5 -96t-49.5 -93 t-87.5 -80.5t-135.5 -55.5t-186 -21q-189 0 -296.5 82t-107.5 210zM510 623q0 -49 40 -86t142 -74q131 80 131 188q0 50 -41.5 89.5t-142.5 74.5q-129 -83 -129 -192z" />
<glyph unicode="&#xa8;" horiz-adv-x="897" d="M236 1212l57 263h303l-57 -263h-303zM707 1212l57 263h303l-57 -263h-303z" />
<glyph unicode="&#xa9;" horiz-adv-x="1726" d="M170 737q0 156 45.5 286t121.5 218t178 148.5t211.5 88t225.5 27.5t226 -27.5t211.5 -88t178 -148.5t122 -218t45.5 -286t-45.5 -286t-122 -218t-178 -148.5t-211.5 -88t-226 -27.5t-225.5 27.5t-211.5 88t-178 148.5t-121.5 218t-45.5 286zM379 737q0 -119 32.5 -219 t87.5 -169t128.5 -117.5t155.5 -71.5t169 -23t169 23t156 71.5t129 117.5t87.5 169t32.5 219t-32.5 219t-87.5 169t-129 117.5t-156 71.5t-169 23t-169 -23t-155.5 -71.5t-128.5 -117.5t-87.5 -169t-32.5 -219zM539 733q0 210 114 328.5t312 118.5q164 0 274 -76.5 t137 -202.5h-262q-12 50 -51 80.5t-90 30.5q-174 0 -174 -283q0 -129 45.5 -193.5t120.5 -64.5q57 0 93 31.5t58 97.5h262q-33 -136 -136 -216.5t-281 -80.5q-200 0 -311 108t-111 322z" />
<glyph unicode="&#xaa;" horiz-adv-x="1075" d="M72 0l53 252h786l-53 -252h-786zM240 825q0 65 24.5 117.5t64.5 88t97 61.5t115 40.5t125 22.5l145 16l10 43q2 10 2 29q0 38 -24 57t-56 19q-77 0 -114 -84h-279q44 126 158.5 198t271.5 72q148 0 237 -71t89 -189q0 -31 -6 -65l-117 -551h-199l-24 88 q-118 -113 -258 -113q-47 0 -91.5 12.5t-83.5 37.5t-63 69.5t-24 101.5zM535 879q0 -36 25 -57t69 -21q51 0 84 32t43 78l20 99l-92 -13q-149 -18 -149 -118z" />
<glyph unicode="&#xab;" horiz-adv-x="1116" d="M145 645l355 420h239l-280 -426l73 -455h-225zM573 645l355 420h239l-280 -426l74 -455h-226z" />
<glyph unicode="&#xac;" d="M195 535l53 251h901l-123 -577h-264l69 326h-636z" />
<glyph unicode="&#xad;" horiz-adv-x="1105" d="M195 535l53 251h778l-53 -251h-778z" />
<glyph unicode="&#xae;" horiz-adv-x="1277" d="M221 975q0 109 31.5 199t83.5 150t122 102t145 60.5t153 18.5t153.5 -18.5t145.5 -60.5t123 -102t84.5 -150t31.5 -199t-31.5 -199t-84.5 -150.5t-123 -102t-145.5 -60.5t-153.5 -19t-153 19t-145 60.5t-122 102t-83.5 150.5t-31.5 199zM379 975q0 -106 32 -187 t86.5 -127.5t119.5 -69t139 -22.5t139.5 22.5t121 69t88 127.5t32.5 187t-32.5 187t-88 127t-121 68.5t-139.5 22.5t-139 -22.5t-119.5 -68.5t-86.5 -127t-32 -187zM555 719v541h201q103 0 166 -40.5t63 -129.5q0 -111 -108 -152l145 -219h-152l-118 199h-70v-199h-127z M682 1004h80q36 0 64 20t28 66q0 81 -96 81h-76v-167z" />
<glyph unicode="&#xaf;" horiz-adv-x="675" d="M244 1245l49 230h553l-49 -230h-553z" />
<glyph unicode="&#xb0;" horiz-adv-x="1105" d="M217 1085q0 118 57 209t146.5 136t193.5 45q140 0 232 -80.5t92 -220.5q0 -172 -118.5 -280t-280.5 -108q-139 0 -230.5 79.5t-91.5 219.5zM461 1098q0 -58 26.5 -85.5t73.5 -27.5q56 0 93.5 42.5t37.5 127.5q0 121 -100 121q-61 0 -96 -47.5t-35 -130.5z" />
<glyph unicode="&#xb1;" d="M82 0l53 252h901l-53 -252h-901zM195 535l53 251h317l70 324h264l-70 -324h320l-53 -251h-320l-43 -203h-264l43 203h-317z" />
<glyph unicode="&#xb2;" horiz-adv-x="860" d="M100 602l41 193l273 196q163 116 214.5 174.5t51.5 110.5q0 31 -22 49t-60 18q-104 0 -141 -104h-246q47 134 154 210.5t258 76.5q136 0 217.5 -62t81.5 -159q0 -96 -67 -181t-261 -217l-156 -108h381l-41 -197h-678z" />
<glyph unicode="&#xb3;" horiz-adv-x="874" d="M135 858h244q-7 -96 96 -96q66 0 100.5 38.5t34.5 100.5q0 88 -112 88h-66l35 164h70q64 0 99.5 42.5t35.5 94.5q0 60 -74 60q-88 0 -117 -82h-239q42 122 139.5 190t241.5 68q134 0 219.5 -54.5t85.5 -152.5q0 -45 -21 -90.5t-77 -88.5t-138 -59q81 -15 124.5 -62 t43.5 -116q0 -45 -13 -88.5t-43.5 -85.5t-75.5 -74t-113.5 -51.5t-151.5 -19.5q-93 0 -159.5 23.5t-102 64.5t-51 86.5t-15.5 99.5z" />
<glyph unicode="&#xb4;" horiz-adv-x="675" d="M221 1194l268 281h357l-367 -281h-258z" />
<glyph unicode="&#xb5;" horiz-adv-x="1230" d="M-49 -367l305 1432h319l-145 -688q-6 -27 -6 -49q0 -64 39.5 -98.5t107.5 -34.5q84 0 148.5 61.5t87.5 169.5l135 639h320l-226 -1065h-264l-8 113q-147 -144 -342 -144q-42 0 -80 6l-72 -342h-319z" />
<glyph unicode="&#xb6;" horiz-adv-x="1382" d="M193 1018q0 109 30.5 192.5t77 132.5t111.5 80t125.5 41.5t126.5 10.5h299l-394 -1844h-299l215 1014q-44 0 -93.5 24.5t-94.5 69t-74.5 118t-29.5 161.5zM809 -369l393 1844h299l-393 -1844h-299z" />
<glyph unicode="&#xb7;" horiz-adv-x="552" d="M139 508l62 291h323l-61 -291h-324z" />
<glyph unicode="&#xb8;" horiz-adv-x="733" d="M-82 -281h205q0 -34 22 -59t76 -25q48 0 73 21.5t25 58.5q0 38 -38.5 60t-112.5 22l80 254h176l-29 -133q65 -19 101 -65.5t36 -110.5q0 -120 -88 -195t-229 -75q-136 0 -216.5 63t-80.5 166v18z" />
<glyph unicode="&#xb9;" horiz-adv-x="579" d="M160 1155l47 217l268 111h219l-192 -903h-248l143 669z" />
<glyph unicode="&#xba;" horiz-adv-x="1073" d="M47 0l53 252h818l-54 -252h-817zM233 961q0 76 14.5 149t51 146t91.5 127t143 88t198 34q60 0 112 -8.5t104 -32.5t88.5 -61t59.5 -99t23 -143q0 -76 -13 -148t-48 -148t-88.5 -132.5t-142.5 -92.5t-203 -36q-77 0 -142 17t-123 55.5t-91.5 111t-33.5 173.5zM528 952 q0 -80 27.5 -117.5t85.5 -37.5q52 0 90 37t57.5 96t28 117t8.5 116q0 79 -27 114.5t-83 35.5q-55 0 -94.5 -36.5t-58 -95.5t-26.5 -115t-8 -114z" />
<glyph unicode="&#xbb;" horiz-adv-x="1116" d="M70 184l266 455l-100 426h225l188 -420l-340 -461h-239zM498 184l266 455l-100 426h225l188 -420l-340 -461h-239z" />
<glyph unicode="&#xbc;" horiz-adv-x="1800" d="M184 -190l1250 1802h262l-1247 -1802h-265zM213 1155l47 217l268 111h220l-193 -903h-248l144 669zM993 166l41 190l465 547h281l-121 -561h115l-37 -176h-115l-35 -166h-223l35 166h-406zM1245 342h191l84 330z" />
<glyph unicode="&#xbd;" horiz-adv-x="1947" d="M184 -190l1250 1802h262l-1247 -1802h-265zM213 1155l47 217l268 111h220l-193 -903h-248l144 669zM1106 0l41 193l272 196q163 116 215 174.5t52 110.5q0 31 -22 49t-60 18q-105 0 -142 -104h-245q47 134 153.5 210.5t257.5 76.5q136 0 217.5 -62.5t81.5 -159.5 q0 -64 -25.5 -117t-97.5 -121t-205 -159l-155 -108h381l-41 -197h-678z" />
<glyph unicode="&#xbe;" horiz-adv-x="2021" d="M184 858h244q-7 -96 96 -96q66 0 100.5 38.5t34.5 100.5q0 88 -112 88h-66l35 164h70q64 0 99.5 42.5t35.5 94.5q0 60 -74 60q-88 0 -117 -82h-239q42 122 139.5 190t241.5 68q134 0 219.5 -54.5t85.5 -152.5q0 -45 -21 -90.5t-77 -88.5t-138 -59q81 -15 124.5 -62 t43.5 -116q0 -45 -13 -88.5t-43.5 -85.5t-75.5 -74t-113.5 -51.5t-151.5 -19.5q-93 0 -159.5 23.5t-102 64.5t-51 86.5t-15.5 99.5zM406 -190l1249 1802h262l-1247 -1802h-264zM1214 166l41 190l465 547h281l-121 -561h115l-37 -176h-115l-35 -166h-223l35 166h-406z M1466 342h191l84 330z" />
<glyph unicode="&#xbf;" horiz-adv-x="1122" d="M-29 -100q0 41 7.5 77.5t17 66t36.5 68t45.5 63t66 72.5t77.5 76.5t98 92.5q74 69 107 219h322q-31 -145 -68.5 -219t-138.5 -172q-137 -133 -179.5 -195.5t-42.5 -120.5q0 -41 29.5 -64.5t75.5 -23.5q112 0 180 170h346q-47 -174 -201 -291.5t-356 -117.5 q-194 0 -308 83.5t-114 215.5zM434 784l68 322h362l-67 -322h-363z" />
<glyph unicode="&#xc0;" horiz-adv-x="1435" d="M-82 0l838 1475h383l215 -1475h-353l-32 338h-525l-176 -338h-350zM561 563h387l-59 629zM715 1864h336l145 -281h-238z" />
<glyph unicode="&#xc1;" horiz-adv-x="1435" d="M-82 0l838 1475h383l215 -1475h-353l-32 338h-525l-176 -338h-350zM561 563h387l-59 629zM715 1583l268 281h356l-366 -281h-258z" />
<glyph unicode="&#xc2;" horiz-adv-x="1435" d="M-82 0l838 1475h383l215 -1475h-353l-32 338h-525l-176 -338h-350zM547 1614l338 280h286l215 -280h-317l-68 121l-118 -121h-336zM561 563h387l-59 629z" />
<glyph unicode="&#xc3;" horiz-adv-x="1435" d="M-82 0l838 1475h383l215 -1475h-353l-32 338h-525l-176 -338h-350zM561 563h387l-59 629zM657 1602l50 225q106 67 196 67q41 0 77 -12t58 -26.5t53 -26.5t62 -12q67 0 182 77l-49 -225q-106 -67 -188 -67q-41 0 -77 12t-58 26.5t-53 26.5t-62 12q-76 0 -191 -77z" />
<glyph unicode="&#xc4;" horiz-adv-x="1435" d="M-82 0l838 1475h383l215 -1475h-353l-32 338h-525l-176 -338h-350zM561 563h387l-59 629zM578 1602l57 262h303l-57 -262h-303zM1049 1602l57 262h303l-57 -262h-303z" />
<glyph unicode="&#xc5;" horiz-adv-x="1435" d="M-82 0l809 1425q-47 56 -47 142q0 117 85.5 198.5t227.5 81.5q123 0 191.5 -63.5t68.5 -159.5q0 -65 -27.5 -121t-78.5 -94l207 -1409h-353l-32 338h-525l-176 -338h-350zM561 563h387l-59 629zM881 1575q0 -40 20 -62t53 -22q40 0 68.5 32.5t28.5 92.5q0 40 -20.5 62 t-53.5 22q-42 0 -69 -35t-27 -90z" />
<glyph unicode="&#xc6;" horiz-adv-x="1968" d="M-82 0l1026 1475h1184l-55 -252h-590l-76 -361h530l-51 -237h-530l-80 -377h590l-51 -248h-934l71 338h-444l-232 -338h-358zM662 563h337l150 709z" />
<glyph unicode="&#xc7;" horiz-adv-x="1517" d="M131 559q0 87 12 175t41 182.5t73 178.5t112.5 160t154 131t203.5 87t256 32q159 0 289 -54.5t211.5 -166.5t81.5 -264v-27h-344q0 135 -69 204t-191 69q-75 0 -140.5 -27.5t-112.5 -73t-85 -107t-62 -127t-40 -135.5t-22.5 -130t-6.5 -113q0 -173 73.5 -257.5 t192.5 -84.5q142 0 234 80t141 252h350q-92 -277 -269.5 -420.5t-453.5 -153.5l-10 -51q65 -19 101 -65.5t36 -110.5q0 -120 -88.5 -195t-229.5 -75q-136 0 -216.5 63t-80.5 166v18h205q0 -34 22 -59t76 -25q48 0 73.5 22t25.5 58q0 38 -38.5 60t-113.5 22l58 185 q-216 35 -332.5 184.5t-116.5 392.5z" />
<glyph unicode="&#xc8;" horiz-adv-x="1189" d="M41 0l313 1475h996l-56 -252h-651l-76 -361h592l-51 -237h-592l-80 -377h651l-51 -248h-995zM602 1864h336l145 -281h-237z" />
<glyph unicode="&#xc9;" horiz-adv-x="1189" d="M41 0l313 1475h996l-56 -252h-651l-76 -361h592l-51 -237h-592l-80 -377h651l-51 -248h-995zM680 1583l268 281h357l-367 -281h-258z" />
<glyph unicode="&#xca;" horiz-adv-x="1189" d="M41 0l313 1475h996l-56 -252h-651l-76 -361h592l-51 -237h-592l-80 -377h651l-51 -248h-995zM457 1614l338 280h286l215 -280h-317l-68 121l-118 -121h-336z" />
<glyph unicode="&#xcb;" horiz-adv-x="1189" d="M41 0l313 1475h996l-56 -252h-651l-76 -361h592l-51 -237h-592l-80 -377h651l-51 -248h-995zM485 1602l58 262h303l-58 -262h-303zM956 1602l58 262h303l-57 -262h-304z" />
<glyph unicode="&#xcc;" horiz-adv-x="589" d="M41 0l313 1475h344l-313 -1475h-344zM309 1864h336l146 -281h-238z" />
<glyph unicode="&#xcd;" horiz-adv-x="589" d="M41 0l313 1475h344l-313 -1475h-344zM293 1583l268 281h357l-367 -281h-258z" />
<glyph unicode="&#xce;" horiz-adv-x="589" d="M41 0l313 1475h344l-313 -1475h-344zM135 1614l338 280h287l215 -280h-318l-67 121l-119 -121h-336z" />
<glyph unicode="&#xcf;" horiz-adv-x="589" d="M41 0l313 1475h344l-313 -1475h-344zM166 1602l57 262h303l-57 -262h-303zM637 1602l57 262h303l-57 -262h-303z" />
<glyph unicode="&#xd0;" horiz-adv-x="1492" d="M41 0l137 645h-104l55 258h104l121 572h506q304 0 475.5 -142.5t171.5 -412.5q0 -77 -9 -153.5t-34.5 -170t-66 -175t-109.5 -160.5t-158 -135.5t-218.5 -91t-284.5 -34.5h-586zM434 240h221q83 0 154.5 25t121.5 66t90.5 97t65 115.5t41 124.5t23 120t6.5 105 q0 169 -87.5 256.5t-238.5 87.5h-184l-72 -334h265l-56 -258h-264z" />
<glyph unicode="&#xd1;" horiz-adv-x="1476" d="M41 0l313 1475h381l340 -1022l217 1022h293l-313 -1475h-354l-359 1067l-223 -1067h-295zM686 1602l49 225q106 67 197 67q41 0 77 -12t58 -26.5t53 -26.5t62 -12q67 0 182 77l-49 -225q-106 -67 -189 -67q-41 0 -77 12t-58 26.5t-52.5 26.5t-61.5 12q-76 0 -191 -77z " />
<glyph unicode="&#xd2;" horiz-adv-x="1605" d="M131 578q0 89 13.5 177.5t44 180.5t76.5 174.5t115.5 155.5t155.5 125.5t201.5 83t249.5 30.5q96 0 186 -22.5t172 -72t142.5 -120t96.5 -173.5t36 -226q0 -80 -11.5 -162t-40 -174t-71.5 -174.5t-112 -158.5t-155 -131.5t-207 -88.5t-263 -33q-96 0 -185.5 22.5t-171 71 t-141.5 118.5t-95.5 172t-35.5 225zM483 567q0 -94 27 -165t72.5 -111t99 -59t113.5 -19q98 0 180 46t135.5 118.5t90.5 165.5t53 184.5t16 177.5q0 94 -26 166t-71 112.5t-98.5 60.5t-113.5 20q-73 0 -137 -24.5t-112 -66.5t-87 -99t-65 -120t-43.5 -131.5t-25.5 -132.5 t-8 -123zM774 1864h336l145 -281h-237z" />
<glyph unicode="&#xd3;" horiz-adv-x="1605" d="M131 578q0 89 13.5 177.5t44 180.5t76.5 174.5t115.5 155.5t155.5 125.5t201.5 83t249.5 30.5q96 0 186 -22.5t172 -72t142.5 -120t96.5 -173.5t36 -226q0 -80 -11.5 -162t-40 -174t-71.5 -174.5t-112 -158.5t-155 -131.5t-207 -88.5t-263 -33q-96 0 -185.5 22.5t-171 71 t-141.5 118.5t-95.5 172t-35.5 225zM483 567q0 -94 27 -165t72.5 -111t99 -59t113.5 -19q98 0 180 46t135.5 118.5t90.5 165.5t53 184.5t16 177.5q0 94 -26 166t-71 112.5t-98.5 60.5t-113.5 20q-73 0 -137 -24.5t-112 -66.5t-87 -99t-65 -120t-43.5 -131.5t-25.5 -132.5 t-8 -123zM856 1583l268 281h357l-367 -281h-258z" />
<glyph unicode="&#xd4;" horiz-adv-x="1605" d="M131 578q0 89 13.5 177.5t44 180.5t76.5 174.5t115.5 155.5t155.5 125.5t201.5 83t249.5 30.5q96 0 186 -22.5t172 -72t142.5 -120t96.5 -173.5t36 -226q0 -80 -11.5 -162t-40 -174t-71.5 -174.5t-112 -158.5t-155 -131.5t-207 -88.5t-263 -33q-96 0 -185.5 22.5t-171 71 t-141.5 118.5t-95.5 172t-35.5 225zM483 567q0 -94 27 -165t72.5 -111t99 -59t113.5 -19q98 0 180 46t135.5 118.5t90.5 165.5t53 184.5t16 177.5q0 94 -26 166t-71 112.5t-98.5 60.5t-113.5 20q-73 0 -137 -24.5t-112 -66.5t-87 -99t-65 -120t-43.5 -131.5t-25.5 -132.5 t-8 -123zM641 1614l338 280h287l215 -280h-318l-67 121l-119 -121h-336z" />
<glyph unicode="&#xd5;" horiz-adv-x="1605" d="M131 578q0 89 13.5 177.5t44 180.5t76.5 174.5t115.5 155.5t155.5 125.5t201.5 83t249.5 30.5q96 0 186 -22.5t172 -72t142.5 -120t96.5 -173.5t36 -226q0 -80 -11.5 -162t-40 -174t-71.5 -174.5t-112 -158.5t-155 -131.5t-207 -88.5t-263 -33q-96 0 -185.5 22.5t-171 71 t-141.5 118.5t-95.5 172t-35.5 225zM483 567q0 -94 27 -165t72.5 -111t99 -59t113.5 -19q98 0 180 46t135.5 118.5t90.5 165.5t53 184.5t16 177.5q0 94 -26 166t-71 112.5t-98.5 60.5t-113.5 20q-73 0 -137 -24.5t-112 -66.5t-87 -99t-65 -120t-43.5 -131.5t-25.5 -132.5 t-8 -123zM752 1602l49 225q106 67 196 67q41 0 77 -12t58 -26.5t53 -26.5t62 -12q68 0 183 77l-50 -225q-106 -67 -188 -67q-41 0 -77 12t-58 26.5t-53 26.5t-62 12q-75 0 -190 -77z" />
<glyph unicode="&#xd6;" horiz-adv-x="1605" d="M131 578q0 89 13.5 177.5t44 180.5t76.5 174.5t115.5 155.5t155.5 125.5t201.5 83t249.5 30.5q96 0 186 -22.5t172 -72t142.5 -120t96.5 -173.5t36 -226q0 -80 -11.5 -162t-40 -174t-71.5 -174.5t-112 -158.5t-155 -131.5t-207 -88.5t-263 -33q-96 0 -185.5 22.5t-171 71 t-141.5 118.5t-95.5 172t-35.5 225zM483 567q0 -94 27 -165t72.5 -111t99 -59t113.5 -19q98 0 180 46t135.5 118.5t90.5 165.5t53 184.5t16 177.5q0 94 -26 166t-71 112.5t-98.5 60.5t-113.5 20q-73 0 -137 -24.5t-112 -66.5t-87 -99t-65 -120t-43.5 -131.5t-25.5 -132.5 t-8 -123zM672 1602l57 262h303l-57 -262h-303zM1143 1602l57 262h303l-57 -262h-303z" />
<glyph unicode="&#xd7;" d="M215 446l279 230l-181 229l195 162l180 -229l279 229l141 -178l-279 -230l181 -229l-195 -162l-182 230l-277 -230z" />
<glyph unicode="&#xd8;" horiz-adv-x="1605" d="M131 578q0 89 13.5 177.5t44 180.5t76.5 174.5t115.5 155.5t155.5 125.5t201.5 83t249.5 30.5q105 0 207 -30l121 204h244l-175 -295q110 -79 173 -203t63 -290q0 -80 -11.5 -162t-40 -174t-71.5 -174.5t-112 -158.5t-155 -131.5t-207 -88.5t-263 -33q-106 0 -201 27 l-125 -221h-244l175 311q-108 76 -171 200t-63 292zM483 567q0 -150 66 -239l524 915q-55 21 -112 21q-73 0 -137 -24.5t-112 -66.5t-87 -99t-65 -120t-43.5 -131.5t-25.5 -132.5t-8 -123zM680 231q55 -18 115 -18q98 0 180 46t135.5 118.5t90.5 165.5t53 184.5t16 177.5 q0 150 -66 242z" />
<glyph unicode="&#xd9;" horiz-adv-x="1460" d="M119 393q0 55 12 113l207 969h344l-213 -992q-8 -40 -8 -63q0 -97 67.5 -152t184.5 -55q267 0 319 246l217 1016h330l-211 -994q-109 -512 -682 -512q-262 0 -414.5 113.5t-152.5 310.5zM655 1864h336l146 -281h-238z" />
<glyph unicode="&#xda;" horiz-adv-x="1460" d="M119 393q0 55 12 113l207 969h344l-213 -992q-8 -40 -8 -63q0 -97 67.5 -152t184.5 -55q267 0 319 246l217 1016h330l-211 -994q-109 -512 -682 -512q-262 0 -414.5 113.5t-152.5 310.5zM842 1583l268 281h356l-366 -281h-258z" />
<glyph unicode="&#xdb;" horiz-adv-x="1460" d="M119 393q0 55 12 113l207 969h344l-213 -992q-8 -40 -8 -63q0 -97 67.5 -152t184.5 -55q267 0 319 246l217 1016h330l-211 -994q-109 -512 -682 -512q-262 0 -414.5 113.5t-152.5 310.5zM565 1614l338 280h287l215 -280h-318l-67 121l-119 -121h-336z" />
<glyph unicode="&#xdc;" horiz-adv-x="1460" d="M119 393q0 55 12 113l207 969h344l-213 -992q-8 -40 -8 -63q0 -97 67.5 -152t184.5 -55q267 0 319 246l217 1016h330l-211 -994q-109 -512 -682 -512q-262 0 -414.5 113.5t-152.5 310.5zM596 1602l57 262h303l-57 -262h-303zM1067 1602l57 262h303l-57 -262h-303z" />
<glyph unicode="&#xdd;" horiz-adv-x="1368" d="M231 1475h355l194 -601l477 601h342l-710 -887l-125 -588h-324l125 588zM782 1583l269 281h356l-367 -281h-258z" />
<glyph unicode="&#xde;" horiz-adv-x="1363" d="M41 0l313 1475h344l-51 -236h172q281 0 421 -109t140 -305q0 -282 -181.5 -424.5t-526.5 -142.5h-232l-55 -258h-344zM489 494h220q142 0 228.5 86t86.5 227q0 197 -252 197h-174z" />
<glyph unicode="&#xdf;" horiz-adv-x="1325" d="M31 0l225 1069q19 88 45 153t69.5 120.5t104 90t147.5 53.5t201 19q196 0 327.5 -86t131.5 -219q0 -49 -16 -91t-42 -72.5t-57 -57t-62.5 -48.5t-57.5 -43t-42 -46t-16 -51q0 -52 82 -107q217 -143 217 -328q0 -176 -127.5 -281.5t-351.5 -105.5q-189 0 -281 83t-92 229 v20h322q0 -3 -1 -10t-1 -10q0 -42 20.5 -67.5t57.5 -25.5q47 0 81.5 48.5t34.5 128.5q0 79 -90 139q-149 98 -149 231q0 60 25 110.5t60.5 86t70.5 68.5t60 73.5t25 85.5q0 51 -43.5 86t-117.5 35q-90 0 -141.5 -55t-76.5 -172l-75 -351l-189 -702h-278z" />
<glyph unicode="&#xe0;" horiz-adv-x="1187" d="M45 240q0 163 115 260t383 139l284 45l4 18q9 39 9 62q0 58 -39.5 91.5t-108.5 33.5q-147 0 -194 -131h-328q152 338 565 338q194 0 308 -89.5t114 -238.5q0 -45 -8 -84l-145 -684h-250l-17 111q-153 -142 -383 -142q-142 0 -225.5 72t-83.5 199zM371 293q0 -48 32 -76.5 t91 -28.5q104 0 179 59.5t93 145.5l25 117l-203 -39q-124 -24 -170.5 -65.5t-46.5 -112.5zM451 1475h335l146 -281h-238z" />
<glyph unicode="&#xe1;" horiz-adv-x="1187" d="M45 240q0 163 115 260t383 139l284 45l4 18q9 39 9 62q0 58 -39.5 91.5t-108.5 33.5q-147 0 -194 -131h-328q152 338 565 338q194 0 308 -89.5t114 -238.5q0 -45 -8 -84l-145 -684h-250l-17 111q-153 -142 -383 -142q-142 0 -225.5 72t-83.5 199zM371 293q0 -48 32 -76.5 t91 -28.5q104 0 179 59.5t93 145.5l25 117l-203 -39q-124 -24 -170.5 -65.5t-46.5 -112.5zM625 1194l268 281h356l-366 -281h-258z" />
<glyph unicode="&#xe2;" horiz-adv-x="1187" d="M45 240q0 163 115 260t383 139l284 45l4 18q9 39 9 62q0 58 -39.5 91.5t-108.5 33.5q-147 0 -194 -131h-328q152 338 565 338q194 0 308 -89.5t114 -238.5q0 -45 -8 -84l-145 -684h-250l-17 111q-153 -142 -383 -142q-142 0 -225.5 72t-83.5 199zM358 1225l338 280h287 l215 -280h-317l-68 121l-119 -121h-336zM371 293q0 -48 32 -76.5t91 -28.5q104 0 179 59.5t93 145.5l25 117l-203 -39q-124 -24 -170.5 -65.5t-46.5 -112.5z" />
<glyph unicode="&#xe3;" horiz-adv-x="1187" d="M45 240q0 163 115 260t383 139l284 45l4 18q9 39 9 62q0 58 -39.5 91.5t-108.5 33.5q-147 0 -194 -131h-328q152 338 565 338q194 0 308 -89.5t114 -238.5q0 -45 -8 -84l-145 -684h-250l-17 111q-153 -142 -383 -142q-142 0 -225.5 72t-83.5 199zM371 293q0 -48 32 -76.5 t91 -28.5q104 0 179 59.5t93 145.5l25 117l-203 -39q-124 -24 -170.5 -65.5t-46.5 -112.5zM446 1212l50 226q106 67 196 67q41 0 77 -12t58 -27t53 -27t62 -12q66 0 182 78l-49 -225q-108 -68 -188 -68q-41 0 -77 12t-58 27t-53 27t-62 12q-75 0 -191 -78z" />
<glyph unicode="&#xe4;" horiz-adv-x="1187" d="M45 240q0 163 115 260t383 139l284 45l4 18q9 39 9 62q0 58 -39.5 91.5t-108.5 33.5q-147 0 -194 -131h-328q152 338 565 338q194 0 308 -89.5t114 -238.5q0 -45 -8 -84l-145 -684h-250l-17 111q-153 -142 -383 -142q-142 0 -225.5 72t-83.5 199zM371 293q0 -48 32 -76.5 t91 -28.5q104 0 179 59.5t93 145.5l25 117l-203 -39q-124 -24 -170.5 -65.5t-46.5 -112.5zM371 1212l57 263h303l-57 -263h-303zM842 1212l57 263h303l-57 -263h-303z" />
<glyph unicode="&#xe5;" horiz-adv-x="1187" d="M45 240q0 163 115 260t383 139l284 45l4 18q9 39 9 62q0 58 -39.5 91.5t-108.5 33.5q-147 0 -194 -131h-328q152 338 565 338q194 0 308 -89.5t114 -238.5q0 -45 -8 -84l-145 -684h-250l-17 111q-153 -142 -383 -142q-142 0 -225.5 72t-83.5 199zM371 293q0 -48 32 -76.5 t91 -28.5q104 0 179 59.5t93 145.5l25 117l-203 -39q-124 -24 -170.5 -65.5t-46.5 -112.5zM528 1405q0 117 86 199t228 82q123 0 191.5 -63.5t68.5 -160.5q0 -118 -87 -199t-229 -81q-124 0 -191 62.5t-67 160.5zM729 1413q0 -40 20.5 -62t53.5 -22q40 0 68 32.5t28 92.5 q0 40 -20.5 62t-53.5 22q-42 0 -69 -35t-27 -90z" />
<glyph unicode="&#xe6;" horiz-adv-x="1931" d="M45 238q0 163 116 261t384 140l284 45l9 39q4 28 4 41q0 58 -39.5 91.5t-108.5 33.5q-147 0 -194 -131h-328q152 338 565 338q212 0 328 -107q154 107 365 107q221 0 349 -114t128 -335q0 -77 -23 -192h-776q-2 -14 -2 -41q0 -108 56.5 -164.5t154.5 -56.5q141 0 199 116 h325q-28 -62 -61.5 -111t-81 -93t-105 -73t-135.5 -46t-172 -17q-152 0 -268 61.5t-176 172.5q-97 -122 -203.5 -178t-245.5 -56q-167 0 -257.5 71t-90.5 198zM373 293q0 -48 32 -76.5t91 -28.5q104 0 179 59.5t93 145.5l25 117l-203 -39q-124 -24 -170.5 -65.5 t-46.5 -112.5zM1147 641h448q7 44 7 70q0 94 -51 139t-142 45q-182 0 -262 -254z" />
<glyph unicode="&#xe7;" horiz-adv-x="1208" d="M84 389q0 75 13 151t41.5 157.5t79 151.5t119 126t169 88.5t221.5 32.5q215 0 351 -99.5t141 -259.5h-336q-4 63 -53 102.5t-113 39.5q-69 0 -124.5 -35.5t-87.5 -87.5t-53 -117.5t-28.5 -119.5t-7.5 -99q0 -110 49 -172t123 -62q70 0 120 39.5t95 128.5h336 q-36 -83 -80.5 -147t-107 -117t-148 -83.5t-189.5 -35.5l-10 -53q65 -19 101 -65.5t36 -110.5q0 -120 -88 -195t-229 -75q-136 0 -216.5 63t-80.5 166v18h205q0 -34 22 -59t76 -25q48 0 73 21.5t25 58.5q0 38 -38.5 60t-112.5 22l57 183q-175 29 -262.5 134.5t-87.5 274.5z " />
<glyph unicode="&#xe8;" horiz-adv-x="1232" d="M90 430q0 47 6.5 99t25.5 118t49 127t80.5 121t115 103.5t158.5 70.5t206 27q221 0 349 -114t128 -335q0 -82 -22 -192h-776q-2 -14 -2 -41q0 -108 56 -164.5t154 -56.5q141 0 199 116h326q-28 -62 -61.5 -111t-81 -93t-105 -73t-135.5 -46t-172 -17q-221 0 -359.5 125.5 t-138.5 335.5zM449 641h448q6 37 6 70q0 184 -186 184q-188 0 -268 -254zM461 1475h336l145 -281h-237z" />
<glyph unicode="&#xe9;" horiz-adv-x="1232" d="M90 430q0 47 6.5 99t25.5 118t49 127t80.5 121t115 103.5t158.5 70.5t206 27q221 0 349 -114t128 -335q0 -82 -22 -192h-776q-2 -14 -2 -41q0 -108 56 -164.5t154 -56.5q141 0 199 116h326q-28 -62 -61.5 -111t-81 -93t-105 -73t-135.5 -46t-172 -17q-221 0 -359.5 125.5 t-138.5 335.5zM449 641h448q6 37 6 70q0 184 -186 184q-188 0 -268 -254zM639 1194l268 281h357l-367 -281h-258z" />
<glyph unicode="&#xea;" horiz-adv-x="1232" d="M90 430q0 47 6.5 99t25.5 118t49 127t80.5 121t115 103.5t158.5 70.5t206 27q221 0 349 -114t128 -335q0 -82 -22 -192h-776q-2 -14 -2 -41q0 -108 56 -164.5t154 -56.5q141 0 199 116h326q-28 -62 -61.5 -111t-81 -93t-105 -73t-135.5 -46t-172 -17q-221 0 -359.5 125.5 t-138.5 335.5zM362 1225l338 280h287l215 -280h-317l-68 121l-119 -121h-336zM449 641h448q6 37 6 70q0 184 -186 184q-188 0 -268 -254z" />
<glyph unicode="&#xeb;" horiz-adv-x="1232" d="M90 430q0 47 6.5 99t25.5 118t49 127t80.5 121t115 103.5t158.5 70.5t206 27q221 0 349 -114t128 -335q0 -82 -22 -192h-776q-2 -14 -2 -41q0 -108 56 -164.5t154 -56.5q141 0 199 116h326q-28 -62 -61.5 -111t-81 -93t-105 -73t-135.5 -46t-172 -17q-221 0 -359.5 125.5 t-138.5 335.5zM391 1212l58 263h303l-58 -263h-303zM449 641h448q6 37 6 70q0 184 -186 184q-188 0 -268 -254zM862 1212l58 263h303l-58 -263h-303z" />
<glyph unicode="&#xec;" horiz-adv-x="585" d="M51 0l225 1065h320l-225 -1065h-320zM195 1475h335l146 -281h-238z" />
<glyph unicode="&#xed;" horiz-adv-x="585" d="M51 0l225 1065h320l-225 -1065h-320zM244 1194l268 281h356l-366 -281h-258z" />
<glyph unicode="&#xee;" horiz-adv-x="585" d="M49 1225l338 280h287l215 -280h-318l-67 121l-119 -121h-336zM51 0l225 1065h320l-225 -1065h-320z" />
<glyph unicode="&#xef;" horiz-adv-x="585" d="M51 0l225 1065h320l-225 -1065h-320zM80 1212l57 263h303l-57 -263h-303zM551 1212l57 263h303l-57 -263h-303z" />
<glyph unicode="&#xf0;" horiz-adv-x="1208" d="M80 406q0 112 32 213.5t94.5 185.5t167.5 134t240 50q81 0 164 -34t113 -85v21q0 141 -80 237l-39 -32h-293l183 151q-107 54 -256 84l45 211q224 -29 405 -135l82 68h293l-221 -183q204 -201 204 -489q0 -66 -8.5 -137t-30.5 -153.5t-55 -158.5t-87 -147t-121 -123 t-162.5 -83.5t-206.5 -31.5q-89 0 -169.5 26t-147.5 77.5t-106.5 137.5t-39.5 196zM406 406q0 -97 44.5 -151t129.5 -54q69 0 123.5 38.5t84 97t44 116.5t14.5 108q0 89 -47.5 143t-128.5 54q-59 0 -106.5 -23.5t-76 -59.5t-47.5 -84.5t-26.5 -93.5t-7.5 -91z" />
<glyph unicode="&#xf1;" horiz-adv-x="1230" d="M31 0l225 1065h264l6 -117q75 70 166.5 109t181.5 39q155 0 240.5 -82.5t85.5 -227.5q0 -56 -12 -118l-141 -668h-320l141 664q9 38 9 67q0 69 -39 104t-105 35q-89 0 -157 -60.5t-91 -168.5l-135 -641h-319zM494 1212l49 226q106 67 196 67q41 0 77 -12t58 -27t53 -27 t62 -12q66 0 182 78l-49 -225q-108 -68 -188 -68q-41 0 -77 12t-58 27t-53 27t-62 12q-74 0 -190 -78z" />
<glyph unicode="&#xf2;" horiz-adv-x="1269" d="M88 424q0 59 7 117.5t26.5 126.5t49.5 127.5t81 116t116.5 96.5t159.5 64t207 24q231 0 368.5 -120t137.5 -331q0 -56 -7 -113t-26.5 -125t-50 -128.5t-81.5 -118t-116.5 -99t-160 -67t-207.5 -25.5q-234 0 -369 120t-135 335zM416 418q0 -116 55 -175t145 -59 q55 0 101 20.5t76.5 52.5t54 76.5t36.5 88t21 91.5t10.5 82t2.5 64q0 113 -54 167.5t-147 54.5q-57 0 -103.5 -20.5t-77 -52.5t-53.5 -76.5t-35.5 -86.5t-20 -89t-9.5 -78.5t-2 -59.5zM473 1475h336l145 -281h-237z" />
<glyph unicode="&#xf3;" horiz-adv-x="1269" d="M88 424q0 59 7 117.5t26.5 126.5t49.5 127.5t81 116t116.5 96.5t159.5 64t207 24q231 0 368.5 -120t137.5 -331q0 -56 -7 -113t-26.5 -125t-50 -128.5t-81.5 -118t-116.5 -99t-160 -67t-207.5 -25.5q-234 0 -369 120t-135 335zM416 418q0 -116 55 -175t145 -59 q55 0 101 20.5t76.5 52.5t54 76.5t36.5 88t21 91.5t10.5 82t2.5 64q0 113 -54 167.5t-147 54.5q-57 0 -103.5 -20.5t-77 -52.5t-53.5 -76.5t-35.5 -86.5t-20 -89t-9.5 -78.5t-2 -59.5zM590 1194l268 281h356l-366 -281h-258z" />
<glyph unicode="&#xf4;" horiz-adv-x="1269" d="M88 424q0 59 7 117.5t26.5 126.5t49.5 127.5t81 116t116.5 96.5t159.5 64t207 24q231 0 368.5 -120t137.5 -331q0 -56 -7 -113t-26.5 -125t-50 -128.5t-81.5 -118t-116.5 -99t-160 -67t-207.5 -25.5q-234 0 -369 120t-135 335zM350 1225l338 280h287l215 -280h-318 l-67 121l-119 -121h-336zM416 418q0 -116 55 -175t145 -59q55 0 101 20.5t76.5 52.5t54 76.5t36.5 88t21 91.5t10.5 82t2.5 64q0 113 -54 167.5t-147 54.5q-57 0 -103.5 -20.5t-77 -52.5t-53.5 -76.5t-35.5 -86.5t-20 -89t-9.5 -78.5t-2 -59.5z" />
<glyph unicode="&#xf5;" horiz-adv-x="1269" d="M88 424q0 59 7 117.5t26.5 126.5t49.5 127.5t81 116t116.5 96.5t159.5 64t207 24q231 0 368.5 -120t137.5 -331q0 -56 -7 -113t-26.5 -125t-50 -128.5t-81.5 -118t-116.5 -99t-160 -67t-207.5 -25.5q-234 0 -369 120t-135 335zM416 418q0 -116 55 -175t145 -59 q55 0 101 20.5t76.5 52.5t54 76.5t36.5 88t21 91.5t10.5 82t2.5 64q0 113 -54 167.5t-147 54.5q-57 0 -103.5 -20.5t-77 -52.5t-53.5 -76.5t-35.5 -86.5t-20 -89t-9.5 -78.5t-2 -59.5zM461 1212l49 226q106 67 197 67q51 0 93.5 -19.5t80 -39t75.5 -19.5q67 0 183 78 l-49 -225q-108 -68 -189 -68q-41 0 -77 12t-58 27t-53 27t-62 12q-74 0 -190 -78z" />
<glyph unicode="&#xf6;" horiz-adv-x="1269" d="M88 424q0 59 7 117.5t26.5 126.5t49.5 127.5t81 116t116.5 96.5t159.5 64t207 24q231 0 368.5 -120t137.5 -331q0 -56 -7 -113t-26.5 -125t-50 -128.5t-81.5 -118t-116.5 -99t-160 -67t-207.5 -25.5q-234 0 -369 120t-135 335zM381 1212l57 263h303l-57 -263h-303z M416 418q0 -116 55 -175t145 -59q55 0 101 20.5t76.5 52.5t54 76.5t36.5 88t21 91.5t10.5 82t2.5 64q0 113 -54 167.5t-147 54.5q-57 0 -103.5 -20.5t-77 -52.5t-53.5 -76.5t-35.5 -86.5t-20 -89t-9.5 -78.5t-2 -59.5zM852 1212l57 263h303l-57 -263h-303z" />
<glyph unicode="&#xf7;" d="M195 535l53 251h901l-53 -251h-901zM397 127l62 291h323l-61 -291h-324zM561 903l62 291h323l-61 -291h-324z" />
<glyph unicode="&#xf8;" horiz-adv-x="1269" d="M23 -225l206 307q-141 122 -141 342q0 59 7 117.5t26.5 126.5t49.5 127.5t81 116t116.5 96.5t159.5 64t207 24q93 0 183 -23l145 217h244l-209 -311q143 -118 143 -334q0 -56 -7 -113t-26.5 -125t-50 -128.5t-81.5 -118t-116.5 -99t-160 -67t-207.5 -25.5q-91 0 -178 23 v-2l-144 -215h-247zM416 418q0 -66 18 -113l371 559q-46 17 -88 17q-57 0 -103.5 -20.5t-77 -52.5t-53.5 -76.5t-35.5 -86.5t-20 -89t-9.5 -78.5t-2 -59.5zM532 199q38 -15 84 -15q55 0 101 20.5t76.5 52.5t54 76.5t36.5 88t21 91.5t10.5 82t2.5 64q0 48 -15 99z" />
<glyph unicode="&#xf9;" horiz-adv-x="1220" d="M90 279q0 61 14 124l142 662h319l-145 -688q-6 -27 -6 -49q0 -64 39.5 -98.5t107.5 -34.5q84 0 148.5 61.5t87.5 169.5l135 639h319l-225 -1065h-264l-8 113q-147 -144 -342 -144q-154 0 -238 82t-84 228zM434 1475h336l145 -281h-237z" />
<glyph unicode="&#xfa;" horiz-adv-x="1220" d="M90 279q0 61 14 124l142 662h319l-145 -688q-6 -27 -6 -49q0 -64 39.5 -98.5t107.5 -34.5q84 0 148.5 61.5t87.5 169.5l135 639h319l-225 -1065h-264l-8 113q-147 -144 -342 -144q-154 0 -238 82t-84 228zM627 1194l268 281h356l-366 -281h-258z" />
<glyph unicode="&#xfb;" horiz-adv-x="1220" d="M90 279q0 61 14 124l142 662h319l-145 -688q-6 -27 -6 -49q0 -64 39.5 -98.5t107.5 -34.5q84 0 148.5 61.5t87.5 169.5l135 639h319l-225 -1065h-264l-8 113q-147 -144 -342 -144q-154 0 -238 82t-84 228zM360 1225l338 280h287l215 -280h-317l-68 121l-119 -121h-336z " />
<glyph unicode="&#xfc;" horiz-adv-x="1220" d="M90 279q0 61 14 124l142 662h319l-145 -688q-6 -27 -6 -49q0 -64 39.5 -98.5t107.5 -34.5q84 0 148.5 61.5t87.5 169.5l135 639h319l-225 -1065h-264l-8 113q-147 -144 -342 -144q-154 0 -238 82t-84 228zM393 1212l58 263h303l-58 -263h-303zM864 1212l58 263h303 l-58 -263h-303z" />
<glyph unicode="&#xfd;" horiz-adv-x="1169" d="M43 -369l49 224q82 -27 135 -27q107 0 174 172h-90l-157 1065h329l60 -832l430 832h330l-623 -1108q-117 -208 -210 -282t-239 -74q-96 0 -188 30zM592 1194l268 281h357l-367 -281h-258z" />
<glyph unicode="&#xfe;" horiz-adv-x="1302" d="M-49 -369l393 1844h320l-111 -517q159 138 330 138q180 0 289.5 -116.5t109.5 -311.5q0 -85 -17.5 -174t-62.5 -185t-111 -170t-173 -122t-240 -48q-90 0 -173.5 37.5t-131.5 97.5l-103 -473h-319zM440 420q0 -105 55 -161t154 -56q71 0 127 33.5t88 82.5t53 111t28 112 t7 93q0 112 -53 169.5t-145 57.5q-70 0 -127 -34.5t-91 -85t-56.5 -113.5t-31 -115t-8.5 -94z" />
<glyph unicode="&#xff;" horiz-adv-x="1169" d="M43 -369l49 224q82 -27 135 -27q107 0 174 172h-90l-157 1065h329l60 -832l430 832h330l-623 -1108q-117 -208 -210 -282t-239 -74q-96 0 -188 30zM373 1212l57 263h303l-57 -263h-303zM844 1212l57 263h303l-57 -263h-303z" />
<glyph unicode="&#x152;" horiz-adv-x="1931" d="M127 547q0 90 13.5 181t45 186.5t78.5 180.5t117.5 160.5t158.5 130.5t206 87t255 32q126 0 228 -30h862l-55 -252h-611l-75 -361h551l-52 -237h-551l-79 -377h610l-51 -248h-875q-98 -31 -207 -31q-120 0 -221.5 34.5t-180 103t-123 181t-44.5 259.5zM475 555 q0 -174 80.5 -258t200.5 -84q62 0 114 16l217 1018q-62 17 -108 17q-92 0 -170 -34.5t-131.5 -93t-94 -130.5t-63.5 -153.5t-34 -155.5t-11 -142z" />
<glyph unicode="&#x153;" horiz-adv-x="2039" d="M88 424q0 55 7 111.5t26 124.5t49 128t81 117.5t116.5 99t160 66.5t207.5 25q120 0 218.5 -42t166.5 -116q179 158 418 158q221 0 349 -114t128 -335q0 -82 -22 -192h-776q-3 -21 -3 -41q0 -108 56.5 -164.5t154.5 -56.5q141 0 199 116h326q-28 -62 -61.5 -111t-81 -93 t-105 -73t-135.5 -46t-172 -17q-229 0 -373 154q-170 -154 -430 -154q-234 0 -369 120t-135 335zM416 418q0 -116 51.5 -175t140.5 -59q117 0 185 73t108 261q17 90 17 141q0 113 -52.5 167.5t-142.5 54.5q-65 0 -117 -22.5t-84 -62.5t-54.5 -86t-33 -101.5t-14.5 -100 t-4 -90.5zM1255 641h449q6 37 6 70q0 94 -50.5 139t-141.5 45q-183 0 -263 -254z" />
<glyph unicode="&#x178;" horiz-adv-x="1368" d="M231 1475h355l194 -601l477 601h342l-710 -887l-125 -588h-324l125 588zM561 1602l57 262h304l-58 -262h-303zM1032 1602l58 262h303l-58 -262h-303z" />
<glyph unicode="&#x2c6;" horiz-adv-x="962" d="M238 1225l337 280h287l215 -280h-317l-68 121l-119 -121h-335z" />
<glyph unicode="&#x2dc;" horiz-adv-x="737" d="M236 1212l49 226q106 67 196 67q41 0 77 -12t58 -27t53 -27t62 -12q66 0 182 78l-49 -225q-108 -68 -188 -68q-41 0 -77 12t-58 27t-53 27t-62 12q-74 0 -190 -78z" />
<glyph unicode="&#x2000;" horiz-adv-x="947" />
<glyph unicode="&#x2001;" horiz-adv-x="1894" />
<glyph unicode="&#x2002;" horiz-adv-x="947" />
<glyph unicode="&#x2003;" horiz-adv-x="1894" />
<glyph unicode="&#x2004;" horiz-adv-x="631" />
<glyph unicode="&#x2005;" horiz-adv-x="473" />
<glyph unicode="&#x2006;" horiz-adv-x="315" />
<glyph unicode="&#x2007;" horiz-adv-x="315" />
<glyph unicode="&#x2008;" horiz-adv-x="236" />
<glyph unicode="&#x2009;" horiz-adv-x="378" />
<glyph unicode="&#x200a;" horiz-adv-x="105" />
<glyph unicode="&#x2010;" horiz-adv-x="1105" d="M195 535l53 251h778l-53 -251h-778z" />
<glyph unicode="&#x2011;" horiz-adv-x="1105" d="M195 535l53 251h778l-53 -251h-778z" />
<glyph unicode="&#x2012;" horiz-adv-x="1105" d="M195 535l53 251h778l-53 -251h-778z" />
<glyph unicode="&#x2013;" horiz-adv-x="819" d="M31 535l53 251h819l-53 -251h-819z" />
<glyph unicode="&#x2014;" d="M31 535l53 251h1229l-53 -251h-1229z" />
<glyph unicode="&#x2018;" horiz-adv-x="552" d="M158 778l63 301q19 91 60 160.5t88.5 110t111 68.5t116 39.5t114.5 17.5l-35 -160q-83 -18 -140 -72t-75 -143h129l-70 -322h-362z" />
<glyph unicode="&#x2019;" horiz-adv-x="552" d="M156 778l34 160q83 18 139.5 72t76.5 143h-130l70 322h363l-64 -301q-20 -91 -61 -160.5t-88.5 -110t-111 -68.5t-115 -39.5t-113.5 -17.5z" />
<glyph unicode="&#x201a;" horiz-adv-x="552" d="M-86 -375l31 160q178 38 217 215h-129l67 322h363l-64 -302q-14 -65 -39.5 -120t-55.5 -93t-69.5 -68.5t-77 -49.5t-82.5 -32.5t-82 -20.5t-79 -11z" />
<glyph unicode="&#x201c;" horiz-adv-x="1038" d="M193 778l63 301q16 76 46 137t70.5 102t84.5 70t96.5 46.5t96.5 26.5t95 14l-34 -160q-83 -18 -140 -72t-75 -143h129l-70 -322h-362zM643 778l64 301q20 91 60.5 160.5t88 110t111 68.5t115.5 39.5t114 17.5l-35 -160q-83 -18 -140 -72t-75 -143h129l-69 -322h-363z" />
<glyph unicode="&#x201d;" horiz-adv-x="1038" d="M156 778l34 160q83 18 139.5 72t76.5 143h-130l70 322h363l-64 -301q-20 -91 -61 -160.5t-88.5 -110t-111 -68.5t-115 -39.5t-113.5 -17.5zM606 778l35 160q83 18 139 72t76 143h-129l70 322h362l-63 -301q-20 -91 -61 -160.5t-88.5 -110t-111 -68.5t-115.5 -39.5 t-114 -17.5z" />
<glyph unicode="&#x201e;" horiz-adv-x="1003" d="M-86 -375l31 160q178 38 217 215h-129l67 322h363l-64 -302q-14 -65 -39.5 -120t-55.5 -93t-69.5 -68.5t-77 -49.5t-82.5 -32.5t-82 -20.5t-79 -11zM362 -375l33 160q178 38 217 215h-129l68 322h362l-63 -302q-20 -91 -60.5 -160t-88 -110t-110.5 -68.5t-115 -39 t-114 -17.5z" />
<glyph unicode="&#x2022;" horiz-adv-x="686" d="M109 422l98 461h481l-98 -461h-481z" />
<glyph unicode="&#x2026;" horiz-adv-x="1775" d="M-49 0l67 322h363l-68 -322h-362zM543 0l67 322h363l-68 -322h-362zM1135 0l67 322h363l-68 -322h-362z" />
<glyph unicode="&#x202f;" horiz-adv-x="378" />
<glyph unicode="&#x2039;" horiz-adv-x="688" d="M145 645l355 420h239l-280 -426l73 -455h-225z" />
<glyph unicode="&#x203a;" horiz-adv-x="688" d="M70 184l266 455l-100 426h225l188 -420l-340 -461h-239z" />
<glyph unicode="&#x205f;" horiz-adv-x="473" />
<glyph unicode="&#x20ac;" d="M27 475l79 193h62q5 49 18 114h-94l80 193h72q30 79 69.5 147t98 132.5t128 109.5t163 72.5t200.5 27.5q205 0 334 -104t129 -266v-21h-311q0 70 -48 111t-124 41q-185 0 -295 -250h401l-80 -193h-385q-7 -35 -20 -114h356l-80 -193h-291q1 -143 56.5 -203.5t154.5 -60.5 q151 0 213 143h312q-64 -176 -207.5 -280.5t-349.5 -104.5q-60 0 -122.5 14.5t-130 52t-120 93t-89.5 145t-44 201.5h-135z" />
<glyph unicode="&#x2122;" horiz-adv-x="1720" d="M201 1278v197h1013l154 -512l133 512h348v-811h-231v491l-152 -491h-202l-154 491v-491h-227v614h-197v-614h-240v614h-245z" />
<glyph unicode="&#x25fc;" horiz-adv-x="1064" d="M0 0v1065h1065v-1065h-1065z" />
<glyph unicode="&#xfb01;" horiz-adv-x="1282" d="M111 0l178 844h-162l47 221h162l16 78q41 193 151 277.5t308 84.5q98 0 205 -14.5t155 -30.5l-47 -225q-47 15 -122.5 26t-127.5 11q-105 0 -147.5 -31t-56.5 -106l-15 -70h658l-226 -1065h-319l178 844h-338l-178 -844h-319z" />
<glyph unicode="&#xfb02;" horiz-adv-x="1304" d="M111 0l182 862h-162l47 221h162l14 60q47 192 153 277t290 85q165 0 309 -32l317 20l-315 -1493h-320l265 1247q-102 25 -187 25q-96 0 -139.5 -34t-56.5 -103l-11 -52h203l-47 -221h-203l-182 -862h-319z" />
<glyph unicode="&#xfb03;" horiz-adv-x="1941" d="M111 0l178 844h-162l47 221h162l16 78q38 182 135.5 262t278.5 80q249 0 416 -74q133 94 329 94q184 0 320 -37l-47 -225q-114 29 -240 29q-110 0 -155 -33t-60 -104l-14 -70h657l-225 -1065h-320l179 844h-338l-178 -844h-320l178 844h-340l-178 -844h-319zM655 1065 h340l13 57q14 65 28 101q-107 28 -209 28q-83 0 -113 -24t-44 -92z" />
<glyph unicode="&#xfb04;" horiz-adv-x="1964" d="M111 0l178 844h-162l47 221h162l16 78q40 188 142.5 265t277.5 77q228 0 391 -68q55 45 131 66.5t195 21.5q152 0 278 -24l316 12l-316 -1493h-319l266 1255q-97 17 -196 17q-82 0 -127 -29.5t-58 -93.5l-18 -84h223l-47 -221h-223l-178 -844h-320l178 844h-340 l-178 -844h-319zM655 1065h340l17 78q5 26 22 82q-117 26 -198 26q-84 0 -118 -25t-48 -91z" />
</font>
</defs>
</svg>
