<?xml version="1.0" standalone="no"?>
<!DOCTYPE svg PUBLIC "-//W3C//DTD SVG 1.1//EN" "http://www.w3.org/Graphics/SVG/1.1/DTD/svg11.dtd" >
<svg xmlns="http://www.w3.org/2000/svg" xmlns:xlink="http://www.w3.org/1999/xlink" version="1.1">
<metadata></metadata>
<defs>
<font id="ciscosansextralight" horiz-adv-x="1228" >
<font-face units-per-em="2048" ascent="1618" descent="-430" />
<missing-glyph horiz-adv-x="614" />
<glyph horiz-adv-x="0" />
<glyph horiz-adv-x="0" />
<glyph horiz-adv-x="682" />
<glyph unicode="&#xd;" horiz-adv-x="614" />
<glyph unicode=" "  horiz-adv-x="614" />
<glyph unicode="&#x09;" horiz-adv-x="614" />
<glyph unicode="&#xa0;" horiz-adv-x="614" />
<glyph unicode="!" horiz-adv-x="532" d="M193 0v164h147v-164h-147zM199 1475h127l-13 -1012h-102z" />
<glyph unicode="&#x22;" d="M215 1317v188h119v-188l-19 -313h-77zM500 1317v188h118v-188l-18 -313h-78z" />
<glyph unicode="#" d="M90 399v93h180l39 450h-178v92h186l35 400h105l-37 -400h442l35 400h102l-34 -400h172v-92h-181l-38 -450h178v-93h-187l-35 -399h-102l33 399h-440l-33 -399h-105l35 399h-172zM373 492h442l37 450h-440z" />
<glyph unicode="$" d="M72 379h121q29 -147 144.5 -225t287.5 -78q194 0 303.5 82t109.5 217q0 64 -20 110t-71.5 88.5t-143.5 77t-234 68.5q-235 55 -335.5 144t-100.5 237q0 150 115 250t321 112v238h105v-238q191 -12 320 -108t161 -254h-119q-29 125 -138.5 195.5t-274.5 70.5 q-180 0 -275.5 -72.5t-95.5 -185.5q0 -77 30 -126t117 -91t250 -80q275 -64 390.5 -166.5t115.5 -263.5q0 -164 -128 -278t-353 -126v-253h-105v256q-197 11 -330.5 114t-166.5 285z" />
<glyph unicode="%" horiz-adv-x="1697" d="M106 1118q0 165 96 255.5t238 90.5t239 -90.5t97 -255.5t-97 -255.5t-239 -90.5t-238 90.5t-96 255.5zM205 1118q0 -130 67 -196t168 -66t169.5 66t68.5 196t-68 196t-170 66q-101 0 -168 -66t-67 -196zM449 0l684 1434h108l-682 -1434h-110zM922 315q0 165 96 256 t237 91q142 0 239 -91t97 -256t-97 -255.5t-239 -90.5t-237.5 90.5t-95.5 255.5zM1020 315q0 -130 67 -196t168 -66t169.5 66t68.5 196t-68 196.5t-170 66.5q-101 0 -168 -66.5t-67 -196.5z" />
<glyph unicode="&#x26;" horiz-adv-x="1288" d="M72 330q0 72 21 132t65 110.5t98 91.5t133 88q-52 53 -82.5 85.5t-66 76t-54 77t-31 73.5t-12.5 79q0 61 24 118t69 102.5t117 73t161 27.5q90 0 163.5 -27t119 -72t70 -100.5t24.5 -115.5q0 -115 -93 -221t-251 -195l418 -411q101 158 127 366l100 -12 q-26 -234 -154 -426l217 -213l-79 -68l-201 201q-176 -201 -438 -201q-218 0 -341.5 98.5t-123.5 262.5zM186 340q0 -129 95.5 -203t263.5 -74q207 0 358 175l-446 446q-89 -52 -144.5 -98t-91 -109t-35.5 -137zM250 1143q0 -73 49 -143.5t178 -200.5q153 89 231 173.5 t78 174.5q0 41 -15.5 79.5t-46 72.5t-84.5 54.5t-124 20.5q-131 0 -198.5 -67.5t-67.5 -163.5z" />
<glyph unicode="'" horiz-adv-x="552" d="M217 1317v188h119v-188l-19 -313h-79z" />
<glyph unicode="(" horiz-adv-x="696" d="M168 655q0 159 29 312.5t79.5 280t106 226.5t119.5 185h96q-70 -107 -122.5 -208.5t-99 -226.5t-71 -269t-24.5 -300t24.5 -300t71 -268.5t99 -226t122.5 -208.5h-96q-64 85 -119.5 185t-106 226t-79.5 279.5t-29 312.5z" />
<glyph unicode=")" horiz-adv-x="696" d="M96 -348q70 108 122.5 208.5t100 225.5t72.5 269t25 300t-25 300t-72.5 269t-100 226.5t-122.5 208.5h99q64 -85 119 -185t105 -226.5t78.5 -280t28.5 -312.5t-28.5 -312.5t-78.5 -279.5t-105 -226t-119 -185h-99z" />
<glyph unicode="*" horiz-adv-x="962" d="M104 1194l33 98l312 -123l-23 336h106l-22 -338l313 125l33 -98l-328 -84l215 -260l-84 -64l-180 283l-178 -283l-84 64l215 260z" />
<glyph unicode="+" d="M199 608v101h360v366h109v-366h362v-101h-362v-364h-109v364h-360z" />
<glyph unicode="," horiz-adv-x="571" d="M152 -213q60 22 88 71.5t28 141.5h-55v162h152v-150q0 -128 -57.5 -201t-155.5 -96v72z" />
<glyph unicode="-" horiz-adv-x="1105" d="M199 608v101h708v-101h-708z" />
<glyph unicode="." horiz-adv-x="583" d="M217 0v164h150v-164h-150z" />
<glyph unicode="/" horiz-adv-x="733" d="M86 -184l453 1689h106l-452 -1689h-107z" />
<glyph unicode="0" d="M123 717q0 191 37 336.5t104 234t155 132.5t195 44q85 0 158 -27t135 -85.5t105 -145t67.5 -211t24.5 -278.5q0 -153 -24.5 -277.5t-68 -211.5t-105 -145.5t-134.5 -86t-158 -27.5q-107 0 -195 44.5t-155 133.5t-104 234.5t-37 335.5zM238 717q0 -327 97.5 -490.5 t278.5 -163.5t279 163.5t98 490.5t-98 490t-279 163t-278.5 -163t-97.5 -490z" />
<glyph unicode="1" d="M311 1126v117l334 191h109v-1434h-111v1315z" />
<glyph unicode="2" d="M143 1087q28 173 155.5 275t315.5 102q122 0 220.5 -46.5t156.5 -136.5t58 -208q0 -93 -32.5 -174.5t-93 -158.5t-173.5 -191l-443 -447h740v-102h-887v102l532 541q132 134 189 226.5t57 201.5q0 135 -89 216t-239 81q-142 0 -236.5 -77t-111.5 -204h-119z" />
<glyph unicode="3" d="M104 326h117q26 -125 125 -192.5t248 -67.5q167 0 269 88t102 237q0 153 -93.5 235.5t-242.5 82.5h-148v98h140q136 0 219.5 76.5t83.5 203.5q0 132 -93 207.5t-239 75.5q-145 0 -238 -67.5t-118 -190.5h-115q29 164 156.5 258t320.5 94q189 0 312.5 -98t123.5 -268 q0 -129 -69.5 -215.5t-198.5 -120.5q135 -20 223 -117.5t88 -251.5q0 -194 -133 -309t-350 -115q-197 0 -328 95t-162 262z" />
<glyph unicode="4" d="M135 270v111l649 1053h119v-1067h221v-97h-221v-270h-110v270h-658zM250 367h543v890z" />
<glyph unicode="5" d="M115 334h116q27 -129 126 -200t239 -71q162 0 270.5 108.5t108.5 287.5q0 177 -100.5 277t-266.5 100q-121 0 -211.5 -49.5t-140.5 -118.5h-92l29 766h821v-97h-717l-23 -544q143 135 353 135q203 0 333 -126t130 -347q0 -213 -140.5 -349.5t-357.5 -136.5 q-184 0 -315 100.5t-162 264.5z" />
<glyph unicode="6" d="M135 653q0 188 29 332.5t76.5 233.5t115.5 145.5t139 78t154 21.5q143 0 254 -76.5t144 -205.5h-119q-28 89 -101.5 138.5t-179.5 49.5q-390 0 -403 -676q52 107 156.5 172.5t232.5 65.5q200 0 326 -129.5t126 -347.5q0 -113 -37 -206t-101 -153.5t-147 -93.5t-177 -33 q-105 0 -188 34t-138.5 94.5t-92.5 147t-53 187.5t-16 221zM262 475q0 -55 11.5 -110t39.5 -109.5t68.5 -96t103.5 -67.5t140 -26q69 0 132 26t111 73t76.5 120t28.5 161q0 184 -97 288t-258 104q-152 0 -254 -100t-102 -263z" />
<glyph unicode="7" d="M145 1333v101h908v-101l-643 -1333h-123l649 1333h-791z" />
<glyph unicode="8" d="M109 362q0 292 333 394q-54 18 -100.5 45.5t-89.5 68t-67.5 99t-24.5 129.5q0 119 65.5 204t166 123.5t222.5 38.5q73 0 139 -13t124 -41t100.5 -69t67 -101t24.5 -132q0 -243 -301 -346q68 -21 125.5 -51.5t111 -76t84.5 -113t31 -148.5q0 -176 -138.5 -290t-367.5 -114 q-227 0 -366 112.5t-139 280.5zM223 371q0 -137 109 -222.5t282 -85.5q171 0 281.5 84.5t110.5 223.5q0 68 -26 123.5t-65 91t-97 63.5t-110 43t-116 27q-61 -15 -109 -32t-98.5 -46t-84.5 -65t-55.5 -88.5t-21.5 -116.5zM268 1104q0 -62 22.5 -112.5t56.5 -82t84 -55.5 t93.5 -36t96.5 -21q72 18 126 40t105 57.5t78.5 88.5t27.5 121q0 67 -28.5 120t-77 85t-109.5 48.5t-129 16.5q-66 0 -126 -16t-110 -47.5t-80 -85t-30 -121.5z" />
<glyph unicode="9" d="M135 979q0 215 132 350t325 135q131 0 228 -51t154 -144.5t84 -215t27 -273.5q0 -180 -26 -320t-71.5 -231.5t-111 -150.5t-140.5 -84t-165 -25q-147 0 -260 78t-145 207h117q26 -90 104.5 -140.5t185.5 -50.5q72 0 130 21.5t108.5 70.5t85.5 126t56 193t24 265 q-52 -107 -156 -172t-233 -65q-94 0 -175.5 31.5t-143.5 90t-98 150t-36 205.5zM248 987q0 -189 99.5 -290t254.5 -101q152 0 254 99.5t102 262.5q0 55 -11.5 109.5t-39 109.5t-68 97t-103.5 68t-140 26q-149 0 -248.5 -106t-99.5 -275z" />
<glyph unicode=":" horiz-adv-x="583" d="M217 0v164h150v-164h-150zM217 901v164h150v-164h-150z" />
<glyph unicode=";" horiz-adv-x="583" d="M152 -213q60 22 88 71.5t28 141.5h-51v162h148v-150q0 -128 -57.5 -201t-155.5 -96v72zM217 901v164h148v-164h-148z" />
<glyph unicode="&#x3c;" d="M199 610v101l831 407v-117l-713 -337v-7l713 -338v-116z" />
<glyph unicode="=" d="M199 395v101h831v-101h-831zM199 821v101h831v-101h-831z" />
<glyph unicode="&#x3e;" d="M199 203v116l712 338v7l-712 337v117l831 -407v-101z" />
<glyph unicode="?" horiz-adv-x="1064" d="M111 1149q28 160 148 258t304 98t302 -98t118 -240q0 -89 -51 -177t-178 -212l-90 -88q-48 -52 -63 -111.5t-15 -164.5h-111q0 119 13.5 185t49.5 118.5t115 120.5q119 103 166 172.5t47 156.5q0 101 -85 171.5t-222 70.5q-131 0 -219.5 -71t-110.5 -189h-118zM457 0v162 h149v-162h-149z" />
<glyph unicode="@" horiz-adv-x="1890" d="M117 649q0 180 52.5 328t138 244t198 162t228 94t233.5 28q177 0 327.5 -52.5t255 -144t163.5 -220t59 -277.5q0 -269 -107.5 -435.5t-273.5 -166.5q-97 0 -155.5 62.5t-61.5 150.5q-29 -69 -119 -135t-207 -66q-63 0 -121 23.5t-105 68.5t-75.5 117t-28.5 162 q0 248 122.5 397.5t315.5 149.5q77 0 149.5 -42.5t100.5 -117.5l37 145h82l-76 -581q-4 -62 -4 -70q0 -85 38.5 -130.5t105.5 -45.5q119 0 197.5 136t78.5 376q0 176 -85.5 312.5t-244.5 213t-368 76.5q-101 0 -201 -24.5t-199.5 -82t-174.5 -142.5t-122 -217.5t-47 -295.5 q0 -140 41 -259t112 -203.5t167 -144.5t206.5 -89t229.5 -29q169 0 317 51l15 -92q-149 -55 -338 -55q-132 0 -256 32.5t-233 100t-190.5 163.5t-129 231t-47.5 294zM625 625q0 -155 66 -234.5t177 -79.5q143 0 227.5 127.5t84.5 366.5q0 122 -61 184t-158 62 q-138 0 -237 -115t-99 -311z" />
<glyph unicode="A" horiz-adv-x="1353" d="M14 0l592 1475h144l589 -1475h-127l-165 418h-746l-166 -418h-121zM340 514h670l-332 850z" />
<glyph unicode="B" horiz-adv-x="1306" d="M168 0v1475h506q225 0 347 -97.5t122 -267.5q0 -116 -72.5 -207.5t-193.5 -120.5q139 -21 232 -123.5t93 -248.5q0 -193 -133 -301.5t-387 -108.5h-514zM283 98h415q185 0 284 81t99 231q0 146 -99.5 232.5t-272.5 86.5h-426v-631zM283 823h419q155 0 240.5 80t85.5 205 q0 128 -89.5 200t-250.5 72h-405v-557z" />
<glyph unicode="C" horiz-adv-x="1472" d="M106 725q0 185 51 334.5t141 246t211 148t263 51.5q242 0 407 -128t197 -347h-114q-35 182 -165 278.5t-325 96.5q-117 0 -216.5 -44.5t-173.5 -129t-115.5 -214.5t-41.5 -292q0 -151 41.5 -275t115 -207t174 -128t218.5 -45q199 0 331 112.5t155 306.5h114 q-12 -108 -59.5 -202.5t-123.5 -165t-184.5 -111.5t-234.5 -41q-300 0 -483 205.5t-183 550.5z" />
<glyph unicode="D" horiz-adv-x="1400" d="M168 0v1475h416q211 0 369.5 -83.5t249.5 -251.5t91 -403q0 -172 -54 -312t-149.5 -232.5t-226.5 -142.5t-286 -50h-410zM283 98h309q129 0 236.5 42t185.5 121t121 201t43 275q0 155 -44 277.5t-123 201.5t-186.5 120.5t-236.5 41.5h-305v-1280z" />
<glyph unicode="E" horiz-adv-x="1157" d="M168 0v1475h872v-101h-757v-575h698v-99h-698v-600h757v-100h-872z" />
<glyph unicode="F" horiz-adv-x="1132" d="M168 0v1475h858v-101h-743v-616h667v-99h-667v-659h-115z" />
<glyph unicode="G" horiz-adv-x="1497" d="M106 735q0 184 51 332t140.5 243t208.5 145t258 50q233 0 389 -116t197 -318h-115q-41 163 -163.5 248.5t-307.5 85.5q-109 0 -205 -41.5t-172 -122t-120 -211t-44 -295.5q0 -160 45 -289t121.5 -210.5t174.5 -124.5t208 -43q128 0 235.5 53.5t171.5 151t64 216.5v187 h-477v96h580v-772h-84l-17 242q-66 -129 -193 -201t-288 -72q-137 0 -255.5 50t-209 144t-142 241.5t-51.5 330.5z" />
<glyph unicode="H" horiz-adv-x="1402" d="M168 0v1475h115v-672h835v672h117v-1475h-117v700h-835v-700h-115z" />
<glyph unicode="I" horiz-adv-x="450" d="M168 0v1475h115v-1475h-115z" />
<glyph unicode="J" horiz-adv-x="1073" d="M66 391h114q7 -156 91.5 -238.5t224.5 -82.5q142 0 222.5 89t80.5 253v1063h116v-1063q0 -204 -113 -323.5t-310 -119.5q-191 0 -304.5 116t-121.5 306z" />
<glyph unicode="K" horiz-adv-x="1220" d="M168 0v1475h115v-687l710 687h142l-736 -711l797 -764h-156l-757 725v-725h-115z" />
<glyph unicode="L" horiz-adv-x="1122" d="M168 0v1475h117v-1369h751v-106h-868z" />
<glyph unicode="M" horiz-adv-x="1724" d="M168 0v1475h170l543 -1352l512 1352h163v-1475h-110v1315l-506 -1315h-123l-536 1325v-1325h-113z" />
<glyph unicode="N" horiz-adv-x="1458" d="M168 0v1475h141l877 -1319v1319h104v-1475h-135l-879 1327v-1327h-108z" />
<glyph unicode="O" horiz-adv-x="1542" d="M106 735q0 181 52 328.5t142.5 243t211.5 147t260 51.5t259 -51t210.5 -146t142.5 -242.5t52 -330.5q0 -182 -51.5 -329t-142 -241.5t-211 -145t-261.5 -50.5t-262 51.5t-210.5 147.5t-140.5 242t-51 325zM225 735q0 -163 43 -292t118.5 -209.5t173 -123t210.5 -42.5 q114 0 212 41.5t173.5 121.5t118.5 209.5t43 294.5q0 160 -41.5 288.5t-115 211.5t-173 127.5t-217.5 44.5q-117 0 -216.5 -44.5t-172.5 -127.5t-114.5 -211.5t-41.5 -288.5z" />
<glyph unicode="P" horiz-adv-x="1282" d="M168 0v1475h496q249 0 385.5 -121.5t136.5 -341.5q0 -207 -144.5 -327t-384.5 -120h-374v-565h-115zM283 666h376q193 0 299.5 91.5t106.5 254.5q0 171 -104.5 267.5t-292.5 96.5h-385v-710z" />
<glyph unicode="Q" horiz-adv-x="1542" d="M106 735q0 181 52 328.5t142.5 243t211.5 147t260 51.5t259 -51t210.5 -146t142.5 -242.5t52 -330.5q0 -205 -64 -361.5t-180 -254.5l229 -285l-98 -67l-215 292q-145 -90 -338 -90q-141 0 -262 51.5t-210.5 147.5t-140.5 242t-51 325zM225 735q0 -163 43 -292 t118.5 -209.5t173 -123t210.5 -42.5q114 0 212 41.5t173.5 121.5t118.5 209.5t43 294.5q0 160 -41.5 288.5t-115 211.5t-173 127.5t-217.5 44.5q-117 0 -216.5 -44.5t-172.5 -127.5t-114.5 -211.5t-41.5 -288.5z" />
<glyph unicode="R" horiz-adv-x="1288" d="M168 0v1475h504q248 0 382 -116.5t134 -326.5q0 -154 -96.5 -259.5t-253.5 -147.5l415 -625h-139l-395 606h-436v-606h-115zM283 705h389q183 0 289 90t106 237q0 166 -99.5 255t-291.5 89h-393v-671z" />
<glyph unicode="S" horiz-adv-x="1323" d="M86 377h121q29 -149 150.5 -228t304.5 -79q207 0 320.5 83.5t113.5 223.5q0 94 -39.5 155t-147 111t-305.5 94q-246 54 -350 150.5t-104 255.5q0 163 132 262.5t375 99.5q145 0 262.5 -43.5t194 -127t98.5 -197.5h-118q-28 127 -142.5 198.5t-292.5 71.5 q-194 0 -293.5 -70.5t-99.5 -187.5q0 -83 33 -137.5t125 -99.5t260 -83q290 -66 409 -169.5t119 -278.5q0 -179 -146 -295.5t-404 -116.5q-232 0 -386.5 107.5t-189.5 300.5z" />
<glyph unicode="T" horiz-adv-x="1177" d="M35 1372v103h1108v-103h-498v-1372h-115v1372h-495z" />
<glyph unicode="U" horiz-adv-x="1437" d="M158 483v992h112v-998q0 -181 126 -295t323 -114t322.5 114.5t125.5 294.5v998h113v-992q0 -222 -153 -368t-408 -146q-130 0 -237 40t-177.5 109.5t-108.5 163t-38 201.5z" />
<glyph unicode="V" horiz-adv-x="1284" d="M14 1475h121q336 -918 506 -1375q96 256 272 727t242 648h113q-239 -646 -549 -1475h-156z" />
<glyph unicode="W" horiz-adv-x="1953" d="M25 1475h118l371 -1358l391 1358h158l383 -1354l373 1354h110l-407 -1475h-152l-389 1364l-393 -1364h-156z" />
<glyph unicode="X" horiz-adv-x="1255" d="M35 0l526 764l-487 711h137l424 -623l438 623h129l-504 -711l523 -764h-140l-452 674l-461 -674h-133z" />
<glyph unicode="Y" horiz-adv-x="1275" d="M14 1475h125l496 -791q137 211 506 791h119l-566 -897v-578h-116v580z" />
<glyph unicode="Z" horiz-adv-x="1308" d="M96 0v102l981 1270h-934v103h1069v-99l-979 -1276h959v-100h-1096z" />
<glyph unicode="[" horiz-adv-x="538" d="M88 -348v2007h373v-94h-264v-1819h264v-94h-373z" />
<glyph unicode="\" horiz-adv-x="681" d="M61 1505h105l452 -1689h-104q-228 844 -453 1689z" />
<glyph unicode="]" horiz-adv-x="538" d="M76 -254h266v1819h-266v94h373v-2007h-373v94z" />
<glyph unicode="^" horiz-adv-x="1024" d="M96 819l359 656h112l361 -656h-117l-299 555l-299 -555h-117z" />
<glyph unicode="_" horiz-adv-x="1234" d="M61 -127h1110v-100h-1110v100z" />
<glyph unicode="`" horiz-adv-x="485" d="M61 1505h152l211 -280h-102z" />
<glyph unicode="a" horiz-adv-x="1083" d="M96 270q0 140 95.5 223t314.5 119l319 54v92q0 116 -77 182t-213 66q-126 0 -204 -60t-89 -158h-115q12 138 125 223t289 85q180 0 287.5 -94.5t107.5 -256.5v-745h-90l-17 176q-55 -92 -149 -149.5t-227 -57.5q-158 0 -257.5 81t-99.5 220zM211 279q0 -105 73 -160.5 t197 -55.5q86 0 164.5 39.5t129 113t50.5 163.5v199l-286 -50q-183 -31 -255.5 -90t-72.5 -159z" />
<glyph unicode="b" horiz-adv-x="1187" d="M158 0v1475h110v-609q54 105 150.5 167.5t224.5 62.5q205 0 327 -141.5t122 -409.5q0 -274 -128 -425t-329 -151q-128 0 -222.5 61t-146.5 165l-18 -195h-90zM260 532q0 -227 98 -348t260 -121q161 0 260 123.5t99 360.5q0 226 -96.5 340t-259.5 114q-56 0 -107 -16 t-98 -52t-81 -89t-54.5 -133t-20.5 -179z" />
<glyph unicode="c" horiz-adv-x="1105" d="M96 524q0 138 37 248t101.5 180t150.5 107t186 37q171 0 289 -88.5t144 -237.5h-121q-20 106 -103.5 170t-204.5 64q-162 0 -263 -124t-101 -360q0 -224 102.5 -340.5t259.5 -116.5q124 0 212 68.5t108 181.5h117q-25 -152 -145 -248t-296 -96q-206 0 -339.5 146.5 t-133.5 408.5z" />
<glyph unicode="d" horiz-adv-x="1187" d="M96 522q0 277 128.5 425.5t328.5 148.5q125 0 220.5 -59.5t146.5 -159.5v598h110v-1475h-90l-18 203q-53 -107 -149.5 -170.5t-225.5 -63.5q-94 0 -174.5 35t-143 102.5t-98 174t-35.5 241.5zM211 522q0 -224 99.5 -341.5t258.5 -117.5q71 0 134 27.5t115 82t82 147 t30 212.5q0 226 -100 347.5t-261 121.5q-158 0 -258 -122t-100 -357z" />
<glyph unicode="e" horiz-adv-x="1169" d="M96 532q0 134 37.5 241.5t103 177.5t154 107.5t191.5 37.5q104 0 190.5 -35.5t152 -106.5t102 -185.5t36.5 -262.5h-854q4 -111 36 -196.5t85.5 -139t123 -80.5t150.5 -27q120 0 206.5 61t117.5 167h116q-39 -148 -156.5 -235t-285.5 -87q-224 0 -365 148.5t-141 414.5z M211 598h737q-10 198 -110.5 303t-255.5 105q-151 0 -253.5 -107t-117.5 -301z" />
<glyph unicode="f" horiz-adv-x="614" d="M55 971v94h158v180q0 122 68.5 191t183.5 69q83 0 160 -24v-95q-95 25 -158 25q-68 0 -105.5 -41.5t-37.5 -120.5v-184h249v-94h-249v-971h-111v971h-158z" />
<glyph unicode="g" horiz-adv-x="1187" d="M96 559q0 167 61.5 290.5t164 185t231.5 61.5q126 0 222.5 -58t148.5 -159l16 186h90v-1059q0 -178 -120 -291.5t-326 -113.5q-183 0 -298 78.5t-143 222.5h117q20 -105 105 -158t215 -53q160 0 250 86t90 233v232q-53 -95 -148 -150t-223 -55q-91 0 -172 34.5t-144 98.5 t-100 164.5t-37 224.5zM211 559q0 -202 101 -315t257 -113q74 0 137 24t114.5 73t80.5 134.5t29 198.5q0 216 -100 328t-261 112q-158 0 -258 -112.5t-100 -329.5z" />
<glyph unicode="h" horiz-adv-x="1132" d="M158 0v1475h110v-586q52 98 145.5 152.5t202.5 54.5q170 0 269.5 -99.5t99.5 -271.5v-725h-111v721q0 133 -74 206.5t-208 73.5q-82 0 -155 -40.5t-121 -121t-48 -182.5v-657h-110z" />
<glyph unicode="i" horiz-adv-x="425" d="M147 1323v152h134v-152h-134zM158 0v1065h110v-1065h-110z" />
<glyph unicode="j" horiz-adv-x="425" d="M-106 -283q72 -20 129 -20q69 0 102 38t33 128v1202h110v-1208q0 -123 -59.5 -189.5t-169.5 -66.5q-75 0 -145 22v94zM145 1323v152h134v-152h-134z" />
<glyph unicode="k" horiz-adv-x="999" d="M158 0v1475h110v-844l510 434h150l-547 -465l614 -600h-149l-578 563v-563h-110z" />
<glyph unicode="l" horiz-adv-x="425" d="M158 0v1475h110v-1475h-110z" />
<glyph unicode="m" horiz-adv-x="1746" d="M158 0v1065h92l12 -166q52 98 140 147.5t188 49.5q120 0 201.5 -54t115.5 -157q51 106 146 158.5t202 52.5q161 0 252.5 -96t91.5 -269v-731h-110v725q0 276 -256 276q-130 0 -214.5 -98.5t-84.5 -243.5v-659h-111v725q0 276 -252 276q-130 0 -216.5 -98t-86.5 -241v-662 h-110z" />
<glyph unicode="n" horiz-adv-x="1132" d="M158 0v1065h92l12 -182q54 102 148.5 157.5t205.5 55.5q170 0 269.5 -99.5t99.5 -271.5v-725h-111v721q0 133 -74 206.5t-208 73.5q-127 0 -225.5 -94.5t-98.5 -244.5v-662h-110z" />
<glyph unicode="o" horiz-adv-x="1173" d="M96 532q0 137 38 245.5t105 177.5t155.5 105t193.5 36q107 0 196 -36t154.5 -105.5t102 -177.5t36.5 -245q0 -270 -134.5 -416.5t-352.5 -146.5q-105 0 -195 37t-156.5 106.5t-104.5 177.5t-38 242zM211 532q0 -227 105 -350t272 -123q170 0 272.5 122.5t102.5 350.5 q0 229 -103 351.5t-272 122.5t-273 -123t-104 -351z" />
<glyph unicode="p" horiz-adv-x="1187" d="M158 -369v1434h90l18 -199q52 104 149.5 167t227.5 63q203 0 326 -142t123 -409q0 -138 -35.5 -248.5t-98 -181.5t-146 -108.5t-181.5 -37.5q-125 0 -218.5 59.5t-144.5 161.5v-559h-110zM260 532q0 -226 97.5 -347.5t256.5 -121.5q162 0 262.5 124t100.5 360 q0 226 -97.5 340t-258.5 114q-56 0 -107 -16t-98 -52t-81 -89t-54.5 -133t-20.5 -179z" />
<glyph unicode="q" horiz-adv-x="1187" d="M96 522q0 277 128.5 425.5t328.5 148.5q126 0 222 -60t149 -162l16 191h90v-1434h-110v568q-53 -105 -149.5 -167.5t-223.5 -62.5q-94 0 -174.5 35t-143 102.5t-98 174t-35.5 241.5zM211 522q0 -224 99.5 -341.5t258.5 -117.5q71 0 134 27.5t115 82t82 147t30 212.5 q0 226 -100 347.5t-261 121.5q-158 0 -258 -122t-100 -357z" />
<glyph unicode="r" horiz-adv-x="698" d="M158 0v1065h90l16 -205q42 118 119 177t180 59q58 0 111 -17v-108q-67 18 -117 18q-122 0 -205.5 -110.5t-83.5 -296.5v-582h-110z" />
<glyph unicode="s" horiz-adv-x="1017" d="M76 283h114q12 -102 96.5 -163t219.5 -61q141 0 221 65t80 157q0 100 -80 151t-268 84q-346 59 -346 297q0 125 100 204t287 79q166 0 279 -80t136 -215h-114q-14 90 -97.5 147.5t-207.5 57.5q-133 0 -202 -52t-69 -131q0 -89 64.5 -137t232.5 -80q210 -39 305 -111.5 t95 -207.5q0 -133 -114 -225.5t-304 -92.5q-183 0 -296 86t-132 228z" />
<glyph unicode="t" horiz-adv-x="618" d="M45 969v96h154l6 256h104v-256h248v-96h-248v-756q0 -75 37 -112.5t103 -37.5q62 0 129 17v-90q-74 -21 -136 -21q-116 0 -179.5 63.5t-63.5 182.5v754h-154z" />
<glyph unicode="u" horiz-adv-x="1122" d="M147 344v721h111v-721q0 -138 74 -209.5t205 -71.5q138 0 227.5 100t89.5 249v653h111v-1065h-91l-14 170q-55 -99 -149 -150t-199 -51q-164 0 -264.5 96.5t-100.5 278.5z" />
<glyph unicode="v" horiz-adv-x="1017" d="M35 1065h121l354 -971l358 971h115l-399 -1065h-150z" />
<glyph unicode="w" horiz-adv-x="1574" d="M45 1065h113l284 -952l283 952h139l293 -948l264 948h109l-307 -1065h-133l-299 952l-283 -952h-137z" />
<glyph unicode="x" horiz-adv-x="1046" d="M35 0l414 559l-394 506h138l325 -424l303 424h129l-368 -502l430 -563h-135l-363 479l-348 -479h-131z" />
<glyph unicode="y" horiz-adv-x="1017" d="M35 1065h119l381 -979l337 979h111l-375 -1073q-26 -73 -41 -114t-35 -89.5t-35.5 -73.5t-36 -51t-41.5 -37t-48 -18.5t-60 -7.5q-48 0 -110 20v90q53 -18 104 -18q23 0 40.5 5.5t34.5 24t28.5 36t28.5 60.5t29 77t36 104h-43z" />
<glyph unicode="z" horiz-adv-x="980" d="M76 0v106l706 865h-676v94h799v-111l-702 -860h702v-94h-829z" />
<glyph unicode="{" horiz-adv-x="696" d="M104 604v105q86 0 139.5 52.5t53.5 147.5v455q0 146 71.5 220.5t233.5 74.5v-92q-115 0 -155.5 -46.5t-40.5 -146.5v-452q0 -107 -50 -175.5t-135 -89.5q85 -21 135 -89t50 -177v-450q0 -100 40.5 -146.5t155.5 -46.5v-92q-162 0 -233.5 74.5t-71.5 220.5v455 q0 95 -53.5 146.5t-139.5 51.5z" />
<glyph unicode="|" horiz-adv-x="708" d="M303 -287v1895h103v-1895h-103z" />
<glyph unicode="}" horiz-adv-x="696" d="M92 -252q115 0 157 47t42 146v450q0 110 49 177.5t135 88.5q-85 21 -134.5 89t-49.5 176v452q0 99 -42 146t-157 47v92q163 0 235 -74t72 -221v-455q0 -95 53.5 -147.5t139.5 -52.5v-105q-86 0 -139.5 -51.5t-53.5 -146.5v-455q0 -147 -72 -221t-235 -74v92z" />
<glyph unicode="~" d="M199 580v114q101 82 223 82q56 0 112 -18.5t93.5 -41t87.5 -41t96 -18.5q61 0 111.5 25t107.5 74v-115q-101 -82 -225 -82q-56 0 -112 18.5t-93.5 41t-87 41t-94.5 18.5q-61 0 -112 -25t-107 -73z" />
<glyph unicode="&#xa1;" horiz-adv-x="532" d="M193 942v164h147v-164h-147zM199 -369l12 1012h102l13 -1012h-127z" />
<glyph unicode="&#xa2;" d="M156 524q0 251 114 398t299 170v260h105v-260q153 -9 257.5 -96.5t129.5 -225.5h-119q-20 107 -103.5 170.5t-205.5 63.5q-160 0 -261.5 -124t-101.5 -360q0 -114 29 -203t79 -143.5t115 -82.5t140 -28q124 0 211 68.5t106 181.5h119q-25 -142 -131 -235t-264 -105v-249 h-105v249q-185 21 -299 164t-114 387z" />
<glyph unicode="&#xa3;" d="M143 0v100q148 55 148 222v348h-92v94h92v309q0 187 106.5 289t280.5 102q146 0 251 -81t136 -218h-111q-22 93 -96 149t-182 56q-132 0 -204.5 -78.5t-72.5 -220.5v-307h439v-94h-439v-234q0 -57 -2.5 -94.5t-12 -88t-33 -89t-60.5 -64.5h782v-100h-930z" />
<glyph unicode="&#xa4;" d="M106 270l134 136q-95 120 -95 290q0 162 93 287l-132 131l76 76l129 -129q62 54 142.5 82t158.5 28t159 -29t144 -83l132 131l75 -76l-133 -133q90 -126 90 -285q0 -166 -92 -290l135 -136l-75 -75l-136 133q-62 -52 -142 -79.5t-157 -27.5q-76 0 -155.5 27t-143.5 78 l-131 -131zM252 696q0 -166 105 -272.5t257 -106.5q149 0 254 107t105 272t-105 272t-254 107q-152 0 -257 -106.5t-105 -272.5z" />
<glyph unicode="&#xa5;" d="M25 1434h127l462 -750l476 750h116l-479 -764h252v-92h-307v-193h307v-90h-307v-295h-115v295h-301v90h301v193h-301v92h250z" />
<glyph unicode="&#xa6;" horiz-adv-x="708" d="M303 -285v789h103v-789h-103zM303 819v789h103v-789h-103z" />
<glyph unicode="&#xa7;" d="M193 655q0 105 65.5 178t185.5 107q-176 89 -176 242q0 124 97.5 203t265.5 79q139 0 241 -68t132 -175h-119q-22 69 -91 112t-165 43q-118 0 -185 -53.5t-67 -132.5q0 -84 62.5 -134.5t201.5 -90.5q220 -66 307.5 -144.5t87.5 -197.5q0 -105 -67 -178.5t-187 -108.5 q181 -91 181 -240q0 -128 -100 -204t-261 -76q-143 0 -248 69t-137 174h123q19 -65 91.5 -110t172.5 -45q115 0 182.5 53t67.5 133q0 83 -63 133t-201 92q-221 66 -309 145t-88 195zM299 664q0 -93 69 -147.5t257 -115.5q38 -9 67 -22q238 66 238 233q0 96 -74 153.5 t-283 119.5q-40 13 -41 14q-112 -31 -172.5 -87t-60.5 -148z" />
<glyph unicode="&#xa8;" horiz-adv-x="770" d="M104 1331v144h129v-144h-129zM524 1331v144h129v-144h-129z" />
<glyph unicode="&#xa9;" horiz-adv-x="1751" d="M121 739q0 155 43 284.5t116 217t170.5 148.5t204 88.5t219.5 27.5t219.5 -27.5t204 -88.5t170.5 -148.5t116.5 -217t43.5 -284.5q0 -156 -43.5 -286t-116 -218.5t-170.5 -149.5t-204.5 -88.5t-219.5 -27.5t-219.5 27.5t-204 88.5t-170.5 149.5t-116 218.5t-43 286z M219 739q0 -138 36.5 -252.5t99.5 -193.5t147 -134t178 -80.5t194 -25.5q101 0 195 25.5t179 80.5t147.5 134t99.5 193.5t37 252.5q0 170 -56 304t-150 214.5t-209.5 122t-242.5 41.5q-100 0 -194 -25t-178 -79.5t-147 -133t-99.5 -193t-36.5 -251.5zM508 737 q0 109 30.5 194.5t83 137.5t117.5 78.5t138 26.5q131 0 221 -67.5t112 -184.5h-102q-15 79 -76.5 124.5t-152.5 45.5q-118 0 -195.5 -90.5t-77.5 -264.5q0 -88 23 -155.5t62 -106.5t86 -58.5t100 -19.5q96 0 159.5 51.5t79.5 131.5h98q-21 -116 -112 -190.5t-228 -74.5 q-71 0 -135 25.5t-116.5 75t-83.5 132.5t-31 189z" />
<glyph unicode="&#xaa;" horiz-adv-x="937" d="M131 0v100h674v-100h-674zM145 858q0 36 8.5 67t21 54.5t36.5 44t45 35t57 27.5t62 20.5t71 16.5t72.5 13.5t77.5 12.5t76 12v74q0 90 -51.5 139t-153.5 49q-81 0 -134.5 -40.5t-66.5 -100.5h-96q14 95 98.5 158t204.5 63q134 0 215.5 -71t81.5 -195v-610h-74l-18 125 q-35 -63 -102.5 -103.5t-159.5 -40.5q-114 0 -192.5 65.5t-78.5 184.5zM248 862q0 -81 50.5 -125.5t139.5 -44.5q94 0 164 69.5t70 158.5v157l-191 -30q-112 -19 -172.5 -61.5t-60.5 -123.5z" />
<glyph unicode="&#xab;" horiz-adv-x="970" d="M129 645l248 420h84l-201 -424l180 -457h-84zM510 645l248 420h84l-201 -424l180 -457h-84z" />
<glyph unicode="&#xac;" d="M199 608v101h831v-465h-108v364h-723z" />
<glyph unicode="&#xad;" horiz-adv-x="1105" d="M184 608v101h738v-101h-738z" />
<glyph unicode="&#xae;" horiz-adv-x="1275" d="M150 1010q0 123 44.5 219.5t117 153t155.5 85.5t170 29q69 0 136.5 -17.5t131 -56t112 -94t78 -138t29.5 -181.5t-29.5 -182t-78 -139t-112 -95t-131 -56.5t-136.5 -17.5q-68 0 -135.5 17.5t-131.5 56.5t-112.5 95t-78 139t-29.5 182zM229 1010q0 -102 35 -184 t93.5 -132.5t130 -77t149.5 -26.5q79 0 151 26.5t130.5 77t93.5 132.5t35 184t-35 184t-93.5 132.5t-130.5 77t-151 26.5q-78 0 -149.5 -26.5t-130 -77t-93.5 -132.5t-35 -184zM483 750v526h158q81 0 132.5 -39t51.5 -115q0 -114 -108 -151l131 -221h-80l-119 206h-96v-206 h-70zM553 1014h92q51 0 80 32t29 76q0 43 -28.5 71t-86.5 28h-86v-207z" />
<glyph unicode="&#xaf;" horiz-adv-x="618" d="M61 1337v97h496v-97h-496z" />
<glyph unicode="&#xb0;" d="M143 1130q0 153 95.5 240.5t230.5 87.5q134 0 230 -88t96 -240t-96 -239.5t-230 -87.5q-135 0 -230.5 87t-95.5 240zM246 1130q0 -111 62.5 -176t160.5 -65t159.5 64.5t61.5 176.5t-62 177t-159 65q-98 0 -160.5 -65t-62.5 -177z" />
<glyph unicode="&#xb1;" d="M199 0v100h831v-100h-831zM199 608v101h360v366h109v-366h362v-101h-362v-325h-109v325h-360z" />
<glyph unicode="&#xb2;" horiz-adv-x="831" d="M94 1278q17 114 104 181t218 67q132 0 214.5 -68t82.5 -184q0 -86 -48 -159.5t-169 -190.5l-258 -226h469v-96h-598v96l323 301q95 93 133.5 151t38.5 122q0 77 -48 120.5t-142 43.5q-90 0 -145 -42t-66 -116h-109z" />
<glyph unicode="&#xb3;" horiz-adv-x="866" d="M94 819h107q36 -147 221 -147q104 0 160.5 48.5t56.5 129.5q0 93 -55 138.5t-148 45.5h-88v86h88q78 0 127 42.5t49 119.5q0 76 -50.5 115t-141.5 39q-174 0 -207 -140h-104q18 106 101 168t216 62q132 0 213.5 -61t81.5 -175q0 -76 -48 -131t-134 -78q93 -14 151 -74.5 t58 -158.5q0 -120 -87 -192t-239 -72q-138 0 -225.5 63.5t-102.5 171.5z" />
<glyph unicode="&#xb4;" horiz-adv-x="485" d="M61 1225l211 280h152l-260 -280h-103z" />
<glyph unicode="&#xb5;" horiz-adv-x="1132" d="M158 -369v1434h110v-721q0 -143 77 -213t202 -70q137 0 227 100t90 247v657h111v-1065h-92l-13 166q-54 -98 -148 -147.5t-196 -49.5q-171 0 -258 103v-441h-110z" />
<glyph unicode="&#xb6;" horiz-adv-x="1157" d="M139 1135q0 73 23 133t58.5 97.5t79.5 63t83 36t72 10.5h102v-1844h-102v1166q-33 0 -72 10t-83 35t-79 62t-58.5 97t-23.5 134zM850 -369v1844h102v-1844h-102z" />
<glyph unicode="&#xb7;" horiz-adv-x="583" d="M217 573v164h150v-164h-150z" />
<glyph unicode="&#xb8;" horiz-adv-x="552" d="M29 -315h92q6 -47 42.5 -74t96.5 -27q63 0 101 34.5t38 88.5q0 127 -221 127l17 199h79v-133q106 -13 162 -63.5t56 -127.5q0 -86 -66.5 -144.5t-165.5 -58.5t-159 46t-72 133z" />
<glyph unicode="&#xb9;" horiz-adv-x="485" d="M41 1286v103l223 116h103v-903h-109v797z" />
<glyph unicode="&#xba;" horiz-adv-x="858" d="M84 1057q0 227 95 337.5t251 110.5t249 -109t93 -339q0 -117 -26.5 -205t-73.5 -140t-107 -77t-133 -25q-154 0 -251 110.5t-97 336.5zM90 0v100h655v-100h-655zM186 1057q0 -188 68.5 -276.5t175.5 -88.5q106 0 173 88t67 277t-67 277.5t-173 88.5t-175 -89.5 t-69 -276.5z" />
<glyph unicode="&#xbb;" horiz-adv-x="970" d="M129 1065h86l246 -420l-225 -461h-86l180 457zM510 1065h84l248 -420l-228 -461h-84l181 457z" />
<glyph unicode="&#xbc;" horiz-adv-x="1681" d="M102 1286v103l224 116h102v-903h-109v797zM315 -184l846 1802h105l-846 -1802h-105zM913 170v100l416 633h109v-645h141v-88h-141v-170h-97v170h-428zM1006 258h335v500z" />
<glyph unicode="&#xbd;" horiz-adv-x="1798" d="M102 1286v103l224 116h102v-903h-109v797zM315 -184l846 1802h105l-846 -1802h-105zM1077 676q17 114 104 181t218 67q132 0 214.5 -68t82.5 -184q0 -86 -48 -159.5t-169 -190.5l-258 -226h469v-96h-598v96l323 301q95 93 133.5 151t38.5 122q0 77 -48 120.5t-142 43.5 q-90 0 -145 -42t-66 -116h-109z" />
<glyph unicode="&#xbe;" horiz-adv-x="1884" d="M102 819h107q36 -147 221 -147q104 0 160.5 48.5t56.5 129.5q0 93 -55 138.5t-148 45.5h-88v86h88q78 0 127.5 42.5t49.5 119.5q0 76 -51 115t-142 39q-174 0 -207 -140h-104q18 106 101 168t216 62q132 0 213.5 -61t81.5 -175q0 -76 -48 -131t-134 -78q93 -14 151 -74.5 t58 -158.5q0 -120 -87 -192t-239 -72q-138 0 -225.5 63.5t-102.5 171.5zM518 -184l846 1802h104l-845 -1802h-105zM1116 170v100l416 633h108v-645h142v-88h-142v-170h-96v170h-428zM1208 258h336v500z" />
<glyph unicode="&#xbf;" horiz-adv-x="1064" d="M82 -61q0 93 48.5 178t178.5 209l90 86q49 46 62.5 102t15.5 176h111q0 -118 -14 -185t-50 -119.5t-114 -119.5q-120 -103 -166.5 -171.5t-46.5 -155.5q0 -101 85 -171.5t222 -70.5q131 0 219.5 71t110.5 189h118q-28 -161 -147.5 -258.5t-304.5 -97.5q-184 0 -301 98 t-117 240zM459 942v164h147v-164h-147z" />
<glyph unicode="&#xc0;" horiz-adv-x="1353" d="M14 0l592 1475h144l589 -1475h-127l-165 418h-746l-166 -418h-121zM340 514h670l-332 850zM426 1853h152l210 -280h-102z" />
<glyph unicode="&#xc1;" horiz-adv-x="1353" d="M14 0l592 1475h144l589 -1475h-127l-165 418h-746l-166 -418h-121zM340 514h670l-332 850zM553 1573l211 280h151l-260 -280h-102z" />
<glyph unicode="&#xc2;" horiz-adv-x="1353" d="M14 0l592 1475h144l589 -1475h-127l-165 418h-746l-166 -418h-121zM340 514h670l-332 850zM391 1573l223 280h127l222 -280h-109l-178 213l-174 -213h-111z" />
<glyph unicode="&#xc3;" horiz-adv-x="1353" d="M14 0l592 1475h144l589 -1475h-127l-165 418h-746l-166 -418h-121zM340 514h670l-332 850zM403 1630v103q85 61 160 61q50 0 88 -17.5t70.5 -35t69.5 -17.5q67 0 155 70v-100q-45 -34 -80.5 -49t-79.5 -15q-49 0 -85.5 17.5t-69 35t-70.5 17.5q-70 0 -158 -70z" />
<glyph unicode="&#xc4;" horiz-adv-x="1353" d="M14 0l592 1475h144l589 -1475h-127l-165 418h-746l-166 -418h-121zM340 514h670l-332 850zM401 1679v144h129v-144h-129zM821 1679v144h129v-144h-129z" />
<glyph unicode="&#xc5;" horiz-adv-x="1353" d="M14 0l574 1430q-74 22 -117 82t-43 143q0 104 67.5 170.5t178.5 66.5q109 0 177.5 -66.5t68.5 -170.5q0 -79 -41.5 -138.5t-112.5 -84.5l573 -1432h-127l-165 418h-746l-166 -418h-121zM340 514h670l-332 850zM516 1655q0 -78 43.5 -122t114.5 -44q69 0 113 44t44 122 q0 76 -44 120t-113 44q-70 0 -114 -43.5t-44 -120.5z" />
<glyph unicode="&#xc6;" horiz-adv-x="1914" d="M0 0l897 1475h901v-101h-717v-575h658v-99h-658v-602h717v-98h-831v416h-592l-252 -416h-123zM436 514h531v870z" />
<glyph unicode="&#xc7;" horiz-adv-x="1472" d="M106 725q0 185 51 334.5t141 246t211 148t263 51.5q242 0 407 -128t197 -347h-114q-35 182 -165 278.5t-325 96.5q-117 0 -216.5 -44.5t-173.5 -129t-115.5 -214.5t-41.5 -292q0 -151 41.5 -275t115 -207t174 -128t218.5 -45q199 0 331 112.5t155 306.5h114 q-24 -213 -175 -359t-384 -159v-71q105 -13 161 -63.5t56 -127.5q0 -87 -66.5 -145t-168.5 -58q-97 0 -163 46.5t-79 132.5h94q6 -46 47 -73.5t103 -27.5q63 0 102 34.5t39 88.5q0 127 -223 127l12 137q-283 15 -453 217.5t-170 536.5z" />
<glyph unicode="&#xc8;" horiz-adv-x="1157" d="M168 0v1475h872v-101h-757v-575h698v-99h-698v-600h757v-100h-872zM381 1853h151l211 -280h-102z" />
<glyph unicode="&#xc9;" horiz-adv-x="1157" d="M168 0v1475h872v-101h-757v-575h698v-99h-698v-600h757v-100h-872zM471 1573l211 280h152l-261 -280h-102z" />
<glyph unicode="&#xca;" horiz-adv-x="1157" d="M168 0v1475h872v-101h-757v-575h698v-99h-698v-600h757v-100h-872zM319 1573l224 280h127l221 -280h-109l-178 213l-174 -213h-111z" />
<glyph unicode="&#xcb;" horiz-adv-x="1157" d="M168 0v1475h872v-101h-757v-575h698v-99h-698v-600h757v-100h-872zM317 1679v144h129v-144h-129zM737 1679v144h129v-144h-129z" />
<glyph unicode="&#xcc;" horiz-adv-x="450" d="M-20 1853h151l211 -280h-102zM168 0v1475h115v-1475h-115z" />
<glyph unicode="&#xcd;" horiz-adv-x="450" d="M109 1573l210 280h152l-260 -280h-102zM168 0v1475h115v-1475h-115z" />
<glyph unicode="&#xce;" horiz-adv-x="450" d="M-59 1573l223 280h127l221 -280h-109l-178 213l-174 -213h-110zM168 0v1475h115v-1475h-115z" />
<glyph unicode="&#xcf;" horiz-adv-x="450" d="M-49 1679v144h129v-144h-129zM168 0v1475h115v-1475h-115zM371 1679v144h129v-144h-129z" />
<glyph unicode="&#xd0;" horiz-adv-x="1400" d="M51 723v100h117v652h416q211 0 369.5 -83.5t249.5 -251.5t91 -403q0 -172 -54 -312.5t-150 -232.5t-227 -142t-285 -50h-410v723h-117zM283 98h307q129 0 236.5 42t185.5 121t121 201t43 275q0 154 -43.5 276.5t-122.5 201t-186.5 120t-237.5 41.5h-303v-553h467v-100 h-467v-625z" />
<glyph unicode="&#xd1;" horiz-adv-x="1458" d="M168 0v1475h141l877 -1319v1319h104v-1475h-135l-879 1327v-1327h-108zM479 1630v103q85 61 160 61q50 0 87.5 -17.5t70 -35t69.5 -17.5q68 0 156 70v-100q-45 -34 -80.5 -49t-79.5 -15q-49 0 -85.5 17.5t-69 35t-70.5 17.5q-70 0 -158 -70z" />
<glyph unicode="&#xd2;" horiz-adv-x="1542" d="M106 735q0 181 52 328.5t142.5 243t211.5 147t260 51.5t259 -51t210.5 -146t142.5 -242.5t52 -330.5q0 -182 -51.5 -329t-142 -241.5t-211 -145t-261.5 -50.5t-262 51.5t-210.5 147.5t-140.5 242t-51 325zM225 735q0 -163 43 -292t118.5 -209.5t173 -123t210.5 -42.5 q114 0 212 41.5t173.5 121.5t118.5 209.5t43 294.5q0 160 -41.5 288.5t-115 211.5t-173 127.5t-217.5 44.5q-117 0 -216.5 -44.5t-172.5 -127.5t-114.5 -211.5t-41.5 -288.5zM506 1853h151l211 -280h-102z" />
<glyph unicode="&#xd3;" horiz-adv-x="1542" d="M106 735q0 181 52 328.5t142.5 243t211.5 147t260 51.5t259 -51t210.5 -146t142.5 -242.5t52 -330.5q0 -182 -51.5 -329t-142 -241.5t-211 -145t-261.5 -50.5t-262 51.5t-210.5 147.5t-140.5 242t-51 325zM225 735q0 -163 43 -292t118.5 -209.5t173 -123t210.5 -42.5 q114 0 212 41.5t173.5 121.5t118.5 209.5t43 294.5q0 160 -41.5 288.5t-115 211.5t-173 127.5t-217.5 44.5q-117 0 -216.5 -44.5t-172.5 -127.5t-114.5 -211.5t-41.5 -288.5zM659 1573l211 280h152l-260 -280h-103z" />
<glyph unicode="&#xd4;" horiz-adv-x="1542" d="M106 735q0 181 52 328.5t142.5 243t211.5 147t260 51.5t259 -51t210.5 -146t142.5 -242.5t52 -330.5q0 -182 -51.5 -329t-142 -241.5t-211 -145t-261.5 -50.5t-262 51.5t-210.5 147.5t-140.5 242t-51 325zM225 735q0 -163 43 -292t118.5 -209.5t173 -123t210.5 -42.5 q114 0 212 41.5t173.5 121.5t118.5 209.5t43 294.5q0 160 -41.5 288.5t-115 211.5t-173 127.5t-217.5 44.5q-117 0 -216.5 -44.5t-172.5 -127.5t-114.5 -211.5t-41.5 -288.5zM479 1573l223 280h127l222 -280h-109l-178 213l-174 -213h-111z" />
<glyph unicode="&#xd5;" horiz-adv-x="1542" d="M106 735q0 181 52 328.5t142.5 243t211.5 147t260 51.5t259 -51t210.5 -146t142.5 -242.5t52 -330.5q0 -182 -51.5 -329t-142 -241.5t-211 -145t-261.5 -50.5t-262 51.5t-210.5 147.5t-140.5 242t-51 325zM225 735q0 -163 43 -292t118.5 -209.5t173 -123t210.5 -42.5 q114 0 212 41.5t173.5 121.5t118.5 209.5t43 294.5q0 160 -41.5 288.5t-115 211.5t-173 127.5t-217.5 44.5q-117 0 -216.5 -44.5t-172.5 -127.5t-114.5 -211.5t-41.5 -288.5zM498 1630v103q85 61 159 61q50 0 88 -17.5t70.5 -35t69.5 -17.5q67 0 155 70v-100 q-45 -34 -80 -49t-79 -15q-49 0 -86 17.5t-69.5 35t-70.5 17.5q-69 0 -157 -70z" />
<glyph unicode="&#xd6;" horiz-adv-x="1542" d="M106 735q0 181 52 328.5t142.5 243t211.5 147t260 51.5t259 -51t210.5 -146t142.5 -242.5t52 -330.5q0 -182 -51.5 -329t-142 -241.5t-211 -145t-261.5 -50.5t-262 51.5t-210.5 147.5t-140.5 242t-51 325zM225 735q0 -163 43 -292t118.5 -209.5t173 -123t210.5 -42.5 q114 0 212 41.5t173.5 121.5t118.5 209.5t43 294.5q0 160 -41.5 288.5t-115 211.5t-173 127.5t-217.5 44.5q-117 0 -216.5 -44.5t-172.5 -127.5t-114.5 -211.5t-41.5 -288.5zM487 1679v144h129v-144h-129zM907 1679v144h129v-144h-129z" />
<glyph unicode="&#xd7;" d="M283 401l258 258l-258 256l71 72l258 -258l260 258l72 -69l-260 -259l260 -258l-72 -71l-260 258l-258 -258z" />
<glyph unicode="&#xd8;" horiz-adv-x="1542" d="M106 735q0 150 35.5 277t98 216.5t146.5 153t181 93.5t203 30q117 0 221 -37l78 211h105l-91 -249q161 -86 257 -263.5t96 -431.5q0 -151 -35.5 -278t-97.5 -216t-146.5 -151t-182 -91.5t-204.5 -29.5q-108 0 -215 35l-82 -229h-104l96 266q-166 86 -262.5 261.5 t-96.5 432.5zM225 735q0 -220 74.5 -371.5t204.5 -226.5l452 1237q-94 33 -186 33q-117 0 -216.5 -44.5t-172.5 -127.5t-114.5 -211.5t-41.5 -288.5zM588 98q89 -30 182 -30q114 0 212 41.5t173.5 121.5t118.5 209.5t43 294.5q0 217 -72.5 369.5t-202.5 228.5z" />
<glyph unicode="&#xd9;" horiz-adv-x="1437" d="M158 483v992h112v-998q0 -181 126 -295t323 -114t322.5 114.5t125.5 294.5v998h113v-992q0 -222 -153 -368t-408 -146q-130 0 -237 40t-177.5 109.5t-108.5 163t-38 201.5zM483 1853h152l211 -280h-103z" />
<glyph unicode="&#xda;" horiz-adv-x="1437" d="M158 483v992h112v-998q0 -181 126 -295t323 -114t322.5 114.5t125.5 294.5v998h113v-992q0 -222 -153 -368t-408 -146q-130 0 -237 40t-177.5 109.5t-108.5 163t-38 201.5zM592 1573l211 280h151l-260 -280h-102z" />
<glyph unicode="&#xdb;" horiz-adv-x="1437" d="M158 483v992h112v-998q0 -181 126 -295t323 -114t322.5 114.5t125.5 294.5v998h113v-992q0 -222 -153 -368t-408 -146q-130 0 -237 40t-177.5 109.5t-108.5 163t-38 201.5zM432 1573l223 280h127l222 -280h-109l-178 213l-174 -213h-111z" />
<glyph unicode="&#xdc;" horiz-adv-x="1437" d="M158 483v992h112v-998q0 -181 126 -295t323 -114t322.5 114.5t125.5 294.5v998h113v-992q0 -222 -153 -368t-408 -146q-130 0 -237 40t-177.5 109.5t-108.5 163t-38 201.5zM442 1679v144h129v-144h-129zM862 1679v144h129v-144h-129z" />
<glyph unicode="&#xdd;" horiz-adv-x="1275" d="M14 1475h125l496 -791q137 211 506 791h119l-566 -897v-578h-116v580zM528 1573l211 280h152l-260 -280h-103z" />
<glyph unicode="&#xde;" horiz-adv-x="1273" d="M168 0v1475h115v-263h376q247 0 387 -122.5t140 -344.5q0 -211 -147 -332.5t-382 -121.5h-374v-291h-115zM283 391h376q190 0 298 94t108 260q0 174 -104 271.5t-295 97.5h-383v-723z" />
<glyph unicode="&#xdf;" horiz-adv-x="1150" d="M158 0v1108q0 184 95.5 290.5t274.5 106.5q98 0 177 -31t129.5 -100.5t50.5 -167.5q0 -57 -22 -105.5t-53.5 -82t-63.5 -63.5t-54 -62t-22 -64q0 -53 34 -92.5t127 -87.5q141 -72 203 -156t62 -190q0 -138 -98 -236t-259 -98q-140 0 -231 62.5t-125 167.5h123 q25 -66 86 -102t151 -36q105 0 171.5 64.5t66.5 169.5q0 90 -46 151t-159 121q-124 66 -167.5 119.5t-43.5 140.5q0 44 21.5 83t52.5 69t62.5 60.5t53 71.5t21.5 89q0 99 -68.5 155t-179.5 56q-116 0 -188 -72.5t-72 -226.5v-1112h-110z" />
<glyph unicode="&#xe0;" horiz-adv-x="1083" d="M96 270q0 140 95.5 223t314.5 119l319 54v92q0 116 -77 182t-213 66q-126 0 -204 -60t-89 -158h-115q12 138 125 223t289 85q180 0 287.5 -94.5t107.5 -256.5v-745h-90l-17 176q-55 -92 -149 -149.5t-227 -57.5q-158 0 -257.5 81t-99.5 220zM211 279q0 -105 73 -160.5 t197 -55.5q86 0 164.5 39.5t129 113t50.5 163.5v199l-286 -50q-183 -31 -255.5 -90t-72.5 -159zM264 1505h152l211 -280h-103z" />
<glyph unicode="&#xe1;" horiz-adv-x="1083" d="M96 270q0 140 95.5 223t314.5 119l319 54v92q0 116 -77 182t-213 66q-126 0 -204 -60t-89 -158h-115q12 138 125 223t289 85q180 0 287.5 -94.5t107.5 -256.5v-745h-90l-17 176q-55 -92 -149 -149.5t-227 -57.5q-158 0 -257.5 81t-99.5 220zM211 279q0 -105 73 -160.5 t197 -55.5q86 0 164.5 39.5t129 113t50.5 163.5v199l-286 -50q-183 -31 -255.5 -90t-72.5 -159zM461 1225l211 280h151l-260 -280h-102z" />
<glyph unicode="&#xe2;" horiz-adv-x="1083" d="M96 270q0 140 95.5 223t314.5 119l319 54v92q0 116 -77 182t-213 66q-126 0 -204 -60t-89 -158h-115q12 138 125 223t289 85q180 0 287.5 -94.5t107.5 -256.5v-745h-90l-17 176q-55 -92 -149 -149.5t-227 -57.5q-158 0 -257.5 81t-99.5 220zM211 279q0 -105 73 -160.5 t197 -55.5q86 0 164.5 39.5t129 113t50.5 163.5v199l-286 -50q-183 -31 -255.5 -90t-72.5 -159zM258 1225l223 280h127l221 -280h-108l-178 213l-174 -213h-111z" />
<glyph unicode="&#xe3;" horiz-adv-x="1083" d="M96 270q0 140 95.5 223t314.5 119l319 54v92q0 116 -77 182t-213 66q-126 0 -204 -60t-89 -158h-115q12 138 125 223t289 85q180 0 287.5 -94.5t107.5 -256.5v-745h-90l-17 176q-55 -92 -149 -149.5t-227 -57.5q-158 0 -257.5 81t-99.5 220zM211 279q0 -105 73 -160.5 t197 -55.5q86 0 164.5 39.5t129 113t50.5 163.5v199l-286 -50q-183 -31 -255.5 -90t-72.5 -159zM268 1282v102q86 62 160 62q50 0 87.5 -17.5t70 -35t69.5 -17.5q68 0 156 70v-100q-45 -34 -80.5 -49t-79.5 -15q-49 0 -85.5 17.5t-69 35t-70.5 17.5q-70 0 -158 -70z" />
<glyph unicode="&#xe4;" horiz-adv-x="1083" d="M96 270q0 140 95.5 223t314.5 119l319 54v92q0 116 -77 182t-213 66q-126 0 -204 -60t-89 -158h-115q12 138 125 223t289 85q180 0 287.5 -94.5t107.5 -256.5v-745h-90l-17 176q-55 -92 -149 -149.5t-227 -57.5q-158 0 -257.5 81t-99.5 220zM211 279q0 -105 73 -160.5 t197 -55.5q86 0 164.5 39.5t129 113t50.5 163.5v199l-286 -50q-183 -31 -255.5 -90t-72.5 -159zM264 1331v144h129v-144h-129zM684 1331v144h129v-144h-129z" />
<glyph unicode="&#xe5;" horiz-adv-x="1083" d="M96 270q0 140 95.5 223t314.5 119l319 54v92q0 116 -77 182t-213 66q-126 0 -204 -60t-89 -158h-115q12 138 125 223t289 85q180 0 287.5 -94.5t107.5 -256.5v-745h-90l-17 176q-55 -92 -149 -149.5t-227 -57.5q-158 0 -257.5 81t-99.5 220zM211 279q0 -105 73 -160.5 t197 -55.5q86 0 164.5 39.5t129 113t50.5 163.5v199l-286 -50q-183 -31 -255.5 -90t-72.5 -159zM291 1434q0 104 68.5 170.5t177.5 66.5t177 -66.5t68 -170.5t-68 -172t-177 -68t-177.5 68t-68.5 172zM379 1434q0 -77 44 -121.5t114 -44.5q69 0 113 45t44 121t-44 119.5 t-113 43.5q-71 0 -114.5 -43.5t-43.5 -119.5z" />
<glyph unicode="&#xe6;" horiz-adv-x="1898" d="M96 266q0 62 18.5 110.5t64.5 93t133.5 75t215.5 45.5l297 35v125q0 116 -77 186t-213 70q-120 0 -202.5 -62t-92.5 -162h-115q15 139 128.5 226.5t285.5 87.5q139 0 235.5 -63.5t130.5 -174.5q67 117 176.5 177.5t225.5 60.5q64 0 123 -14t112.5 -42.5t97.5 -74.5 t76.5 -106t51.5 -141t20 -177h-854q14 -245 121.5 -362.5t273.5 -117.5q112 0 202.5 63t121.5 173h119q-39 -151 -160.5 -239.5t-284.5 -88.5q-140 0 -261.5 71.5t-184.5 213.5q-41 -122 -148 -203.5t-274 -81.5q-159 0 -261 78.5t-102 218.5zM211 272q0 -98 72 -154.5 t198 -56.5q82 0 158.5 37t128.5 107t57 157v175l-270 -31q-188 -22 -266 -79.5t-78 -154.5zM940 631h733q-17 173 -115.5 274t-250.5 101q-140 0 -241.5 -98.5t-125.5 -276.5z" />
<glyph unicode="&#xe7;" horiz-adv-x="1105" d="M96 524q0 138 37 248t101.5 180t150.5 107t186 37q171 0 289 -88.5t144 -237.5h-121q-20 106 -103.5 170t-204.5 64q-162 0 -263 -124t-101 -360q0 -224 102.5 -340.5t259.5 -116.5q124 0 212 68.5t108 181.5h117q-25 -144 -135.5 -238.5t-272.5 -103.5v-71 q106 -13 161.5 -63t55.5 -128q0 -87 -66 -145t-165 -58q-101 0 -168 46.5t-80 132.5h94q6 -46 48 -73.5t104 -27.5q64 0 102.5 34t38.5 89q0 127 -223 127l12 139q-188 20 -304 162.5t-116 388.5z" />
<glyph unicode="&#xe8;" horiz-adv-x="1169" d="M96 532q0 134 37.5 241.5t103 177.5t154 107.5t191.5 37.5q104 0 190.5 -35.5t152 -106.5t102 -185.5t36.5 -262.5h-854q4 -111 36 -196.5t85.5 -139t123 -80.5t150.5 -27q120 0 206.5 61t117.5 167h116q-39 -148 -156.5 -235t-285.5 -87q-224 0 -365 148.5t-141 414.5z M211 598h737q-10 198 -110.5 303t-255.5 105q-151 0 -253.5 -107t-117.5 -301zM305 1505h152l211 -280h-103z" />
<glyph unicode="&#xe9;" horiz-adv-x="1169" d="M96 532q0 134 37.5 241.5t103 177.5t154 107.5t191.5 37.5q104 0 190.5 -35.5t152 -106.5t102 -185.5t36.5 -262.5h-854q4 -111 36 -196.5t85.5 -139t123 -80.5t150.5 -27q120 0 206.5 61t117.5 167h116q-39 -148 -156.5 -235t-285.5 -87q-224 0 -365 148.5t-141 414.5z M211 598h737q-10 198 -110.5 303t-255.5 105q-151 0 -253.5 -107t-117.5 -301zM502 1225l211 280h151l-260 -280h-102z" />
<glyph unicode="&#xea;" horiz-adv-x="1169" d="M96 532q0 134 37.5 241.5t103 177.5t154 107.5t191.5 37.5q104 0 190.5 -35.5t152 -106.5t102 -185.5t36.5 -262.5h-854q4 -111 36 -196.5t85.5 -139t123 -80.5t150.5 -27q120 0 206.5 61t117.5 167h116q-39 -148 -156.5 -235t-285.5 -87q-224 0 -365 148.5t-141 414.5z M211 598h737q-10 198 -110.5 303t-255.5 105q-151 0 -253.5 -107t-117.5 -301zM291 1225l223 280h127l221 -280h-108l-179 213l-174 -213h-110z" />
<glyph unicode="&#xeb;" horiz-adv-x="1169" d="M96 532q0 134 37.5 241.5t103 177.5t154 107.5t191.5 37.5q104 0 190.5 -35.5t152 -106.5t102 -185.5t36.5 -262.5h-854q4 -111 36 -196.5t85.5 -139t123 -80.5t150.5 -27q120 0 206.5 61t117.5 167h116q-39 -148 -156.5 -235t-285.5 -87q-224 0 -365 148.5t-141 414.5z M211 598h737q-10 198 -110.5 303t-255.5 105q-151 0 -253.5 -107t-117.5 -301zM303 1331v144h129v-144h-129zM723 1331v144h129v-144h-129z" />
<glyph unicode="&#xec;" horiz-adv-x="425" d="M-33 1505h152l211 -280h-103zM158 0v1065h110v-1065h-110z" />
<glyph unicode="&#xed;" horiz-adv-x="425" d="M106 1225l211 280h152l-260 -280h-103zM158 0v1065h110v-1065h-110z" />
<glyph unicode="&#xee;" horiz-adv-x="425" d="M-68 1225l224 280h127l221 -280h-109l-178 213l-174 -213h-111zM158 0v1065h110v-1065h-110z" />
<glyph unicode="&#xef;" horiz-adv-x="425" d="M-57 1331v144h129v-144h-129zM158 0v1065h110v-1065h-110zM362 1331v144h130v-144h-130z" />
<glyph unicode="&#xf0;" horiz-adv-x="1124" d="M96 485q0 216 118 356t316 140q146 0 248 -75.5t137 -184.5q-19 352 -247 528l-105 -110h-125l152 159q-125 73 -305 105l14 98q217 -46 358 -133l101 107h125l-150 -158q293 -227 293 -672q0 -122 -16.5 -223t-53 -186t-92 -143.5t-136 -91t-181.5 -32.5 q-204 0 -327.5 142.5t-123.5 373.5zM209 479q0 -189 93 -301t245 -112q173 0 267.5 117t94.5 304q0 77 -24 148t-68.5 127.5t-115 90.5t-156.5 34q-71 0 -131 -24t-106.5 -72.5t-72.5 -128t-26 -183.5z" />
<glyph unicode="&#xf1;" horiz-adv-x="1132" d="M158 0v1065h92l12 -182q54 102 148.5 157.5t205.5 55.5q170 0 269.5 -99.5t99.5 -271.5v-725h-111v721q0 133 -74 206.5t-208 73.5q-127 0 -225.5 -94.5t-98.5 -244.5v-662h-110zM315 1282v102q86 62 160 62q50 0 87.5 -17.5t70 -35t69.5 -17.5q68 0 156 70v-100 q-45 -34 -80.5 -49t-79.5 -15q-49 0 -85.5 17.5t-69 35t-70.5 17.5q-70 0 -158 -70z" />
<glyph unicode="&#xf2;" horiz-adv-x="1173" d="M96 532q0 137 38 245.5t105 177.5t155.5 105t193.5 36q107 0 196 -36t154.5 -105.5t102 -177.5t36.5 -245q0 -270 -134.5 -416.5t-352.5 -146.5q-105 0 -195 37t-156.5 106.5t-104.5 177.5t-38 242zM211 532q0 -227 105 -350t272 -123q170 0 272.5 122.5t102.5 350.5 q0 229 -103 351.5t-272 122.5t-273 -123t-104 -351zM315 1505h152l211 -280h-103z" />
<glyph unicode="&#xf3;" horiz-adv-x="1173" d="M96 532q0 137 38 245.5t105 177.5t155.5 105t193.5 36q107 0 196 -36t154.5 -105.5t102 -177.5t36.5 -245q0 -270 -134.5 -416.5t-352.5 -146.5q-105 0 -195 37t-156.5 106.5t-104.5 177.5t-38 242zM211 532q0 -227 105 -350t272 -123q170 0 272.5 122.5t102.5 350.5 q0 229 -103 351.5t-272 122.5t-273 -123t-104 -351zM496 1225l211 280h151l-260 -280h-102z" />
<glyph unicode="&#xf4;" horiz-adv-x="1173" d="M96 532q0 137 38 245.5t105 177.5t155.5 105t193.5 36q107 0 196 -36t154.5 -105.5t102 -177.5t36.5 -245q0 -270 -134.5 -416.5t-352.5 -146.5q-105 0 -195 37t-156.5 106.5t-104.5 177.5t-38 242zM211 532q0 -227 105 -350t272 -123q170 0 272.5 122.5t102.5 350.5 q0 229 -103 351.5t-272 122.5t-273 -123t-104 -351zM297 1225l223 280h127l221 -280h-108l-178 213l-174 -213h-111z" />
<glyph unicode="&#xf5;" horiz-adv-x="1173" d="M96 532q0 137 38 245.5t105 177.5t155.5 105t193.5 36q107 0 196 -36t154.5 -105.5t102 -177.5t36.5 -245q0 -270 -134.5 -416.5t-352.5 -146.5q-105 0 -195 37t-156.5 106.5t-104.5 177.5t-38 242zM211 532q0 -227 105 -350t272 -123q170 0 272.5 122.5t102.5 350.5 q0 229 -103 351.5t-272 122.5t-273 -123t-104 -351zM311 1282v102q86 62 160 62q50 0 87.5 -17.5t70 -35t69.5 -17.5q68 0 156 70v-100q-45 -34 -80.5 -49t-79.5 -15q-49 0 -85.5 17.5t-69 35t-70.5 17.5q-70 0 -158 -70z" />
<glyph unicode="&#xf6;" horiz-adv-x="1173" d="M96 532q0 137 38 245.5t105 177.5t155.5 105t193.5 36q107 0 196 -36t154.5 -105.5t102 -177.5t36.5 -245q0 -270 -134.5 -416.5t-352.5 -146.5q-105 0 -195 37t-156.5 106.5t-104.5 177.5t-38 242zM211 532q0 -227 105 -350t272 -123q170 0 272.5 122.5t102.5 350.5 q0 229 -103 351.5t-272 122.5t-273 -123t-104 -351zM311 1331v144h129v-144h-129zM731 1331v144h129v-144h-129z" />
<glyph unicode="&#xf7;" d="M199 608v101h831v-101h-831zM543 131v162h141v-162h-141zM543 1024v164h141v-164h-141z" />
<glyph unicode="&#xf8;" horiz-adv-x="1173" d="M96 532q0 137 38 245.5t105 177.5t155.5 105t193.5 36t184 -33l105 227h106l-123 -270q103 -68 160 -191.5t57 -296.5q0 -270 -134.5 -416.5t-352.5 -146.5q-102 0 -189 35l-102 -229h-106l120 272q-102 70 -159.5 193t-57.5 292zM211 532q0 -271 149 -391l375 834 q-70 31 -147 31q-169 0 -273 -123t-104 -351zM440 90q70 -31 148 -31q170 0 272.5 122.5t102.5 350.5q0 272 -148 394z" />
<glyph unicode="&#xf9;" horiz-adv-x="1122" d="M147 344v721h111v-721q0 -138 74 -209.5t205 -71.5q138 0 227.5 100t89.5 249v653h111v-1065h-91l-14 170q-55 -99 -149 -150t-199 -51q-164 0 -264.5 96.5t-100.5 278.5zM295 1505h151l211 -280h-102z" />
<glyph unicode="&#xfa;" horiz-adv-x="1122" d="M147 344v721h111v-721q0 -138 74 -209.5t205 -71.5q138 0 227.5 100t89.5 249v653h111v-1065h-91l-14 170q-55 -99 -149 -150t-199 -51q-164 0 -264.5 96.5t-100.5 278.5zM459 1225l211 280h151l-260 -280h-102z" />
<glyph unicode="&#xfb;" horiz-adv-x="1122" d="M147 344v721h111v-721q0 -138 74 -209.5t205 -71.5q138 0 227.5 100t89.5 249v653h111v-1065h-91l-14 170q-55 -99 -149 -150t-199 -51q-164 0 -264.5 96.5t-100.5 278.5zM270 1225l224 280h127l221 -280h-109l-178 213l-174 -213h-111z" />
<glyph unicode="&#xfc;" horiz-adv-x="1122" d="M147 344v721h111v-721q0 -138 74 -209.5t205 -71.5q138 0 227.5 100t89.5 249v653h111v-1065h-91l-14 170q-55 -99 -149 -150t-199 -51q-164 0 -264.5 96.5t-100.5 278.5zM281 1331v144h129v-144h-129zM700 1331v144h129v-144h-129z" />
<glyph unicode="&#xfd;" horiz-adv-x="1017" d="M35 1065h119l381 -979l337 979h111l-375 -1073q-26 -73 -41 -114t-35 -89.5t-35.5 -73.5t-36 -51t-41.5 -37t-48 -18.5t-60 -7.5q-48 0 -110 20v90q53 -18 104 -18q23 0 40.5 5.5t34.5 24t28.5 36t28.5 60.5t29 77t36 104h-43zM408 1225l210 280h152l-260 -280h-102z" />
<glyph unicode="&#xfe;" horiz-adv-x="1187" d="M158 -369v1844h110v-609q54 105 150.5 167.5t224.5 62.5q95 0 174.5 -32.5t142 -98t97.5 -173t35 -247.5q0 -139 -35 -250t-97.5 -181.5t-145 -107.5t-179.5 -37q-127 0 -220.5 59t-146.5 162v-559h-110zM260 532q0 -220 95.5 -344.5t262.5 -124.5q75 0 138.5 28.5 t113.5 85.5t78.5 151.5t28.5 218.5q0 119 -28 208t-77.5 142t-112.5 78.5t-138 25.5q-73 0 -136 -27.5t-114.5 -82t-81 -147t-29.5 -212.5z" />
<glyph unicode="&#xff;" horiz-adv-x="1017" d="M35 1065h119l381 -979l337 979h111l-375 -1073q-26 -73 -41 -114t-35 -89.5t-35.5 -73.5t-36 -51t-41.5 -37t-48 -18.5t-60 -7.5q-48 0 -110 20v90q53 -18 104 -18q23 0 40.5 5.5t34.5 24t28.5 36t28.5 60.5t29 77t36 104h-43zM240 1331v144h129v-144h-129zM659 1331v144 h129v-144h-129z" />
<glyph unicode="&#x152;" horiz-adv-x="1937" d="M106 739q0 151 36 278t98.5 216t148 151t183.5 91.5t206 29.5q110 0 215 -30h828v-101h-715v-575h655v-99h-655v-600h715v-100h-832q-109 -25 -219 -25q-136 0 -255 48.5t-211 141t-145 240.5t-53 334zM225 739q0 -162 42 -290.5t116.5 -209.5t172.5 -123t214 -42 q127 0 219 32v1264q-98 37 -211 37q-245 0 -399 -176.5t-154 -491.5z" />
<glyph unicode="&#x153;" horiz-adv-x="2039" d="M96 532q0 116 27 211t73 159.5t109 109t134 64.5t149 20q146 0 260.5 -76t171.5 -221q61 144 176 220.5t246 76.5q78 0 146 -18.5t130 -62.5t106.5 -110.5t71.5 -168.5t29 -230h-854q4 -115 41 -203.5t94.5 -139.5t123 -76.5t136.5 -25.5q112 0 201.5 62.5t120.5 173.5 h119q-41 -157 -160 -242.5t-285 -85.5q-140 0 -260.5 79t-181.5 222q-59 -147 -172 -224t-258 -77q-101 0 -189 34t-157 101t-108.5 177t-39.5 251zM209 532q0 -118 30 -210.5t82.5 -149.5t120 -86t146.5 -29q162 0 268.5 123.5t106.5 351.5q0 119 -29.5 211t-81.5 148.5 t-119 85.5t-145 29q-167 0 -273 -121.5t-106 -352.5zM1073 596h737q-12 201 -110.5 305.5t-255.5 104.5q-70 0 -133 -26t-114 -75t-84 -129t-40 -180z" />
<glyph unicode="&#x178;" horiz-adv-x="1275" d="M14 1475h125l496 -791q137 211 506 791h119l-566 -897v-578h-116v580zM360 1679v144h129v-144h-129zM780 1679v144h129v-144h-129z" />
<glyph unicode="&#x2c6;" horiz-adv-x="690" d="M59 1225l224 280h127l221 -280h-109l-178 213l-174 -213h-111z" />
<glyph unicode="&#x2dc;" horiz-adv-x="665" d="M61 1282v102q86 62 160 62q50 0 88 -17.5t70.5 -35t69.5 -17.5q67 0 155 70v-100q-45 -34 -80.5 -49t-79.5 -15q-49 0 -85.5 17.5t-69 35t-70.5 17.5q-70 0 -158 -70z" />
<glyph unicode="&#x2000;" horiz-adv-x="946" />
<glyph unicode="&#x2001;" horiz-adv-x="1892" />
<glyph unicode="&#x2002;" horiz-adv-x="946" />
<glyph unicode="&#x2003;" horiz-adv-x="1892" />
<glyph unicode="&#x2004;" horiz-adv-x="630" />
<glyph unicode="&#x2005;" horiz-adv-x="473" />
<glyph unicode="&#x2006;" horiz-adv-x="315" />
<glyph unicode="&#x2007;" horiz-adv-x="315" />
<glyph unicode="&#x2008;" horiz-adv-x="236" />
<glyph unicode="&#x2009;" horiz-adv-x="378" />
<glyph unicode="&#x200a;" horiz-adv-x="105" />
<glyph unicode="&#x2010;" horiz-adv-x="1105" d="M199 608v101h708v-101h-708z" />
<glyph unicode="&#x2011;" horiz-adv-x="1105" d="M199 608v101h708v-101h-708z" />
<glyph unicode="&#x2012;" horiz-adv-x="1105" d="M199 608v101h708v-101h-708z" />
<glyph unicode="&#x2013;" horiz-adv-x="856" d="M18 608v101h820v-101h-820z" />
<glyph unicode="&#x2014;" horiz-adv-x="1265" d="M18 608v101h1229v-101h-1229z" />
<glyph unicode="&#x2018;" horiz-adv-x="565" d="M201 1024v150q0 247 215 301v-74q-61 -21 -89 -70t-28 -143h53v-164h-151z" />
<glyph unicode="&#x2019;" horiz-adv-x="565" d="M147 1024v74q61 21 89 70t28 143h-53v164h151v-150q0 -247 -215 -301z" />
<glyph unicode="&#x201a;" horiz-adv-x="565" d="M147 -213q61 22 89 71.5t28 141.5h-53v162h151v-150q0 -128 -58 -201t-157 -96v72z" />
<glyph unicode="&#x201c;" horiz-adv-x="854" d="M207 1024v150q0 247 213 301v-74q-60 -21 -88.5 -70.5t-28.5 -142.5h55v-164h-151zM489 1024v150q0 129 58.5 202.5t157.5 98.5v-74q-61 -21 -89 -70t-28 -143h53v-164h-152z" />
<glyph unicode="&#x201d;" horiz-adv-x="849" d="M147 1024v74q61 21 89 70t28 143h-53v164h151v-150q0 -247 -215 -301zM432 1024v74q60 21 88.5 70.5t28.5 142.5h-55v164h151v-150q0 -247 -213 -301z" />
<glyph unicode="&#x201e;" horiz-adv-x="849" d="M147 -213q61 22 89 71.5t28 141.5h-53v162h151v-150q0 -128 -58 -201t-157 -96v72zM432 -213q60 22 88.5 72t28.5 141h-55v162h151v-150q0 -243 -213 -297v72z" />
<glyph unicode="&#x2022;" horiz-adv-x="606" d="M168 518v266h272v-266h-272z" />
<glyph unicode="&#x2026;" horiz-adv-x="1392" d="M217 0v164h137v-164h-137zM629 0v164h137v-164h-137zM1038 0v164h138v-164h-138z" />
<glyph unicode="&#x202f;" horiz-adv-x="378" />
<glyph unicode="&#x2039;" horiz-adv-x="591" d="M129 645l248 420h84l-201 -424l180 -457h-84z" />
<glyph unicode="&#x203a;" horiz-adv-x="591" d="M129 1065h86l246 -420l-225 -461h-86l180 457z" />
<glyph unicode="&#x205f;" horiz-adv-x="473" />
<glyph unicode="&#x20ac;" d="M35 520l24 94h123q-2 31 -2 103q0 71 2 104h-147l24 94h134q14 117 49 210.5t84 156t112.5 104t133 60t147.5 18.5q193 0 319.5 -94t155.5 -258h-115q-25 122 -120.5 188t-241.5 66q-74 0 -138 -24t-119.5 -75t-94 -140.5t-54.5 -211.5h619l-25 -94h-604q-4 -33 -4 -104 q0 -72 4 -103h547l-25 -94h-510q15 -121 53 -210t94 -141t122 -76.5t145 -24.5q145 0 236 65.5t116 188.5h115q-29 -164 -157.5 -258.5t-319.5 -94.5q-206 0 -346.5 136t-177.5 415h-158z" />
<glyph unicode="&#x2122;" horiz-adv-x="1691" d="M66 1393v82h823l252 -699l243 699h140v-811h-90v712l-250 -712h-90l-260 712v-712h-86v729h-295v-729h-93v729h-294z" />
<glyph unicode="&#x25fc;" horiz-adv-x="1064" d="M0 0v1065h1065v-1065h-1065z" />
<glyph unicode="&#xfb01;" horiz-adv-x="1107" d="M55 969v96h158v156q0 133 80 206.5t235 73.5q114 0 254 -37v-94q-145 37 -243 37q-110 0 -162.5 -43t-52.5 -139v-160h626v-1065h-110v969h-516v-969h-111v969h-158z" />
<glyph unicode="&#xfb02;" horiz-adv-x="1118" d="M55 971v94h158v113q0 155 80 239t266 84q145 0 293 -39l109 13v-1475h-111v1366q-57 18 -139 30.5t-144 12.5q-133 0 -188 -54t-55 -171v-119h237v-94h-237v-971h-111v971h-158z" />
<glyph unicode="&#xfb03;" horiz-adv-x="1740" d="M55 969v96h158v94q0 75 17 132.5t55.5 103t107 70t164.5 24.5q165 0 356 -74q84 90 252 90q128 0 252 -39v-94q-129 39 -241 39q-108 0 -163 -46.5t-55 -135.5v-164h629v-1065h-110v969h-519v-969h-110v969h-524v-969h-111v969h-158zM324 1065h524v158q0 67 20 114 q-147 62 -303 62q-134 0 -187.5 -56.5t-53.5 -177.5v-100z" />
<glyph unicode="&#xfb04;" horiz-adv-x="1755" d="M55 971v94h158v94q0 76 17.5 134t56 104t106.5 70t164 24q175 0 367 -80q84 94 272 94q141 0 293 -41l108 13v-1477h-110v1368q-57 18 -138 30.5t-143 12.5q-135 0 -190 -53.5t-55 -171.5v-121h237v-94h-237v-971h-111v971h-526v-971h-111v971h-158zM324 1065h526v117 q0 91 29 153q-145 64 -314 64q-133 0 -187 -57t-54 -177v-100z" />
</font>
</defs>
</svg>
