<?xml version="1.0" standalone="no"?>
<!DOCTYPE svg PUBLIC "-//W3C//DTD SVG 1.1//EN" "http://www.w3.org/Graphics/SVG/1.1/DTD/svg11.dtd" >
<svg xmlns="http://www.w3.org/2000/svg" xmlns:xlink="http://www.w3.org/1999/xlink" version="1.1">
<metadata></metadata>
<defs>
<font id="ciscosansregular" horiz-adv-x="1228" >
<font-face units-per-em="2048" ascent="1618" descent="-430" />
<missing-glyph horiz-adv-x="614" />
<glyph horiz-adv-x="0" />
<glyph horiz-adv-x="0" />
<glyph horiz-adv-x="682" />
<glyph unicode="&#xd;" horiz-adv-x="614" />
<glyph unicode=" "  horiz-adv-x="614" />
<glyph unicode="&#x09;" horiz-adv-x="614" />
<glyph unicode="&#xa0;" horiz-adv-x="614" />
<glyph unicode="!" horiz-adv-x="583" d="M174 0v238h236v-238h-236zM174 1475h236l-41 -983h-154z" />
<glyph unicode="&#x22;" d="M164 1317v188h205v-188l-31 -313h-143zM492 1317v188h204v-188l-30 -313h-144z" />
<glyph unicode="#" d="M41 369v153h168l33 389h-160v154h174l33 369h172l-33 -369h432l33 369h172l-33 -369h156v-154h-170l-33 -389h162v-153h-176l-31 -369h-172l31 369h-432l-31 -369h-172l31 369h-154zM381 522h432l33 389h-432z" />
<glyph unicode="$" d="M51 399h215q40 -258 357 -258q168 0 257 69t89 179q0 53 -16 89t-63.5 72t-134.5 68t-227 68q-230 60 -328 158t-98 250q0 146 110.5 246t315.5 120v240h183v-240q199 -20 315 -118.5t141 -264.5h-215q-19 107 -103.5 161t-246.5 54q-148 0 -219.5 -51.5t-71.5 -134.5 q0 -44 11.5 -73.5t48 -62t111.5 -62t194 -60.5q273 -69 387.5 -179t114.5 -272t-124 -282.5t-343 -141.5v-249h-183v251q-193 21 -321 129.5t-156 294.5z" />
<glyph unicode="%" horiz-adv-x="1722" d="M72 1118q0 84 29 151t78.5 109t111 64t129.5 22t130 -22t111.5 -64t79 -109t29.5 -151t-29.5 -151t-79 -109t-111.5 -64t-130 -22t-129.5 22t-111 64t-78.5 109t-29 151zM238 1118q0 -104 50.5 -153.5t131.5 -49.5q82 0 134 49.5t52 153.5t-52 153.5t-134 49.5 q-81 0 -131.5 -49.5t-50.5 -153.5zM365 0l782 1434h196l-782 -1434h-196zM952 315q0 111 50.5 191.5t128 118t169.5 37.5t170 -37.5t129.5 -118t51.5 -191.5q0 -84 -29.5 -151t-79.5 -109t-112 -64t-130 -22t-129.5 22t-111 64t-78.5 109t-29 151zM1118 315 q0 -104 50.5 -153t131.5 -49q82 0 134.5 49t52.5 153t-52.5 153.5t-134.5 49.5q-81 0 -131.5 -49.5t-50.5 -153.5z" />
<glyph unicode="&#x26;" horiz-adv-x="1402" d="M82 352q0 77 20 139t61.5 111.5t92.5 88t125 79.5q-109 110 -148.5 181.5t-39.5 162.5q0 137 111.5 243.5t279.5 106.5t276.5 -97t108.5 -220q0 -142 -79 -241t-222 -171l342 -323q71 135 90 284l180 -22q-26 -212 -139 -387l200 -189l-145 -129l-176 170 q-182 -170 -434 -170q-224 0 -364 105.5t-140 277.5zM287 367q0 -106 82 -167t231 -61q173 0 297 121l-399 391q-107 -60 -159 -126t-52 -158zM383 1116q0 -66 32.5 -117t127.5 -145q130 69 185.5 133.5t55.5 153.5q0 64 -51 114t-145 50q-100 0 -152.5 -58t-52.5 -131z" />
<glyph unicode="'" horiz-adv-x="552" d="M174 1317v188h205v-188l-31 -313h-143z" />
<glyph unicode="(" horiz-adv-x="696" d="M133 655q0 159 30 312.5t81.5 280t107.5 226t121 185.5h162q-303 -463 -303 -1004q0 -540 303 -1003h-162q-65 86 -121 185t-107.5 226t-81.5 280t-30 312z" />
<glyph unicode=")" horiz-adv-x="696" d="M61 -348q304 465 304 1003q0 539 -304 1004h162q65 -86 121 -185.5t107.5 -226t81.5 -280t30 -312.5t-30 -312t-81.5 -280t-107.5 -226t-121 -185h-162z" />
<glyph unicode="*" horiz-adv-x="962" d="M92 1157l60 172l272 -125l-35 301h180l-34 -303l276 127l59 -172l-301 -61l205 -222l-147 -106l-148 262l-149 -264l-146 108l205 224z" />
<glyph unicode="+" d="M184 571v174h338v345h187v-345h335v-174h-335v-342h-187v342h-338z" />
<glyph unicode="," horiz-adv-x="614" d="M158 -205q127 27 127 205h-97v238h238v-207q0 -84 -23 -148.5t-63 -102.5t-85 -59.5t-97 -27.5v102z" />
<glyph unicode="-" horiz-adv-x="1105" d="M184 573v175h738v-175h-738z" />
<glyph unicode="." horiz-adv-x="614" d="M188 0v238h238v-238h-238z" />
<glyph unicode="/" horiz-adv-x="819" d="M61 -184l510 1689h187l-510 -1689h-187z" />
<glyph unicode="0" d="M102 721q0 193 39 338t109 232.5t161.5 130t202.5 42.5t202.5 -42.5t161.5 -130t109 -232.5t39 -338q0 -188 -39 -333.5t-108.5 -236t-161.5 -136.5t-203 -46t-203 46t-161.5 136.5t-108.5 236t-39 333.5zM303 721q0 -300 77 -444t234 -144t234.5 144.5t77.5 443.5 q0 297 -77 438t-235 141t-234.5 -141t-76.5 -438z" />
<glyph unicode="1" d="M272 1063v203l324 168h192v-1434h-194v1229z" />
<glyph unicode="2" d="M123 1059q24 177 160.5 291t343.5 114q204 0 335.5 -111t131.5 -296q0 -143 -72 -259.5t-270 -305.5l-328 -312h663v-180h-929v180l467 449q151 144 209.5 234.5t58.5 191.5q0 110 -72 176.5t-198 66.5q-123 0 -202 -63.5t-91 -175.5h-207z" />
<glyph unicode="3" d="M100 356h209q51 -221 303 -221q146 0 229 71.5t83 188.5q0 71 -25.5 125t-67.5 85t-90 46t-100 15h-119v170h115q92 0 164.5 62t72.5 177q0 109 -80.5 167t-193.5 58q-119 0 -196.5 -55.5t-92.5 -148.5h-207q26 167 164 267.5t342 100.5q92 0 174 -23t148 -67.5 t104.5 -117.5t38.5 -166q0 -115 -71.5 -203.5t-186.5 -124.5q132 -29 219.5 -124t87.5 -247q0 -186 -139.5 -303t-368.5 -117q-221 0 -356 104.5t-160 280.5z" />
<glyph unicode="4" d="M90 270v183l615 981h204v-996h232v-168h-232v-270h-190v270h-629zM309 438h410v678z" />
<glyph unicode="5" d="M104 348h209q22 -93 100 -153t203 -60q136 0 224 90.5t88 247.5q0 155 -83 240.5t-224 85.5q-78 0 -154.5 -32.5t-132.5 -98.5h-174l30 766h881v-166h-702l-17 -420q132 104 314 104q95 0 178 -31.5t147.5 -91t101.5 -153.5t37 -211q0 -135 -59.5 -246.5t-178.5 -180.5 t-278 -69q-141 0 -254 55t-176 139.5t-80 184.5z" />
<glyph unicode="6" d="M143 659q0 156 20 282.5t57 212.5t85 148t108.5 96.5t121.5 50t131 15.5q163 0 280.5 -82t151.5 -221h-217q-19 66 -75 105t-142 39q-51 0 -94.5 -16.5t-83.5 -57t-70 -102.5t-50.5 -158t-27.5 -219q60 96 152.5 141t189.5 45q207 0 326.5 -133t119.5 -348 q0 -119 -41.5 -214.5t-110 -154t-152.5 -89t-175 -30.5q-248 0 -376 177t-128 513zM358 463q0 -155 81 -242.5t208 -87.5q122 0 201.5 83.5t79.5 229.5q0 152 -76.5 240t-206.5 88q-138 0 -212.5 -89t-74.5 -222z" />
<glyph unicode="7" d="M154 1257v177h911v-177l-586 -1257h-223l600 1257h-702z" />
<glyph unicode="8" d="M92 373q0 78 25 143.5t68 110.5t89 75t99 50q-228 107 -228 329q0 96 38.5 171t104.5 120t148.5 68.5t177.5 23.5t177.5 -21.5t149 -64.5t104.5 -115.5t38 -166.5q0 -113 -68 -196.5t-167 -135.5q56 -24 103 -56t91 -77.5t69.5 -108t25.5 -135.5q0 -184 -145 -301 t-378 -117t-377.5 114t-144.5 290zM301 387q0 -111 80.5 -183.5t232.5 -72.5t233 70t81 186q0 37 -7.5 69t-18.5 56.5t-32 46.5t-37.5 36.5t-47.5 28.5t-50 22t-55.5 18t-53.5 14t-55 12q-49 -15 -93 -38t-86 -58.5t-66.5 -89t-24.5 -117.5zM338 1092q0 -62 22 -110.5 t53.5 -76.5t78 -48t82.5 -28t81 -14q43 17 80.5 40t73.5 56t57 80t21 101q0 99 -78.5 159t-194.5 60q-119 0 -197.5 -57t-78.5 -162z" />
<glyph unicode="9" d="M143 977q0 219 136 353t344 134q503 0 503 -690q0 -805 -528 -805q-165 0 -282 83.5t-152 223.5h217q21 -70 78.5 -108.5t146.5 -38.5q54 0 98.5 16.5t84.5 56t68.5 102t47.5 157.5t25 219q-60 -96 -151.5 -140t-188.5 -44q-200 0 -323.5 129.5t-123.5 351.5zM342 987 q0 -156 79 -242t204 -86q138 0 212 89.5t74 222.5q0 155 -80.5 242t-207.5 87q-122 0 -201.5 -84t-79.5 -229z" />
<glyph unicode=":" horiz-adv-x="614" d="M188 0v238h238v-238h-238zM188 827v238h238v-238h-238z" />
<glyph unicode=";" horiz-adv-x="614" d="M158 -205q127 27 127 205h-97v238h238v-207q0 -84 -23 -148.5t-63 -102.5t-85 -59.5t-97 -27.5v102zM188 827v238h238v-238h-238z" />
<glyph unicode="&#x3c;" d="M184 563v195l860 389v-197l-665 -284v-11l665 -284v-197z" />
<glyph unicode="=" d="M184 362v175h860v-175h-860zM184 782v174h860v-174h-860z" />
<glyph unicode="&#x3e;" d="M184 174v197l666 284v11l-666 284v197l860 -389v-195z" />
<glyph unicode="?" horiz-adv-x="1193" d="M102 1096q30 196 170 302.5t359 106.5q216 0 348.5 -110t132.5 -271q0 -131 -73.5 -235.5t-227.5 -190.5q-76 -42 -102.5 -100.5t-26.5 -169.5h-195q0 177 53 273.5t189 166.5q91 46 131.5 108.5t40.5 147.5q0 94 -75.5 151.5t-200.5 57.5q-275 0 -310 -237h-213zM471 0 v238h236v-238h-236z" />
<glyph unicode="@" horiz-adv-x="1855" d="M102 641q0 132 28.5 248t77.5 202.5t116 157t142.5 117.5t158.5 79t162.5 46t156.5 14q124 0 241.5 -28t220.5 -85.5t180.5 -138t122 -192.5t44.5 -242q0 -171 -51 -313t-146.5 -226.5t-216.5 -84.5q-87 0 -151 59.5t-72 130.5q-29 -61 -110 -115.5t-179 -54.5 q-58 0 -112 19.5t-101 59.5t-75.5 111t-28.5 164q0 161 47.5 287t147 201.5t237.5 75.5q60 0 114.5 -32t76.5 -87l36 104h146l-76 -581q-6 -49 -6 -84q0 -109 100 -109q93 0 162.5 130.5t69.5 342.5q0 123 -47.5 224t-130.5 168.5t-196.5 104t-246.5 36.5q-86 0 -173 -23 t-174.5 -77t-154.5 -133.5t-109 -203t-42 -274.5q0 -134 38 -246t102.5 -188.5t151.5 -129.5t182.5 -77.5t197.5 -24.5q153 0 313 54v-160q-144 -53 -330 -53q-130 0 -251.5 32t-229.5 99.5t-188.5 163.5t-127.5 233t-47 299zM696 567q0 -102 50 -151t120 -49 q100 0 166 109.5t66 324.5q0 88 -32.5 136t-109.5 48q-126 0 -193 -116.5t-67 -301.5z" />
<glyph unicode="A" horiz-adv-x="1445" d="M0 0l606 1475h236l604 -1475h-232l-145 373h-702l-148 -373h-219zM434 543h567l-280 723z" />
<glyph unicode="B" horiz-adv-x="1335" d="M154 0v1475h530q251 0 382.5 -103t131.5 -289q0 -104 -68 -190.5t-169 -112.5q118 -21 200 -121.5t82 -242.5q0 -198 -144 -307t-419 -109h-526zM362 170h349q158 0 236.5 63t78.5 183q0 135 -77.5 205.5t-229.5 70.5h-357v-522zM362 852h351q132 0 203 63t71 168 q0 109 -75.5 171.5t-211.5 62.5h-338v-465z" />
<glyph unicode="C" horiz-adv-x="1492" d="M92 737q0 183 51 329.5t143 242t218.5 146t279.5 50.5q172 0 313 -70t221.5 -184.5t90.5 -249.5h-211q-20 151 -132 240.5t-282 89.5q-220 0 -349.5 -151.5t-129.5 -442.5q0 -280 127.5 -436t339.5 -156q178 0 298.5 107t129.5 268h211q-6 -108 -55 -207.5t-131 -176 t-201 -122t-256 -45.5q-313 0 -494.5 201.5t-181.5 566.5z" />
<glyph unicode="D" horiz-adv-x="1449" d="M154 0v1475h479q165 0 297 -44.5t228 -134t148 -231.5t52 -328q0 -176 -55 -316t-153.5 -232t-234 -140.5t-297.5 -48.5h-464zM362 172h277q245 0 376.5 144.5t131.5 420.5q0 284 -135 428t-377 144h-273v-1137z" />
<glyph unicode="E" horiz-adv-x="1175" d="M154 0v1475h919v-177h-711v-462h652v-172h-652v-488h711v-176h-919z" />
<glyph unicode="F" horiz-adv-x="1148" d="M154 0v1475h903v-177h-695v-501h623v-174h-623v-623h-208z" />
<glyph unicode="G" horiz-adv-x="1511" d="M92 739q0 185 52.5 332.5t145 241t214.5 143t264 49.5q247 0 415 -132t195 -331h-204q-28 135 -135.5 212t-270.5 77q-98 0 -181.5 -37t-146.5 -108.5t-99 -186t-36 -260.5q0 -144 38.5 -260t103.5 -188.5t148 -111t175 -38.5q175 0 298.5 104.5t123.5 264.5v115h-432 v168h620v-793h-153l-29 176q-70 -98 -188 -152.5t-265 -54.5q-138 0 -257 51.5t-207 147t-138.5 242.5t-50.5 329z" />
<glyph unicode="H" horiz-adv-x="1447" d="M154 0v1475h208v-641h721v641h211v-1475h-211v657h-721v-657h-208z" />
<glyph unicode="I" horiz-adv-x="516" d="M154 0v1475h208v-1475h-208z" />
<glyph unicode="J" horiz-adv-x="1105" d="M51 414h211q6 -137 71 -203t179 -66t178 75.5t64 213.5v1041h209v-1043q0 -222 -119.5 -342.5t-339.5 -120.5q-198 0 -322.5 125t-130.5 320z" />
<glyph unicode="K" horiz-adv-x="1294" d="M154 0v1475h208v-656l601 656h258l-670 -705l733 -770h-276l-646 694v-694h-208z" />
<glyph unicode="L" horiz-adv-x="1130" d="M154 0v1475h211v-1289h694v-186h-905z" />
<glyph unicode="M" horiz-adv-x="1783" d="M154 0v1475h290l469 -1229l443 1229h274v-1475h-196v1145l-426 -1145h-197l-455 1155v-1155h-202z" />
<glyph unicode="N" horiz-adv-x="1472" d="M154 0v1475h276l703 -1225v1225h186v-1475h-264l-711 1235v-1235h-190z" />
<glyph unicode="O" horiz-adv-x="1585" d="M92 737q0 181 55 328.5t151 242.5t223 146t274 51t273 -49.5t221.5 -143.5t149.5 -241.5t54 -333.5q0 -179 -53.5 -325t-147.5 -242.5t-222 -148.5t-277 -52q-154 0 -282.5 52t-221.5 149t-145 242.5t-52 324.5zM305 737q0 -286 133 -442t355 -156t354.5 156t132.5 442 t-132.5 442t-354.5 156t-355 -156t-133 -442z" />
<glyph unicode="P" horiz-adv-x="1292" d="M154 0v1475h479q279 0 428 -123.5t149 -356.5q0 -226 -148.5 -347.5t-436.5 -121.5h-263v-526h-208zM362 696h267q190 0 277 75t87 224q0 147 -92 228.5t-264 81.5h-275v-609z" />
<glyph unicode="Q" horiz-adv-x="1585" d="M92 737q0 181 55 328.5t151 242.5t223 146t274 51t273 -49.5t221.5 -143.5t149.5 -241.5t54 -333.5q0 -197 -64 -351t-180 -255l238 -297l-168 -110l-217 311q-141 -66 -309 -66q-154 0 -282.5 52t-221.5 149t-145 242.5t-52 324.5zM305 737q0 -286 133 -442t355 -156 t354.5 156t132.5 442t-132.5 442t-354.5 156t-355 -156t-133 -442z" />
<glyph unicode="R" horiz-adv-x="1335" d="M154 0v1475h477q281 0 432 -120t151 -343q0 -157 -81 -257.5t-215 -150.5l397 -604h-246l-356 561h-351v-561h-208zM362 731h279q170 0 263 75t93 206q0 293 -362 293h-273v-574z" />
<glyph unicode="S" horiz-adv-x="1337" d="M72 414h215q19 -127 118 -200t261 -73q177 0 273.5 74t96.5 184q0 55 -16.5 91.5t-67.5 73.5t-141 70.5t-240 74.5q-250 69 -349 164.5t-99 252.5q0 166 140.5 272.5t387.5 106.5q157 0 282.5 -47t204.5 -138t97 -214h-215q-17 109 -111 168t-258 59q-161 0 -240 -54.5 t-79 -143.5q0 -62 26 -100.5t109.5 -78t251.5 -86.5q205 -58 319.5 -122t160.5 -143.5t46 -196.5q0 -87 -39 -165.5t-110 -139.5t-182 -97.5t-244 -36.5q-239 0 -403 121.5t-195 323.5z" />
<glyph unicode="T" horiz-adv-x="1234" d="M20 1288v187h1194v-187h-495v-1288h-209v1288h-490z" />
<glyph unicode="U" horiz-adv-x="1447" d="M143 494v981h209v-1000q0 -151 98.5 -240.5t276.5 -89.5t276.5 90t98.5 240v1000h203v-981q0 -243 -158.5 -384t-421.5 -141q-266 0 -424 143.5t-158 381.5z" />
<glyph unicode="V" horiz-adv-x="1325" d="M0 1475h221l447 -1278l452 1278h205l-528 -1475h-260z" />
<glyph unicode="W" horiz-adv-x="1972" d="M10 1475h213l314 -1227l337 1227h261l319 -1223l315 1223h193l-389 -1475h-242l-334 1249l-344 -1249h-256z" />
<glyph unicode="X" horiz-adv-x="1335" d="M20 0l533 762l-496 713h246l375 -549l383 549h237l-514 -707l531 -768h-250l-395 596l-414 -596h-236z" />
<glyph unicode="Y" horiz-adv-x="1288" d="M0 1475h229l416 -709l430 709h213l-540 -889v-586h-207v586z" />
<glyph unicode="Z" horiz-adv-x="1308" d="M82 0v182l897 1112h-850v181h1098v-177l-899 -1118h878v-180h-1124z" />
<glyph unicode="[" horiz-adv-x="696" d="M154 -348v2007h430v-164h-242v-1679h242v-164h-430z" />
<glyph unicode="\" horiz-adv-x="819" d="M61 1505h187l510 -1689h-187z" />
<glyph unicode="]" horiz-adv-x="696" d="M113 -184h241v1679h-241v164h430v-2007h-430v164z" />
<glyph unicode="^" horiz-adv-x="1024" d="M53 819l367 656h184l367 -656h-213l-246 457l-246 -457h-213z" />
<glyph unicode="_" d="M61 -92h1106v-174h-1106v174z" />
<glyph unicode="`" horiz-adv-x="585" d="M61 1505h254l209 -280h-176z" />
<glyph unicode="a" horiz-adv-x="1126" d="M82 274q0 148 95 233.5t308 121.5l312 53v53q0 98 -64 151.5t-182 53.5q-217 0 -240 -172h-209q15 149 137.5 238.5t319.5 89.5q205 0 319.5 -100.5t114.5 -268.5v-727h-162l-24 145q-126 -176 -356 -176q-171 0 -270 85.5t-99 219.5zM291 295q0 -77 53.5 -118.5 t153.5 -41.5q116 0 207.5 75t91.5 181v137l-265 -47q-136 -24 -188.5 -67.5t-52.5 -118.5z" />
<glyph unicode="b" horiz-adv-x="1247" d="M143 0v1475h197v-557q126 178 356 178q214 0 341.5 -146.5t127.5 -408.5q0 -270 -133.5 -421t-349.5 -151q-226 0 -346 172l-31 -141h-162zM330 545q0 -191 87 -299.5t234 -108.5q144 0 227 102t83 306q0 189 -85.5 286t-224.5 97t-230 -100t-91 -283z" />
<glyph unicode="c" horiz-adv-x="1134" d="M82 524q0 265 137 418.5t365 153.5q184 0 309 -92.5t151 -253.5h-217q-20 87 -82.5 133.5t-156.5 46.5q-136 0 -216.5 -103.5t-80.5 -308.5q0 -187 84 -285t215 -98q100 0 166.5 54.5t81.5 152.5h215q-23 -161 -149 -267t-318 -106q-107 0 -198.5 36.5t-159.5 105.5 t-107 175t-39 238z" />
<glyph unicode="d" horiz-adv-x="1247" d="M82 526q0 278 131 424t352 146t342 -166v545h197v-1475h-162l-35 150q-125 -181 -354 -181q-208 0 -339.5 147.5t-131.5 409.5zM287 522q0 -186 85 -285.5t224 -99.5q150 0 236 106t86 277q0 193 -86.5 300.5t-235.5 107.5q-145 0 -227 -101.5t-82 -304.5z" />
<glyph unicode="e" horiz-adv-x="1185" d="M82 532q0 270 141.5 417t370.5 147q113 0 203 -35t157.5 -106.5t103.5 -189.5t36 -276h-811q12 -178 99.5 -266t227.5 -88q94 0 164 48t94 124h213q-41 -152 -166 -245t-311 -93q-115 0 -209.5 35.5t-164.5 104.5t-109 177t-39 246zM291 645h602q-10 145 -89 219t-206 74 q-122 0 -203 -74.5t-104 -218.5z" />
<glyph unicode="f" horiz-adv-x="659" d="M41 897v168h158v149q0 131 82 211t215 80q80 0 174 -24v-170q-99 24 -162 24q-53 0 -83 -29t-30 -79v-162h230v-168h-230v-897h-196v897h-158z" />
<glyph unicode="g" horiz-adv-x="1247" d="M82 557q0 248 132 393.5t351 145.5q229 0 346 -172l31 141h162v-1042q0 -187 -131 -304.5t-361 -117.5q-209 0 -331.5 87t-149.5 240h211q14 -81 81.5 -126.5t182.5 -45.5q148 0 224.5 72t76.5 205v137q-119 -139 -354 -139q-95 0 -179.5 35t-149.5 100t-103.5 166 t-38.5 225zM287 553q0 -164 88.5 -259t220.5 -95q152 0 237 93t85 255q0 183 -88 282t-234 99q-141 0 -225 -95.5t-84 -279.5z" />
<glyph unicode="h" horiz-adv-x="1161" d="M143 0v1475h197v-531q58 74 138.5 113t172.5 39q176 0 276.5 -104.5t100.5 -297.5v-694h-197v692q0 118 -58.5 177t-168.5 59q-113 0 -188.5 -75.5t-75.5 -203.5v-649h-197z" />
<glyph unicode="i" horiz-adv-x="483" d="M131 1243v232h221v-232h-221zM143 0v1065h197v-1065h-197z" />
<glyph unicode="j" horiz-adv-x="483" d="M-100 -213q81 -18 123 -18q68 0 94 29t26 106v1161h197v-1171q0 -133 -75.5 -213t-211.5 -80q-76 0 -153 24v162zM131 1243v232h221v-232h-221z" />
<glyph unicode="k" horiz-adv-x="1064" d="M143 0v1475h197v-824l418 414h258l-479 -463l538 -602h-262l-473 537v-537h-197z" />
<glyph unicode="l" horiz-adv-x="483" d="M143 0v1475h197v-1475h-197z" />
<glyph unicode="m" horiz-adv-x="1792" d="M143 0v1065h162l21 -125q108 156 313 156q107 0 188 -43t125 -125q107 168 346 168q167 0 264 -98.5t97 -284.5v-713h-197v698q0 120 -51.5 175t-155.5 55q-114 0 -185 -82.5t-71 -196.5v-649h-196v698q0 120 -51.5 175t-155.5 55q-107 0 -181.5 -79.5t-74.5 -193.5v-655 h-197z" />
<glyph unicode="n" horiz-adv-x="1161" d="M143 0v1065h162l23 -135q58 81 142 123.5t181 42.5q176 0 276.5 -104.5t100.5 -297.5v-694h-197v692q0 118 -58.5 177t-168.5 59t-187 -74.5t-77 -196.5v-657h-197z" />
<glyph unicode="o" horiz-adv-x="1214" d="M82 532q0 140 41 249t113.5 177t167 103t204.5 35q111 0 205 -35t166 -103t113 -177t41 -249q0 -137 -40 -245t-111 -177t-166.5 -105t-209.5 -36q-112 0 -207 36.5t-166 106t-111 177.5t-40 243zM287 532q0 -192 90 -297.5t233 -105.5q145 0 231.5 105t86.5 298 q0 195 -89 299.5t-231 104.5t-231.5 -105.5t-89.5 -298.5z" />
<glyph unicode="p" horiz-adv-x="1247" d="M143 -369v1434h162l31 -139q132 170 360 170q214 0 341.5 -146.5t127.5 -408.5q0 -270 -133.5 -421t-349.5 -151q-225 0 -342 168v-506h-197zM330 545q0 -191 87 -299.5t234 -108.5q144 0 227 102t83 306q0 189 -85.5 286t-224.5 97t-230 -100t-91 -283z" />
<glyph unicode="q" horiz-adv-x="1247" d="M82 526q0 278 131 424t352 146q225 0 348 -160l29 129h162v-1434h-197v516q-58 -82 -147.5 -130t-206.5 -48q-208 0 -339.5 147.5t-131.5 409.5zM287 522q0 -186 85 -285.5t224 -99.5q150 0 236 106t86 277q0 193 -86.5 300.5t-235.5 107.5q-145 0 -227 -101.5 t-82 -304.5z" />
<glyph unicode="r" horiz-adv-x="729" d="M143 0v1065h162l27 -158q91 189 270 189q54 0 117 -15v-196q-70 18 -125 18q-111 0 -182.5 -89.5t-71.5 -278.5v-535h-197z" />
<glyph unicode="s" horiz-adv-x="1046" d="M61 305h201q17 -94 81 -137t179 -43q116 0 180 46t64 118q0 31 -8.5 54.5t-30.5 42.5t-43 31.5t-64 25.5t-73 20.5t-90 21.5q-186 41 -268.5 114.5t-82.5 193.5q0 139 108 221t306 82q178 0 294 -83t142 -229h-200q-18 75 -78 115.5t-160 40.5q-106 0 -159.5 -35.5 t-53.5 -93.5q0 -43 19.5 -69.5t72.5 -49t156 -45.5t171 -47t126.5 -63t86.5 -96.5t28 -137.5q0 -149 -118.5 -241.5t-326.5 -92.5q-199 0 -322 91t-137 245z" />
<glyph unicode="t" horiz-adv-x="659" d="M31 897v168h157l13 256h184v-256h229v-168h-229v-637q0 -119 113 -119q48 0 120 17v-168q-80 -21 -145 -21q-138 0 -211.5 80t-73.5 215v633h-157z" />
<glyph unicode="u" horiz-adv-x="1153" d="M133 371v694h197v-698q0 -116 57.5 -173t163.5 -57q126 0 194 81t68 198v649h197v-1065h-162l-23 123q-115 -154 -319 -154q-171 0 -272 102t-101 300z" />
<glyph unicode="v" horiz-adv-x="1052" d="M20 1065h216l294 -905l297 905h205l-375 -1065h-266z" />
<glyph unicode="w" horiz-adv-x="1658" d="M31 1065h205l229 -856l254 856h235l250 -852l228 852h196l-311 -1065h-227l-259 842l-253 -842h-236z" />
<glyph unicode="x" horiz-adv-x="1083" d="M20 0l398 553l-373 512h236l254 -358l241 358h225l-356 -498l418 -567h-240l-288 412l-283 -412h-232z" />
<glyph unicode="y" horiz-adv-x="1052" d="M20 1065h213l302 -905l301 905h196l-370 -1079q-27 -79 -48.5 -130.5t-52 -104.5t-64 -82.5t-80 -48.5t-104.5 -19q-54 0 -127 18v160q62 -15 103 -15q66 0 101 48.5t85 187.5h-63z" />
<glyph unicode="z" horiz-adv-x="987" d="M61 0v186l633 713h-602v166h834v-186l-633 -711h633v-168h-865z" />
<glyph unicode="{" horiz-adv-x="696" d="M61 569v176q81 0 135 44.5t54 136.5v381q0 177 89 264.5t286 87.5v-154q-60 0 -98 -11.5t-57.5 -37t-26.5 -57.5t-7 -82v-359q0 -239 -174 -301q174 -62 174 -301v-358q0 -50 7 -82t26.5 -57.5t57.5 -37t98 -11.5v-154q-197 0 -286 87.5t-89 264.5v381q0 92 -54 136 t-135 44z" />
<glyph unicode="|" horiz-adv-x="737" d="M281 -287v1895h176v-1895h-176z" />
<glyph unicode="}" horiz-adv-x="696" d="M72 -190q60 0 97.5 11.5t57 37t26.5 57.5t7 82v358q0 239 174 301q-174 62 -174 301v359q0 50 -7 82t-26.5 57.5t-57 37t-97.5 11.5v154q197 0 285.5 -87.5t88.5 -264.5v-381q0 -92 54 -136.5t135 -44.5v-176q-81 0 -135 -44t-54 -136v-381q0 -177 -88.5 -264.5 t-285.5 -87.5v154z" />
<glyph unicode="~" d="M184 537v186q41 33 109.5 57.5t136.5 24.5q56 0 111.5 -17.5t92.5 -39t84.5 -39t90.5 -17.5q129 0 235 92v-186q-42 -33 -109.5 -57.5t-135.5 -24.5q-56 0 -112 17.5t-93.5 39t-85 39t-90.5 17.5q-128 0 -234 -92z" />
<glyph unicode="&#xa1;" horiz-adv-x="583" d="M174 -369l41 983h154l41 -983h-236zM174 868v238h236v-238h-236z" />
<glyph unicode="&#xa2;" d="M135 524q0 234 108.5 382t295.5 181v265h182v-262q152 -21 253 -110.5t124 -229.5h-217q-20 87 -83 133.5t-157 46.5q-136 0 -216.5 -103.5t-80.5 -308.5q0 -187 84 -285t215 -98q100 0 166.5 54.5t81.5 152.5h215q-21 -142 -123.5 -243t-261.5 -124v-251h-182v256 q-181 30 -292.5 172t-111.5 372z" />
<glyph unicode="&#xa3;" d="M123 0v180q73 23 115.5 74t42.5 149v232h-97v160h97v274q0 100 33 177t90.5 124t131.5 70.5t160 23.5q160 0 270.5 -82t147.5 -254h-207q-19 86 -71.5 128t-145.5 42q-101 0 -158 -60t-57 -171v-272h395v-160h-395v-219q0 -153 -115 -236h736v-180h-973z" />
<glyph unicode="&#xa4;" d="M68 305l127 127q-72 121 -72 264q0 140 70 260l-123 125l139 140l119 -121q60 40 137.5 63t148.5 23t149 -23t138 -63l119 121l139 -140l-123 -125q70 -120 70 -260q0 -143 -72 -264l127 -127l-139 -139l-123 123q-60 -39 -137.5 -60.5t-147.5 -21.5t-147 21.5t-137 60.5 l-123 -123zM305 696q0 -140 89.5 -229.5t221.5 -89.5q130 0 219 89.5t89 229.5t-89 230t-219 90q-132 0 -221.5 -89.5t-89.5 -230.5z" />
<glyph unicode="&#xa5;" d="M16 1434h230l370 -668l385 668h213l-417 -711h209v-150h-287v-157h287v-150h-287v-266h-207v266h-287v150h287v157h-287v150h207z" />
<glyph unicode="&#xa6;" horiz-adv-x="737" d="M281 -287v789h176v-789h-176zM281 819v789h176v-789h-176z" />
<glyph unicode="&#xa7;" d="M143 664q0 188 187 278q-113 90 -113 223q0 126 107.5 212.5t302.5 86.5q160 0 280 -82.5t156 -230.5h-209q-14 71 -73.5 116.5t-155.5 45.5q-106 0 -159.5 -38t-53.5 -101q0 -66 47 -106t174 -73q250 -64 352 -154t102 -229q0 -101 -53 -171.5t-141 -110.5 q121 -85 121 -217q0 -137 -107 -218t-297 -81q-170 0 -288 81.5t-154 229.5h209q14 -70 76.5 -115t158.5 -45q106 0 156.5 37t50.5 100t-49 105.5t-172 73.5q-171 43 -273 100.5t-142 124.5t-40 158zM330 678q0 -52 20.5 -87t82 -70t175.5 -68q67 -21 156 -56 q64 33 100.5 83.5t36.5 111.5q0 33 -7 57.5t-30 52.5t-64.5 51t-113.5 49t-174 52q-30 6 -57 18q-125 -67 -125 -194z" />
<glyph unicode="&#xa8;" horiz-adv-x="798" d="M61 1270v205h213v-205h-213zM524 1270v205h213v-205h-213z" />
<glyph unicode="&#xa9;" horiz-adv-x="1810" d="M123 737q0 156 45.5 286t121.5 218t178 148.5t211.5 88t225.5 27.5t226 -27.5t211.5 -88t178 -148.5t122 -218t45.5 -286t-45.5 -286t-122 -218t-178 -148.5t-211.5 -88t-226 -27.5t-225.5 27.5t-211.5 88t-178 148.5t-121.5 218t-45.5 286zM293 737q0 -153 51 -275 t137.5 -197t194.5 -114.5t229 -39.5q96 0 185 24t167 75t136 124t91.5 176.5t33.5 226.5t-33.5 227t-91.5 176.5t-136 123.5t-167 75.5t-185 24.5q-121 0 -229 -39.5t-194.5 -115t-137.5 -197.5t-51 -275zM524 735q0 92 22.5 166.5t59.5 123.5t87.5 82t103.5 47.5t110 14.5 q137 0 233.5 -69.5t116.5 -194.5h-165q-13 66 -61 101.5t-120 35.5q-99 0 -162 -74.5t-63 -228.5q0 -85 21.5 -147t57 -93.5t72 -45t76.5 -13.5q85 0 131.5 46t55.5 110h164q-17 -115 -110 -199t-245 -84q-48 0 -97 11.5t-102 42t-93.5 76t-66.5 121.5t-26 171z" />
<glyph unicode="&#xaa;" horiz-adv-x="1024" d="M113 0v174h798v-174h-798zM137 858q0 68 25.5 120t72 85t104.5 53t130 29l205 24v43q0 154 -174 154q-70 0 -118.5 -27t-59.5 -82h-172q15 106 115 177t239 71q147 0 244.5 -76t97.5 -206v-598h-125l-29 96q-33 -52 -103 -85.5t-153 -33.5q-43 0 -83 7.5t-80 26.5 t-69.5 47.5t-48 73.5t-18.5 101zM313 866q0 -58 40 -88t112 -30q82 0 145.5 51t63.5 127v104l-164 -18q-197 -23 -197 -146z" />
<glyph unicode="&#xab;" horiz-adv-x="1044" d="M123 645l254 420h137l-160 -426l140 -455h-138zM530 645l254 420h138l-160 -426l139 -455h-137z" />
<glyph unicode="&#xac;" d="M184 573v175h860v-519h-186v344h-674z" />
<glyph unicode="&#xad;" horiz-adv-x="1105" d="M184 573v175h738v-175h-738z" />
<glyph unicode="&#xae;" horiz-adv-x="1318" d="M143 1010q0 102 32 187t83.5 141t120 94.5t139 55.5t141.5 17t141.5 -17t139 -55.5t120.5 -94.5t84 -141t32 -187t-32 -187t-84 -141t-120.5 -95t-139 -56t-141.5 -17t-141.5 17t-139 56t-120 95t-83.5 141t-32 187zM272 1010q0 -102 33.5 -179t90 -121t123 -65.5 t140.5 -21.5q58 0 112.5 13t105 42.5t88 73t60 110t22.5 148.5t-22.5 148.5t-60 110t-88 73t-105 42.5t-112.5 13q-74 0 -140.5 -21.5t-123 -65.5t-90 -121t-33.5 -179zM506 752v522h151q80 0 132.5 -42.5t52.5 -119.5q0 -98 -90 -145l112 -215h-116l-95 190h-45v-190h-102z M608 1026h47q35 0 56.5 24t21.5 62q0 37 -22 58.5t-60 21.5h-43v-166z" />
<glyph unicode="&#xaf;" horiz-adv-x="675" d="M61 1296v168h553v-168h-553z" />
<glyph unicode="&#xb0;" d="M123 1130q0 155 101 247.5t243 92.5t243 -92.5t101 -247.5t-101 -247t-243 -92t-243 92t-101 247zM295 1130q0 -89 47.5 -142.5t124.5 -53.5t124.5 53.5t47.5 142.5t-47.5 143t-124.5 54t-124.5 -54t-47.5 -143z" />
<glyph unicode="&#xb1;" d="M184 0v174h860v-174h-860zM184 573v175h336v342h187v-342h337v-175h-337v-262h-187v262h-336z" />
<glyph unicode="&#xb2;" horiz-adv-x="845" d="M88 1260q15 121 109.5 192.5t236.5 71.5q139 0 228.5 -72.5t89.5 -194.5q0 -94 -57.5 -176.5t-207.5 -208.5l-163 -104h419v-166h-632v166l268 217q109 100 148.5 156.5t39.5 111.5q0 56 -34 87.5t-101 31.5q-140 0 -156 -112h-188z" />
<glyph unicode="&#xb3;" horiz-adv-x="868" d="M88 842h178q18 -53 57.5 -80t110.5 -27q78 0 118 34t40 87q0 80 -44.5 114t-113.5 34h-67v135h69q53 0 91 28.5t38 102.5q0 56 -38.5 81t-98.5 25q-62 0 -96 -27t-41 -69h-185q15 110 104.5 177t227.5 67q134 0 220.5 -59t86.5 -185q0 -67 -47.5 -121t-138.5 -78 q215 -43 215 -231q0 -117 -90.5 -190.5t-247.5 -73.5q-151 0 -242.5 72t-105.5 184z" />
<glyph unicode="&#xb4;" horiz-adv-x="585" d="M61 1225l209 280h254l-286 -280h-177z" />
<glyph unicode="&#xb5;" horiz-adv-x="1163" d="M143 -369v1434h197v-698q0 -65 18.5 -112t51.5 -71.5t70 -35.5t81 -11q124 0 193 79t69 192v657h197v-1065h-162l-20 115q-56 -74 -135 -110t-166 -36q-105 0 -197 62v-400h-197z" />
<glyph unicode="&#xb6;" d="M133 1120q0 78 24.5 141.5t62 102t83.5 65t86 36.5t74 10h176v-1844h-176v1137q-34 0 -74 10t-86 35.5t-83 63.5t-62 101.5t-25 141.5zM899 -369v1844h176v-1844h-176z" />
<glyph unicode="&#xb7;" horiz-adv-x="614" d="M188 532v238h238v-238h-238z" />
<glyph unicode="&#xb8;" horiz-adv-x="622" d="M45 -303h154q5 -33 34.5 -57.5t77.5 -24.5q50 0 80.5 25.5t30.5 70.5q0 52 -45 77.5t-148 25.5l21 227h137v-127q186 -42 186 -201q0 -99 -74 -161t-190 -62q-103 0 -176 55t-88 152z" />
<glyph unicode="&#xb9;" horiz-adv-x="538" d="M43 1223v170l233 112h168v-903h-178v727z" />
<glyph unicode="&#xba;" horiz-adv-x="1024" d="M113 0v174h778v-174h-778zM117 1055q0 105 23.5 185.5t61 129.5t91 80.5t107 43t114.5 11.5t114.5 -11.5t107 -42.5t91 -79.5t61 -129.5t23.5 -187t-23.5 -187t-61.5 -130.5t-91.5 -81t-106.5 -43t-114 -11.5q-60 0 -113.5 12t-107 43.5t-91.5 81t-61.5 130.5t-23.5 186z M295 1055q0 -158 59.5 -235t159.5 -77t159.5 75.5t59.5 236.5q0 159 -60 234t-159 75q-98 0 -158.5 -76.5t-60.5 -232.5z" />
<glyph unicode="&#xbb;" horiz-adv-x="1044" d="M123 1065h137l254 -420l-233 -461h-138l140 455zM530 1065h138l254 -420l-234 -461h-137l139 455z" />
<glyph unicode="&#xbc;" horiz-adv-x="1773" d="M102 1223v170l234 112h168v-903h-178v727zM307 -184l860 1802h187l-862 -1802h-185zM977 170v164l379 569h182v-581h133v-152h-133v-170h-162v170h-399zM1135 322h241v342z" />
<glyph unicode="&#xbd;" horiz-adv-x="1865" d="M102 1223v170l234 112h168v-903h-178v727zM307 -184l860 1802h187l-862 -1802h-185zM1100 657q15 121 109.5 193t236.5 72q139 0 228 -72.5t89 -194.5q0 -94 -57 -176.5t-207 -208.5l-164 -104h420v-166h-633v166l269 217q109 100 148.5 156.5t39.5 111.5q0 56 -34 87.5 t-101 31.5q-139 0 -156 -113h-188z" />
<glyph unicode="&#xbe;" horiz-adv-x="1953" d="M102 842h179q18 -53 57.5 -80t110.5 -27q78 0 117.5 34t39.5 87q0 80 -44 114t-113 34h-68v135h70q53 0 91 28.5t38 102.5q0 56 -39 81t-99 25q-62 0 -96 -27t-41 -69h-184q15 110 104.5 177t227.5 67q134 0 220.5 -59t86.5 -185q0 -67 -48 -121t-139 -78 q215 -43 215 -231q0 -117 -90.5 -190.5t-246.5 -73.5q-151 0 -243 72t-106 184zM487 -184l861 1802h186l-862 -1802h-185zM1157 170v164l379 569h182v-581h133v-152h-133v-170h-162v170h-399zM1315 322h241v342z" />
<glyph unicode="&#xbf;" horiz-adv-x="1193" d="M82 -18q0 131 73.5 235.5t227.5 190.5q76 42 102.5 100.5t26.5 169.5h195q0 -177 -53 -273.5t-189 -166.5q-91 -46 -131.5 -108.5t-40.5 -147.5q0 -94 75.5 -151.5t200.5 -57.5q275 0 310 237h213q-30 -196 -170 -302.5t-359 -106.5q-216 0 -348.5 110t-132.5 271z M487 868v238h236v-238h-236z" />
<glyph unicode="&#xc0;" horiz-adv-x="1445" d="M0 0l606 1475h236l604 -1475h-232l-145 373h-702l-148 -373h-219zM432 1853h254l209 -280h-176zM434 543h567l-280 723z" />
<glyph unicode="&#xc1;" horiz-adv-x="1445" d="M0 0l606 1475h236l604 -1475h-232l-145 373h-702l-148 -373h-219zM434 543h567l-280 723zM553 1573l209 280h254l-287 -280h-176z" />
<glyph unicode="&#xc2;" horiz-adv-x="1445" d="M0 0l606 1475h236l604 -1475h-232l-145 373h-702l-148 -373h-219zM371 1573l241 280h224l239 -280h-198l-154 168l-154 -168h-198zM434 543h567l-280 723z" />
<glyph unicode="&#xc3;" horiz-adv-x="1445" d="M0 0l606 1475h236l604 -1475h-232l-145 373h-702l-148 -373h-219zM416 1599v166q93 68 182 68q44 0 79 -12t54 -27t49 -27t64 -12q41 0 78.5 19t87.5 59v-166q-48 -35 -87 -51.5t-87 -16.5q-44 0 -78.5 12t-53.5 27t-49 27t-65 12q-76 0 -174 -78zM434 543h567l-280 723z " />
<glyph unicode="&#xc4;" horiz-adv-x="1445" d="M0 0l606 1475h236l604 -1475h-232l-145 373h-702l-148 -373h-219zM383 1618v205h213v-205h-213zM434 543h567l-280 723zM846 1618v205h213v-205h-213z" />
<glyph unicode="&#xc5;" horiz-adv-x="1445" d="M0 0l584 1419q-65 29 -101.5 87.5t-36.5 131.5q0 106 73 176t196 70t196.5 -70t73.5 -176q0 -69 -32.5 -124t-92.5 -87l586 -1427h-232l-145 373h-702l-148 -373h-219zM434 543h567l-280 723zM586 1638q0 -58 35 -93.5t94 -35.5t95 35.5t36 93.5q0 59 -35.5 94t-95.5 35 q-59 0 -94 -35.5t-35 -93.5z" />
<glyph unicode="&#xc6;" horiz-adv-x="2000" d="M0 0l907 1475h991v-177h-669v-462h610v-172h-610v-488h669v-176h-878v373h-567l-228 -373h-225zM557 543h463v753z" />
<glyph unicode="&#xc7;" horiz-adv-x="1492" d="M92 737q0 183 51 329.5t143 242t218.5 146t279.5 50.5q172 0 313 -70t221.5 -184.5t90.5 -249.5h-211q-20 151 -132 240.5t-282 89.5q-220 0 -349.5 -151.5t-129.5 -442.5q0 -280 127.5 -436t339.5 -156q178 0 298.5 107t129.5 268h211q-12 -206 -167 -363.5t-396 -183.5 v-59q186 -42 186 -201q0 -99 -74 -161t-190 -62q-103 0 -176 55t-88 152h153q5 -32 35 -57t78 -25q50 0 80.5 25.5t30.5 70.5q0 52 -45 77.5t-148 25.5l15 157q-286 22 -449.5 221.5t-163.5 544.5z" />
<glyph unicode="&#xc8;" horiz-adv-x="1175" d="M154 0v1475h919v-177h-711v-462h652v-172h-652v-488h711v-176h-919zM317 1853h254l209 -280h-176z" />
<glyph unicode="&#xc9;" horiz-adv-x="1175" d="M154 0v1475h919v-177h-711v-462h652v-172h-652v-488h711v-176h-919zM473 1573l209 280h254l-287 -280h-176z" />
<glyph unicode="&#xca;" horiz-adv-x="1175" d="M154 0v1475h919v-177h-711v-462h652v-172h-652v-488h711v-176h-919zM256 1573l242 280h223l240 -280h-199l-154 168l-153 -168h-199z" />
<glyph unicode="&#xcb;" horiz-adv-x="1175" d="M154 0v1475h919v-177h-711v-462h652v-172h-652v-488h711v-176h-919zM279 1618v205h213v-205h-213zM741 1618v205h213v-205h-213z" />
<glyph unicode="&#xcc;" horiz-adv-x="516" d="M-39 1853h254l209 -280h-176zM154 0v1475h208v-1475h-208z" />
<glyph unicode="&#xcd;" horiz-adv-x="516" d="M86 1573l209 280h254l-287 -280h-176zM154 0v1475h208v-1475h-208z" />
<glyph unicode="&#xce;" horiz-adv-x="516" d="M-94 1573l241 280h224l239 -280h-198l-154 168l-154 -168h-198zM154 0v1475h208v-1475h-208z" />
<glyph unicode="&#xcf;" horiz-adv-x="516" d="M-80 1618v205h213v-205h-213zM154 0v1475h208v-1475h-208zM383 1618v205h213v-205h-213z" />
<glyph unicode="&#xd0;" horiz-adv-x="1449" d="M51 686v176h103v613h479q165 0 297 -44.5t228 -134t148 -231.5t52 -328q0 -176 -55 -316t-153.5 -232t-234 -140.5t-297.5 -48.5h-464v686h-103zM362 172h277q245 0 376.5 144.5t131.5 420.5q0 284 -135 428t-377 144h-273v-447h420v-176h-420v-514z" />
<glyph unicode="&#xd1;" horiz-adv-x="1472" d="M154 0v1475h276l703 -1225v1225h186v-1475h-264l-711 1235v-1235h-190zM457 1599v166q93 68 182 68q44 0 79 -12t54 -27t49 -27t64 -12q41 0 78.5 19t87.5 59v-166q-48 -35 -87 -51.5t-87 -16.5q-44 0 -78.5 12t-53.5 27t-49 27t-65 12q-76 0 -174 -78z" />
<glyph unicode="&#xd2;" horiz-adv-x="1585" d="M92 737q0 181 55 328.5t151 242.5t223 146t274 51t273 -49.5t221.5 -143.5t149.5 -241.5t54 -333.5q0 -179 -53.5 -325t-147.5 -242.5t-222 -148.5t-277 -52q-154 0 -282.5 52t-221.5 149t-145 242.5t-52 324.5zM305 737q0 -286 133 -442t355 -156t354.5 156t132.5 442 t-132.5 442t-354.5 156t-355 -156t-133 -442zM492 1853h253l209 -280h-176z" />
<glyph unicode="&#xd3;" horiz-adv-x="1585" d="M92 737q0 181 55 328.5t151 242.5t223 146t274 51t273 -49.5t221.5 -143.5t149.5 -241.5t54 -333.5q0 -179 -53.5 -325t-147.5 -242.5t-222 -148.5t-277 -52q-154 0 -282.5 52t-221.5 149t-145 242.5t-52 324.5zM305 737q0 -286 133 -442t355 -156t354.5 156t132.5 442 t-132.5 442t-354.5 156t-355 -156t-133 -442zM637 1573l209 280h254l-287 -280h-176z" />
<glyph unicode="&#xd4;" horiz-adv-x="1585" d="M92 737q0 181 55 328.5t151 242.5t223 146t274 51t273 -49.5t221.5 -143.5t149.5 -241.5t54 -333.5q0 -179 -53.5 -325t-147.5 -242.5t-222 -148.5t-277 -52q-154 0 -282.5 52t-221.5 149t-145 242.5t-52 324.5zM305 737q0 -286 133 -442t355 -156t354.5 156t132.5 442 t-132.5 442t-354.5 156t-355 -156t-133 -442zM426 1573l242 280h223l239 -280h-198l-154 168l-153 -168h-199z" />
<glyph unicode="&#xd5;" horiz-adv-x="1585" d="M92 737q0 181 55 328.5t151 242.5t223 146t274 51t273 -49.5t221.5 -143.5t149.5 -241.5t54 -333.5q0 -179 -53.5 -325t-147.5 -242.5t-222 -148.5t-277 -52q-154 0 -282.5 52t-221.5 149t-145 242.5t-52 324.5zM305 737q0 -286 133 -442t355 -156t354.5 156t132.5 442 t-132.5 442t-354.5 156t-355 -156t-133 -442zM489 1599v166q93 68 183 68q44 0 79 -12t54 -27t49 -27t64 -12q41 0 78 19t87 59v-166q-48 -35 -87 -51.5t-87 -16.5q-44 0 -78.5 12t-53.5 27t-48.5 27t-64.5 12q-77 0 -175 -78z" />
<glyph unicode="&#xd6;" horiz-adv-x="1585" d="M92 737q0 181 55 328.5t151 242.5t223 146t274 51t273 -49.5t221.5 -143.5t149.5 -241.5t54 -333.5q0 -179 -53.5 -325t-147.5 -242.5t-222 -148.5t-277 -52q-154 0 -282.5 52t-221.5 149t-145 242.5t-52 324.5zM305 737q0 -286 133 -442t355 -156t354.5 156t132.5 442 t-132.5 442t-354.5 156t-355 -156t-133 -442zM434 1618v205h213v-205h-213zM897 1618v205h213v-205h-213z" />
<glyph unicode="&#xd7;" d="M246 418l243 241l-243 242l123 123l243 -242l248 244l123 -123l-246 -244l246 -243l-123 -123l-248 244l-243 -242z" />
<glyph unicode="&#xd8;" horiz-adv-x="1585" d="M92 737q0 161 41.5 293t110.5 218.5t161 146t189 85t199 25.5q88 0 184 -22l74 196h182l-94 -256q161 -84 257.5 -255t96.5 -431q0 -161 -41.5 -293t-110 -218.5t-160.5 -146t-189 -85t-199 -25.5q-86 0 -183 23l-75 -217h-183l97 274q-163 84 -260 254.5t-97 433.5z M305 737q0 -184 56.5 -316t160.5 -204l398 1102q-62 16 -127 16q-222 0 -355 -156t-133 -442zM662 156q70 -17 131 -17q222 0 354.5 156t132.5 442q0 184 -56.5 315t-160.5 203z" />
<glyph unicode="&#xd9;" horiz-adv-x="1447" d="M143 494v981h209v-1000q0 -151 98.5 -240.5t276.5 -89.5t276.5 90t98.5 240v1000h203v-981q0 -243 -158.5 -384t-421.5 -141q-266 0 -424 143.5t-158 381.5zM440 1853h254l209 -280h-176z" />
<glyph unicode="&#xda;" horiz-adv-x="1447" d="M143 494v981h209v-1000q0 -151 98.5 -240.5t276.5 -89.5t276.5 90t98.5 240v1000h203v-981q0 -243 -158.5 -384t-421.5 -141q-266 0 -424 143.5t-158 381.5zM567 1573l209 280h254l-287 -280h-176z" />
<glyph unicode="&#xdb;" horiz-adv-x="1447" d="M143 494v981h209v-1000q0 -151 98.5 -240.5t276.5 -89.5t276.5 90t98.5 240v1000h203v-981q0 -243 -158.5 -384t-421.5 -141q-266 0 -424 143.5t-158 381.5zM377 1573l241 280h224l239 -280h-198l-154 168l-154 -168h-198z" />
<glyph unicode="&#xdc;" horiz-adv-x="1447" d="M143 494v981h209v-1000q0 -151 98.5 -240.5t276.5 -89.5t276.5 90t98.5 240v1000h203v-981q0 -243 -158.5 -384t-421.5 -141q-266 0 -424 143.5t-158 381.5zM383 1618v205h213v-205h-213zM846 1618v205h213v-205h-213z" />
<glyph unicode="&#xdd;" horiz-adv-x="1288" d="M0 1475h229l416 -709l430 709h213l-540 -889v-586h-207v586zM549 1573l209 280h254l-287 -280h-176z" />
<glyph unicode="&#xde;" horiz-adv-x="1261" d="M154 0v1475h208v-238h263q269 0 427 -128t158 -368t-157.5 -366.5t-427.5 -126.5h-263v-248h-208zM362 418h267q183 0 273.5 83t90.5 240t-90.5 241.5t-273.5 84.5h-267v-649z" />
<glyph unicode="&#xdf;" horiz-adv-x="1234" d="M143 0v1073q0 190 112 311t304 121q79 0 150 -19t128.5 -56t91.5 -98t34 -138q0 -62 -20 -110.5t-48.5 -79t-57.5 -56t-49 -55t-20 -62.5q0 -34 30 -64t120 -73q149 -71 212.5 -156.5t63.5 -211.5q0 -66 -27.5 -129.5t-78 -114.5t-129 -82t-171.5 -31q-166 0 -261 74 t-117 215h200q18 -123 178 -123q97 0 151 48t54 134q0 85 -37.5 136t-134.5 98q-141 69 -190 126t-49 159q0 45 19 84t46.5 67l55 56t46.5 64t19 77q0 67 -57 110t-152 43q-103 0 -161 -68.5t-58 -191.5v-1077h-197z" />
<glyph unicode="&#xe0;" horiz-adv-x="1126" d="M82 274q0 148 95 233.5t308 121.5l312 53v53q0 98 -64 151.5t-182 53.5q-217 0 -240 -172h-209q15 149 137.5 238.5t319.5 89.5q205 0 319.5 -100.5t114.5 -268.5v-727h-162l-24 145q-126 -176 -356 -176q-171 0 -270 85.5t-99 219.5zM221 1505h254l209 -280h-176z M291 295q0 -77 53.5 -118.5t153.5 -41.5q116 0 207.5 75t91.5 181v137l-265 -47q-136 -24 -188.5 -67.5t-52.5 -118.5z" />
<glyph unicode="&#xe1;" horiz-adv-x="1126" d="M82 274q0 148 95 233.5t308 121.5l312 53v53q0 98 -64 151.5t-182 53.5q-217 0 -240 -172h-209q15 149 137.5 238.5t319.5 89.5q205 0 319.5 -100.5t114.5 -268.5v-727h-162l-24 145q-126 -176 -356 -176q-171 0 -270 85.5t-99 219.5zM291 295q0 -77 53.5 -118.5 t153.5 -41.5q116 0 207.5 75t91.5 181v137l-265 -47q-136 -24 -188.5 -67.5t-52.5 -118.5zM459 1225l209 280h254l-287 -280h-176z" />
<glyph unicode="&#xe2;" horiz-adv-x="1126" d="M82 274q0 148 95 233.5t308 121.5l312 53v53q0 98 -64 151.5t-182 53.5q-217 0 -240 -172h-209q15 149 137.5 238.5t319.5 89.5q205 0 319.5 -100.5t114.5 -268.5v-727h-162l-24 145q-126 -176 -356 -176q-171 0 -270 85.5t-99 219.5zM205 1225l241 280h224l239 -280 h-198l-154 168l-154 -168h-198zM291 295q0 -77 53.5 -118.5t153.5 -41.5q116 0 207.5 75t91.5 181v137l-265 -47q-136 -24 -188.5 -67.5t-52.5 -118.5z" />
<glyph unicode="&#xe3;" horiz-adv-x="1126" d="M82 274q0 148 95 233.5t308 121.5l312 53v53q0 98 -64 151.5t-182 53.5q-217 0 -240 -172h-209q15 149 137.5 238.5t319.5 89.5q205 0 319.5 -100.5t114.5 -268.5v-727h-162l-24 145q-126 -176 -356 -176q-171 0 -270 85.5t-99 219.5zM262 1251v166q93 68 182 68 q44 0 79 -12t54 -27t49 -27t64 -12q41 0 78.5 19t87.5 59v-166q-48 -35 -87 -51.5t-87 -16.5q-44 0 -78.5 12t-53.5 27t-49 27t-65 12q-76 0 -174 -78zM291 295q0 -77 53.5 -118.5t153.5 -41.5q116 0 207.5 75t91.5 181v137l-265 -47q-136 -24 -188.5 -67.5t-52.5 -118.5z " />
<glyph unicode="&#xe4;" horiz-adv-x="1126" d="M82 274q0 148 95 233.5t308 121.5l312 53v53q0 98 -64 151.5t-182 53.5q-217 0 -240 -172h-209q15 149 137.5 238.5t319.5 89.5q205 0 319.5 -100.5t114.5 -268.5v-727h-162l-24 145q-126 -176 -356 -176q-171 0 -270 85.5t-99 219.5zM217 1270v205h213v-205h-213z M291 295q0 -77 53.5 -118.5t153.5 -41.5q116 0 207.5 75t91.5 181v137l-265 -47q-136 -24 -188.5 -67.5t-52.5 -118.5zM680 1270v205h213v-205h-213z" />
<glyph unicode="&#xe5;" horiz-adv-x="1126" d="M82 274q0 148 95 233.5t308 121.5l312 53v53q0 98 -64 151.5t-182 53.5q-217 0 -240 -172h-209q15 149 137.5 238.5t319.5 89.5q205 0 319.5 -100.5t114.5 -268.5v-727h-162l-24 145q-126 -176 -356 -176q-171 0 -270 85.5t-99 219.5zM291 295q0 -77 53.5 -118.5 t153.5 -41.5q116 0 207.5 75t91.5 181v137l-265 -47q-136 -24 -188.5 -67.5t-52.5 -118.5zM293 1434q0 106 72.5 175.5t195.5 69.5t196.5 -69.5t73.5 -175.5t-73.5 -176t-196.5 -70t-195.5 70t-72.5 176zM432 1434q0 -58 35 -93.5t94 -35.5t95 35.5t36 93.5q0 59 -35.5 94 t-95.5 35q-59 0 -94 -35.5t-35 -93.5z" />
<glyph unicode="&#xe6;" horiz-adv-x="1900" d="M82 279q0 279 391 329l324 41v86q0 96 -63 150.5t-183 54.5q-43 0 -81 -8.5t-73 -26.5t-58 -53.5t-28 -83.5h-209q19 154 141 241t316 87q259 0 367 -172q74 91 176 131.5t207 40.5q112 0 202 -34t157 -104t103.5 -185t36.5 -269h-811q3 -87 26 -154t55.5 -106.5 t76.5 -65t85 -34.5t85 -9q96 0 165 48.5t93 123.5h213q-40 -154 -167 -246t-310 -92q-298 0 -432 219q-57 -96 -165.5 -157.5t-248.5 -61.5q-176 0 -283.5 78.5t-107.5 231.5zM291 289q0 -67 49 -110.5t158 -43.5q106 0 199.5 69t99.5 171v121l-277 -35q-128 -17 -178.5 -57 t-50.5 -115zM1008 659h600q-10 137 -89 208t-206 71q-112 0 -195.5 -68t-109.5 -211z" />
<glyph unicode="&#xe7;" horiz-adv-x="1134" d="M82 524q0 265 137 418.5t365 153.5q184 0 309 -92.5t151 -253.5h-217q-20 87 -82.5 133.5t-156.5 46.5q-136 0 -216.5 -103.5t-80.5 -308.5q0 -187 84 -285t215 -98q100 0 166.5 54.5t81.5 152.5h215q-21 -145 -127 -247t-271 -122v-59q187 -42 187 -201q0 -99 -74 -161 t-190 -62q-103 0 -176.5 55t-88.5 152h154q5 -32 35 -57t78 -25q50 0 80 25.5t30 70.5q0 53 -44.5 78t-147.5 25l14 161q-193 24 -311.5 166.5t-118.5 382.5z" />
<glyph unicode="&#xe8;" horiz-adv-x="1185" d="M82 532q0 270 141.5 417t370.5 147q113 0 203 -35t157.5 -106.5t103.5 -189.5t36 -276h-811q12 -178 99.5 -266t227.5 -88q94 0 164 48t94 124h213q-41 -152 -166 -245t-311 -93q-115 0 -209.5 35.5t-164.5 104.5t-109 177t-39 246zM242 1505h254l209 -280h-177zM291 645 h602q-10 145 -89 219t-206 74q-122 0 -203 -74.5t-104 -218.5z" />
<glyph unicode="&#xe9;" horiz-adv-x="1185" d="M82 532q0 270 141.5 417t370.5 147q113 0 203 -35t157.5 -106.5t103.5 -189.5t36 -276h-811q12 -178 99.5 -266t227.5 -88q94 0 164 48t94 124h213q-41 -152 -166 -245t-311 -93q-115 0 -209.5 35.5t-164.5 104.5t-109 177t-39 246zM291 645h602q-10 145 -89 219t-206 74 q-122 0 -203 -74.5t-104 -218.5zM483 1225l209 280h254l-287 -280h-176z" />
<glyph unicode="&#xea;" horiz-adv-x="1185" d="M82 532q0 270 141.5 417t370.5 147q113 0 203 -35t157.5 -106.5t103.5 -189.5t36 -276h-811q12 -178 99.5 -266t227.5 -88q94 0 164 48t94 124h213q-41 -152 -166 -245t-311 -93q-115 0 -209.5 35.5t-164.5 104.5t-109 177t-39 246zM236 1225l241 280h223l240 -280h-199 l-153 168l-154 -168h-198zM291 645h602q-10 145 -89 219t-206 74q-122 0 -203 -74.5t-104 -218.5z" />
<glyph unicode="&#xeb;" horiz-adv-x="1185" d="M82 532q0 270 141.5 417t370.5 147q113 0 203 -35t157.5 -106.5t103.5 -189.5t36 -276h-811q12 -178 99.5 -266t227.5 -88q94 0 164 48t94 124h213q-41 -152 -166 -245t-311 -93q-115 0 -209.5 35.5t-164.5 104.5t-109 177t-39 246zM246 1270v205h213v-205h-213zM291 645 h602q-10 145 -89 219t-206 74q-122 0 -203 -74.5t-104 -218.5zM709 1270v205h213v-205h-213z" />
<glyph unicode="&#xec;" horiz-adv-x="483" d="M-78 1505h254l209 -280h-176zM143 0v1065h197v-1065h-197z" />
<glyph unicode="&#xed;" horiz-adv-x="483" d="M111 1225l208 280h254l-286 -280h-176zM143 0v1065h197v-1065h-197z" />
<glyph unicode="&#xee;" horiz-adv-x="483" d="M-111 1225l242 280h223l240 -280h-199l-153 168l-154 -168h-199zM143 0v1065h197v-1065h-197z" />
<glyph unicode="&#xef;" horiz-adv-x="483" d="M-96 1270v205h213v-205h-213zM143 0v1065h197v-1065h-197zM367 1270v205h213v-205h-213z" />
<glyph unicode="&#xf0;" horiz-adv-x="1189" d="M82 487q0 112 36 206.5t98.5 159t148 100.5t182.5 36q116 0 219 -53.5t141 -132.5q-37 267 -205 401l-61 -65h-211l139 145q-108 48 -254 70v184q223 -48 375 -125l60 62h211l-140 -146q275 -217 275 -674q0 -331 -137 -508.5t-375 -177.5q-221 0 -361.5 138t-140.5 380z M283 477q0 -93 24.5 -162t68 -107.5t95 -56.5t113.5 -18q138 0 227.5 95t89.5 253q0 160 -90.5 252t-239.5 92q-130 0 -209 -90.5t-79 -257.5z" />
<glyph unicode="&#xf1;" horiz-adv-x="1161" d="M143 0v1065h162l23 -135q58 81 142 123.5t181 42.5q176 0 276.5 -104.5t100.5 -297.5v-694h-197v692q0 118 -58.5 177t-168.5 59t-187 -74.5t-77 -196.5v-657h-197zM305 1251v166q93 68 182 68q44 0 79 -12t54 -27t49 -27t64 -12q41 0 78.5 19t87.5 59v-166 q-48 -35 -87 -51.5t-87 -16.5q-44 0 -78.5 12t-53.5 27t-49 27t-65 12q-76 0 -174 -78z" />
<glyph unicode="&#xf2;" horiz-adv-x="1214" d="M82 532q0 140 41 249t113.5 177t167 103t204.5 35q111 0 205 -35t166 -103t113 -177t41 -249q0 -137 -40 -245t-111 -177t-166.5 -105t-209.5 -36q-112 0 -207 36.5t-166 106t-111 177.5t-40 243zM274 1505h254l209 -280h-176zM287 532q0 -192 90 -297.5t233 -105.5 q145 0 231.5 105t86.5 298q0 195 -89 299.5t-231 104.5t-231.5 -105.5t-89.5 -298.5z" />
<glyph unicode="&#xf3;" horiz-adv-x="1214" d="M82 532q0 140 41 249t113.5 177t167 103t204.5 35q111 0 205 -35t166 -103t113 -177t41 -249q0 -137 -40 -245t-111 -177t-166.5 -105t-209.5 -36q-112 0 -207 36.5t-166 106t-111 177.5t-40 243zM287 532q0 -192 90 -297.5t233 -105.5q145 0 231.5 105t86.5 298 q0 195 -89 299.5t-231 104.5t-231.5 -105.5t-89.5 -298.5zM487 1225l209 280h254l-286 -280h-177z" />
<glyph unicode="&#xf4;" horiz-adv-x="1214" d="M82 532q0 140 41 249t113.5 177t167 103t204.5 35q111 0 205 -35t166 -103t113 -177t41 -249q0 -137 -40 -245t-111 -177t-166.5 -105t-209.5 -36q-112 0 -207 36.5t-166 106t-111 177.5t-40 243zM244 1225l241 280h224l239 -280h-198l-154 168l-154 -168h-198zM287 532 q0 -192 90 -297.5t233 -105.5q145 0 231.5 105t86.5 298q0 195 -89 299.5t-231 104.5t-231.5 -105.5t-89.5 -298.5z" />
<glyph unicode="&#xf5;" horiz-adv-x="1214" d="M82 532q0 140 41 249t113.5 177t167 103t204.5 35q111 0 205 -35t166 -103t113 -177t41 -249q0 -137 -40 -245t-111 -177t-166.5 -105t-209.5 -36q-112 0 -207 36.5t-166 106t-111 177.5t-40 243zM287 532q0 -192 90 -297.5t233 -105.5q145 0 231.5 105t86.5 298 q0 195 -89 299.5t-231 104.5t-231.5 -105.5t-89.5 -298.5zM303 1251v166q93 68 182 68q44 0 79 -12t54 -27t49 -27t64 -12q41 0 78.5 19t87.5 59v-166q-48 -35 -87 -51.5t-87 -16.5q-44 0 -78.5 12t-53.5 27t-49 27t-65 12q-76 0 -174 -78z" />
<glyph unicode="&#xf6;" horiz-adv-x="1214" d="M82 532q0 140 41 249t113.5 177t167 103t204.5 35q111 0 205 -35t166 -103t113 -177t41 -249q0 -137 -40 -245t-111 -177t-166.5 -105t-209.5 -36q-112 0 -207 36.5t-166 106t-111 177.5t-40 243zM268 1270v205h213v-205h-213zM287 532q0 -192 90 -297.5t233 -105.5 q145 0 231.5 105t86.5 298q0 195 -89 299.5t-231 104.5t-231.5 -105.5t-89.5 -298.5zM731 1270v205h213v-205h-213z" />
<glyph unicode="&#xf7;" d="M184 573v175h860v-175h-860zM496 131v238h237v-238h-237zM496 950v238h237v-238h-237z" />
<glyph unicode="&#xf8;" horiz-adv-x="1214" d="M82 532q0 140 41 249t113.5 177t167 103t204.5 35q84 0 158 -21l100 215h183l-131 -282q215 -148 215 -476q0 -137 -40 -245t-111 -177t-166.5 -105t-209.5 -36q-82 0 -155 21l-99 -215h-186l131 282q-102 71 -158.5 191t-56.5 284zM287 532q0 -198 98 -307l317 697 q-43 14 -94 14q-142 0 -231.5 -105.5t-89.5 -298.5zM516 141q46 -12 94 -12q145 0 231.5 105t86.5 298q0 196 -97 308z" />
<glyph unicode="&#xf9;" horiz-adv-x="1153" d="M133 371v694h197v-698q0 -116 57.5 -173t163.5 -57q126 0 194 81t68 198v649h197v-1065h-162l-23 123q-115 -154 -319 -154q-171 0 -272 102t-101 300zM252 1505h254l209 -280h-176z" />
<glyph unicode="&#xfa;" horiz-adv-x="1153" d="M133 371v694h197v-698q0 -116 57.5 -173t163.5 -57q126 0 194 81t68 198v649h197v-1065h-162l-23 123q-115 -154 -319 -154q-171 0 -272 102t-101 300zM442 1225l209 280h254l-287 -280h-176z" />
<glyph unicode="&#xfb;" horiz-adv-x="1153" d="M133 371v694h197v-698q0 -116 57.5 -173t163.5 -57q126 0 194 81t68 198v649h197v-1065h-162l-23 123q-115 -154 -319 -154q-171 0 -272 102t-101 300zM221 1225l242 280h223l240 -280h-199l-154 168l-153 -168h-199z" />
<glyph unicode="&#xfc;" horiz-adv-x="1153" d="M133 371v694h197v-698q0 -116 57.5 -173t163.5 -57q126 0 194 81t68 198v649h197v-1065h-162l-23 123q-115 -154 -319 -154q-171 0 -272 102t-101 300zM231 1270v205h213v-205h-213zM694 1270v205h213v-205h-213z" />
<glyph unicode="&#xfd;" horiz-adv-x="1052" d="M20 1065h213l302 -905l301 905h196l-370 -1079q-27 -79 -48.5 -130.5t-52 -104.5t-64 -82.5t-80 -48.5t-104.5 -19q-54 0 -127 18v160q62 -15 103 -15q66 0 101 48.5t85 187.5h-63zM426 1225l209 280h254l-287 -280h-176z" />
<glyph unicode="&#xfe;" horiz-adv-x="1247" d="M143 -369v1844h197v-557q126 178 356 178q70 0 134.5 -17.5t126.5 -59t107.5 -103.5t73 -158.5t27.5 -216.5q0 -140 -37.5 -250.5t-103.5 -180t-153 -105.5t-189 -36q-221 0 -340 166v-504h-199zM330 545q0 -79 18 -149t54.5 -129.5t100.5 -94.5t148 -35q48 0 90 11.5 t83.5 40.5t71 74t47.5 117.5t18 164.5q0 88 -19.5 156.5t-50 110.5t-72.5 69t-83 37t-85 10q-149 0 -235 -106t-86 -277z" />
<glyph unicode="&#xff;" horiz-adv-x="1052" d="M20 1065h213l302 -905l301 905h196l-370 -1079q-27 -79 -48.5 -130.5t-52 -104.5t-64 -82.5t-80 -48.5t-104.5 -19q-54 0 -127 18v160q62 -15 103 -15q66 0 101 48.5t85 187.5h-63zM188 1270v205h213v-205h-213zM651 1270v205h213v-205h-213z" />
<glyph unicode="&#x152;" horiz-adv-x="2029" d="M92 737q0 161 41.5 293t110.5 218.5t161 146t189 85t199 25.5q129 0 256 -30h878v-177h-670v-462h611v-172h-611v-488h670v-176h-878q-135 -31 -256 -31q-105 0 -202.5 24.5t-189.5 82.5t-159.5 144t-108.5 219t-41 298zM305 737q0 -287 131.5 -442.5t356.5 -155.5 q144 0 256 49v1098q-112 49 -256 49q-222 0 -355 -156t-133 -442z" />
<glyph unicode="&#x153;" horiz-adv-x="2023" d="M82 532q0 130 35 232t89.5 163t127 100.5t139.5 54t135 14.5q55 0 110 -10.5t112.5 -33t110.5 -65.5t91 -102q70 108 178 159.5t222 51.5q112 0 202 -34.5t157 -106t103.5 -190t36.5 -276.5h-811q5 -83 28.5 -147.5t56 -102.5t76 -62.5t83.5 -33t84 -8.5q96 0 165 48.5 t93 123.5h213q-40 -154 -167 -246t-310 -92q-124 0 -231.5 51.5t-178.5 159.5q-38 -59 -91 -102t-110.5 -65.5t-112.5 -33t-110 -10.5q-69 0 -135.5 14.5t-139 54t-127 100t-89.5 162.5t-35 232zM287 532q0 -104 27 -183.5t73.5 -126t102.5 -70t120 -23.5t119.5 22.5t101 69 t71.5 126.5t26 185t-27 185t-73 126.5t-101.5 69.5t-118.5 23t-119 -23.5t-102 -70.5t-73 -126.5t-27 -183.5zM1128 645h603q-10 145 -89 219t-206 74q-116 0 -200.5 -71.5t-107.5 -221.5z" />
<glyph unicode="&#x178;" horiz-adv-x="1288" d="M0 1475h229l416 -709l430 709h213l-540 -889v-586h-207v586zM307 1618v205h213v-205h-213zM770 1618v205h213v-205h-213z" />
<glyph unicode="&#x2c6;" horiz-adv-x="819" d="M57 1225l242 280h223l240 -280h-199l-153 168l-154 -168h-199z" />
<glyph unicode="&#x2dc;" horiz-adv-x="716" d="M61 1251v166q93 68 183 68q55 0 94.5 -19.5t73.5 -39t77 -19.5q41 0 78.5 19t87.5 59v-166q-48 -35 -87 -51.5t-87 -16.5q-44 0 -78.5 12t-53.5 27t-48.5 27t-64.5 12q-77 0 -175 -78z" />
<glyph unicode="&#x2000;" horiz-adv-x="942" />
<glyph unicode="&#x2001;" horiz-adv-x="1884" />
<glyph unicode="&#x2002;" horiz-adv-x="942" />
<glyph unicode="&#x2003;" horiz-adv-x="1884" />
<glyph unicode="&#x2004;" horiz-adv-x="628" />
<glyph unicode="&#x2005;" horiz-adv-x="471" />
<glyph unicode="&#x2006;" horiz-adv-x="314" />
<glyph unicode="&#x2007;" horiz-adv-x="314" />
<glyph unicode="&#x2008;" horiz-adv-x="235" />
<glyph unicode="&#x2009;" horiz-adv-x="376" />
<glyph unicode="&#x200a;" horiz-adv-x="104" />
<glyph unicode="&#x2010;" horiz-adv-x="1105" d="M184 573v175h738v-175h-738z" />
<glyph unicode="&#x2011;" horiz-adv-x="1105" d="M184 573v175h738v-175h-738z" />
<glyph unicode="&#x2012;" horiz-adv-x="1105" d="M184 573v175h738v-175h-738z" />
<glyph unicode="&#x2013;" horiz-adv-x="942" d="M61 573v175h820v-175h-820z" />
<glyph unicode="&#x2014;" horiz-adv-x="1351" d="M61 573v175h1229v-175h-1229z" />
<glyph unicode="&#x2018;" horiz-adv-x="593" d="M178 930v207q0 84 23 148.5t63 102.5t85 59.5t97 27.5v-103q-127 -27 -127 -205h97v-237h-238z" />
<glyph unicode="&#x2019;" horiz-adv-x="593" d="M147 930v102q127 27 127 205h-96v238h238v-207q0 -84 -23.5 -148.5t-63.5 -102.5t-85 -59.5t-97 -27.5z" />
<glyph unicode="&#x201a;" horiz-adv-x="593" d="M147 -205q127 27 127 205h-96v238h238v-207q0 -84 -23.5 -148.5t-63.5 -102.5t-85 -59.5t-97 -27.5v102z" />
<glyph unicode="&#x201c;" horiz-adv-x="944" d="M178 930v207q0 84 23 148.5t63 102.5t85 59.5t97 27.5v-103q-127 -27 -127 -205h97v-237h-238zM528 930v207q0 84 23.5 148.5t63.5 102.5t85 59.5t97 27.5v-103q-127 -27 -127 -205h96v-237h-238z" />
<glyph unicode="&#x201d;" horiz-adv-x="944" d="M147 930v102q127 27 127 205h-96v238h238v-207q0 -84 -23.5 -148.5t-63.5 -102.5t-85 -59.5t-97 -27.5zM498 930v102q127 27 127 205h-97v238h238v-207q0 -84 -23 -148.5t-63 -102.5t-85 -59.5t-97 -27.5z" />
<glyph unicode="&#x201e;" horiz-adv-x="944" d="M147 -205q127 27 127 205h-96v238h238v-207q0 -84 -23.5 -148.5t-63.5 -102.5t-85 -59.5t-97 -27.5v102zM498 -205q127 27 127 205h-97v238h238v-207q0 -84 -23 -148.5t-63 -102.5t-85 -59.5t-97 -27.5v102z" />
<glyph unicode="&#x2022;" horiz-adv-x="614" d="M129 483v338h356v-338h-356z" />
<glyph unicode="&#x2026;" horiz-adv-x="1843" d="M188 0v238h238v-238h-238zM803 0v238h237v-238h-237zM1417 0v238h238v-238h-238z" />
<glyph unicode="&#x202f;" horiz-adv-x="376" />
<glyph unicode="&#x2039;" horiz-adv-x="636" d="M123 645l254 420h137l-160 -426l140 -455h-138z" />
<glyph unicode="&#x203a;" horiz-adv-x="636" d="M123 1065h137l254 -420l-233 -461h-138l140 455z" />
<glyph unicode="&#x205f;" horiz-adv-x="471" />
<glyph unicode="&#x20ac;" d="M6 481l41 160h84q-2 25 -2 76q0 43 2 63h-125l41 160h100q46 254 198 389t374 135q215 0 344.5 -112t157.5 -289h-213q-24 106 -97.5 166.5t-191.5 60.5q-296 0 -359 -350h498l-41 -160h-475v-63q0 -51 2 -76h432l-41 -160h-373q35 -166 126.5 -251t232.5 -85 q113 0 186 59t101 173h215q-20 -87 -60.5 -160t-102 -129t-149.5 -87.5t-194 -31.5q-223 0 -371.5 132t-195.5 380h-144z" />
<glyph unicode="&#x2122;" horiz-adv-x="1720" d="M51 1339v136h932l174 -615l164 615h246v-811h-150v655l-182 -655h-162l-194 655v-655h-146v675h-278v-675h-158v675h-246z" />
<glyph unicode="&#x25fc;" horiz-adv-x="1064" d="M0 0v1065h1065v-1065h-1065z" />
<glyph unicode="&#xfb01;" horiz-adv-x="1091" d="M41 897v168h158v119q0 140 83.5 225.5t256.5 85.5q117 0 254 -35v-170q-144 35 -224 35q-90 0 -132 -30.5t-42 -98.5v-131h553v-1065h-196v897h-357v-897h-196v897h-158z" />
<glyph unicode="&#xfb02;" horiz-adv-x="1122" d="M41 897v168h158v119q0 140 83.5 225.5t256.5 85.5q111 0 245 -33l195 13v-1475h-197v1294q-128 31 -213 31q-90 0 -132 -30.5t-42 -98.5v-131h209v-168h-209v-897h-196v897h-158z" />
<glyph unicode="&#xfb03;" horiz-adv-x="1679" d="M41 897v168h158v88q0 67 19.5 125.5t59 105.5t106.5 74t155 27q154 0 331 -66q89 86 256 86q116 0 254 -35v-170q-144 35 -223 35q-90 0 -132 -30.5t-42 -98.5v-141h553v-1065h-197v897h-356v-897h-197v897h-391v-897h-196v897h-158zM395 1065h391v129q0 52 11 92 q-119 39 -232 39q-170 0 -170 -160v-100z" />
<glyph unicode="&#xfb04;" horiz-adv-x="1710" d="M41 897v168h158v88q0 67 19.5 125.5t59 105.5t106.5 74t155 27q154 0 331 -66q89 86 256 86q116 0 246 -32l195 12v-1485h-197v1305q-124 30 -213 30q-90 0 -132 -30.5t-42 -98.5v-141h209v-168h-209v-897h-197v897h-391v-897h-196v897h-158zM395 1065h391v129 q0 52 11 92q-119 39 -232 39q-170 0 -170 -160v-100z" />
</font>
</defs>
</svg>
